<svg version="1.1" id="Layer_1" xmlns="http://www.w3.org/2000/svg" xmlns:xlink="http://www.w3.org/1999/xlink" x="0px" y="0px"
	 width="100%" viewBox="0 0 640 640" enable-background="new 0 0 640 640" xml:space="preserve">
<path fill="#000000" opacity="1.000000" stroke="none" 
	d="
M357.000000,0.999994 
	C451.593964,1.000000 546.187927,1.000000 641.000000,1.000000 
	C641.000000,96.020782 641.000000,191.041733 640.661621,286.873657 
	C639.885315,286.846375 639.180725,286.047241 639.051208,285.163757 
	C637.920105,277.451416 636.891785,269.723969 635.896301,261.593994 
	C635.591064,258.960419 635.352051,256.703247 634.834717,254.511810 
	C627.009521,221.363068 615.610535,189.591614 598.132080,159.778305 
	C586.528442,143.371490 575.888672,126.657478 563.460815,111.399948 
	C553.688171,99.402191 541.917236,88.981003 530.613037,78.305176 
	C525.626587,73.595963 519.597168,69.991165 513.902710,65.578857 
	C513.064270,64.569412 512.445068,63.754997 511.652649,63.178898 
	C488.843140,46.595268 464.674622,32.487495 437.850769,22.568127 
	C411.978180,12.751798 385.774628,5.405561 358.385010,2.870447 
	C357.870056,2.822783 357.459351,1.648578 357.000000,0.999994 
z"/>
<path fill="#000000" opacity="1.000000" stroke="none" 
	d="
M0.999999,285.000000 
	C1.000000,190.406281 1.000000,95.812553 1.000000,1.000000 
	C95.354118,1.000000 189.708405,1.000000 284.656616,1.413129 
	C281.648865,2.550207 278.038605,3.233987 274.447113,4.005182 
	C260.296753,7.043651 246.152298,10.109592 231.631927,13.231806 
	C229.564484,13.837739 227.878357,14.402568 226.175888,14.912839 
	C203.529694,21.700474 181.804718,30.749762 161.567245,42.942406 
	C149.300110,50.333092 137.750717,58.915096 125.568954,67.102417 
	C124.546082,67.627220 123.707008,67.878098 123.138657,68.415352 
	C109.963173,80.869942 96.520775,93.060883 83.739960,105.909569 
	C67.494461,122.241325 54.710365,141.248657 42.997345,161.415482 
	C36.861164,173.806015 30.360722,185.666672 25.104197,198.055161 
	C13.636425,225.082138 6.182529,253.255722 2.917100,282.492554 
	C2.817026,283.388580 1.662775,284.166840 0.999999,285.000000 
z"/>
<path fill="#000000" opacity="1.000000" stroke="none" 
	d="
M641.000000,356.000000 
	C641.000000,450.926941 641.000000,545.853882 641.000000,641.000000 
	C546.645874,641.000000 452.291595,641.000000 357.138306,640.657410 
	C357.348236,639.878479 358.321808,639.196716 359.371826,639.045227 
	C366.945343,637.953003 374.738739,637.740234 382.078125,635.797119 
	C400.453888,630.932068 418.931732,626.144470 436.780396,619.697327 
	C450.337463,614.800293 462.990082,607.399353 476.410645,601.059326 
	C487.813629,594.012695 499.398438,587.737122 509.750000,579.844116 
	C522.711548,569.961182 534.660339,558.750000 547.356812,547.979126 
	C556.209290,538.295227 564.973694,528.930908 573.203735,519.118347 
	C577.625122,513.846802 581.128967,507.805695 585.367737,501.969299 
	C586.532959,500.639069 587.491333,499.515747 588.203674,498.253540 
	C595.195557,485.865173 602.146362,473.453674 609.430542,460.883301 
	C613.738647,451.368286 618.072327,442.147552 621.604309,432.629364 
	C624.570801,424.635132 626.603149,416.294312 629.393433,407.913513 
	C630.493835,404.769409 631.444824,401.853119 631.972656,398.862152 
	C634.382996,385.203400 636.650024,371.519318 639.077881,357.863800 
	C639.204590,357.151123 640.336182,356.617157 641.000000,356.000000 
z"/>
<path fill="#000000" opacity="1.000000" stroke="none" 
	d="
M285.000000,641.000000 
	C190.406281,641.000000 95.812553,641.000000 1.000000,641.000000 
	C1.000000,546.645874 1.000000,452.291595 1.416995,357.392883 
	C3.224372,364.632965 4.378843,372.469055 6.065728,380.188782 
	C8.106452,389.527802 10.597778,398.768402 12.931625,408.451538 
	C18.645985,429.827759 26.386913,449.983948 36.946045,469.400208 
	C38.655350,472.782471 40.111992,475.933655 41.984215,478.814728 
	C49.210976,489.935608 56.570469,500.970276 64.035019,512.346375 
	C75.838936,529.071472 89.606461,543.602356 104.124313,557.459839 
	C104.553207,557.869202 105.338974,557.904663 106.108963,558.409241 
	C116.305931,566.850586 126.037712,575.431335 136.496002,583.009460 
	C145.208237,589.322510 154.773041,594.458862 164.156174,600.397095 
	C177.008041,606.685669 189.445679,613.218506 202.366028,618.590332 
	C228.031006,629.261169 254.812622,635.925903 282.455658,639.077942 
	C283.364990,639.181702 284.154602,640.335632 285.000000,641.000000 
z"/>
<path fill="#219241" opacity="1.000000" stroke="none" 
	d="
M285.468658,641.000000 
	C284.154602,640.335632 283.364990,639.181702 282.455658,639.077942 
	C254.812622,635.925903 228.031006,629.261169 202.366028,618.590332 
	C189.445679,613.218506 177.008041,606.685669 164.186218,600.025879 
	C165.103989,598.035339 165.960403,596.368774 167.319214,595.427429 
	C170.040970,593.541992 173.044601,592.065369 175.919617,590.398804 
	C204.521805,573.819031 233.091202,557.182312 261.729340,540.664917 
	C299.722076,518.752075 337.787506,496.965240 375.749420,474.999359 
	C378.441498,473.441650 380.540527,470.859039 383.133270,468.482971 
	C396.615692,462.689087 409.276154,455.886017 419.939056,446.306854 
	C430.517731,436.803436 440.054352,426.140076 450.232849,416.317932 
	C449.588715,418.424683 448.759705,420.198944 447.650085,422.167053 
	C437.176147,440.214264 426.982849,458.067627 416.515198,476.116455 
	C403.501740,498.544922 390.762665,520.777893 377.761871,543.231079 
	C359.590088,574.480103 341.672241,605.504395 323.795532,636.552307 
	C323.005402,637.924561 322.590027,639.512573 322.000000,641.000000 
	C309.979095,641.000000 297.958221,641.000000 285.468658,641.000000 
z"/>
<path fill="#E0382C" opacity="1.000000" stroke="none" 
	d="
M232.005646,13.165337 
	C246.152298,10.109592 260.296753,7.043651 274.447113,4.005182 
	C278.038605,3.233987 281.648865,2.550207 285.125244,1.413129 
	C303.687561,1.000000 322.375122,1.000000 341.522339,1.426575 
	C341.654663,6.809173 341.050507,11.764771 341.042908,16.721285 
	C340.969055,64.759033 340.995300,112.796944 340.533142,160.887543 
	C337.267456,161.020142 334.461548,161.100006 331.217163,161.207031 
	C316.400360,162.365936 301.880432,162.601013 287.677612,164.844116 
	C267.451233,168.038498 249.251221,177.007187 231.992615,187.381409 
	C231.997467,129.003647 232.001556,71.084488 232.005646,13.165337 
z"/>
<path fill="#FBBE0B" opacity="1.000000" stroke="none" 
	d="
M331.655670,161.179871 
	C334.461548,161.100006 337.267456,161.020142 340.999481,160.944397 
	C373.949188,160.910355 405.972778,160.872177 438.462402,160.890076 
	C446.620514,161.019913 454.312592,161.093674 462.090454,161.490784 
	C462.962585,162.626038 463.614441,163.669250 464.554932,164.216049 
	C487.825531,177.745575 511.120697,191.232788 534.423767,204.706284 
	C563.480286,221.506302 592.523865,238.329071 621.635498,255.033096 
	C626.198364,257.651276 631.092224,259.692841 635.833008,262.001007 
	C636.891785,269.723969 637.920105,277.451416 639.051208,285.163757 
	C639.180725,286.047241 639.885315,286.846375 640.661621,287.342285 
	C641.000000,302.020905 641.000000,317.041779 640.628906,332.509460 
	C638.733887,332.346588 637.108337,331.912933 635.701294,331.100861 
	C613.546570,318.314911 591.434021,305.455963 569.283813,292.662170 
	C532.606995,271.477844 495.922546,250.306458 459.200653,229.200424 
	C455.819214,227.256912 452.144867,225.823059 448.346191,223.961655 
	C447.437286,223.013611 446.766174,222.274551 446.143494,221.496689 
	C424.108551,193.971191 396.034149,175.565964 361.978577,166.628281 
	C352.076355,164.029495 341.774384,162.953766 331.655670,161.179871 
z"/>
<path fill="#E43C2F" opacity="1.000000" stroke="none" 
	d="
M437.996338,160.833984 
	C405.972778,160.872177 373.949188,160.910355 341.459290,160.891663 
	C340.995300,112.796944 340.969055,64.759033 341.042908,16.721285 
	C341.050507,11.764771 341.654663,6.809173 341.990967,1.426575 
	C346.689240,1.000000 351.378510,1.000000 356.533875,0.999994 
	C357.459351,1.648578 357.870056,2.822783 358.385010,2.870447 
	C385.774628,5.405561 411.978180,12.751798 437.841125,23.044294 
	C438.014954,69.500748 438.005646,115.167374 437.996338,160.833984 
z"/>
<path fill="#FBBF11" opacity="1.000000" stroke="none" 
	d="
M448.606537,224.152557 
	C452.144867,225.823059 455.819214,227.256912 459.200653,229.200424 
	C495.922546,250.306458 532.606995,271.477844 569.283813,292.662170 
	C591.434021,305.455963 613.546570,318.314911 635.701294,331.100861 
	C637.108337,331.912933 638.733887,332.346588 640.628906,332.978149 
	C641.000000,340.354248 641.000000,347.708496 641.000000,355.531372 
	C640.336182,356.617157 639.204590,357.151123 639.077881,357.863800 
	C636.650024,371.519318 634.382996,385.203400 631.972656,398.862152 
	C631.444824,401.853119 630.493835,404.769409 629.217957,407.617310 
	C627.064697,406.140503 625.587830,404.499146 623.772339,403.436066 
	C612.309082,396.723907 600.757690,390.162720 589.259827,383.509369 
	C558.216736,365.545929 527.206177,347.526276 496.129395,329.621460 
	C491.285645,326.830719 486.162201,324.525391 481.102417,321.536316 
	C480.822357,305.575165 478.615143,290.398773 474.285797,275.475464 
	C468.857513,256.764069 459.714020,239.984772 448.606537,224.152557 
z"/>
<path fill="#2EA14D" opacity="1.000000" stroke="none" 
	d="
M12.894099,408.051575 
	C10.597778,398.768402 8.106452,389.527802 6.065728,380.188782 
	C4.378843,372.469055 3.224372,364.632965 1.416995,356.924225 
	C1.000000,344.645782 1.000000,332.291534 1.371113,319.446808 
	C2.841612,318.611938 4.047963,318.454315 5.024267,317.895111 
	C18.836191,309.983856 32.617126,302.018524 46.405075,294.065399 
	C64.932610,283.378479 83.459747,272.690826 102.248657,262.223816 
	C111.009995,276.961395 119.509735,291.478729 128.020020,306.356506 
	C132.965012,315.478394 137.899475,324.239746 142.496002,333.075439 
	C134.650864,337.401672 127.117256,341.607758 119.641411,345.914154 
	C96.906013,359.010773 74.167686,372.102661 51.480846,385.283081 
	C38.567822,392.785187 25.753098,400.456482 12.894099,408.051575 
z"/>
<path fill="#31A550" opacity="1.000000" stroke="none" 
	d="
M101.987061,262.003510 
	C83.459747,272.690826 64.932610,283.378479 46.405075,294.065399 
	C32.617126,302.018524 18.836191,309.983856 5.024267,317.895111 
	C4.047963,318.454315 2.841612,318.611938 1.371113,318.978149 
	C1.000000,307.979095 1.000000,296.958221 0.999999,285.468658 
	C1.662775,284.166840 2.817026,283.388580 2.917100,282.492554 
	C6.182529,253.255722 13.636425,225.082138 25.104197,198.055161 
	C30.360722,185.666672 36.861164,173.806015 43.306751,161.526047 
	C48.637939,169.493454 53.543293,177.592773 58.266270,185.797073 
	C72.877174,211.177750 87.418633,236.598389 101.987061,262.003510 
z"/>
<path fill="#FCC72C" opacity="1.000000" stroke="none" 
	d="
M322.468689,641.000000 
	C322.590027,639.512573 323.005402,637.924561 323.795532,636.552307 
	C341.672241,605.504395 359.590088,574.480103 378.052673,543.406311 
	C406.182831,559.297363 433.792053,575.179199 461.309723,591.218079 
	C466.410919,594.191284 471.142792,597.798157 476.045105,601.112549 
	C462.990082,607.399353 450.337463,614.800293 436.780396,619.697327 
	C418.931732,626.144470 400.453888,630.932068 382.078125,635.797119 
	C374.738739,637.740234 366.945343,637.953003 359.371826,639.045227 
	C358.321808,639.196716 357.348236,639.878479 356.669647,640.657410 
	C345.645782,641.000000 334.291534,641.000000 322.468689,641.000000 
z"/>
<path fill="#E63F31" opacity="1.000000" stroke="none" 
	d="
M438.462402,160.890076 
	C438.005646,115.167374 438.014954,69.500748 438.033936,23.357956 
	C464.674622,32.487495 488.843140,46.595268 511.652649,63.178898 
	C512.445068,63.754997 513.064270,64.569412 513.815857,65.995644 
	C513.578369,69.344727 513.043335,71.970413 513.037720,74.597237 
	C512.976257,103.342934 512.997620,132.088806 512.530701,160.887314 
	C495.378174,161.015808 478.691437,161.091629 462.004669,161.167450 
	C454.312592,161.093674 446.620514,161.019913 438.462402,160.890076 
z"/>
<path fill="#FBBD06" opacity="1.000000" stroke="none" 
	d="
M462.090454,161.490784 
	C478.691437,161.091629 495.378174,161.015808 512.996826,160.942963 
	C540.474243,160.961990 567.019714,160.993439 593.565125,160.955704 
	C595.152161,160.953461 596.738464,160.397415 598.325073,160.099060 
	C615.610535,189.591614 627.009521,221.363068 634.834717,254.511810 
	C635.352051,256.703247 635.591064,258.960419 635.896301,261.593994 
	C631.092224,259.692841 626.198364,257.651276 621.635498,255.033096 
	C592.523865,238.329071 563.480286,221.506302 534.423767,204.706284 
	C511.120697,191.232788 487.825531,177.745575 464.554932,164.216049 
	C463.614441,163.669250 462.962585,162.626038 462.090454,161.490784 
z"/>
<path fill="#E84133" opacity="1.000000" stroke="none" 
	d="
M598.132080,159.778320 
	C596.738464,160.397415 595.152161,160.953461 593.565125,160.955704 
	C567.019714,160.993439 540.474243,160.961990 513.462646,160.890289 
	C512.997620,132.088806 512.976257,103.342934 513.037720,74.597237 
	C513.043335,71.970413 513.578369,69.344727 513.954407,66.301735 
	C519.597168,69.991165 525.626587,73.595963 530.613037,78.305176 
	C541.917236,88.981003 553.688171,99.402191 563.460815,111.399948 
	C575.888672,126.657478 586.528442,143.371490 598.132080,159.778320 
z"/>
<path fill="#DD3529" opacity="1.000000" stroke="none" 
	d="
M142.833939,333.001129 
	C137.899475,324.239746 132.965012,315.478394 128.243973,306.009399 
	C128.638260,302.999207 128.976349,300.696716 128.977203,298.394073 
	C129.004883,224.209229 129.000244,150.024368 128.998367,75.839516 
	C128.998337,74.176399 129.370041,72.374512 128.849426,70.889343 
	C128.332382,69.414337 126.906303,68.257980 125.878860,66.961884 
	C137.750717,58.915096 149.300110,50.333092 161.567245,42.942406 
	C181.804718,30.749762 203.529694,21.700474 226.175888,14.912839 
	C227.878357,14.402568 229.564484,13.837739 231.631927,13.231806 
	C232.001556,71.084488 231.997467,129.003647 231.739349,187.613083 
	C220.648972,198.060806 208.504654,206.718735 199.211716,217.773575 
	C166.030151,257.246124 154.615219,302.872314 164.638367,353.523804 
	C166.616043,363.517944 170.246475,373.185089 172.756073,382.995880 
	C170.104721,379.154968 167.793564,375.332062 165.522629,371.485413 
	C157.951950,358.661896 150.395721,345.829895 142.833939,333.001129 
z"/>
<path fill="#DA3227" opacity="1.000000" stroke="none" 
	d="
M125.568954,67.102417 
	C126.906303,68.257980 128.332382,69.414337 128.849426,70.889343 
	C129.370041,72.374512 128.998337,74.176399 128.998367,75.839516 
	C129.000244,150.024368 129.004883,224.209229 128.977203,298.394073 
	C128.976349,300.696716 128.638260,302.999207 128.233429,305.648926 
	C119.509735,291.478729 111.009995,276.961395 102.248657,262.223816 
	C87.418633,236.598389 72.877174,211.177750 58.266270,185.797073 
	C53.543293,177.592773 48.637939,169.493454 43.506599,161.235550 
	C54.710365,141.248657 67.494461,122.241325 83.739960,105.909569 
	C96.520775,93.060883 109.963173,80.869942 123.138657,68.415352 
	C123.707008,67.878098 124.546082,67.627220 125.568954,67.102417 
z"/>
<path fill="#FCC525" opacity="1.000000" stroke="none" 
	d="
M476.410645,601.059326 
	C471.142792,597.798157 466.410919,594.191284 461.309723,591.218079 
	C433.792053,575.179199 406.182831,559.297363 378.314392,543.186096 
	C390.762665,520.777893 403.501740,498.544922 416.901855,476.152100 
	C419.120544,476.538788 420.810150,476.856232 422.216278,477.665924 
	C446.688141,491.757599 471.035675,506.067688 495.600677,519.994385 
	C512.599304,529.631409 529.887512,538.757629 547.046265,548.112122 
	C534.660339,558.750000 522.711548,569.961182 509.750000,579.844116 
	C499.398438,587.737122 487.813629,594.012695 476.410645,601.059326 
z"/>
<path fill="#FCC31F" opacity="1.000000" stroke="none" 
	d="
M547.356812,547.979126 
	C529.887512,538.757629 512.599304,529.631409 495.600677,519.994385 
	C471.035675,506.067688 446.688141,491.757599 422.216278,477.665924 
	C420.810150,476.856232 419.120544,476.538788 417.176208,475.956604 
	C426.982849,458.067627 437.176147,440.214264 448.004364,422.237091 
	C464.927673,431.409882 481.238770,440.666901 497.499115,450.012268 
	C522.551392,464.410706 547.602783,478.811493 572.569031,493.358063 
	C576.943359,495.906769 580.898193,499.175507 585.046753,502.111755 
	C581.128967,507.805695 577.625122,513.846802 573.203735,519.118347 
	C564.973694,528.930908 556.209290,538.295227 547.356812,547.979126 
z"/>
<path fill="#FBC116" opacity="1.000000" stroke="none" 
	d="
M481.168121,321.995575 
	C486.162201,324.525391 491.285645,326.830719 496.129395,329.621460 
	C527.206177,347.526276 558.216736,365.545929 589.259827,383.509369 
	C600.757690,390.162720 612.309082,396.723907 623.772339,403.436066 
	C625.587830,404.499146 627.064697,406.140503 628.873535,407.810730 
	C626.603149,416.294312 624.570801,424.635132 621.604309,432.629364 
	C618.072327,442.147552 613.738647,451.368286 609.133423,460.707703 
	C606.878662,459.566864 605.311890,458.316803 603.596313,457.323669 
	C580.873535,444.169739 558.122803,431.064331 535.393677,417.921387 
	C513.529541,405.278625 491.682526,392.606384 469.904907,379.576691 
	C477.170868,360.812622 480.474915,341.659332 481.168121,321.995575 
z"/>
<path fill="#FBC21A" opacity="1.000000" stroke="none" 
	d="
M469.827972,379.947113 
	C491.682526,392.606384 513.529541,405.278625 535.393677,417.921387 
	C558.122803,431.064331 580.873535,444.169739 603.596313,457.323669 
	C605.311890,458.316803 606.878662,459.566864 608.811768,460.873108 
	C602.146362,473.453674 595.195557,485.865173 588.203674,498.253540 
	C587.491333,499.515747 586.532959,500.639069 585.367737,501.969299 
	C580.898193,499.175507 576.943359,495.906769 572.569031,493.358063 
	C547.602783,478.811493 522.551392,464.410706 497.499115,450.012268 
	C481.238770,440.666901 464.927673,431.409882 448.284973,422.043243 
	C448.759705,420.198944 449.588715,418.424683 450.215881,416.360413 
	C450.014008,416.070435 449.927338,416.039703 450.288452,416.070618 
	C450.724823,415.647156 450.800079,415.192749 451.070465,414.455078 
	C457.453064,402.763580 463.640503,391.355347 469.827972,379.947113 
z"/>
<path fill="#249544" opacity="1.000000" stroke="none" 
	d="
M382.915314,468.752991 
	C380.540527,470.859039 378.441498,473.441650 375.749420,474.999359 
	C337.787506,496.965240 299.722076,518.752075 261.729340,540.664917 
	C233.091202,557.182312 204.521805,573.819031 175.919617,590.398804 
	C173.044601,592.065369 170.040970,593.541992 167.319214,595.427429 
	C165.960403,596.368774 165.103989,598.035339 163.990280,599.745117 
	C154.773041,594.458862 145.208237,589.322510 136.496002,583.009460 
	C126.037712,575.431335 116.305931,566.850586 106.213013,558.078125 
	C112.301491,553.545105 118.302681,549.406433 124.593369,545.768372 
	C164.491974,522.694031 204.472321,499.760925 244.370972,476.686615 
	C248.758926,474.148956 252.799561,471.010712 257.368591,468.196960 
	C275.241821,475.469574 293.295074,480.581482 312.347626,480.767761 
	C322.462372,480.866638 332.783875,480.931671 342.660889,479.109070 
	C356.253204,476.600861 369.513031,472.290985 382.915314,468.752991 
z"/>
<path fill="#2B9D4A" opacity="1.000000" stroke="none" 
	d="
M142.496002,333.075439 
	C150.395721,345.829895 157.951950,358.661896 165.522629,371.485413 
	C167.793564,375.332062 170.104721,379.154968 172.713623,382.996216 
	C173.029785,383.003662 173.027969,382.918640 172.922562,383.274536 
	C173.202896,384.242767 173.588623,384.855072 174.026245,385.747131 
	C174.495529,387.041931 174.912933,388.056946 175.157990,389.430847 
	C174.165634,390.590363 173.467728,391.601074 172.506958,392.159607 
	C161.297867,398.675873 150.040878,405.109619 138.812607,411.593018 
	C109.591316,428.465973 80.404587,445.399109 51.133858,462.185822 
	C46.572857,464.801514 41.643364,466.774689 36.884277,469.045013 
	C26.386913,449.983948 18.645985,429.827759 12.931625,408.451538 
	C25.753098,400.456482 38.567822,392.785187 51.480846,385.283081 
	C74.167686,372.102661 96.906013,359.010773 119.641411,345.914154 
	C127.117256,341.607758 134.650864,337.401672 142.496002,333.075439 
z"/>
<path fill="#269846" opacity="1.000000" stroke="none" 
	d="
M257.001282,468.151031 
	C252.799561,471.010712 248.758926,474.148956 244.370972,476.686615 
	C204.472321,499.760925 164.491974,522.694031 124.593369,545.768372 
	C118.302681,549.406433 112.301491,553.545105 106.062408,557.783447 
	C105.338974,557.904663 104.553207,557.869202 104.124313,557.459839 
	C89.606461,543.602356 75.838936,529.071472 64.427292,512.333069 
	C66.353607,511.404846 68.176537,511.034393 69.710258,510.157837 
	C87.607903,499.929047 105.475716,489.647797 123.324501,479.333801 
	C150.672867,463.530426 178.000214,447.690613 205.629883,432.005310 
	C211.370438,437.104645 216.331070,442.784027 222.370026,446.869537 
	C233.581528,454.454468 245.422440,461.109070 257.001282,468.151031 
z"/>
<path fill="#299A48" opacity="1.000000" stroke="none" 
	d="
M205.336487,431.866272 
	C178.000214,447.690613 150.672867,463.530426 123.324501,479.333801 
	C105.475716,489.647797 87.607903,499.929047 69.710258,510.157837 
	C68.176537,511.034393 66.353607,511.404846 64.272766,512.023743 
	C56.570469,500.970276 49.210976,489.935608 41.984215,478.814728 
	C40.111992,475.933655 38.655350,472.782471 36.946045,469.400208 
	C41.643364,466.774689 46.572857,464.801514 51.133858,462.185822 
	C80.404587,445.399109 109.591316,428.465973 138.812607,411.593018 
	C150.040878,405.109619 161.297867,398.675873 172.506958,392.159607 
	C173.467728,391.601074 174.165634,390.590363 175.380341,389.495789 
	C175.775009,389.201843 175.698929,389.658905 175.880585,389.860870 
	C176.306458,390.317932 176.550674,390.573059 177.042343,391.094818 
	C184.681519,406.218262 194.368744,419.485596 205.336487,431.866272 
z"/>
<path fill="#FEFEFE" opacity="1.000000" stroke="none" 
	d="
M175.698929,389.658905 
	C175.698929,389.658905 175.775009,389.201843 175.552673,389.136902 
	C174.912933,388.056946 174.495529,387.041931 174.100098,385.364563 
	C173.757370,384.107666 173.392670,383.513153 173.027969,382.918640 
	C173.027969,382.918640 173.029785,383.003662 173.072235,383.003357 
	C170.246475,373.185089 166.616043,363.517944 164.638367,353.523804 
	C154.615219,302.872314 166.030151,257.246124 199.211716,217.773575 
	C208.504654,206.718735 220.648972,198.060806 231.738586,188.071716 
	C249.251221,177.007187 267.451233,168.038498 287.677612,164.844116 
	C301.880432,162.601013 316.400360,162.365936 331.217163,161.207031 
	C341.774384,162.953766 352.076355,164.029495 361.978577,166.628281 
	C396.034149,175.565964 424.108551,193.971191 446.143494,221.496689 
	C446.766174,222.274551 447.437286,223.013611 448.346191,223.961639 
	C459.714020,239.984772 468.857513,256.764069 474.285797,275.475464 
	C478.615143,290.398773 480.822357,305.575165 481.102417,321.536316 
	C480.474915,341.659332 477.170868,360.812622 469.904907,379.576691 
	C463.640503,391.355347 457.453064,402.763580 450.808716,414.578186 
	C450.210327,415.336273 450.068848,415.687988 449.927338,416.039703 
	C449.927338,416.039703 450.014008,416.070435 450.031006,416.027924 
	C440.054352,426.140076 430.517731,436.803436 419.939056,446.306854 
	C409.276154,455.886017 396.615692,462.689087 383.133270,468.482971 
	C369.513031,472.290985 356.253204,476.600861 342.660889,479.109070 
	C332.783875,480.931671 322.462372,480.866638 312.347626,480.767761 
	C293.295074,480.581482 275.241821,475.469574 257.368591,468.196960 
	C245.422440,461.109070 233.581528,454.454468 222.370026,446.869537 
	C216.331070,442.784027 211.370438,437.104645 205.629883,432.005310 
	C194.368744,419.485596 184.681519,406.218262 177.018082,390.782532 
	C176.397232,390.022064 176.048080,389.840485 175.698929,389.658905 
M445.346191,344.779816 
	C448.423645,329.062256 448.564667,313.301117 445.427002,297.611755 
	C431.812134,229.532654 370.431213,186.107941 301.765106,195.859283 
	C231.755722,205.801392 182.641296,275.161652 196.546158,344.451385 
	C209.510483,409.054382 265.444702,451.651001 331.377319,447.131775 
	C386.866974,443.328339 435.066132,400.332733 445.346191,344.779816 
z"/>
<path fill="#219241" opacity="1.000000" stroke="none" 
	d="
M450.288452,416.070618 
	C450.068848,415.687988 450.210327,415.336273 450.613586,414.861450 
	C450.800079,415.192749 450.724823,415.647156 450.288452,416.070618 
z"/>
<path fill="#DD3529" opacity="1.000000" stroke="none" 
	d="
M172.922562,383.274536 
	C173.392670,383.513153 173.757370,384.107666 174.048218,385.084778 
	C173.588623,384.855072 173.202896,384.242767 172.922562,383.274536 
z"/>
<path fill="#2B9D4A" opacity="1.000000" stroke="none" 
	d="
M175.880585,389.860870 
	C176.048080,389.840485 176.397232,390.022064 176.770630,390.515930 
	C176.550674,390.573059 176.306458,390.317932 175.880585,389.860870 
z"/>
<path fill="#1A73E8" opacity="1.000000" stroke="none" 
	d="
M445.262054,345.198425 
	C435.066132,400.332733 386.866974,443.328339 331.377319,447.131775 
	C265.444702,451.651001 209.510483,409.054382 196.546158,344.451385 
	C182.641296,275.161652 231.755722,205.801392 301.765106,195.859283 
	C370.431213,186.107941 431.812134,229.532654 445.427002,297.611755 
	C448.564667,313.301117 448.423645,329.062256 445.262054,345.198425 
z"/>
</svg>