<svg version="1.1" id="Layer_1" xmlns="http://www.w3.org/2000/svg" xmlns:xlink="http://www.w3.org/1999/xlink" x="0px" y="0px"
	 width="100%" viewBox="0 0 2560 1218" enable-background="new 0 0 2560 1218" xml:space="preserve">
<path fill="#EC1C2E" opacity="1.000000" stroke="none" 
	d="
M1.000001,650.000000 
	C1.000000,616.645203 1.000000,583.290466 1.411800,549.635986 
	C2.205837,548.656738 2.848767,548.007507 2.931870,547.293213 
	C4.656449,532.469482 5.843598,517.565186 8.116911,502.828064 
	C10.676686,486.233826 13.228543,469.528931 17.541193,453.340332 
	C23.863523,429.607971 31.209915,406.109253 39.103817,382.844818 
	C48.667160,354.660309 61.487259,327.859772 75.983147,301.846680 
	C90.005440,276.683411 105.174454,252.273178 123.553993,230.057602 
	C138.022675,212.569199 152.550308,195.053497 168.192078,178.636398 
	C180.099716,166.138519 193.512253,155.005661 206.782455,143.895172 
	C218.817337,133.818970 231.193436,124.059692 244.075226,115.104530 
	C270.775024,96.543343 298.641418,79.840652 328.543762,66.883896 
	C347.813202,58.534420 367.053192,49.884323 386.928772,43.227169 
	C410.198059,35.433315 434.031647,29.218285 457.836029,23.166277 
	C472.976746,19.316910 488.442444,16.588333 503.885162,14.127696 
	C519.729736,11.603024 535.682922,9.553061 551.663452,8.143580 
	C569.254700,6.592032 586.927307,5.224880 604.571167,5.138417 
	C673.554382,4.800365 742.540283,4.993541 811.525085,5.046389 
	C812.970215,5.047496 814.414856,5.737800 815.681091,6.466119 
	C815.335266,8.470656 815.022949,10.115575 815.021973,11.760681 
	C814.995422,56.532314 814.989929,101.303978 815.036194,146.075592 
	C815.038208,148.028397 815.562622,149.980682 815.699951,152.341675 
	C813.565430,152.833328 811.574585,152.988968 809.583801,152.989288 
	C734.587708,153.001770 659.591492,152.969238 584.595520,153.044342 
	C576.493103,153.052460 568.388489,153.618790 560.290405,154.032135 
	C556.015686,154.250351 551.716248,154.453659 547.490967,155.085159 
	C532.779236,157.283966 517.929138,158.923141 503.439270,162.154526 
	C481.840057,166.971329 460.174377,171.939484 439.132263,178.696930 
	C409.520874,188.206314 381.597870,201.817581 354.966095,217.997711 
	C330.936798,232.596695 308.599823,249.461014 288.060974,268.589355 
	C271.236481,284.258392 255.822235,301.289978 241.821564,319.598419 
	C226.402908,339.761108 212.732529,361.001343 200.878479,383.433289 
	C186.797745,410.079010 175.533585,437.878326 167.009583,466.764893 
	C160.265381,489.619934 155.182327,512.826416 151.846359,536.471619 
	C148.775085,558.240784 146.745102,580.025085 147.033478,601.999878 
	C147.172638,612.604431 147.521561,623.211426 148.038788,633.804443 
	C148.521011,643.680542 148.664642,653.646545 150.178558,663.383057 
	C152.985550,681.435547 156.049942,699.495422 160.149078,717.289185 
	C167.378342,748.670471 177.979279,778.976440 192.025375,808.001770 
	C202.941177,830.558594 215.255264,852.269836 229.847839,872.739197 
	C242.379349,890.317322 255.946335,906.970215 271.013611,922.357117 
	C279.915497,931.447876 289.270081,940.167358 299.025085,948.332153 
	C310.821747,958.205811 322.786469,968.014404 335.521149,976.601379 
	C357.048706,991.117676 379.789673,1003.607117 403.673035,1013.973389 
	C427.488922,1024.310425 451.975800,1032.648560 477.128662,1038.932129 
	C499.647644,1044.557861 522.406677,1049.081177 545.593689,1051.040283 
	C561.502075,1052.384521 577.411621,1054.785156 593.325378,1054.825073 
	C718.984741,1055.139648 844.645264,1055.027954 970.305359,1054.914429 
	C976.331543,1054.909058 982.520386,1054.314087 988.352173,1052.863159 
	C1007.595337,1048.075684 1023.402771,1037.821289 1035.614868,1022.015015 
	C1047.259399,1006.943481 1053.184448,990.016174 1053.377930,970.628906 
	C1053.710571,967.614319 1053.981812,964.963318 1053.981934,962.312378 
	C1054.001343,723.859009 1054.000366,485.405640 1053.995605,246.952286 
	C1053.995483,244.286865 1053.930054,241.621429 1053.937744,238.501648 
	C1054.334839,233.790176 1054.117920,229.387695 1055.156982,225.304840 
	C1057.673950,215.414597 1063.218018,207.331375 1073.656616,205.205795 
	C1086.292358,202.632858 1096.731934,208.121597 1103.587402,218.427292 
	C1113.976562,234.045212 1123.263184,250.394516 1133.095581,266.385437 
	C1146.091675,287.521271 1159.145752,308.621643 1172.206299,329.717682 
	C1183.464966,347.903320 1194.776855,366.056000 1206.048706,384.233368 
	C1221.442017,409.056702 1236.800415,433.901642 1252.211060,458.714081 
	C1262.455566,475.208313 1272.791260,491.645844 1283.039673,508.137604 
	C1297.428711,531.292603 1311.742798,554.494202 1326.148804,577.638672 
	C1338.049927,596.759155 1350.071655,615.804688 1361.978516,634.921692 
	C1377.079346,659.166992 1392.093140,683.466492 1407.192017,707.713074 
	C1419.089355,726.818481 1431.087402,745.861206 1442.988770,764.964172 
	C1458.083374,789.192688 1473.103760,813.467529 1488.197388,837.696716 
	C1500.105469,856.812134 1512.093628,875.877625 1524.013916,894.985474 
	C1538.083008,917.537659 1552.103760,940.120056 1566.170654,962.673584 
	C1577.405518,980.686646 1588.636230,998.702515 1599.945312,1016.668945 
	C1612.875244,1037.210693 1629.932373,1051.921387 1654.761963,1056.133667 
	C1673.640625,1059.336426 1690.390381,1054.561890 1704.735107,1042.561279 
	C1723.899170,1026.529175 1732.879517,1005.089050 1732.896606,980.454224 
	C1733.067261,734.307678 1732.966431,488.160858 1733.166382,242.014359 
	C1733.172363,234.662170 1734.702148,226.986343 1737.142578,220.030136 
	C1741.904053,206.458099 1752.933838,202.852844 1765.470459,205.821381 
	C1777.611816,208.696396 1783.166138,218.509674 1788.993408,228.010742 
	C1805.554077,255.012054 1821.968140,282.103729 1838.618774,309.049286 
	C1852.603394,331.680420 1866.905640,354.114990 1880.946899,376.711365 
	C1898.688721,405.263580 1916.261597,433.920807 1933.996704,462.477325 
	C1946.915161,483.277924 1960.048950,503.944885 1972.958618,524.750916 
	C1988.956665,550.534058 2004.745605,576.447083 2020.768677,602.214417 
	C2034.389404,624.118103 2048.264160,645.863647 2061.936768,667.735168 
	C2080.618164,697.618835 2099.221680,727.551270 2117.845215,757.471130 
	C2133.878906,783.230042 2149.874268,809.012878 2165.924072,834.761841 
	C2177.568848,853.443665 2189.321045,872.058350 2200.941650,890.755310 
	C2216.354492,915.554199 2231.666748,940.415771 2247.059326,965.227417 
	C2256.340576,980.188477 2265.947998,994.953857 2274.946533,1010.082092 
	C2285.549316,1027.907104 2298.350098,1043.213135 2318.021729,1051.534058 
	C2335.684326,1059.005249 2353.566895,1059.684814 2370.915283,1051.448120 
	C2399.698730,1037.781982 2413.648926,1013.096436 2413.695312,982.613159 
	C2414.186523,659.140198 2414.000000,335.666107 2414.000000,12.192360 
	C2414.000000,9.920258 2414.000000,7.648156 2414.000000,5.000000 
	C2463.407715,5.000000 2512.203857,5.000000 2561.000000,5.000000 
	C2561.000000,347.688110 2561.000000,690.376221 2560.605469,1033.342041 
	C2559.158936,1038.489868 2557.866943,1043.322266 2557.096191,1048.236572 
	C2553.223145,1072.931152 2545.423584,1096.232788 2533.435303,1118.215454 
	C2523.713379,1136.042603 2511.570068,1151.810913 2496.854004,1165.829224 
	C2485.592529,1176.556763 2473.152588,1185.384155 2459.739746,1193.126099 
	C2437.507568,1205.958496 2413.594971,1213.502808 2388.294922,1217.078125 
	C2387.456055,1217.196655 2386.761719,1218.336304 2386.000000,1219.000000 
	C2367.312012,1219.000000 2348.623779,1219.000000 2329.661133,1218.606201 
	C2328.544434,1217.812134 2327.739258,1217.194946 2326.854980,1217.045654 
	C2320.084473,1215.902588 2313.214355,1215.220337 2306.532227,1213.703613 
	C2282.202881,1208.181030 2259.188721,1199.215088 2237.479736,1186.857910 
	C2206.026855,1168.954346 2179.107422,1145.643677 2157.648682,1116.692261 
	C2144.078613,1098.383911 2132.657471,1078.460938 2120.608154,1059.053589 
	C2109.246338,1040.752930 2098.334229,1022.173218 2087.205566,1003.727478 
	C2075.071777,983.615845 2062.910645,963.520813 2050.772705,943.411560 
	C2037.523071,921.460876 2024.308350,899.489197 2011.038086,877.550964 
	C1998.203735,856.333374 1985.273560,835.173828 1972.469482,813.938171 
	C1962.020386,796.608337 1951.759888,779.164795 1941.299805,761.841797 
	C1925.358521,735.441711 1909.312988,709.104614 1893.321655,682.734802 
	C1889.838623,676.991089 1886.396851,671.222290 1882.936279,665.464966 
	C1882.000488,667.074280 1882.003540,668.347900 1881.999878,669.621582 
	C1881.666870,786.047241 1881.461914,902.473694 1880.807129,1018.897522 
	C1880.739380,1030.934082 1878.480591,1043.042114 1876.368774,1054.962769 
	C1873.578003,1070.716064 1868.598755,1085.841675 1862.288452,1100.627686 
	C1852.985229,1122.426758 1840.403442,1142.011230 1824.201660,1159.145020 
	C1813.016724,1170.973389 1800.206665,1180.941040 1786.218506,1189.484253 
	C1761.542236,1204.555420 1734.954590,1213.700928 1706.295776,1217.080688 
	C1705.466553,1217.178467 1704.762451,1218.336426 1704.000000,1219.000000 
	C1686.645264,1219.000000 1669.290405,1219.000000 1651.657471,1218.601318 
	C1650.703857,1217.811890 1650.068115,1217.188965 1649.347290,1217.066772 
	C1643.068237,1216.002075 1636.753906,1215.138672 1630.487793,1214.006348 
	C1602.320557,1208.915527 1576.349243,1197.895508 1552.009766,1183.285278 
	C1527.878662,1168.800171 1506.884155,1150.399902 1488.407593,1129.049561 
	C1475.926758,1114.627563 1465.261963,1099.001465 1455.391235,1082.784302 
	C1442.243042,1061.182251 1429.314453,1039.446655 1416.259766,1017.787354 
	C1403.128540,996.000854 1389.950806,974.242188 1376.807373,952.462891 
	C1363.562500,930.515442 1350.362793,908.540710 1337.091675,886.609253 
	C1324.164673,865.246643 1311.117065,843.957092 1298.224976,822.573608 
	C1286.849609,803.705933 1275.685547,784.710938 1264.303345,765.847473 
	C1247.357300,737.762939 1230.297729,709.746948 1213.295166,681.696411 
	C1209.820557,675.964111 1206.385254,670.207825 1202.931885,664.462646 
	C1202.621216,664.577576 1202.310669,664.692505 1202.000000,664.807373 
	C1202.000000,666.752686 1202.000000,668.697998 1202.000000,670.643311 
	C1202.000000,768.128174 1201.919312,865.613220 1202.063599,963.097839 
	C1202.094971,984.265747 1200.792725,1005.234497 1197.085205,1026.106812 
	C1193.011597,1049.040161 1186.407593,1071.166870 1175.916260,1091.903564 
	C1164.268433,1114.925903 1149.641235,1135.963013 1129.176270,1152.170654 
	C1119.219971,1160.055786 1109.008789,1167.837891 1098.063354,1174.206665 
	C1079.220215,1185.170898 1058.855591,1192.505737 1037.492188,1197.410767 
	C1016.884094,1202.142334 996.029724,1204.939087 975.059692,1204.822266 
	C843.375916,1204.089111 711.672180,1207.326172 580.007690,1202.975952 
	C575.233643,1202.818237 570.443481,1202.531494 565.708130,1201.931885 
	C548.168518,1199.710815 530.581177,1197.746826 513.139893,1194.901367 
	C494.643646,1191.883911 476.080780,1188.815186 457.933167,1184.237915 
	C435.710602,1178.632812 413.571991,1172.332275 391.982941,1164.679688 
	C370.201233,1156.958618 348.762604,1148.009155 327.847595,1138.166016 
	C297.818146,1124.033081 269.476837,1106.892822 242.510391,1087.382935 
	C221.174255,1071.946655 200.728287,1055.488892 181.923767,1037.154175 
	C167.483551,1023.074768 153.704453,1008.220276 140.647278,992.847473 
	C128.387894,978.414062 116.937584,963.215820 106.063187,947.700928 
	C86.989647,920.488098 70.575012,891.645630 57.152233,861.225403 
	C49.589199,844.085205 42.606571,826.662842 36.048401,809.111328 
	C26.108425,782.509277 19.158373,755.000061 13.246673,727.266479 
	C10.252724,713.221008 8.089891,698.976501 6.106301,684.744629 
	C4.610819,674.014832 4.036674,663.158020 2.915524,652.371948 
	C2.827399,651.524109 1.663784,650.788025 1.000001,650.000000 
z"/>
<path fill="#EC1C2E" opacity="1.000000" stroke="none" 
	d="
M1722.000000,1.000010 
	C1740.020874,1.000000 1758.041870,1.000000 1776.341309,1.394608 
	C1780.721680,2.554503 1784.844727,3.220294 1788.921387,4.101408 
	C1813.309570,9.372707 1836.524414,17.680391 1858.337280,29.995432 
	C1880.385864,42.443623 1899.856079,58.175896 1918.002441,75.623398 
	C1923.809937,81.207291 1929.133301,87.377419 1934.110962,93.724228 
	C1944.296021,106.711250 1954.821411,119.523109 1963.871460,133.285202 
	C1975.068237,150.311874 1984.941528,168.211075 1995.325928,185.769272 
	C2003.468506,199.536972 2011.552002,213.339935 2019.600830,227.162720 
	C2028.306885,242.114258 2036.893188,257.135681 2045.622559,272.073517 
	C2054.265869,286.864227 2063.085693,301.551758 2071.712402,316.351990 
	C2081.738037,333.552490 2091.567139,350.867554 2101.611572,368.057129 
	C2112.065430,385.947815 2122.730957,403.714966 2133.200684,421.596619 
	C2145.332764,442.317230 2157.290771,463.139832 2169.437256,483.852051 
	C2182.404541,505.964203 2195.504395,527.998840 2208.544922,550.067993 
	C2212.111816,556.104492 2215.674072,562.143677 2219.238281,568.181702 
	C2219.557129,568.053284 2219.875732,567.924866 2220.194580,567.796448 
	C2220.194580,380.355438 2220.194580,192.914429 2220.194580,5.320082 
	C2269.576904,5.320082 2318.625732,5.320082 2367.967773,5.320082 
	C2367.967773,7.943556 2367.968018,10.254333 2367.968018,12.565110 
	C2367.968018,329.560547 2367.974365,646.555969 2367.927246,963.551392 
	C2367.926025,970.655579 2367.991455,977.876892 2366.785156,984.828125 
	C2365.745117,990.820374 2363.364746,996.706116 2360.775635,1002.265747 
	C2358.451172,1007.258179 2347.978027,1011.824585 2343.001221,1010.942688 
	C2334.068848,1009.359863 2327.061279,1004.449829 2322.160889,997.190186 
	C2313.772217,984.763000 2305.975098,971.933655 2298.028320,959.211731 
	C2283.845947,936.508484 2269.757324,913.746521 2255.590332,891.033569 
	C2243.759521,872.066162 2231.844238,853.151550 2220.017822,834.181274 
	C2206.462402,812.437500 2192.981934,790.647034 2179.435547,768.897583 
	C2168.646973,751.575562 2157.788818,734.296814 2146.996826,716.976929 
	C2133.539551,695.380249 2120.125732,673.756714 2106.680420,652.152649 
	C2094.781982,633.033386 2082.855957,613.930786 2070.959961,594.809875 
	C2054.839844,568.899597 2038.750244,542.970093 2022.621216,517.065369 
	C2009.772217,496.428864 1996.865356,475.828308 1984.017456,455.191193 
	C1970.481323,433.448669 1956.976807,411.686462 1943.473022,389.923828 
	C1932.292969,371.906219 1921.128174,353.879272 1909.967529,335.849640 
	C1896.223877,313.647156 1882.478516,291.445709 1868.758423,269.228546 
	C1856.841919,249.932007 1844.942139,230.625092 1833.068726,211.302063 
	C1824.919678,198.040207 1817.322510,184.491745 1804.442993,174.787231 
	C1787.894897,162.318192 1769.927612,155.841507 1749.042236,158.976776 
	C1728.595215,162.046234 1712.670044,172.256531 1700.960083,189.192459 
	C1689.686646,205.497131 1686.095215,224.085388 1686.085083,243.327438 
	C1685.955688,487.657166 1686.005615,731.987000 1685.958130,976.316833 
	C1685.957275,980.915833 1685.999146,985.690613 1684.846924,990.074829 
	C1682.805420,997.842590 1680.245972,1005.878418 1671.595703,1008.906067 
	C1660.895508,1012.651306 1650.980835,1008.565552 1644.082275,998.956482 
	C1637.616089,989.949829 1631.890381,980.403442 1625.995972,970.996033 
	C1611.621704,948.053955 1597.348022,925.048950 1583.015503,902.080566 
	C1571.353516,883.391846 1559.642822,864.733459 1547.994995,846.036011 
	C1534.531860,824.424500 1521.134277,802.771973 1507.669434,781.161499 
	C1496.800659,763.717712 1485.845337,746.327881 1474.980103,728.881958 
	C1459.968750,704.778748 1445.035889,680.626648 1430.013550,656.530212 
	C1417.060181,635.752563 1403.958374,615.067261 1391.049316,594.262207 
	C1375.047485,568.472595 1359.254761,542.552917 1343.225708,516.780212 
	C1329.610474,494.888428 1315.705444,473.176941 1302.078979,451.292023 
	C1285.955322,425.396423 1270.011230,399.388977 1253.953857,373.451904 
	C1244.327148,357.901947 1234.608032,342.409180 1224.975098,326.863068 
	C1211.734497,305.494965 1198.509155,284.117401 1185.328003,262.712585 
	C1173.526367,243.547974 1161.685181,224.406235 1150.068115,205.129791 
	C1142.312622,192.260941 1133.865601,180.150833 1121.108032,171.566299 
	C1102.251221,158.877655 1081.881348,154.153778 1059.890015,160.679443 
	C1025.992920,170.737976 1007.344360,200.771545 1007.278870,232.551392 
	C1006.773254,478.046814 1007.002808,723.543701 1006.989441,969.040161 
	C1006.989014,976.725586 1005.136108,983.974854 1000.970093,990.473022 
	C992.471252,1003.729309 979.837402,1009.039185 964.551331,1008.997620 
	C844.786194,1008.672119 725.020996,1008.353821 605.256042,1007.960449 
	C596.318542,1007.931091 587.384583,1007.279846 578.445984,1007.017578 
	C558.539673,1006.433594 538.786804,1004.255310 519.379517,999.915588 
	C498.578491,995.264221 477.642578,990.802368 457.346313,984.412903 
	C432.437836,976.571350 408.702728,965.621826 385.957794,952.570007 
	C363.290558,939.562683 341.841980,924.776672 322.840088,906.967102 
	C308.021057,893.077942 294.426483,877.790649 281.110443,862.412292 
	C263.690826,842.294800 249.778976,819.640137 238.148956,795.803406 
	C229.805756,778.703247 222.566177,760.971802 216.133133,743.055664 
	C207.917801,720.175903 201.985123,696.591431 198.958374,672.377808 
	C197.291260,659.041077 195.100800,645.738892 194.172806,632.349976 
	C193.365753,620.706604 194.147202,608.961060 193.967102,597.264648 
	C193.656448,577.089539 195.804901,557.157776 198.912796,537.253723 
	C202.314621,515.467224 207.239990,494.082306 213.911072,473.074585 
	C223.392975,443.215363 236.228790,414.871826 252.021027,387.835114 
	C267.308441,361.662689 285.634888,337.720215 306.697083,316.048920 
	C318.625671,303.775360 331.531036,292.268494 345.036835,281.752502 
	C366.184143,265.286621 388.626282,250.556244 413.408691,239.980713 
	C430.493011,232.690231 447.690399,225.524689 465.257874,219.537552 
	C495.387604,209.269135 526.695618,204.102829 558.301758,201.143402 
	C573.771118,199.694931 589.371887,199.137238 604.916077,199.089127 
	C673.414429,198.877121 741.913818,198.991669 810.412842,199.035065 
	C811.955078,199.036041 813.496887,199.596603 815.030762,200.371124 
	C815.028076,248.931854 815.033630,297.017609 814.815796,345.438324 
	C810.516418,345.515503 806.439331,345.018127 802.364563,345.035767 
	C736.928589,345.319092 671.492310,345.580261 606.057861,346.083374 
	C594.349854,346.173401 582.516663,346.446503 570.978027,348.196350 
	C554.246765,350.733643 537.506897,353.861786 521.182617,358.264862 
	C502.715973,363.245880 484.902039,370.558929 468.698975,380.885284 
	C455.088043,389.559662 441.543182,398.556549 429.117584,408.803375 
	C419.010590,417.138092 410.357971,427.312225 401.506714,437.075256 
	C389.710205,450.086945 380.385986,464.899445 371.978790,480.258667 
	C360.070129,502.014801 351.713348,525.159180 346.406250,549.337708 
	C342.638306,566.504333 340.063019,583.903625 340.058472,601.542175 
	C340.056213,610.308533 340.371643,619.098877 341.079895,627.834839 
	C341.834900,637.147339 342.592926,646.538025 344.468414,655.664673 
	C348.208923,673.867188 353.388336,691.636536 360.814728,708.814331 
	C371.261139,732.977661 385.073730,754.925049 402.910065,774.097534 
	C412.778961,784.705688 423.875336,794.298401 435.157593,803.436218 
	C452.908081,817.812744 472.992767,828.308838 494.052185,837.169312 
	C512.623535,844.982910 531.738403,851.056946 551.455261,854.480835 
	C571.620667,857.982666 592.094727,861.407104 612.474365,861.665894 
	C681.462036,862.542114 750.468933,861.769653 819.465820,862.140442 
	C840.393982,862.252869 858.040466,844.289001 858.033997,823.276184 
	C857.975586,633.112732 857.979736,442.949310 858.041626,252.785904 
	C858.045837,239.852386 858.387512,226.904144 859.083679,213.990326 
	C859.658081,203.336304 860.724670,192.690063 862.043518,182.098953 
	C864.544373,162.016647 870.795227,142.914200 879.224365,124.661385 
	C894.277344,92.065048 915.752686,64.439819 944.667175,42.768742 
	C971.266663,22.832718 1000.653809,9.489897 1033.505005,3.895335 
	C1036.092651,3.454651 1038.505737,1.989192 1041.000000,0.999999 
	C1060.020874,1.000000 1079.041870,1.000000 1098.353760,1.392783 
	C1102.415771,2.547149 1106.199341,3.251469 1109.955566,4.079668 
	C1133.628174,9.299192 1156.307007,17.138227 1177.510376,29.104708 
	C1195.405396,39.204033 1212.303467,50.800701 1227.104858,64.944641 
	C1239.747559,77.025681 1251.365112,90.239182 1262.837769,103.470604 
	C1279.277588,122.430779 1291.839600,144.074265 1304.333984,165.722885 
	C1313.637085,181.842010 1323.071289,197.885345 1332.407837,213.985245 
	C1342.403809,231.222214 1352.345947,248.490311 1362.325317,265.736877 
	C1371.072388,280.853180 1379.833862,295.961029 1388.597046,311.067932 
	C1399.079468,329.138489 1409.573120,347.202606 1420.057129,365.272217 
	C1428.008545,378.976898 1435.933350,392.697052 1443.905029,406.389832 
	C1452.853516,421.759857 1461.904663,437.070312 1470.794800,452.473846 
	C1480.095703,468.589081 1489.218872,484.806915 1498.492920,500.937805 
	C1508.011597,517.494385 1517.594849,534.014099 1527.201050,550.520081 
	C1530.446411,556.096497 1533.848022,561.581909 1537.178345,567.108887 
	C1537.451294,566.957031 1537.724365,566.805115 1537.997314,566.653259 
	C1537.997314,564.822632 1537.997314,562.992004 1537.997314,561.161377 
	C1537.997314,459.679810 1537.959351,358.198242 1538.041870,256.716736 
	C1538.053223,242.785385 1538.385132,228.840469 1539.086670,214.927933 
	C1539.640259,203.948914 1540.620117,192.961029 1542.064819,182.063782 
	C1544.851929,161.039078 1551.648071,141.141510 1560.592529,122.008934 
	C1568.170532,105.799248 1577.944458,90.990974 1589.216309,77.006073 
	C1599.142822,64.690529 1610.303223,53.753727 1622.697998,44.187862 
	C1636.392944,33.618656 1651.110474,24.553619 1667.234131,17.878803 
	C1682.348022,11.621984 1697.713135,6.451772 1713.926025,3.909891 
	C1716.701172,3.474810 1719.312866,1.996433 1722.000000,1.000010 
z"/>
<path fill="#000000" opacity="1.000000" stroke="none" 
	d="
M815.038940,199.896118 
	C813.496887,199.596603 811.955078,199.036041 810.412842,199.035065 
	C741.913818,198.991669 673.414429,198.877121 604.916077,199.089127 
	C589.371887,199.137238 573.771118,199.694931 558.301758,201.143402 
	C526.695618,204.102829 495.387604,209.269135 465.257874,219.537552 
	C447.690399,225.524689 430.493011,232.690231 413.408691,239.980713 
	C388.626282,250.556244 366.184143,265.286621 345.036835,281.752502 
	C331.531036,292.268494 318.625671,303.775360 306.697083,316.048920 
	C285.634888,337.720215 267.308441,361.662689 252.021027,387.835114 
	C236.228790,414.871826 223.392975,443.215363 213.911072,473.074585 
	C207.239990,494.082306 202.314621,515.467224 198.912796,537.253723 
	C195.804901,557.157776 193.656448,577.089539 193.967102,597.264648 
	C194.147202,608.961060 193.365753,620.706604 194.172806,632.349976 
	C195.100800,645.738892 197.291260,659.041077 198.958374,672.377808 
	C201.985123,696.591431 207.917801,720.175903 216.133133,743.055664 
	C222.566177,760.971802 229.805756,778.703247 238.148956,795.803406 
	C249.778976,819.640137 263.690826,842.294800 281.110443,862.412292 
	C294.426483,877.790649 308.021057,893.077942 322.840088,906.967102 
	C341.841980,924.776672 363.290558,939.562683 385.957794,952.570007 
	C408.702728,965.621826 432.437836,976.571350 457.346313,984.412903 
	C477.642578,990.802368 498.578491,995.264221 519.379517,999.915588 
	C538.786804,1004.255310 558.539673,1006.433594 578.445984,1007.017578 
	C587.384583,1007.279846 596.318542,1007.931091 605.256042,1007.960449 
	C725.020996,1008.353821 844.786194,1008.672119 964.551331,1008.997620 
	C979.837402,1009.039185 992.471252,1003.729309 1000.970093,990.473022 
	C1005.136108,983.974854 1006.989014,976.725586 1006.989441,969.040161 
	C1007.002808,723.543701 1006.773254,478.046814 1007.278870,232.551392 
	C1007.344360,200.771545 1025.992920,170.737976 1059.890015,160.679443 
	C1081.881348,154.153778 1102.251221,158.877655 1121.108032,171.566299 
	C1133.865601,180.150833 1142.312622,192.260941 1150.068115,205.129791 
	C1161.685181,224.406235 1173.526367,243.547974 1185.328003,262.712585 
	C1198.509155,284.117401 1211.734497,305.494965 1224.975098,326.863068 
	C1234.608032,342.409180 1244.327148,357.901947 1253.953857,373.451904 
	C1270.011230,399.388977 1285.955322,425.396423 1302.078979,451.292023 
	C1315.705444,473.176941 1329.610474,494.888428 1343.225708,516.780212 
	C1359.254761,542.552917 1375.047485,568.472595 1391.049316,594.262207 
	C1403.958374,615.067261 1417.060181,635.752563 1430.013550,656.530212 
	C1445.035889,680.626648 1459.968750,704.778748 1474.980103,728.881958 
	C1485.845337,746.327881 1496.800659,763.717712 1507.669434,781.161499 
	C1521.134277,802.771973 1534.531860,824.424500 1547.994995,846.036011 
	C1559.642822,864.733459 1571.353516,883.391846 1583.015503,902.080566 
	C1597.348022,925.048950 1611.621704,948.053955 1625.995972,970.996033 
	C1631.890381,980.403442 1637.616089,989.949829 1644.082275,998.956482 
	C1650.980835,1008.565552 1660.895508,1012.651306 1671.595703,1008.906067 
	C1680.245972,1005.878418 1682.805420,997.842590 1684.846924,990.074829 
	C1685.999146,985.690613 1685.957275,980.915833 1685.958130,976.316833 
	C1686.005615,731.987000 1685.955688,487.657166 1686.085083,243.327438 
	C1686.095215,224.085388 1689.686646,205.497131 1700.960083,189.192459 
	C1712.670044,172.256531 1728.595215,162.046234 1749.042236,158.976776 
	C1769.927612,155.841507 1787.894897,162.318192 1804.442993,174.787231 
	C1817.322510,184.491745 1824.919678,198.040207 1833.068726,211.302063 
	C1844.942139,230.625092 1856.841919,249.932007 1868.758423,269.228546 
	C1882.478516,291.445709 1896.223877,313.647156 1909.967529,335.849640 
	C1921.128174,353.879272 1932.292969,371.906219 1943.473022,389.923828 
	C1956.976807,411.686462 1970.481323,433.448669 1984.017456,455.191193 
	C1996.865356,475.828308 2009.772217,496.428864 2022.621216,517.065369 
	C2038.750244,542.970093 2054.839844,568.899597 2070.959961,594.809875 
	C2082.855957,613.930786 2094.781982,633.033386 2106.680420,652.152649 
	C2120.125732,673.756714 2133.539551,695.380249 2146.996826,716.976929 
	C2157.788818,734.296814 2168.646973,751.575562 2179.435547,768.897583 
	C2192.981934,790.647034 2206.462402,812.437500 2220.017822,834.181274 
	C2231.844238,853.151550 2243.759521,872.066162 2255.590332,891.033569 
	C2269.757324,913.746521 2283.845947,936.508484 2298.028320,959.211731 
	C2305.975098,971.933655 2313.772217,984.763000 2322.160889,997.190186 
	C2327.061279,1004.449829 2334.068848,1009.359863 2343.001221,1010.942688 
	C2347.978027,1011.824585 2358.451172,1007.258179 2360.775635,1002.265747 
	C2363.364746,996.706116 2365.745117,990.820374 2366.785156,984.828125 
	C2367.991455,977.876892 2367.926025,970.655579 2367.927246,963.551392 
	C2367.974365,646.555969 2367.968018,329.560547 2367.968018,12.565110 
	C2367.968018,10.254333 2367.967773,7.943556 2367.967773,5.320082 
	C2318.625732,5.320082 2269.576904,5.320082 2220.194580,5.320082 
	C2220.194580,192.914429 2220.194580,380.355438 2220.194580,567.796448 
	C2219.875732,567.924866 2219.557129,568.053284 2219.238281,568.181702 
	C2215.674072,562.143677 2212.111816,556.104492 2208.544922,550.067993 
	C2195.504395,527.998840 2182.404541,505.964203 2169.437256,483.852051 
	C2157.290771,463.139832 2145.332764,442.317230 2133.200684,421.596619 
	C2122.730957,403.714966 2112.065430,385.947815 2101.611572,368.057129 
	C2091.567139,350.867554 2081.738037,333.552490 2071.712402,316.351990 
	C2063.085693,301.551758 2054.265869,286.864227 2045.622559,272.073517 
	C2036.893188,257.135681 2028.306885,242.114258 2019.600830,227.162720 
	C2011.552002,213.339935 2003.468506,199.536972 1995.325928,185.769272 
	C1984.941528,168.211075 1975.068237,150.311874 1963.871460,133.285202 
	C1954.821411,119.523109 1944.296021,106.711250 1934.110962,93.724228 
	C1929.133301,87.377419 1923.809937,81.207291 1918.002441,75.623398 
	C1899.856079,58.175896 1880.385864,42.443623 1858.337280,29.995432 
	C1836.524414,17.680391 1813.309570,9.372707 1788.921387,4.101408 
	C1784.844727,3.220294 1780.721680,2.554503 1776.810059,1.394608 
	C2036.833374,1.000000 2296.666748,0.997729 2556.500000,1.043220 
	C2558.434326,1.043559 2561.808105,-0.462265 2561.000000,4.500000 
	C2512.203857,5.000000 2463.407715,5.000000 2414.000000,5.000000 
	C2414.000000,7.648156 2414.000000,9.920258 2414.000000,12.192360 
	C2414.000000,335.666107 2414.186523,659.140198 2413.695312,982.613159 
	C2413.648926,1013.096436 2399.698730,1037.781982 2370.915283,1051.448120 
	C2353.566895,1059.684814 2335.684326,1059.005249 2318.021729,1051.534058 
	C2298.350098,1043.213135 2285.549316,1027.907104 2274.946533,1010.082092 
	C2265.947998,994.953857 2256.340576,980.188477 2247.059326,965.227417 
	C2231.666748,940.415771 2216.354492,915.554199 2200.941650,890.755310 
	C2189.321045,872.058350 2177.568848,853.443665 2165.924072,834.761841 
	C2149.874268,809.012878 2133.878906,783.230042 2117.845215,757.471130 
	C2099.221680,727.551270 2080.618164,697.618835 2061.936768,667.735168 
	C2048.264160,645.863647 2034.389404,624.118103 2020.768677,602.214417 
	C2004.745605,576.447083 1988.956665,550.534058 1972.958618,524.750916 
	C1960.048950,503.944885 1946.915161,483.277924 1933.996704,462.477325 
	C1916.261597,433.920807 1898.688721,405.263580 1880.946899,376.711365 
	C1866.905640,354.114990 1852.603394,331.680420 1838.618774,309.049286 
	C1821.968140,282.103729 1805.554077,255.012054 1788.993408,228.010742 
	C1783.166138,218.509674 1777.611816,208.696396 1765.470459,205.821381 
	C1752.933838,202.852844 1741.904053,206.458099 1737.142578,220.030136 
	C1734.702148,226.986343 1733.172363,234.662170 1733.166382,242.014359 
	C1732.966431,488.160858 1733.067261,734.307678 1732.896606,980.454224 
	C1732.879517,1005.089050 1723.899170,1026.529175 1704.735107,1042.561279 
	C1690.390381,1054.561890 1673.640625,1059.336426 1654.761963,1056.133667 
	C1629.932373,1051.921387 1612.875244,1037.210693 1599.945312,1016.668945 
	C1588.636230,998.702515 1577.405518,980.686646 1566.170654,962.673584 
	C1552.103760,940.120056 1538.083008,917.537659 1524.013916,894.985474 
	C1512.093628,875.877625 1500.105469,856.812134 1488.197388,837.696716 
	C1473.103760,813.467529 1458.083374,789.192688 1442.988770,764.964172 
	C1431.087402,745.861206 1419.089355,726.818481 1407.192017,707.713074 
	C1392.093140,683.466492 1377.079346,659.166992 1361.978516,634.921692 
	C1350.071655,615.804688 1338.049927,596.759155 1326.148804,577.638672 
	C1311.742798,554.494202 1297.428711,531.292603 1283.039673,508.137604 
	C1272.791260,491.645844 1262.455566,475.208313 1252.211060,458.714081 
	C1236.800415,433.901642 1221.442017,409.056702 1206.048706,384.233368 
	C1194.776855,366.056000 1183.464966,347.903320 1172.206299,329.717682 
	C1159.145752,308.621643 1146.091675,287.521271 1133.095581,266.385437 
	C1123.263184,250.394516 1113.976562,234.045212 1103.587402,218.427292 
	C1096.731934,208.121597 1086.292358,202.632858 1073.656616,205.205795 
	C1063.218018,207.331375 1057.673950,215.414597 1055.156982,225.304840 
	C1054.117920,229.387695 1054.334839,233.790176 1053.588379,238.747772 
	C1053.130737,241.275162 1053.008179,243.102081 1053.008179,244.929001 
	C1052.999634,485.122467 1052.999512,725.315918 1053.007812,965.509399 
	C1053.007935,967.337097 1053.126587,969.164795 1053.189941,970.992493 
	C1053.184448,990.016174 1047.259399,1006.943481 1035.614868,1022.015015 
	C1023.402771,1037.821289 1007.595337,1048.075684 988.352173,1052.863159 
	C982.520386,1054.314087 976.331543,1054.909058 970.305359,1054.914429 
	C844.645264,1055.027954 718.984741,1055.139648 593.325378,1054.825073 
	C577.411621,1054.785156 561.502075,1052.384521 545.593689,1051.040283 
	C522.406677,1049.081177 499.647644,1044.557861 477.128662,1038.932129 
	C451.975800,1032.648560 427.488922,1024.310425 403.673035,1013.973389 
	C379.789673,1003.607117 357.048706,991.117676 335.521149,976.601379 
	C322.786469,968.014404 310.821747,958.205811 299.025085,948.332153 
	C289.270081,940.167358 279.915497,931.447876 271.013611,922.357117 
	C255.946335,906.970215 242.379349,890.317322 229.847839,872.739197 
	C215.255264,852.269836 202.941177,830.558594 192.025375,808.001770 
	C177.979279,778.976440 167.378342,748.670471 160.149078,717.289185 
	C156.049942,699.495422 152.985550,681.435547 150.178558,663.383057 
	C148.664642,653.646545 148.521011,643.680542 148.038788,633.804443 
	C147.521561,623.211426 147.172638,612.604431 147.033478,601.999878 
	C146.745102,580.025085 148.775085,558.240784 151.846359,536.471619 
	C155.182327,512.826416 160.265381,489.619934 167.009583,466.764893 
	C175.533585,437.878326 186.797745,410.079010 200.878479,383.433289 
	C212.732529,361.001343 226.402908,339.761108 241.821564,319.598419 
	C255.822235,301.289978 271.236481,284.258392 288.060974,268.589355 
	C308.599823,249.461014 330.936798,232.596695 354.966095,217.997711 
	C381.597870,201.817581 409.520874,188.206314 439.132263,178.696930 
	C460.174377,171.939484 481.840057,166.971329 503.439270,162.154526 
	C517.929138,158.923141 532.779236,157.283966 547.490967,155.085159 
	C551.716248,154.453659 556.015686,154.250351 560.290405,154.032135 
	C568.388489,153.618790 576.493103,153.052460 584.595520,153.044342 
	C659.591492,152.969238 734.587708,153.001770 809.583801,152.989288 
	C811.574585,152.988968 813.565430,152.833328 815.765381,151.883652 
	C815.982971,142.355469 816.006409,133.693741 815.997437,125.032036 
	C815.956421,85.390221 815.906433,45.748405 815.859680,6.106588 
	C814.414856,5.737800 812.970215,5.047496 811.525085,5.046389 
	C742.540283,4.993541 673.554382,4.800365 604.571167,5.138417 
	C586.927307,5.224880 569.254700,6.592032 551.663452,8.143580 
	C535.682922,9.553061 519.729736,11.603024 503.885162,14.127696 
	C488.442444,16.588333 472.976746,19.316910 457.836029,23.166277 
	C434.031647,29.218285 410.198059,35.433315 386.928772,43.227169 
	C367.053192,49.884323 347.813202,58.534420 328.543762,66.883896 
	C298.641418,79.840652 270.775024,96.543343 244.075226,115.104530 
	C231.193436,124.059692 218.817337,133.818970 206.782455,143.895172 
	C193.512253,155.005661 180.099716,166.138519 168.192078,178.636398 
	C152.550308,195.053497 138.022675,212.569199 123.553993,230.057602 
	C105.174454,252.273178 90.005440,276.683411 75.983147,301.846680 
	C61.487259,327.859772 48.667160,354.660309 39.103817,382.844818 
	C31.209915,406.109253 23.863523,429.607971 17.541193,453.340332 
	C13.228543,469.528931 10.676686,486.233826 8.116911,502.828064 
	C5.843598,517.565186 4.656449,532.469482 2.931870,547.293213 
	C2.848767,548.007507 2.205837,548.656738 1.411800,549.168091 
	C1.000000,366.383636 1.000000,183.767288 1.000000,1.000000 
	C347.354248,1.000000 693.708496,1.000000 1040.531372,0.999999 
	C1038.505737,1.989192 1036.092651,3.454651 1033.505005,3.895335 
	C1000.653809,9.489897 971.266663,22.832718 944.667175,42.768742 
	C915.752686,64.439819 894.277344,92.065048 879.224365,124.661385 
	C870.795227,142.914200 864.544373,162.016647 862.043518,182.098953 
	C860.724670,192.690063 859.658081,203.336304 859.083679,213.990326 
	C858.387512,226.904144 858.045837,239.852386 858.041626,252.785904 
	C857.979736,442.949310 857.975586,633.112732 858.033997,823.276184 
	C858.040466,844.289001 840.393982,862.252869 819.465820,862.140442 
	C750.468933,861.769653 681.462036,862.542114 612.474365,861.665894 
	C592.094727,861.407104 571.620667,857.982666 551.455261,854.480835 
	C531.738403,851.056946 512.623535,844.982910 494.052185,837.169312 
	C472.992767,828.308838 452.908081,817.812744 435.157593,803.436218 
	C423.875336,794.298401 412.778961,784.705688 402.910065,774.097534 
	C385.073730,754.925049 371.261139,732.977661 360.814728,708.814331 
	C353.388336,691.636536 348.208923,673.867188 344.468414,655.664673 
	C342.592926,646.538025 341.834900,637.147339 341.079895,627.834839 
	C340.371643,619.098877 340.056213,610.308533 340.058472,601.542175 
	C340.063019,583.903625 342.638306,566.504333 346.406250,549.337708 
	C351.713348,525.159180 360.070129,502.014801 371.978790,480.258667 
	C380.385986,464.899445 389.710205,450.086945 401.506714,437.075256 
	C410.357971,427.312225 419.010590,417.138092 429.117584,408.803375 
	C441.543182,398.556549 455.088043,389.559662 468.698975,380.885284 
	C484.902039,370.558929 502.715973,363.245880 521.182617,358.264862 
	C537.506897,353.861786 554.246765,350.733643 570.978027,348.196350 
	C582.516663,346.446503 594.349854,346.173401 606.057861,346.083374 
	C671.492310,345.580261 736.928589,345.319092 802.364563,345.035767 
	C806.439331,345.018127 810.516418,345.515503 815.178833,345.192993 
	C815.841980,343.955292 815.985474,343.297852 815.985657,342.640381 
	C815.997559,296.252899 816.005249,249.865402 815.959351,203.477951 
	C815.958191,202.283707 815.359192,201.090057 815.038940,199.896118 
z"/>
<path fill="#000000" opacity="1.000000" stroke="none" 
	d="
M1.000001,650.468628 
	C1.663784,650.788025 2.827399,651.524109 2.915524,652.371948 
	C4.036674,663.158020 4.610819,674.014832 6.106301,684.744629 
	C8.089891,698.976501 10.252724,713.221008 13.246673,727.266479 
	C19.158373,755.000061 26.108425,782.509277 36.048401,809.111328 
	C42.606571,826.662842 49.589199,844.085205 57.152233,861.225403 
	C70.575012,891.645630 86.989647,920.488098 106.063187,947.700928 
	C116.937584,963.215820 128.387894,978.414062 140.647278,992.847473 
	C153.704453,1008.220276 167.483551,1023.074768 181.923767,1037.154175 
	C200.728287,1055.488892 221.174255,1071.946655 242.510391,1087.382935 
	C269.476837,1106.892822 297.818146,1124.033081 327.847595,1138.166016 
	C348.762604,1148.009155 370.201233,1156.958618 391.982941,1164.679688 
	C413.571991,1172.332275 435.710602,1178.632812 457.933167,1184.237915 
	C476.080780,1188.815186 494.643646,1191.883911 513.139893,1194.901367 
	C530.581177,1197.746826 548.168518,1199.710815 565.708130,1201.931885 
	C570.443481,1202.531494 575.233643,1202.818237 580.007690,1202.975952 
	C711.672180,1207.326172 843.375916,1204.089111 975.059692,1204.822266 
	C996.029724,1204.939087 1016.884094,1202.142334 1037.492188,1197.410767 
	C1058.855591,1192.505737 1079.220215,1185.170898 1098.063354,1174.206665 
	C1109.008789,1167.837891 1119.219971,1160.055786 1129.176270,1152.170654 
	C1149.641235,1135.963013 1164.268433,1114.925903 1175.916260,1091.903564 
	C1186.407593,1071.166870 1193.011597,1049.040161 1197.085205,1026.106812 
	C1200.792725,1005.234497 1202.094971,984.265747 1202.063599,963.097839 
	C1201.919312,865.613220 1202.000000,768.128174 1202.000000,670.643311 
	C1202.000000,668.697998 1202.000000,666.752686 1202.000000,664.807373 
	C1202.310669,664.692505 1202.621216,664.577576 1202.931885,664.462646 
	C1206.385254,670.207825 1209.820557,675.964111 1213.295166,681.696411 
	C1230.297729,709.746948 1247.357300,737.762939 1264.303345,765.847473 
	C1275.685547,784.710938 1286.849609,803.705933 1298.224976,822.573608 
	C1311.117065,843.957092 1324.164673,865.246643 1337.091675,886.609253 
	C1350.362793,908.540710 1363.562500,930.515442 1376.807373,952.462891 
	C1389.950806,974.242188 1403.128540,996.000854 1416.259766,1017.787354 
	C1429.314453,1039.446655 1442.243042,1061.182251 1455.391235,1082.784302 
	C1465.261963,1099.001465 1475.926758,1114.627563 1488.407593,1129.049561 
	C1506.884155,1150.399902 1527.878662,1168.800171 1552.009766,1183.285278 
	C1576.349243,1197.895508 1602.320557,1208.915527 1630.487793,1214.006348 
	C1636.753906,1215.138672 1643.068237,1216.002075 1649.347290,1217.066772 
	C1650.068115,1217.188965 1650.703857,1217.811890 1651.189575,1218.601318 
	C1101.108032,1219.000000 551.216187,1219.000000 1.000000,1219.000000 
	C1.000000,1029.645874 1.000000,840.291626 1.000001,650.468628 
z"/>
<path fill="#000000" opacity="1.000000" stroke="none" 
	d="
M1721.531372,1.000010 
	C1719.312866,1.996433 1716.701172,3.474810 1713.926025,3.909891 
	C1697.713135,6.451772 1682.348022,11.621984 1667.234131,17.878803 
	C1651.110474,24.553619 1636.392944,33.618656 1622.697998,44.187862 
	C1610.303223,53.753727 1599.142822,64.690529 1589.216309,77.006073 
	C1577.944458,90.990974 1568.170532,105.799248 1560.592529,122.008934 
	C1551.648071,141.141510 1544.851929,161.039078 1542.064819,182.063782 
	C1540.620117,192.961029 1539.640259,203.948914 1539.086670,214.927933 
	C1538.385132,228.840469 1538.053223,242.785385 1538.041870,256.716736 
	C1537.959351,358.198242 1537.997314,459.679810 1537.997314,561.161377 
	C1537.997314,562.992004 1537.997314,564.822632 1537.997314,566.653259 
	C1537.724365,566.805115 1537.451294,566.957031 1537.178345,567.108887 
	C1533.848022,561.581909 1530.446411,556.096497 1527.201050,550.520081 
	C1517.594849,534.014099 1508.011597,517.494385 1498.492920,500.937805 
	C1489.218872,484.806915 1480.095703,468.589081 1470.794800,452.473846 
	C1461.904663,437.070312 1452.853516,421.759857 1443.905029,406.389832 
	C1435.933350,392.697052 1428.008545,378.976898 1420.057129,365.272217 
	C1409.573120,347.202606 1399.079468,329.138489 1388.597046,311.067932 
	C1379.833862,295.961029 1371.072388,280.853180 1362.325317,265.736877 
	C1352.345947,248.490311 1342.403809,231.222214 1332.407837,213.985245 
	C1323.071289,197.885345 1313.637085,181.842010 1304.333984,165.722885 
	C1291.839600,144.074265 1279.277588,122.430779 1262.837769,103.470604 
	C1251.365112,90.239182 1239.747559,77.025681 1227.104858,64.944641 
	C1212.303467,50.800701 1195.405396,39.204033 1177.510376,29.104708 
	C1156.307007,17.138227 1133.628174,9.299192 1109.955566,4.079668 
	C1106.199341,3.251469 1102.415771,2.547149 1098.822510,1.392783 
	C1306.354248,1.000000 1513.708496,1.000000 1721.531372,1.000010 
z"/>
<path fill="#000000" opacity="1.000000" stroke="none" 
	d="
M1704.468628,1219.000000 
	C1704.762451,1218.336426 1705.466553,1217.178467 1706.295776,1217.080688 
	C1734.954590,1213.700928 1761.542236,1204.555420 1786.218506,1189.484253 
	C1800.206665,1180.941040 1813.016724,1170.973389 1824.201660,1159.145020 
	C1840.403442,1142.011230 1852.985229,1122.426758 1862.288452,1100.627686 
	C1868.598755,1085.841675 1873.578003,1070.716064 1876.368774,1054.962769 
	C1878.480591,1043.042114 1880.739380,1030.934082 1880.807129,1018.897522 
	C1881.461914,902.473694 1881.666870,786.047241 1881.999878,669.621582 
	C1882.003540,668.347900 1882.000488,667.074280 1882.936279,665.464966 
	C1886.396851,671.222290 1889.838623,676.991089 1893.321655,682.734802 
	C1909.312988,709.104614 1925.358521,735.441711 1941.299805,761.841797 
	C1951.759888,779.164795 1962.020386,796.608337 1972.469482,813.938171 
	C1985.273560,835.173828 1998.203735,856.333374 2011.038086,877.550964 
	C2024.308350,899.489197 2037.523071,921.460876 2050.772705,943.411560 
	C2062.910645,963.520813 2075.071777,983.615845 2087.205566,1003.727478 
	C2098.334229,1022.173218 2109.246338,1040.752930 2120.608154,1059.053589 
	C2132.657471,1078.460938 2144.078613,1098.383911 2157.648682,1116.692261 
	C2179.107422,1145.643677 2206.026855,1168.954346 2237.479736,1186.857910 
	C2259.188721,1199.215088 2282.202881,1208.181030 2306.532227,1213.703613 
	C2313.214355,1215.220337 2320.084473,1215.902588 2326.854980,1217.045654 
	C2327.739258,1217.194946 2328.544434,1217.812134 2329.193115,1218.606201 
	C2120.979004,1219.000000 1912.958130,1219.000000 1704.468628,1219.000000 
z"/>
<path fill="#000000" opacity="1.000000" stroke="none" 
	d="
M2386.468750,1219.000000 
	C2386.761719,1218.336304 2387.456055,1217.196655 2388.294922,1217.078125 
	C2413.594971,1213.502808 2437.507568,1205.958496 2459.739746,1193.126099 
	C2473.152588,1185.384155 2485.592529,1176.556763 2496.854004,1165.829224 
	C2511.570068,1151.810913 2523.713379,1136.042603 2533.435303,1118.215454 
	C2545.423584,1096.232788 2553.223145,1072.931152 2557.096191,1048.236572 
	C2557.866943,1043.322266 2559.158936,1038.489868 2560.605469,1033.809814 
	C2561.000000,1095.591675 2561.000000,1157.183228 2561.000000,1219.000000 
	C2502.979248,1219.000000 2444.958496,1219.000000 2386.468750,1219.000000 
z"/>
<path fill="#FF0000" opacity="1.000000" stroke="none" 
	d="
M1053.377930,970.628906 
	C1053.126587,969.164795 1053.007935,967.337097 1053.007812,965.509399 
	C1052.999512,725.315918 1052.999634,485.122467 1053.008179,244.929001 
	C1053.008179,243.102081 1053.130737,241.275162 1053.545532,239.202118 
	C1053.930054,241.621429 1053.995483,244.286865 1053.995605,246.952286 
	C1054.000366,485.405640 1054.001343,723.859009 1053.981934,962.312378 
	C1053.981812,964.963318 1053.710571,967.614319 1053.377930,970.628906 
z"/>
<path fill="#FF2B2B" opacity="1.000000" stroke="none" 
	d="
M815.681091,6.466122 
	C815.906433,45.748405 815.956421,85.390221 815.997437,125.032036 
	C816.006409,133.693741 815.982971,142.355469 815.909058,151.475189 
	C815.562622,149.980682 815.038208,148.028397 815.036194,146.075592 
	C814.989929,101.303978 814.995422,56.532314 815.021973,11.760681 
	C815.022949,10.115575 815.335266,8.470656 815.681091,6.466122 
z"/>
<path fill="#FF2B2B" opacity="1.000000" stroke="none" 
	d="
M815.030762,200.371109 
	C815.359192,201.090057 815.958191,202.283707 815.959351,203.477951 
	C816.005249,249.865402 815.997559,296.252899 815.985657,342.640381 
	C815.985474,343.297852 815.841980,343.955292 815.402222,344.858032 
	C815.033630,297.017609 815.028076,248.931854 815.030762,200.371109 
z"/>
</svg>