<?xml version="1.0" encoding="UTF-8"?>
<svg version="1.1" xmlns="http://www.w3.org/2000/svg" width="225" height="225">
<path d="M0 0 C2.24663192 0.01607695 4.4914593 0.000056 6.73803711 -0.01904297 C19.51777986 -0.03906008 31.80654322 1.63965405 43.75170898 6.45361328 C44.49549805 6.74888916 45.23928711 7.04416504 46.00561523 7.34838867 C73.94848777 18.94882485 96.02010914 41.70731235 107.81420898 69.39111328 C113.03368122 82.78856044 115.18778386 95.2666478 115.18481445 109.5925293 C115.18915618 111.92524046 115.22548692 114.25600459 115.26342773 116.58837891 C115.45769728 142.49925044 105.6715285 166.82702905 88.81420898 186.39111328 C88.26249023 187.07560547 87.71077148 187.76009766 87.14233398 188.46533203 C82.36224056 194.25835002 76.7530784 198.82529724 70.81420898 203.39111328 C69.64245117 204.30376953 69.64245117 204.30376953 68.44702148 205.23486328 C49.18326929 219.50430935 26.57097027 225.79821701 2.81420898 225.76611328 C2.13334229 225.76556946 1.45247559 225.76502563 0.75097656 225.76446533 C-26.27611921 225.66548528 -50.61517324 217.23262754 -71.18579102 199.39111328 C-71.9940332 198.72724609 -72.80227539 198.06337891 -73.63500977 197.37939453 C-93.81205023 180.24316393 -107.98876856 153.82240403 -110.36633301 127.38345337 C-110.65489186 122.61562136 -110.66695624 117.85341566 -110.62329102 113.07861328 C-110.6199173 112.35810791 -110.61654358 111.63760254 -110.61306763 110.89526367 C-110.53721767 99.68622232 -109.89725156 89.04939685 -106.18579102 78.39111328 C-105.93909668 77.68148437 -105.69240234 76.97185547 -105.43823242 76.24072266 C-99.51096052 59.77971709 -91.00163174 46.2172147 -79.18579102 33.39111328 C-78.49614258 32.61896484 -77.80649414 31.84681641 -77.09594727 31.05126953 C-57.68140454 10.32326937 -27.83580566 -0.23597357 0 0 Z " fill="#089789" transform="translate(110.185791015625,-0.39111328125)"/>
<path d="M0 0 C0.99 0 1.98 0 3 0 C3 23.1 3 46.2 3 70 C15.21 70 27.42 70 40 70 C39.24648118 74.52111291 38.83441853 76.8316781 36.92581177 80.66304016 C36.49123657 81.54491501 36.05666138 82.42678986 35.60891724 83.33538818 C35.13098724 84.28472229 34.65305725 85.2340564 34.16064453 86.2121582 C33.65813171 87.22579941 33.1556189 88.23944061 32.63787842 89.28379822 C30.97765671 92.62691164 29.30573413 95.96400698 27.6328125 99.30078125 C26.47516447 101.62131077 25.31793341 103.94204835 24.16110229 106.26298523 C21.73691051 111.12177385 19.30688729 115.9775827 16.87255859 120.83129883 C14.05722898 126.44500142 11.25511385 132.06515623 8.45947564 137.68868762 C5.76830898 143.10088999 3.06603548 148.50745969 0.35915756 153.91182518 C-0.79138993 156.21209772 -1.93884211 158.51392108 -3.0831871 160.81728554 C-4.67988416 164.02800821 -6.28911056 167.23212954 -7.90185547 170.43481445 C-8.375737 171.39426971 -8.84961853 172.35372498 -9.33786011 173.34225464 C-9.77807495 174.21003036 -10.21828979 175.07780609 -10.67184448 175.97187805 C-11.05124617 176.73009511 -11.43064785 177.48831217 -11.82154655 178.2695055 C-13 180 -13 180 -16 181 C-16 157.9 -16 134.8 -16 111 C-28.87 111 -41.74 111 -55 111 C-54.21270068 106.27620406 -53.79975382 104.11229528 -51.68603516 100.18261719 C-50.96871719 98.83118622 -50.96871719 98.83118622 -50.23690796 97.45245361 C-49.71786896 96.49361267 -49.19882996 95.53477173 -48.6640625 94.546875 C-47.56189327 92.47380266 -46.46068117 90.40022122 -45.36035156 88.32617188 C-44.51760681 86.74485474 -44.51760681 86.74485474 -43.65783691 85.1315918 C-41.12524244 80.34761575 -38.66533056 75.52756745 -36.2109375 70.703125 C-35.73646179 69.77254776 -35.26198608 68.84197052 -34.77313232 67.88319397 C-33.80250283 65.97932734 -32.8323113 64.07523736 -31.86254883 62.17092896 C-29.2832166 57.10619021 -26.70022624 52.04331792 -24.1171875 46.98046875 C-23.34523041 45.46724281 -23.34523041 45.46724281 -22.55767822 43.92344666 C-17.55790055 34.12645538 -12.53377245 24.34206039 -7.5 14.5625 C-7.11092468 13.80658569 -6.72184937 13.05067139 -6.32098389 12.27185059 C-4.21497565 8.18072519 -2.10799206 4.09010365 0 0 Z " fill="#FDFEFE" transform="translate(122,22)"/>
<path d="M0 0 C0.66 0.33 1.32 0.66 2 1 C-2.28565853 6.09057916 -6.19579645 10.66258296 -12 14 C-10.41332422 10.09714233 -7.86649519 7.66479018 -4.875 4.75 C-3.96492188 3.85796875 -3.05484375 2.9659375 -2.1171875 2.046875 C-1.41851562 1.37140625 -0.71984375 0.6959375 0 0 Z " fill="#9ED2CC" transform="translate(39,25)"/>
</svg>
