<svg version="1.1" id="Layer_1" xmlns="http://www.w3.org/2000/svg" xmlns:xlink="http://www.w3.org/1999/xlink" x="0px" y="0px"
	 width="100%" viewBox="0 0 224 208" enable-background="new 0 0 224 208" xml:space="preserve">
<path fill="#000000" opacity="1.000000" stroke="none" 
	d="
M78.969986,137.970520 
	C81.768517,135.377197 80.520966,129.874664 76.539482,127.669022 
	C75.427704,127.053108 74.108803,126.811073 73.065720,126.458611 
	C72.443481,124.952156 74.632370,124.419350 73.662254,122.913727 
	C73.388260,122.802956 72.835571,122.359787 72.536034,122.491646 
	C68.549019,124.246826 65.828598,125.172005 67.103310,118.638168 
	C67.644028,115.866554 65.235626,112.507141 69.736977,110.229897 
	C80.191162,120.294434 89.077103,132.097763 100.245323,142.233154 
	C98.423927,144.297119 98.965202,146.027664 101.016586,148.261353 
	C102.952446,150.369278 103.152519,154.949783 105.246429,155.869598 
	C111.570496,158.647644 114.269142,164.730392 119.036293,168.789795 
	C120.737915,170.238785 123.081253,171.125015 125.278130,171.766754 
	C132.678558,173.928528 139.922379,176.224854 143.698303,183.793976 
	C141.539597,184.252213 137.952438,180.827057 136.596954,186.715897 
	C131.824829,178.516678 126.319443,188.452286 121.299057,183.560135 
	C121.663353,184.886017 121.777885,185.681870 121.897118,185.682571 
	C128.498001,185.721542 133.662704,190.055176 139.687241,191.882614 
	C142.826935,192.834991 146.069855,192.607147 148.971817,193.797897 
	C154.397736,196.024323 158.920990,193.590576 163.569336,191.514145 
	C164.658478,191.027634 165.654343,190.338394 165.562668,188.938766 
	C165.483505,187.730103 164.450592,187.490875 163.554916,187.017120 
	C161.304932,185.826935 158.395966,185.818542 156.511658,183.208557 
	C160.447113,180.342865 163.904358,184.099121 167.603363,183.632385 
	C168.071762,181.885086 168.530731,180.172974 169.126495,177.950516 
	C166.671066,178.663269 165.699890,182.519165 162.633316,180.539795 
	C161.143753,179.878021 163.892151,176.761337 160.122513,176.561234 
	C158.693436,176.485367 157.119888,172.181900 158.811325,170.070923 
	C160.762787,167.635452 163.677414,168.839325 166.076141,170.184448 
	C167.233215,170.833282 167.032654,172.724274 168.579391,173.165756 
	C169.965622,172.417313 169.041214,170.104248 171.010849,169.672897 
	C173.633682,169.954498 171.891754,172.386002 172.704971,173.523972 
	C174.145584,174.323837 175.711792,172.702133 177.122437,173.951752 
	C178.091324,175.383041 176.843658,176.268051 176.213089,177.392792 
	C174.572861,180.318542 172.064209,182.397964 171.929535,186.583939 
	C171.726334,192.900482 164.993332,197.696518 158.551407,198.320419 
	C153.536682,198.806107 148.598389,198.529404 143.624725,198.123199 
	C142.145721,198.002396 140.459686,197.745255 139.181717,198.288055 
	C133.015533,200.907043 127.998741,197.522949 122.869438,195.264984 
	C119.013695,193.567673 114.994896,192.691315 110.948296,191.992996 
	C105.551292,191.061630 100.402519,189.416718 95.235764,187.700607 
	C92.527550,186.801086 91.809380,183.414276 87.986633,183.359467 
	C85.295265,183.320877 82.997902,182.421555 80.176300,183.921829 
	C76.912178,185.657379 75.600342,181.530563 72.377930,180.817337 
	C76.378334,175.905869 74.325661,173.671036 69.775536,172.159439 
	C67.911850,171.540298 66.344490,170.013351 65.332008,168.254974 
	C62.394897,163.154175 57.723721,159.725113 53.518620,155.864471 
	C51.723171,154.216080 50.641155,152.289001 49.751587,150.097763 
	C47.721729,145.097702 44.458794,140.642792 40.700634,137.113510 
	C34.471336,131.263596 34.560699,123.215706 31.653816,116.238167 
	C29.314232,110.622353 28.474934,104.417007 24.727789,99.052704 
	C22.653961,99.237816 20.414782,98.855461 17.677910,97.304871 
	C16.493065,105.137512 24.054344,110.964195 21.369310,118.534760 
	C16.888109,118.542564 17.767775,115.131790 17.319521,112.351425 
	C14.853413,112.731232 14.014441,112.188065 13.812928,109.067581 
	C13.459100,103.588425 13.058781,98.094009 12.679870,92.603218 
	C12.511056,90.156944 12.032053,87.715569 9.002462,86.686226 
	C7.104897,86.041512 7.374260,84.415115 7.874094,82.520889 
	C9.412307,76.691536 7.248774,74.207687 1.370073,74.986343 
	C1.000000,68.645599 1.000000,62.291203 1.351969,55.548721 
	C4.658039,55.962830 7.679971,57.737499 10.476830,54.411221 
	C8.713763,53.414944 5.960503,52.691959 8.651787,49.937466 
	C9.508480,49.060646 9.129710,48.100666 8.733980,47.162296 
	C7.318040,43.804768 6.757936,40.397175 8.971919,37.203091 
	C11.061545,34.188412 14.399173,33.936691 17.985188,33.857216 
	C14.010799,33.200363 11.513839,30.580900 12.374071,27.355846 
	C13.760466,22.158188 11.866744,17.231750 12.436940,12.220081 
	C13.091304,6.468644 10.999583,4.542876 5.334770,5.868386 
	C3.881171,6.208513 2.444466,6.620842 1.000000,7.000000 
	C1.000000,5.016348 1.000000,3.032696 1.000000,1.000000 
	C16.687532,1.000000 32.375107,1.000000 48.531342,1.000000 
	C47.405289,6.629799 52.921108,9.058980 54.693527,13.192925 
	C55.930008,16.076859 56.519493,18.501572 55.012417,21.075556 
	C53.900444,22.974731 51.557163,24.063423 53.116291,27.066086 
	C54.881477,30.465593 56.676144,33.417698 60.837418,34.049862 
	C69.110756,35.306717 74.243248,41.886078 81.163147,45.727722 
	C77.369270,47.663692 73.436607,46.816093 69.735535,47.859489 
	C67.638084,48.450794 64.048683,46.597771 63.581455,43.742752 
	C62.765854,38.758934 60.146770,38.735390 56.029976,40.553955 
	C56.084782,36.255951 54.190037,33.810440 50.178619,33.414742 
	C49.212189,33.319408 47.708508,33.069820 47.324547,33.566196 
	C44.530838,37.177864 40.011562,37.759579 36.359299,40.081608 
	C41.473335,40.491646 46.761326,38.281658 51.864632,41.851234 
	C50.644703,43.352196 47.537136,43.900024 49.092079,46.425331 
	C49.616791,47.277485 51.052723,48.176968 51.959599,48.072960 
	C54.846741,47.741840 54.197750,44.996052 54.593498,43.036697 
	C56.224319,42.689510 57.669086,42.381935 59.785942,41.931278 
	C60.119045,49.573772 67.364044,49.809898 71.831154,53.080231 
	C73.806625,54.526455 76.990234,54.131695 79.267761,52.048695 
	C80.122269,51.267170 81.057114,50.499172 82.088669,50.001217 
	C84.156113,49.003197 86.290497,49.443783 87.267914,51.414413 
	C88.289101,53.473282 86.201775,54.125237 84.732262,54.900970 
	C78.657379,58.107834 71.841331,59.132702 64.817818,61.738178 
	C68.572159,63.007626 65.187965,65.690506 66.568230,67.741043 
	C69.618286,67.394096 70.641685,63.791271 74.138802,63.530872 
	C75.807007,64.964752 77.851730,66.939880 81.184967,65.970581 
	C77.734169,74.458977 75.647400,76.026749 67.646667,75.461098 
	C63.767708,75.186859 64.425560,78.464027 63.633820,80.051315 
	C61.298985,80.782791 59.941017,77.526810 58.171852,79.469604 
	C56.683479,81.104050 55.036430,79.510376 53.851124,79.942635 
	C50.971409,87.757797 44.781036,92.544609 38.822903,98.201042 
	C42.175049,98.656898 44.362747,101.875420 48.403805,98.987709 
	C47.444523,103.076530 44.843372,105.516533 45.085560,108.873611 
	C45.330540,112.269455 48.627411,113.906998 49.678558,116.452721 
	C48.449001,119.104477 46.831398,116.436043 45.623371,117.323616 
	C46.896675,120.666267 46.896675,120.666267 52.965908,118.981049 
	C49.771881,125.027481 58.730991,123.254654 58.146965,128.099686 
	C54.471428,127.927277 51.285381,126.272827 47.675537,125.593437 
	C51.512062,127.603706 55.218239,129.941620 59.220989,131.534058 
	C63.401867,133.197342 66.714294,128.708618 70.877769,129.140533 
	C72.876854,130.440399 71.030037,132.647873 72.069878,134.214127 
	C74.303123,135.544006 76.542427,134.167587 78.700256,134.086685 
	C79.776840,135.163422 79.497292,136.302750 78.792313,137.721649 
	C77.189568,138.160141 75.709885,137.069305 74.736717,138.945709 
	C77.644562,145.040161 85.529861,144.740479 89.049973,150.111465 
	C88.985275,146.239563 86.449799,144.383835 83.436256,143.592911 
	C80.265152,142.760635 78.975960,141.024719 78.969986,137.970520 
M20.181602,44.583889 
	C17.562048,45.734650 16.245037,47.875809 16.820490,50.554787 
	C17.248735,52.548466 16.447542,53.341129 15.031590,54.063160 
	C10.158064,56.548286 9.621513,61.817238 7.535452,66.024849 
	C6.605694,67.900177 7.567161,70.503540 9.728553,70.900894 
	C12.181704,71.351898 13.964080,73.190216 16.177008,73.595009 
	C18.886467,71.436516 15.561392,68.081772 18.141579,66.115112 
	C21.908503,67.147240 19.576881,70.416351 20.197170,72.673973 
	C21.886375,72.313972 23.091761,71.891396 23.898397,70.520554 
	C23.859415,68.912415 20.988464,67.283257 23.748854,65.466606 
	C25.026417,64.625816 26.222672,64.551460 27.464432,65.353172 
	C30.601658,67.378670 26.850101,69.368805 27.472446,72.047615 
	C30.460314,69.241386 33.775352,68.322227 37.936073,69.976593 
	C36.559303,66.954147 34.632458,65.239403 34.402573,62.538776 
	C34.229240,60.502502 34.394192,57.610329 31.024403,57.307991 
	C30.017683,60.233284 33.156788,61.711658 31.925873,64.116447 
	C29.643425,65.200851 28.077938,63.933903 27.005220,62.176201 
	C25.779926,60.168484 24.500053,58.477047 21.900820,59.323418 
	C18.698711,60.366100 14.873244,60.426670 13.576706,64.666336 
	C13.138213,66.100204 13.767750,68.138855 11.075545,69.223694 
	C8.849186,56.261154 20.719633,55.277760 27.133190,50.072567 
	C24.576164,47.493874 22.370983,52.137955 19.857611,49.653137 
	C20.505362,46.905399 22.865170,45.786373 25.085255,44.947971 
	C29.483936,43.286842 30.737436,40.014050 30.079622,35.862106 
	C29.718803,33.584724 29.937431,31.826214 32.057076,30.810354 
	C35.676464,29.075733 35.998009,25.669247 35.294140,22.713354 
	C34.322506,18.632996 36.623371,18.771666 39.218010,18.279924 
	C40.510963,18.034887 41.700638,19.652811 42.929550,18.292183 
	C43.799458,15.780550 42.765137,13.334649 40.573627,13.097910 
	C36.541908,12.662381 32.717247,9.918736 28.377104,11.525206 
	C28.679039,14.630630 29.732117,17.206408 31.075905,19.718620 
	C34.676693,26.450293 31.568905,31.641720 23.790920,31.777826 
	C22.173443,31.806131 21.762718,32.441574 21.723415,34.410313 
	C23.724102,34.524094 26.780910,33.029137 27.433603,36.229431 
	C27.807184,38.061184 28.494024,40.171982 26.804302,41.895256 
	C25.160805,43.571384 22.646141,42.992630 20.181602,44.583889 
M97.411018,159.080353 
	C91.943756,156.691254 86.748398,153.878265 82.444923,149.636871 
	C80.407463,147.628799 78.180077,147.697388 75.732819,148.858887 
	C76.579056,151.620071 78.971512,152.494232 80.563591,154.184006 
	C79.433823,155.402802 77.481758,153.278915 76.458961,155.759201 
	C81.032158,160.772095 72.398598,160.880508 72.438225,164.801147 
	C76.065948,163.640381 76.185532,165.133606 81.205017,164.731628 
	C84.838600,164.440628 86.884125,166.018234 89.648163,166.765854 
	C90.664055,167.040649 91.464058,166.486404 92.164780,165.585358 
	C96.156235,160.452850 99.840744,160.766830 103.227203,166.561417 
	C101.957520,168.022324 99.596535,168.239975 98.704567,170.160553 
	C101.208160,174.306915 108.327850,176.422394 112.583160,174.295593 
	C110.272224,166.867966 104.386467,162.924255 97.411018,159.080353 
M58.161560,144.200363 
	C62.215977,148.801300 67.878883,150.601654 73.217972,153.633911 
	C73.835976,150.631882 72.263779,149.188843 71.199600,147.608871 
	C69.579819,145.203995 68.418022,142.606628 68.421227,139.730804 
	C68.423294,137.879410 69.091820,136.083755 66.669304,135.209015 
	C64.121994,134.289200 61.169872,132.952850 59.116413,135.039734 
	C56.663029,137.533035 54.254917,137.887070 51.006744,136.683472 
	C53.558285,139.097290 57.578716,139.396957 58.161560,144.200363 
M48.817673,75.514755 
	C50.863182,74.175568 53.306190,73.271011 54.317936,70.639488 
	C51.434509,72.787300 48.588413,71.607658 45.587799,70.549309 
	C44.181404,75.811493 39.249790,75.328621 35.543732,76.953011 
	C35.750023,82.052902 43.401917,80.473488 42.354546,86.485390 
	C45.537830,84.735397 48.757446,84.246765 46.303684,80.120346 
	C45.116669,78.124184 46.111763,76.652000 48.817673,75.514755 
M38.811813,61.991589 
	C40.712105,63.732479 42.696285,65.440567 40.748253,68.540039 
	C43.669472,68.543037 45.806454,67.618492 46.836731,65.738434 
	C47.956890,63.694370 47.938911,60.530846 47.535950,58.837257 
	C45.825294,51.647629 40.449341,56.102669 36.012680,56.336918 
	C39.580219,56.861687 39.054188,59.138481 38.811813,61.991589 
M15.857549,93.079140 
	C16.161816,93.809494 16.171446,94.751495 17.748199,95.077797 
	C19.564711,91.359604 15.884442,86.443222 21.303093,82.566490 
	C17.555471,83.095154 15.590484,82.799614 14.915777,80.072983 
	C14.387800,77.939323 14.015239,75.597572 11.238502,74.372993 
	C11.761582,80.609077 14.960921,86.235519 15.857549,93.079140 
M59.370338,54.762943 
	C62.733768,53.178238 59.814545,50.621254 61.071156,48.098713 
	C56.972305,49.821457 53.671959,51.173065 50.405270,52.601650 
	C49.323238,53.074848 48.339806,53.704746 49.063316,55.227524 
	C49.739525,56.650753 50.795742,56.526588 51.949429,56.069965 
	C54.111507,55.214226 56.328957,54.697102 59.370338,54.762943 
M84.880722,171.328003 
	C87.084290,170.250214 88.684441,171.953339 90.463203,172.626694 
	C93.363312,173.724533 94.399513,172.690125 94.427437,169.837357 
	C90.970871,168.363846 87.712288,168.758621 84.471535,169.549164 
	C82.757919,169.967178 82.452202,170.675156 84.880722,171.328003 
M34.352669,81.649910 
	C33.062881,79.683411 31.522840,78.224213 28.772890,78.751450 
	C28.082914,81.331429 29.226303,83.197670 31.012907,84.261398 
	C32.599220,85.205872 33.593201,83.603882 34.352669,81.649910 
M36.737740,47.786667 
	C39.308056,46.430653 43.104748,47.693268 45.327694,43.159023 
	C40.984318,45.857704 36.247261,44.620979 32.991383,48.015411 
	C34.293568,49.085609 35.150795,48.215836 36.737740,47.786667 
M107.962723,181.750961 
	C110.920334,183.049393 112.188690,181.041779 114.239799,178.395966 
	C110.553307,177.207214 108.110397,176.529694 107.962723,181.750961 
M38.037350,108.912010 
	C38.918400,109.857864 38.625847,111.560547 40.125515,112.173515 
	C41.746780,111.488953 42.803131,110.501785 41.305759,108.871872 
	C40.280121,107.755470 39.398163,105.816719 37.350731,106.784813 
	C36.641506,107.120148 37.334038,107.926910 38.037350,108.912010 
M44.753323,27.528784 
	C48.347408,29.105291 48.347408,29.105291 48.896252,24.928751 
	C47.266159,25.095469 45.596230,24.982809 44.753323,27.528784 
z"/>
<path fill="#000000" opacity="1.000000" stroke="none" 
	d="
M142.466125,209.000000 
	C142.504211,207.122162 142.666214,205.092484 145.547913,205.289154 
	C149.558197,205.562851 154.153137,203.509064 156.919922,208.725510 
	C152.310745,209.000000 147.621490,209.000000 142.466125,209.000000 
z"/>
<path fill="#000000" opacity="1.000000" stroke="none" 
	d="
M131.444168,209.000000 
	C132.563766,204.129181 136.551132,206.080078 139.875061,205.326385 
	C139.540985,207.613892 137.655167,206.767731 136.636017,207.622543 
	C137.457108,208.071777 138.023300,208.381561 138.794754,208.845673 
	C136.629440,209.000000 134.258896,209.000000 131.444168,209.000000 
z"/>
<path fill="#000000" opacity="1.000000" stroke="none" 
	d="
M80.159973,41.944664 
	C77.123756,39.131828 72.321716,38.835411 71.659210,33.813690 
	C71.468758,32.370113 68.368591,33.667423 67.498924,31.659504 
	C67.557060,29.046059 69.799538,28.985855 71.413475,28.994999 
	C74.957916,29.015079 78.471687,29.888977 82.068916,29.308069 
	C83.003510,29.157146 84.080101,29.709774 84.298637,30.890364 
	C84.653687,32.808456 82.489822,32.462437 81.786575,33.534130 
	C84.165436,34.312065 86.500023,35.075520 88.794579,35.825882 
	C89.374542,37.179348 87.391220,37.199665 88.152153,39.629204 
	C88.852776,40.662834 92.768623,41.934872 90.433189,45.933212 
	C86.959198,45.181969 83.545387,44.146610 80.159973,41.944664 
z"/>
<path fill="#000000" opacity="1.000000" stroke="none" 
	d="
M153.228531,177.864761 
	C151.322495,177.096451 149.766876,176.384155 148.211258,175.671844 
	C151.001007,174.492401 153.477081,170.984650 156.053360,174.093689 
	C157.705002,176.086899 156.039658,177.665329 153.228531,177.864761 
z"/>
<path fill="#000000" opacity="1.000000" stroke="none" 
	d="
M85.706955,193.066589 
	C81.599190,193.612946 80.113136,191.087250 78.366806,187.054016 
	C81.745056,189.114120 85.223045,189.077881 85.706955,193.066589 
z"/>
<path fill="#000000" opacity="1.000000" stroke="none" 
	d="
M61.565639,118.788544 
	C61.519268,116.909065 61.961349,115.594017 63.626163,114.640060 
	C66.649727,117.567276 62.101982,119.973778 63.677773,122.666344 
	C61.397247,122.013351 62.321602,120.198753 61.565639,118.788544 
z"/>
<path fill="#000000" opacity="1.000000" stroke="none" 
	d="
M59.652973,26.206394 
	C59.566227,27.843819 59.487839,29.175083 57.920643,30.250299 
	C56.515118,28.279556 55.576820,26.259480 55.589962,23.795578 
	C57.939285,23.009537 58.851597,24.290247 59.652973,26.206394 
z"/>
<path fill="#000000" opacity="1.000000" stroke="none" 
	d="
M154.760773,188.151062 
	C152.202332,187.024231 149.575684,186.573944 147.318726,184.229828 
	C151.091064,183.320526 153.603378,184.623474 155.811691,186.615097 
	C156.634430,187.357101 156.132004,188.051727 154.760773,188.151062 
z"/>
<path fill="#000000" opacity="1.000000" stroke="none" 
	d="
M127.168274,206.897308 
	C125.982658,206.779602 124.459648,207.203735 124.700867,205.758224 
	C125.049934,203.666428 126.259163,202.133575 128.982178,202.628510 
	C130.079269,204.587372 129.443512,205.929428 127.168274,206.897308 
z"/>
<path fill="#000000" opacity="1.000000" stroke="none" 
	d="
M66.219238,143.864426 
	C67.106361,145.364090 68.080544,146.544342 67.739281,148.162048 
	C64.229851,147.232498 59.509933,141.895950 59.436134,138.752487 
	C59.384350,136.546448 60.576294,135.220795 62.759796,135.345627 
	C64.623596,135.452194 65.894859,136.406677 65.312096,138.669144 
	C64.869415,140.387756 63.939346,142.231461 66.219238,143.864426 
z"/>
</svg>