<?xml version="1.0" encoding="UTF-8"?>
<svg version="1.1" xmlns="http://www.w3.org/2000/svg" width="225" height="225">
<path d="M0 0 C1.07765625 0.26683594 2.1553125 0.53367187 3.265625 0.80859375 C23.88199477 6.41086815 41.67372108 21.09717203 53 39 C54.90590856 42.53505441 56.69172417 46.13194696 58.48608398 49.72460938 C60.98342202 54.5500292 63.66551121 58.08662451 67.5 61.9375 C71.53972235 66.08353083 73.14060858 68.68057473 73.11328125 74.4921875 C73.07589844 75.31976563 73.03851563 76.14734375 73 77 C73.05542969 77.82757813 73.11085937 78.65515625 73.16796875 79.5078125 C73.81781175 91.27523984 70.50176488 105.71881843 62.65625 114.67578125 C59.58263141 118.30583564 57.59883255 122.35054604 55.4375 126.5625 C50.74667023 135.34325332 45.13950698 142.12011146 38 149 C37.33613281 149.67160156 36.67226562 150.34320313 35.98828125 151.03515625 C18.94183542 167.26810575 -4.27481991 173.75611855 -27.2578125 173.24609375 C-51.67172576 172.26031702 -72.76880799 160.69669829 -89.5078125 143.41015625 C-96.18993191 135.66867645 -102.21605088 126.14393554 -105.9453125 116.57421875 C-106.91018655 114.74944888 -106.91018655 114.74944888 -109.27734375 114.453125 C-111.04743054 114.31796419 -112.81831972 114.19292184 -114.58984375 114.078125 C-117 113 -117 113 -118.79296875 109.7421875 C-120.63578618 103.90562185 -120.44837848 97.9385785 -120.375 91.875 C-120.36412354 90.67319092 -120.35324707 89.47138184 -120.34204102 88.2331543 C-119.93716258 65.67760593 -119.93716258 65.67760593 -111.9140625 57.74609375 C-111.28242187 57.16988281 -110.65078125 56.59367187 -110 56 C-106.23030798 52.51713237 -103.90027728 49.34495021 -101.625 44.75 C-98.58693465 38.92922393 -95.25527127 33.980907 -91 29 C-90.35675781 28.20078125 -89.71351562 27.4015625 -89.05078125 26.578125 C-67.63282132 1.08243888 -31.69483162 -8.59331702 0 0 Z " fill="#FDFCFC" transform="translate(135,22)"/>
<path d="M0 0 C1.07765625 0.26683594 2.1553125 0.53367187 3.265625 0.80859375 C25.48084753 6.845339 42.23932434 22.65205044 54.625 41.46875 C56.1209175 44.22259813 56.91991476 46.7787107 57.6875 49.8125 C58.06455078 51.27623047 58.06455078 51.27623047 58.44921875 52.76953125 C58.72185547 53.87361328 58.72185547 53.87361328 59 55 C58.030625 54.154375 57.06125 53.30875 56.0625 52.4375 C54.71017069 51.28949877 53.35588905 50.14379468 52 49 C51.35933594 48.44699219 50.71867188 47.89398438 50.05859375 47.32421875 C25.32185174 26.90584536 -8.49897324 22.57485847 -39.47900391 25.2109375 C-44.08326325 25.76711433 -48.52685007 26.81291944 -53 28 C-54.21478027 28.29801514 -54.21478027 28.29801514 -55.45410156 28.60205078 C-71.1443503 32.46528982 -84.59076709 37.6210105 -96.94921875 48.3359375 C-98.8960647 49.91566393 -100.7192879 50.98062981 -103 52 C-102.54638281 46.57721263 -101.12815802 42.77156041 -98.125 38.3125 C-97.72498779 37.71018555 -97.32497559 37.10787109 -96.9128418 36.48730469 C-83.05370155 16.18012941 -63.00736593 3.25956427 -39 -2 C-25.68829816 -3.99875403 -13.03182038 -3.53327524 0 0 Z " fill="#F37E32" transform="translate(135,22)"/>
<path d="M0 0 C0.94875 0.825 1.8975 1.65 2.875 2.5 C3.52082031 3.04785156 4.16664062 3.59570312 4.83203125 4.16015625 C6.29887401 5.40499038 7.75439071 6.66327425 9.19921875 7.93359375 C33.92681057 28.90095673 67.85189468 31.9532879 98.91308594 29.79785156 C119.35070491 27.74712493 139.43596183 20.27674077 155.6953125 7.69921875 C157.74432105 6.18850906 159.68893057 5.04903382 162 4 C157.72122572 21.97835861 143.33679855 36.13600259 127.9375 45.625 C107.75435808 57.60259529 84.62110034 61.33243309 61.69140625 56.0390625 C36.58963939 48.97337998 16.98123981 34.30681462 3.9375 11.5625 C3.54272461 10.87583252 3.14794922 10.18916504 2.74121094 9.48168945 C0.81604847 5.9848865 0 4.07308648 0 0 Z " fill="#F37D30" transform="translate(30,137)"/>
<path d="M0 0 C1.32 0 2.64 0 4 0 C4 1.32 4 2.64 4 4 C4.804375 3.34 5.60875 2.68 6.4375 2 C10.46118203 -0.67927642 14.31134522 -0.71066486 19 0 C22.08002555 1.27218447 23.59345012 2.55139324 25.8125 5 C28.08841689 10.74968477 27.84254532 16.75321248 25.6875 22.5 C23.31687474 26.01203742 22.05940106 27.64686631 18 29 C15.87890625 29.203125 15.87890625 29.203125 13.5625 29.25 C12.80066406 29.27578125 12.03882812 29.3015625 11.25390625 29.328125 C9 29 9 29 5 26 C5 30.95 5 35.9 5 41 C3.35 41 1.7 41 0 41 C0 27.47 0 13.94 0 0 Z " fill="#575757" transform="translate(75,93)"/>
<path d="M0 0 C3.39488422 2.05107588 4.80323081 3.70484621 7 7 C7 9.97 7 12.94 7 16 C0.4 16 -6.2 16 -13 16 C-12.34 18.31 -11.68 20.62 -11 23 C-7.57767028 24.14077657 -4.91326783 24.09815117 -1.3125 24.0625 C-0.13300781 24.05347656 1.04648438 24.04445313 2.26171875 24.03515625 C3.16535156 24.02355469 4.06898438 24.01195313 5 24 C4.67 25.65 4.34 27.3 4 29 C-8.22527251 29.91562374 -8.22527251 29.91562374 -12.453125 27.734375 C-15.66862455 24.95121153 -17.84017207 22.75024686 -18.23828125 18.390625 C-18.4871147 7.86104093 -18.4871147 7.86104093 -14 3 C-9.6548852 -0.85408903 -5.5915026 -0.83374107 0 0 Z " fill="#515151" transform="translate(177,93)"/>
<path d="M0 0 C1.98 0 3.96 0 6 0 C6.40992187 1.10859375 6.81984375 2.2171875 7.2421875 3.359375 C7.78634101 4.82296029 8.33061835 6.28649955 8.875 7.75 C9.14441406 8.47960937 9.41382812 9.20921875 9.69140625 9.9609375 C9.95566406 10.66992188 10.21992187 11.37890625 10.4921875 12.109375 C10.73308105 12.75874023 10.97397461 13.40810547 11.22216797 14.07714844 C12.03990635 16.09865109 13.02479038 18.04958075 14 20 C16.31 13.4 18.62 6.8 21 0 C22.65 0 24.3 0 26 0 C24.57896787 8.24198638 21.40396908 15.39520394 18 23 C17.49210937 24.20914063 16.98421875 25.41828125 16.4609375 26.6640625 C14.13506333 31.97501582 11.37574822 38.22542027 6 41 C4.68 41 3.36 41 2 41 C2 37 2 37 3.49609375 35.47265625 C4.78742166 34.5346897 6.07908695 33.59718744 7.37109375 32.66015625 C9.64878669 30.33876656 9.95569982 29.28264368 10 26 C8.98314724 22.75899693 7.59911677 19.71097101 6.1875 16.625 C3.72926395 11.13365246 1.48727485 5.83893088 0 0 Z " fill="#555555" transform="translate(106,93)"/>
<path d="M0 0 C1.65 0 3.3 0 5 0 C5.02187378 0.93066284 5.02187378 0.93066284 5.04418945 1.88012695 C5.11866588 4.69154633 5.21532564 7.50177749 5.3125 10.3125 C5.33505859 11.28896484 5.35761719 12.26542969 5.38085938 13.27148438 C5.41630859 14.20927734 5.45175781 15.14707031 5.48828125 16.11328125 C5.51446533 16.97735596 5.54064941 17.84143066 5.56762695 18.73168945 C6.08801445 21.46174041 6.73602448 22.41080361 9 24 C12.57756686 24.00082535 12.57756686 24.00082535 16 23 C18.08745045 19.86882433 18.27653996 18.93053776 18.4140625 15.33203125 C18.45273437 14.43935547 18.49140625 13.54667969 18.53125 12.62695312 C18.57765625 11.23379883 18.57765625 11.23379883 18.625 9.8125 C18.66367187 8.87212891 18.70234375 7.93175781 18.7421875 6.96289062 C18.83643187 4.6421229 18.92204025 2.32136252 19 0 C20.65 0 22.3 0 24 0 C24 9.57 24 19.14 24 29 C22.35 29 20.7 29 19 29 C18.67 28.01 18.34 27.02 18 26 C17.525625 26.495 17.05125 26.99 16.5625 27.5 C12.79055848 29.70796577 9.27130347 29.72235279 5 29 C1.96784325 26.80168636 1.18345602 25.55036806 0 22 C-0.08178114 20.29983156 -0.10749501 18.59663703 -0.09765625 16.89453125 C-0.09443359 15.91162109 -0.09121094 14.92871094 -0.08789062 13.91601562 C-0.07951172 12.89185547 -0.07113281 11.86769531 -0.0625 10.8125 C-0.05798828 9.77673828 -0.05347656 8.74097656 -0.04882812 7.67382812 C-0.0370401 5.11582734 -0.02058515 2.55794267 0 0 Z " fill="#525252" transform="translate(41,93)"/>
<path d="M0 0 C2.36497439 1.86708505 3.66030715 3.32061431 5 6 C5.35382027 11.39575915 5.39538538 14.55988065 2 19 C0 21 0 21 -3.3125 21.375 C-7 21 -7 21 -9.9375 19.75 C-12.859147 15.85447066 -12.69613181 12.63701218 -12.48046875 7.86328125 C-12 5 -12 5 -9.9375 1.75 C-6.2475053 -0.44829471 -4.22781927 -0.69182497 0 0 Z " fill="#F9F9F9" transform="translate(92,97)"/>
<path d="M0 0 C0 2.64 0 5.28 0 8 C2.31 8 4.62 8 7 8 C7 9.32 7 10.64 7 12 C4.69 12 2.38 12 0 12 C0.33 18.27 0.66 24.54 1 31 C2.98 31.66 4.96 32.32 7 33 C7 34.32 7 35.64 7 37 C5.56416999 37.10836453 4.1259798 37.18576167 2.6875 37.25 C1.88699219 37.29640625 1.08648437 37.3428125 0.26171875 37.390625 C-2 37 -2 37 -3.62304688 35.28710938 C-5.23942654 32.60231421 -5.34983543 31.12433671 -5.29296875 28.015625 C-5.28330078 27.08105469 -5.27363281 26.14648438 -5.26367188 25.18359375 C-5.23853516 24.21550781 -5.21339844 23.24742188 -5.1875 22.25 C-5.17396484 21.26644531 -5.16042969 20.28289062 -5.14648438 19.26953125 C-5.11118726 16.84579585 -5.06188054 14.42317855 -5 12 C-6.65 12 -8.3 12 -10 12 C-10 10.68 -10 9.36 -10 8 C-8.35 8 -6.7 8 -5 8 C-5 5.69 -5 3.38 -5 1 C-2 0 -2 0 0 0 Z " fill="#565656" transform="translate(147,85)"/>
<path d="M0 0 C1.65 0 3.3 0 5 0 C5.07436755 4.6081187 5.12870394 9.21588514 5.16479492 13.82446289 C5.17984622 15.39093107 5.20029207 16.95735736 5.22631836 18.52368164 C5.26286433 20.78021606 5.27976261 23.03619153 5.29296875 25.29296875 C5.30845261 25.98899704 5.32393646 26.68502533 5.33988953 27.40214539 C5.34139969 31.80286026 4.63867998 34.4735474 2 38 C-0.54507124 40.54507124 -1.59859456 40.97684199 -5.25 41.1875 C-6.61125 41.0946875 -6.61125 41.0946875 -8 41 C-8 39.68 -8 38.36 -8 37 C-7.030625 36.54625 -6.06125 36.0925 -5.0625 35.625 C-1.92920418 34.34213779 -1.92920418 34.34213779 -1 32 C-0.84391977 29.59439727 -0.74195542 27.21297228 -0.68359375 24.8046875 C-0.66281265 24.09724396 -0.64203156 23.38980042 -0.62062073 22.66091919 C-0.55518922 20.39904575 -0.49627026 18.13705538 -0.4375 15.875 C-0.39430867 14.34243578 -0.35069418 12.80988343 -0.30664062 11.27734375 C-0.19951445 7.51834927 -0.0982291 3.75923708 0 0 Z " fill="#505050" transform="translate(26,93)"/>
<path d="M0 0 C1.32 0 2.64 0 4 0 C4 1.65 4 3.3 4 5 C4.99 5.33 5.98 5.66 7 6 C6.67 6.99 6.34 7.98 6 9 C5.93059361 10.9989039 5.91544132 13.00001314 5.9375 15 C5.95103516 16.5778125 5.95103516 16.5778125 5.96484375 18.1875 C5.97644531 19.115625 5.98804687 20.04375 6 21 C6 21.99 6 22.98 6 24 C5.67 24.33 5.34 24.66 5 25 C4.76346477 27.52596259 4.57826308 30.03107207 4.4375 32.5625 C4.39431641 33.27341797 4.35113281 33.98433594 4.30664062 34.71679688 C4.20028223 36.47761912 4.09961154 38.2387832 4 40 C2.68 40 1.36 40 0 40 C0 26.8 0 13.6 0 0 Z " fill="#4A4A4A" transform="translate(75,93)"/>
<path d="M0 0 C0 1.65 0 3.3 0 5 C-1.7015625 5.680625 -1.7015625 5.680625 -3.4375 6.375 C-7.04721692 7.57095806 -7.04721692 7.57095806 -8 10 C-8.15123831 11.5195764 -8.24881693 13.04472502 -8.31640625 14.5703125 C-8.35830078 15.46621094 -8.40019531 16.36210938 -8.44335938 17.28515625 C-8.48267578 18.22230469 -8.52199219 19.15945312 -8.5625 20.125 C-8.62727539 21.54232422 -8.62727539 21.54232422 -8.69335938 22.98828125 C-8.79959072 25.32537092 -8.90163176 27.6625683 -9 30 C-10.65 30 -12.3 30 -14 30 C-14 20.43 -14 10.86 -14 1 C-12.68 1 -11.36 1 -10 1 C-10 2.65 -10 4.3 -10 6 C-9.34 6 -8.68 6 -8 6 C-7.731875 5.38125 -7.46375 4.7625 -7.1875 4.125 C-5.34286471 0.8240737 -3.74342643 0 0 0 Z " fill="#525252" transform="translate(206,92)"/>
<path d="M0 0 C3 0.5 3 0.5 5.375 2.1875 C7 4.5 7 4.5 7 9.5 C2.05 9.5 -2.9 9.5 -8 9.5 C-6.87005 3.85024998 -5.93592746 0.98932124 0 0 Z " fill="#EFEFEF" transform="translate(172,95.5)"/>
<path d="M0 0 C7.223219 -0.48970976 7.223219 -0.48970976 10.875 1.8125 C15.88127617 6.96601959 15 7.61081347 15 16 C8.4 16 1.8 16 -5 16 C-5 15.67 -5 15.34 -5 15 C1.27 15 7.54 15 14 15 C13.67 13.35 13.34 11.7 13 10 C12.01 10.33 11.02 10.66 10 11 C9.71125 10.21625 9.4225 9.4325 9.125 8.625 C8.15087746 5.90328368 8.15087746 5.90328368 6 4 C4.01643517 3.28591666 2.01684563 2.61382258 0 2 C0 1.34 0 0.68 0 0 Z " fill="#6D6D6D" transform="translate(169,93)"/>
<path d="M0 0 C0 0.66 0 1.32 0 2 C0.66 2.33 1.32 2.66 2 3 C0.7934375 3.4021875 0.7934375 3.4021875 -0.4375 3.8125 C-1.283125 4.204375 -2.12875 4.59625 -3 5 C-3.33 5.99 -3.66 6.98 -4 8 C-5.32467746 8.6837045 -6.65863633 9.34964186 -8 10 C-8.66 10.99 -9.32 11.98 -10 13 C-9.59709958 7.35939411 -7.78085674 4.96528877 -4 1 C-2 0 -2 0 0 0 Z " fill="#5C5C5C" transform="translate(169,93)"/>
<path d="M0 0 C0 1.65 0 3.3 0 5 C-2.31 5.33 -4.62 5.66 -7 6 C-4.84615385 0 -4.84615385 0 0 0 Z " fill="#575757" transform="translate(206,92)"/>
<path d="M0 0 C2.30142435 1.78174788 3.80034391 3.16304165 4.48828125 6.046875 C4.72323102 8.0246611 4.86751458 10.01271872 5 12 C1.75254486 7.86687528 0 5.36067372 0 0 Z " fill="#F8B588" transform="translate(30,137)"/>
<path d="M0 0 C0.33 0 0.66 0 1 0 C1.33 2.31 1.66 4.62 2 7 C0.02 7.99 0.02 7.99 -2 9 C-1.125 2.25 -1.125 2.25 0 0 Z " fill="#F6A36B" transform="translate(34,65)"/>
<path d="M0 0 C0.33 0.99 0.66 1.98 1 3 C1.66 3.66 2.32 4.32 3 5 C1.02 5 -0.96 5 -3 5 C-3 3.68 -3 2.36 -3 1 C-2.01 0.67 -1.02 0.34 0 0 Z " fill="#757576" transform="translate(21,129)"/>
</svg>
