<?xml version="1.0" encoding="UTF-8"?>
<svg version="1.1" xmlns="http://www.w3.org/2000/svg" width="225" height="225">
<path d="M0 0 C0.98874619 -0.00902847 1.97749237 -0.01805695 2.99620056 -0.02735901 C5.07775895 -0.0417772 7.15936179 -0.05072707 9.2409668 -0.05444336 C12.37043823 -0.06628552 15.49789934 -0.11551125 18.62695312 -0.16601562 C34.15187919 -0.29226959 47.88681969 1.75960846 61.71484375 9.24609375 C62.37145996 9.58995117 63.02807617 9.93380859 63.70458984 10.28808594 C65.59658952 11.2931384 67.47070548 12.32425157 69.33984375 13.37109375 C70.314375 13.91507813 71.28890625 14.4590625 72.29296875 15.01953125 C92.95183905 27.40277222 107.79528648 45.73514616 117.65234375 67.49609375 C117.97807373 68.21176514 118.30380371 68.92743652 118.6394043 69.66479492 C122.84267042 79.2989651 124.80876456 88.46493802 124.84375 98.96875 C124.8537352 100.04249374 124.8637204 101.11623749 124.87400818 102.22251892 C124.8890999 104.48221017 124.89623677 106.74196739 124.89575195 109.00170898 C124.9022819 112.40139249 124.95677694 115.79810092 125.01367188 119.19726562 C125.24496751 148.95707769 112.67215938 173.9595555 92.33984375 195.37109375 C77.6824021 210.15618279 53.97403229 225.10996819 32.53735352 225.59570312 C31.58437881 225.61822144 30.63140411 225.64073975 29.64955139 225.66394043 C25.233824 225.736023 20.81825225 225.79266682 16.40209961 225.83105469 C14.09915069 225.85740164 11.79631343 225.89802952 9.49389648 225.95410156 C-18.61374542 226.62918925 -41.18759446 218.25086089 -62.66015625 200.37109375 C-63.53285156 199.66339844 -64.40554687 198.95570313 -65.3046875 198.2265625 C-80.47623141 185.34866932 -91.72394208 167.30343773 -97.66015625 148.37109375 C-97.93085937 147.51717041 -98.2015625 146.66324707 -98.48046875 145.78344727 C-101.15375796 136.03338505 -101.11700034 126.40813956 -101.05126953 116.3605957 C-101.0352047 113.4423942 -101.05118025 110.52558116 -101.0703125 107.60742188 C-101.08840214 93.42642252 -99.70742826 80.80828857 -93.91015625 67.68359375 C-93.56017578 66.87543213 -93.21019531 66.06727051 -92.84960938 65.23461914 C-88.21651 54.79443657 -81.91590169 46.13782947 -74.66015625 37.37109375 C-73.96277344 36.45070312 -73.26539062 35.5303125 -72.546875 34.58203125 C-71.92425781 33.85242187 -71.30164063 33.1228125 -70.66015625 32.37109375 C-70.00015625 32.37109375 -69.34015625 32.37109375 -68.66015625 32.37109375 C-68.66015625 31.71109375 -68.66015625 31.05109375 -68.66015625 30.37109375 C-50.56455893 12.58816334 -25.48913983 0.14807385 0 0 Z " fill="#FAFBFB" transform="translate(100.66015625,-0.37109375)"/>
<path d="M0 0 C26.81516975 -1.00556887 52.25574701 9.76506452 71.875 27.8125 C91.59048367 46.66380614 104.2544626 71.45899178 105.28515625 99.01171875 C105.95858948 130.32755376 96.6038905 157.01220377 75 180 C63.66249983 191.62093767 51.02298244 199.13876064 36 205 C34.96359375 205.45826172 34.96359375 205.45826172 33.90625 205.92578125 C23.34896996 210.44040758 11.32406117 211.42465229 0 211 C0 203.74 0 196.48 0 189 C2.31 188.67 4.62 188.34 7 188 C4.69 188 2.38 188 0 188 C0 180.74 0 173.48 0 166 C3.3 165.67 6.6 165.34 10 165 C9.72212646 163.44571289 9.44425293 161.89142578 9.15795898 160.29003906 C8.13027231 154.5291252 7.11342189 148.76634281 6.09985352 143.00292969 C5.65945586 140.5076135 5.21611164 138.01281549 4.76977539 135.51855469 C4.12914119 131.93556387 3.49908812 128.35084994 2.87109375 124.765625 C2.66906845 123.64883362 2.46704315 122.53204224 2.25889587 121.38140869 C2.07863358 120.34063171 1.89837128 119.29985474 1.71264648 118.22753906 C1.46948952 116.85520111 1.46948952 116.85520111 1.22142029 115.45513916 C1.00029264 113.00324485 1.24349583 111.32460693 2 109 C2.96486328 110.2375 2.96486328 110.2375 3.94921875 111.5 C9.07066192 118.05175613 14.2418558 124.55732017 19.5 131 C24.57968402 137.22520613 29.57279884 143.51176215 34.5234375 149.83984375 C36.64553402 152.55195109 38.78515959 155.24928884 40.9375 157.9375 C41.55496094 158.70964844 42.17242187 159.48179687 42.80859375 160.27734375 C44.58490247 162.48427277 46.37043158 164.68288287 48.16015625 166.87890625 C49.27345612 168.25258908 50.38673738 169.62628699 51.5 171 C52.04132568 171.65991943 52.58265137 172.31983887 53.14038086 172.99975586 C57 177.77439503 57 177.77439503 57 180 C64.52233617 176.23883192 71.1983007 171.17754871 74 163 C73.52804199 162.63350342 73.05608398 162.26700684 72.56982422 161.8894043 C56.71541065 149.57505423 56.71541065 149.57505423 49 143.5 C43.76374503 139.37806887 38.51095818 135.2778527 33.25 131.1875 C32.12827393 130.31472412 32.12827393 130.31472412 30.98388672 129.42431641 C26.99275367 126.32048027 22.99612299 123.22402513 18.9921875 120.13671875 C18.17717773 119.50677002 17.36216797 118.87682129 16.52246094 118.2277832 C14.96241287 117.02216153 13.4006507 115.81875353 11.83691406 114.61791992 C11.13018555 114.07111572 10.42345703 113.52431152 9.6953125 112.9609375 C8.7674292 112.24623291 8.7674292 112.24623291 7.82080078 111.51708984 C5.76696015 109.80583137 3.89032628 107.89032628 2 106 C9.26 106 16.52 106 24 106 C23.67 103.03 23.34 100.06 23 97 C21.80761719 97.44472656 20.61523438 97.88945313 19.38671875 98.34765625 C17.82048832 98.9197524 16.2540723 99.49134066 14.6875 100.0625 C13.90181641 100.35705078 13.11613281 100.65160156 12.30664062 100.95507812 C11.54931641 101.22900391 10.79199219 101.50292969 10.01171875 101.78515625 C8.96697388 102.17006226 8.96697388 102.17006226 7.90112305 102.56274414 C6 103 6 103 3 102 C8.76310041 94.60844837 14.57367832 87.26158137 20.5 80 C26.42505077 72.73700622 32.23790525 65.39270344 38 58 C38.73863281 57.05253906 39.47726563 56.10507812 40.23828125 55.12890625 C41.82749215 53.08745497 43.41504411 51.04475537 45 49 C44.45085937 48.731875 43.90171875 48.46375 43.3359375 48.1875 C40.72448867 46.85994073 38.18072621 45.43177939 35.625 44 C31.82111065 41.91218924 28.21175485 40.13831212 24 39 C22.02 43.95 22.02 43.95 20 49 C18.741875 48.690625 17.48375 48.38125 16.1875 48.0625 C10.07545385 46.71051859 10.07545385 46.71051859 0 46 C0 38.41 0 30.82 0 23 C3.63 23 7.26 23 11 23 C7.37 22.67 3.74 22.34 0 22 C0 14.74 0 7.48 0 0 Z " fill="#FDFDFD" transform="translate(113,7)"/>
<path d="M0 0 C3.31384044 11.85041559 6.09562234 23.78302549 8.67950439 35.81201172 C11.28220798 47.9111056 14.07064174 59.96086967 16.9375 72 C17.14080933 72.85389313 17.34411865 73.70778625 17.55358887 74.58755493 C18.69859425 79.39261682 19.84757308 84.19671292 21 89 C21.29656494 88.19071045 21.59312988 87.3814209 21.89868164 86.54760742 C24.55186785 79.30795727 27.20614348 72.06870814 29.86186218 64.82998657 C31.2924576 60.93026033 32.72120656 57.02986545 34.1484375 53.12890625 C41.79489471 32.25625355 41.79489471 32.25625355 45 26 C52.70724072 28.69168277 59.25019171 32.43168869 66 37 C64.6685435 39.878418 63.16701678 42.19196251 61.12890625 44.6171875 C60.27594971 45.64030029 60.27594971 45.64030029 59.40576172 46.68408203 C58.79748535 47.40708496 58.18920898 48.13008789 57.5625 48.875 C52.64036941 54.7858445 47.79408453 60.73932001 43.06494141 66.80541992 C39.05304274 71.94840368 34.97719391 77.03859851 30.88232422 82.11572266 C28.81213787 84.69107076 26.83420429 87.24869356 25 90 C26.051875 89.70996094 26.051875 89.70996094 27.125 89.4140625 C32.73492134 87.874383 38.35010447 86.38582343 44 85 C44.495 89.455 44.495 89.455 45 94 C34.605 94.495 34.605 94.495 24 95 C25.77375 96.36125 27.5475 97.7225 29.375 99.125 C37.15941421 105.10805384 44.90546535 111.14021911 52.65185547 117.17236328 C54.98697983 118.98986598 57.3233471 120.80575788 59.66015625 122.62109375 C67.21372642 128.48978436 74.75808694 134.36944182 82.27490234 140.28515625 C86.83619243 143.87454589 91.41255191 147.44412093 96 151 C94.584092 155.45571047 92.39547334 157.95241134 89.0625 161.1875 C88.18722656 162.04730469 87.31195313 162.90710938 86.41015625 163.79296875 C81.8159292 168 81.8159292 168 78 168 C75.9765625 165.71875 75.9765625 165.71875 73.625 162.5 C72.73266515 161.29914602 71.83802364 160.10000356 70.94140625 158.90234375 C70.46590332 158.26538574 69.99040039 157.62842773 69.50048828 156.97216797 C66.93658803 153.60230363 64.24739445 150.33618012 61.5625 147.0625 C57.0335287 141.52253861 52.57155199 135.93817651 48.17089844 130.29589844 C44.61436995 125.74900959 40.97061294 121.27785163 37.3125 116.8125 C32.30590265 110.69406226 27.56348599 104.45792205 23 98 C24.40368423 109.49724071 26.36508399 120.82518873 28.54638672 132.19677734 C28.95563579 134.33853005 29.35710972 136.48163443 29.7578125 138.625 C29.9964502 139.87539062 30.23508789 141.12578125 30.48095703 142.4140625 C30.99954133 145.99683115 31.09233714 149.38549459 31 153 C27.20839703 153.05786668 23.41690689 153.09355054 19.625 153.125 C18.00464844 153.15013672 18.00464844 153.15013672 16.3515625 153.17578125 C15.3203125 153.18222656 14.2890625 153.18867188 13.2265625 153.1953125 C11.79691162 153.21102295 11.79691162 153.21102295 10.33837891 153.22705078 C8 153 8 153 6 151 C6.12567139 149.12945557 6.12567139 149.12945557 6.65917969 146.82910156 C6.85308289 145.96770569 7.04698608 145.10630981 7.24676514 144.21881104 C7.46955139 143.28550964 7.69233765 142.35220825 7.921875 141.390625 C8.141922 140.43105896 8.36196899 139.47149292 8.58868408 138.48284912 C9.05762461 136.44727444 9.53213685 134.41297668 10.01171875 132.37988281 C10.74311041 129.27920786 11.45905958 126.17530487 12.171875 123.0703125 C12.62930483 121.09354071 13.08761031 119.1169713 13.546875 117.140625 C13.76156433 116.21542053 13.97625366 115.29021606 14.19744873 114.3369751 C15.26796198 109.80632248 16.42911842 105.39013387 18 101 C18.33 101 18.66 101 19 101 C18.31945655 108.73495725 16.79178123 116.17224339 15.125 123.75 C14.86847656 124.9359375 14.61195312 126.121875 14.34765625 127.34375 C12.63115662 135.24482367 10.8316776 143.12488315 9 151 C18.9 151.495 18.9 151.495 29 152 C27.90560994 145.23592409 26.80270942 138.4733121 25.69189453 131.71191406 C25.31520023 129.41151564 24.94083545 127.11073449 24.56884766 124.80957031 C24.03379325 121.50222066 23.49037964 118.19633734 22.9453125 114.890625 C22.78064484 113.86132874 22.61597717 112.83203247 22.44631958 111.77154541 C22.28630463 110.81085144 22.12628967 109.85015747 21.96142578 108.86035156 C21.82374786 108.01651917 21.68606995 107.17268677 21.54421997 106.30328369 C21.0923454 103.97562967 21.0923454 103.97562967 19.93991089 101.94622803 C19 100 19 100 19 96 C18.47792969 96.36649658 17.95585938 96.73299316 17.41796875 97.1105957 C12.18584439 100.78213131 6.9481503 104.44559817 1.70751953 108.10498047 C-0.79477013 109.8563576 -3.29063608 111.61649067 -5.78515625 113.37890625 C-7.21072233 114.37791128 -8.63649146 115.37662665 -10.0625 116.375 C-10.72185547 116.84462158 -11.38121094 117.31424316 -12.06054688 117.7980957 C-16.65914914 121 -16.65914914 121 -20 121 C-22.10770759 118.11165997 -23 116.61537605 -23 113 C-22.06615479 112.55084229 -21.13230957 112.10168457 -20.17016602 111.63891602 C-16.71586058 109.97679828 -13.26288145 108.31194138 -9.81030273 106.64624023 C-8.31392046 105.92478472 -6.81717633 105.20407925 -5.32006836 104.48413086 C-3.17206474 103.45101293 -1.02536375 102.41523187 1.12109375 101.37890625 C2.13048256 100.89448814 2.13048256 100.89448814 3.16026306 100.40028381 C6.29272184 99.02104439 6.29272184 99.02104439 9 97 C2.02956366 98.22555013 -4.94062125 99.45252285 -11.91064453 100.68041992 C-14.27484658 101.09675233 -16.63910307 101.51277575 -19.00341797 101.9284668 C-22.42951086 102.53089659 -25.85542713 103.13431794 -29.28125 103.73828125 C-30.39072998 103.93366486 -31.50020996 104.12904846 -32.64331055 104.33035278 C-40.12349404 105.65300858 -47.58789112 107.04124858 -55.04101562 108.50854492 C-58 109 -58 109 -62 109 C-65.7544294 92.04932754 -63.79689573 72.08039268 -55 57 C-50.4490118 57.61777383 -46.74295012 59.46528108 -42.71875 61.55859375 C-41.28552437 62.2896219 -39.85191897 63.01990591 -38.41796875 63.74951172 C-37.68562012 64.12388367 -36.95327148 64.49825562 -36.19873047 64.88397217 C-32.74399974 66.63751846 -29.26436546 68.33885611 -25.78125 70.03515625 C-25.09998047 70.36695892 -24.41871094 70.6987616 -23.71679688 71.0406189 C-22.33569411 71.71256005 -20.95434641 72.38399802 -19.57275391 73.05493164 C-18.19021325 73.72698644 -16.80837652 74.40049126 -15.42724609 75.07543945 C-5.3924161 79.97933292 4.73505134 84.59791625 15 89 C14.248396 88.11546143 13.49679199 87.23092285 12.72241211 86.31958008 C8.27223332 81.08044058 3.83939183 75.83170285 -0.5 70.5 C-3.78823483 66.46016863 -7.12721426 62.46907935 -10.5 58.5 C-13.87278574 54.53092065 -17.21176517 50.53983137 -20.5 46.5 C-24.74095066 41.29034298 -29.07221608 36.16173527 -33.421875 31.04296875 C-35.96447714 28.04192774 -38.48597372 25.02497047 -41 22 C-37.15872352 12.62156434 -23.62690332 7.83417925 -15 4 C-4.58823529 0 -4.58823529 0 0 0 Z " fill="#585752" transform="translate(92,19)"/>
<path d="M0 0 C0.98874619 -0.00902847 1.97749237 -0.01805695 2.99620056 -0.02735901 C5.07775895 -0.0417772 7.15936179 -0.05072707 9.2409668 -0.05444336 C12.37043823 -0.06628552 15.49789934 -0.11551125 18.62695312 -0.16601562 C34.15187919 -0.29226959 47.88681969 1.75960846 61.71484375 9.24609375 C62.37145996 9.58995117 63.02807617 9.93380859 63.70458984 10.28808594 C65.59658952 11.2931384 67.47070548 12.32425157 69.33984375 13.37109375 C70.314375 13.91507813 71.28890625 14.4590625 72.29296875 15.01953125 C92.95183905 27.40277222 107.79528648 45.73514616 117.65234375 67.49609375 C117.97807373 68.21176514 118.30380371 68.92743652 118.6394043 69.66479492 C122.84267042 79.2989651 124.80876456 88.46493802 124.84375 98.96875 C124.8537352 100.04249374 124.8637204 101.11623749 124.87400818 102.22251892 C124.8890999 104.48221017 124.89623677 106.74196739 124.89575195 109.00170898 C124.9022819 112.40139249 124.95677694 115.79810092 125.01367188 119.19726562 C125.24496751 148.95707769 112.67215938 173.9595555 92.33984375 195.37109375 C77.6824021 210.15618279 53.97403229 225.10996819 32.53735352 225.59570312 C31.58437881 225.61822144 30.63140411 225.64073975 29.64955139 225.66394043 C25.233824 225.736023 20.81825225 225.79266682 16.40209961 225.83105469 C14.09915069 225.85740164 11.79631343 225.89802952 9.49389648 225.95410156 C-18.61374542 226.62918925 -41.18759446 218.25086089 -62.66015625 200.37109375 C-63.53285156 199.66339844 -64.40554687 198.95570313 -65.3046875 198.2265625 C-80.47623141 185.34866932 -91.72394208 167.30343773 -97.66015625 148.37109375 C-97.93085937 147.51717041 -98.2015625 146.66324707 -98.48046875 145.78344727 C-101.15375796 136.03338505 -101.11700034 126.40813956 -101.05126953 116.3605957 C-101.0352047 113.4423942 -101.05118025 110.52558116 -101.0703125 107.60742188 C-101.08840214 93.42642252 -99.70742826 80.80828857 -93.91015625 67.68359375 C-93.56017578 66.87543213 -93.21019531 66.06727051 -92.84960938 65.23461914 C-88.21651 54.79443657 -81.91590169 46.13782947 -74.66015625 37.37109375 C-73.96277344 36.45070312 -73.26539062 35.5303125 -72.546875 34.58203125 C-71.92425781 33.85242187 -71.30164063 33.1228125 -70.66015625 32.37109375 C-70.00015625 32.37109375 -69.34015625 32.37109375 -68.66015625 32.37109375 C-68.66015625 31.71109375 -68.66015625 31.05109375 -68.66015625 30.37109375 C-50.56455893 12.58816334 -25.48913983 0.14807385 0 0 Z M-70.35546875 45.4765625 C-89.80539811 69.90435513 -96.52803045 98.9829324 -93.26953125 129.859375 C-89.93359743 150.79449814 -79.58225321 169.64382258 -65.66015625 185.37109375 C-65.04785156 186.0671875 -64.43554688 186.76328125 -63.8046875 187.48046875 C-46.39518568 206.04070524 -19.8821466 217.71928374 5.36328125 218.66015625 C37.5986122 219.33729693 64.35645381 209.36743929 87.96484375 187.05859375 C108.61836098 165.56710565 117.90125853 138.94974524 117.69140625 109.59228516 C117.10963961 82.97242115 106.74776536 58.5820876 88.33984375 39.37109375 C87.87739258 38.88801758 87.41494141 38.40494141 86.93847656 37.90722656 C75.10834438 25.81365371 61.14766551 18.0703815 45.33984375 12.37109375 C44.10041016 11.84902344 44.10041016 11.84902344 42.8359375 11.31640625 C2.65349657 -3.90135698 -43.510857 14.71527789 -70.35546875 45.4765625 Z " fill="#DCDDDE" transform="translate(100.66015625,-0.37109375)"/>
<path d="M0 0 C-8.41459495 4.2582607 -16.85499038 8.45604583 -25.375 12.5 C-26.47122681 13.0249707 -26.47122681 13.0249707 -27.58959961 13.56054688 C-32.76362079 16 -32.76362079 16 -35 16 C-34.505 16.94875 -34.01 17.8975 -33.5 18.875 C-32 22 -32 22 -32 24 C-25.90797295 20.76388823 -20.21868201 17.21938168 -14.625 13.1875 C-13.894021 12.66704102 -13.16304199 12.14658203 -12.40991211 11.61035156 C-9.09668598 9.24620958 -5.80019131 6.86113733 -2.52734375 4.44140625 C-1.54894531 3.71824219 -0.57054688 2.99507813 0.4375 2.25 C1.28183594 1.61578125 2.12617187 0.9815625 2.99609375 0.328125 C5 -1 5 -1 7 -1 C8.94042782 1.91064172 9.39563399 3.23030917 9.96142578 6.55981445 C10.12144073 7.48119705 10.28145569 8.40257965 10.44631958 9.35188293 C10.61098724 10.34564438 10.77565491 11.33940582 10.9453125 12.36328125 C11.12005096 13.38802048 11.29478943 14.4127597 11.474823 15.46855164 C11.84297553 17.63754532 12.20755786 19.80714756 12.56884766 21.97729492 C13.12133597 25.29052709 13.6867163 28.60136595 14.25390625 31.91210938 C14.61014802 34.02070288 14.96564131 36.129423 15.3203125 38.23828125 C15.48902863 39.22597 15.65774475 40.21365875 15.83157349 41.23127747 C16.59798872 45.87252601 17.21308671 50.27591714 17 55 C3.3667426 55.18451025 3.3667426 55.18451025 -3 54 C-2.68526032 46.43051074 -1.17484916 39.62231369 0.87890625 32.34765625 C3.12272092 24.02955701 4.47694748 15.47351005 6 7 C1.98220754 22.59116809 -1.568647 38.27015186 -5 54 C-3.96875 54.309375 -2.9375 54.61875 -1.875 54.9375 C-1.29492188 55.11152344 -0.71484375 55.28554687 -0.1171875 55.46484375 C2.5525398 56.13966412 5.28377373 56.54729562 8 57 C8 64.26 8 71.52 8 79 C-12.26665552 78.16426163 -33.66943173 72.39321634 -48 57 C-48 56.01 -48 55.02 -48 54 C-48.33 54 -48.66 54 -49 54 C-59.39741545 49.77882706 -64.83755131 35.72510947 -69 26 C-70.81379706 21.17129613 -72 17.17300141 -72 12 C-63.17560299 9.95111702 -54.27601108 8.30026464 -45.375 6.625 C-44.14876923 6.3940564 -44.14876923 6.3940564 -42.89776611 6.15844727 C-37.26639893 5.09904158 -31.63354103 4.04777672 -26 3 C-24.70578125 2.75862305 -23.4115625 2.51724609 -22.078125 2.26855469 C-18.84536864 1.66959677 -15.61089885 1.08170467 -12.375 0.5 C-11.4473584 0.32807129 -10.5197168 0.15614258 -9.56396484 -0.02099609 C-8.30640381 -0.24263428 -8.30640381 -0.24263428 -7.0234375 -0.46875 C-6.31106934 -0.59701172 -5.59870117 -0.72527344 -4.86474609 -0.85742188 C-3 -1 -3 -1 0 0 Z " fill="#FDFDFD" transform="translate(104,116)"/>
<path d="M0 0 C4.50907896 1.39710692 8.70089439 3.18991879 12.92578125 5.2734375 C13.58258377 5.5935228 14.23938629 5.91360809 14.91609192 6.24339294 C16.32174562 6.92891987 17.72658668 7.61611523 19.13067627 8.30484009 C21.33467467 9.38587643 23.54077538 10.46250278 25.74755859 11.5378418 C27.99174517 12.63144228 30.23581802 13.72526755 32.47924805 14.82041931 C39.35002228 18.17444448 46.23365908 21.50093385 53.125 24.8125 C54.63187378 25.53928955 54.63187378 25.53928955 56.16918945 26.28076172 C61.0703071 28.6354227 65.98104511 30.90761022 71 33 C71 33.66 71 34.32 71 35 C69.89414551 35.1858667 68.78829102 35.3717334 67.64892578 35.56323242 C62.47364843 36.43424352 57.29918776 37.31004135 52.125 38.1875 C50.72625641 38.4245163 50.72625641 38.4245163 49.29925537 38.6663208 C36.87603211 40.77556089 24.47841751 42.95531296 12.13330078 45.48901367 C5.77043648 46.76854471 -0.52632856 47.53725877 -7 48 C-8.39990884 43.05327236 -8.44106006 38.04702146 -8.6875 32.9375 C-8.74744141 31.93138672 -8.80738281 30.92527344 -8.86914062 29.88867188 C-8.91619141 28.92380859 -8.96324219 27.95894531 -9.01171875 26.96484375 C-9.05772217 26.0843335 -9.10372559 25.20382324 -9.15112305 24.29663086 C-9 22 -9 22 -7 19 C-6.12056002 16.33913032 -5.28895265 13.68722055 -4.5 11 C-2.27027027 3.40540541 -2.27027027 3.40540541 0 0 Z " fill="#FDD965" transform="translate(38,78)"/>
<path d="M0 0 C3.95608714 16.15326531 7.80082129 32.32279994 11.42602539 48.55371094 C12.85145668 54.93270835 14.29908631 61.30437456 15.80859375 67.6640625 C16.093396 68.86973877 16.37819824 70.07541504 16.67163086 71.31762695 C17.21231693 73.59877083 17.75845825 75.87863054 18.31079102 78.15698242 C18.54854248 79.16349854 18.78629395 80.17001465 19.03125 81.20703125 C19.24330078 82.0885083 19.45535156 82.96998535 19.67382812 83.87817383 C20 86 20 86 19 88 C13.78688808 81.87093944 8.57933722 75.74085535 3.5 69.5 C-0.24852646 64.8946675 -4.07084246 60.35795556 -7.91625977 55.83374023 C-10.7954532 52.44045891 -13.63204237 49.01732214 -16.4375 45.5625 C-20.46076591 40.61859487 -24.59010357 35.77291068 -28.75170898 30.94555664 C-29.70535203 29.83920238 -30.65605211 28.73030323 -31.60351562 27.61865234 C-32.5546757 26.51617134 -33.52300402 25.42832472 -34.50585938 24.35400391 C-35.921875 22.76953125 -35.921875 22.76953125 -38 20 C-36.67584478 16.02753434 -34.20196614 14.81991866 -30.8125 12.6875 C-30.19117188 12.29232178 -29.56984375 11.89714355 -28.9296875 11.48999023 C-20.71903226 6.41098959 -9.77167325 0 0 0 Z " fill="#FCA265" transform="translate(91,21)"/>
<path d="M0 0 C0.66080566 0.19335938 1.32161133 0.38671875 2.00244141 0.5859375 C19.00002173 5.68167289 33.00763496 13.99598915 46 26 C47.10408203 26.98226562 47.10408203 26.98226562 48.23046875 27.984375 C65.93366473 44.52149221 77.68663586 70.17692429 79.20507812 94.25146484 C80.16708271 127.41608198 72.02035718 155.02345524 49.44140625 179.80859375 C31.01832041 199.08732363 4.83059491 211.46180143 -21.91796875 212.3359375 C-35.46723545 212.50385024 -48.10249511 212.37618185 -61 208 C-61.63502441 207.78569336 -62.27004883 207.57138672 -62.92431641 207.35058594 C-77.17675476 202.41912024 -89.79100044 195.12371064 -101 185 C-101.84175781 184.24074219 -102.68351562 183.48148438 -103.55078125 182.69921875 C-122.79102072 164.41650287 -135.52324502 138.13482615 -136.30078125 111.484375 C-136.32021883 109.23966409 -136.32375841 106.99476683 -136.3125 104.75 C-136.30686035 103.56559326 -136.3012207 102.38118652 -136.29541016 101.16088867 C-135.91681519 73.74648959 -125.47703066 49.99834307 -107 30 C-106.34515625 29.26394531 -105.6903125 28.52789062 -105.015625 27.76953125 C-79.43441216 0.38451494 -35.65786417 -10.63692219 0 0 Z M-110.6953125 37.10546875 C-130.14524186 61.53326138 -136.8678742 90.61183865 -133.609375 121.48828125 C-130.27344118 142.42340439 -119.92209696 161.27272883 -106 177 C-105.38769531 177.69609375 -104.77539062 178.3921875 -104.14453125 179.109375 C-86.73502943 197.66961149 -60.22199035 209.34818999 -34.9765625 210.2890625 C-2.74123155 210.96620318 24.01661006 200.99634554 47.625 178.6875 C68.27851723 157.1960119 77.56141478 130.57865149 77.3515625 101.22119141 C76.76979586 74.6013274 66.40792161 50.21099385 48 31 C47.53754883 30.51692383 47.07509766 30.03384766 46.59863281 29.53613281 C34.76850063 17.44255996 20.80782176 9.69928775 5 4 C3.76056641 3.47792969 3.76056641 3.47792969 2.49609375 2.9453125 C-37.68634718 -12.27245073 -83.85070075 6.34418414 -110.6953125 37.10546875 Z " fill="#1D5C82" transform="translate(141,8)"/>
<path d="M0 0 C-8.41459495 4.2582607 -16.85499038 8.45604583 -25.375 12.5 C-26.10581787 12.84998047 -26.83663574 13.19996094 -27.58959961 13.56054688 C-32.76362079 16 -32.76362079 16 -35 16 C-34.505 16.94875 -34.01 17.8975 -33.5 18.875 C-32 22 -32 22 -32 24 C-25.90797295 20.76388823 -20.21868201 17.21938168 -14.625 13.1875 C-13.894021 12.66704102 -13.16304199 12.14658203 -12.40991211 11.61035156 C-9.09668598 9.24620958 -5.80019131 6.86113733 -2.52734375 4.44140625 C-1.54894531 3.71824219 -0.57054687 2.99507813 0.4375 2.25 C1.28183594 1.61578125 2.12617187 0.9815625 2.99609375 0.328125 C5 -1 5 -1 7 -1 C8.94042782 1.91064172 9.39563399 3.23030917 9.96142578 6.55981445 C10.12144073 7.48119705 10.28145569 8.40257965 10.44631958 9.35188293 C10.61098724 10.34564438 10.77565491 11.33940582 10.9453125 12.36328125 C11.12005096 13.38802048 11.29478943 14.4127597 11.474823 15.46855164 C11.84297553 17.63754532 12.20755786 19.80714756 12.56884766 21.97729492 C13.12133597 25.29052709 13.6867163 28.60136595 14.25390625 31.91210938 C14.61014802 34.02070288 14.96564131 36.129423 15.3203125 38.23828125 C15.48902863 39.22597 15.65774475 40.21365875 15.83157349 41.23127747 C16.59798872 45.87252601 17.21308671 50.27591714 17 55 C3.3667426 55.18451025 3.3667426 55.18451025 -3 54 C-2.68526032 46.43051074 -1.17484916 39.62231369 0.87890625 32.34765625 C3.12272092 24.02955701 4.47694748 15.47351005 6 7 C5.34 7.99 4.68 8.98 4 10 C3.01 9.01 2.02 8.02 1 7 C-2.81413002 8.1678266 -2.81413002 8.1678266 -5.3125 11.125 C-5.539375 11.74375 -5.76625 12.3625 -6 13 C-6.66 13 -7.32 13 -8 13 C-8.66 14.32 -9.32 15.64 -10 17 C-10.66 17 -11.32 17 -12 17 C-12.2475 17.94875 -12.495 18.8975 -12.75 19.875 C-14 23 -14 23 -15.9375 24.3125 C-17.625 24.875 -19.3125 25.4375 -21 26 C-22.20882096 28.00016466 -22.20882096 28.00016466 -23 30 C-23.66 30 -24.32 30 -25 30 C-25.66 31.32 -26.32 32.64 -27 34 C-27.66 34 -28.32 34 -29 34 C-29.99 36.475 -29.99 36.475 -31 39 C-29.68 40.65 -28.36 42.3 -27 44 C-27.5775 43.67 -28.155 43.34 -28.75 43 C-31.19883862 41.72924102 -31.19883862 41.72924102 -35 42 C-35.66 41.67 -36.32 41.34 -37 41 C-36.77054688 40.42507812 -36.54109375 39.85015625 -36.3046875 39.2578125 C-35.74560574 36.93045496 -35.74560574 36.93045496 -37.2578125 34.9921875 C-37.87398437 34.29351562 -38.49015625 33.59484375 -39.125 32.875 C-45.12725935 25.56685987 -48.35334089 18.28116955 -50 9 C-51.32 8.67 -52.64 8.34 -54 8 C-46.79359679 6.6895727 -39.58518498 5.39067408 -32.37524414 4.09985352 C-29.92163832 3.65916284 -27.46850848 3.2158136 -25.01586914 2.76977539 C-21.4948644 2.12991623 -17.97227083 1.49956918 -14.44921875 0.87109375 C-13.34913986 0.66906845 -12.24906097 0.46704315 -11.11564636 0.25889587 C-10.09481461 0.07863358 -9.07398285 -0.10162872 -8.0222168 -0.28735352 C-7.12286911 -0.44945816 -6.22352142 -0.61156281 -5.29692078 -0.77857971 C-3 -1 -3 -1 0 0 Z " fill="#FAFAFA" transform="translate(104,116)"/>
<path d="M0 0 C2.7527505 1.29814634 5.13220513 2.73274267 7.546875 4.58203125 C8.21855713 5.09515869 8.89023926 5.60828613 9.58227539 6.13696289 C10.65529907 6.96635376 10.65529907 6.96635376 11.75 7.8125 C12.50079834 8.3892749 13.25159668 8.9660498 14.02514648 9.56030273 C19.77921319 14.00259897 25.41914544 18.57392322 31.0390625 23.18383789 C37.58310323 28.52668574 44.32950064 33.5807199 51.11914062 38.60546875 C54.08906828 40.80747118 57.04417872 43.0291204 60 45.25 C60.969375 45.97703125 61.93875 46.7040625 62.9375 47.453125 C63.9584375 48.21882813 63.9584375 48.21882813 65 49 C63.58884686 52.12270026 61.889376 54.49653681 59.625 57.0625 C59.03976563 57.73410156 58.45453125 58.40570313 57.8515625 59.09765625 C56.0239296 60.97541411 54.13635135 62.48949607 52 64 C48.85650127 62.64749103 47.16886117 61.2943279 45.15234375 58.54296875 C44.63518799 57.84913086 44.11803223 57.15529297 43.58520508 56.44042969 C43.0414624 55.69696289 42.49771973 54.95349609 41.9375 54.1875 C37.87083121 48.74081264 33.75607707 43.39481532 29.3125 38.25 C25.25158658 33.53558941 21.40364802 28.70240507 17.63916016 23.7487793 C12.61090773 17.14329215 7.34957742 10.73132036 1.9375 4.4375 C0 2 0 2 0 0 Z " fill="#FAA164" transform="translate(121,121)"/>
<path d="M0 0 C4.50594036 2.10032992 6.9145691 3.36570912 9 8 C9 8.99 9 9.98 9 11 C6.525 9.02 6.525 9.02 4 7 C1.37812506 8.04874998 0.20628639 8.64931313 -1.25 11.125 C-1.4975 11.74375 -1.745 12.3625 -2 13 C-2.66 13 -3.32 13 -4 13 C-4.66 14.32 -5.32 15.64 -6 17 C-6.66 17 -7.32 17 -8 17 C-9.39735818 19.15424056 -9.39735818 19.15424056 -10 22 C-8.16026765 25.0929357 -8.16026765 25.0929357 -6 28 C-6 29.32 -6 30.64 -6 32 C-5.34 32 -4.68 32 -4 32 C-3.49038154 33.39235043 -2.99275091 34.78909118 -2.5 36.1875 C-2.08234375 37.35345703 -2.08234375 37.35345703 -1.65625 38.54296875 C-1 41 -1 41 -1 46 C6.26 46 13.52 46 21 46 C19.94470784 38.23606483 18.83836828 30.61609716 17 23 C22.96530016 29.50760018 22 37.6211922 22 46 C29.59 46 37.18 46 45 46 C43.53900568 34.31204545 41.82213222 24.05012393 37.3046875 13.1875 C36.31087113 10.75949355 35.52408767 8.55652524 35 6 C42.26326364 12.12310016 44.74568834 25.96487699 46 35 C46 38.63 46 42.26 46 46 C53.26 46 60.52 46 68 46 C68 46.33 68 46.66 68 47 C60.74 47 53.48 47 46 47 C46 50.63 46 54.26 46 58 C45.67 59.65 45.34 61.3 45 63 C44.67 63 44.34 63 44 63 C43.97236643 61.64595503 43.95332578 60.29173445 43.9375 58.9375 C43.92589844 58.18339844 43.91429687 57.42929688 43.90234375 56.65234375 C44.02148928 53.41635123 44.54205146 50.20563978 45 47 C37.41 47 29.82 47 22 47 C22 50.63 22 54.26 22 58 C21.4140625 61.19140625 21.4140625 61.19140625 20.625 63.5625 C20.24214844 64.77099609 20.24214844 64.77099609 19.8515625 66.00390625 C19 68 19 68 17 70 C17.12117188 69.42894531 17.24234375 68.85789062 17.3671875 68.26953125 C18.82592674 61.21147754 19.93832178 54.12841088 21 47 C13.74 47 6.48 47 -1 47 C-1.33 49.97 -1.66 52.94 -2 56 C-3.0625 59.0625 -3.0625 59.0625 -4 61 C-5.15837573 57.52487282 -4.77265943 55.86329714 -4.0625 52.3125 C-3.86785156 51.31863281 -3.67320312 50.32476562 -3.47265625 49.30078125 C-3.31667969 48.54152344 -3.16070312 47.78226563 -3 47 C-6.3 47 -9.6 47 -13 47 C-13.33 44.03 -13.66 41.06 -14 38 C-15.19238281 38.44472656 -16.38476562 38.88945313 -17.61328125 39.34765625 C-19.17951168 39.9197524 -20.7459277 40.49134066 -22.3125 41.0625 C-23.09818359 41.35705078 -23.88386719 41.65160156 -24.69335938 41.95507812 C-25.45068359 42.22900391 -26.20800781 42.50292969 -26.98828125 42.78515625 C-27.68477783 43.04176025 -28.38127441 43.29836426 -29.09887695 43.56274414 C-31 44 -31 44 -34 43 C-28.21868982 35.58509316 -22.3874124 28.21805809 -16.4375 20.9375 C-10.820331 14.06110853 -5.3658705 7.0737435 0 0 Z " fill="#FBFBFB" transform="translate(150,66)"/>
<path d="M0 0 C4.46182436 1.31074365 7.99618757 3.07066011 11.875 5.625 C12.84179688 6.25664063 13.80859375 6.88828125 14.8046875 7.5390625 C15.52914062 8.02117188 16.25359375 8.50328125 17 9 C16.40571044 12.12151233 15.47912631 13.97084717 13.4453125 16.3984375 C12.91873047 17.03523438 12.39214844 17.67203125 11.84960938 18.328125 C11.28048828 19.00359375 10.71136719 19.6790625 10.125 20.375 C8.92869721 21.81949294 7.73340076 23.26481983 6.5390625 24.7109375 C5.9399707 25.4337793 5.34087891 26.15662109 4.72363281 26.90136719 C2.26484879 29.89509346 -0.12137969 32.94246982 -2.5 36 C-8.55429598 43.75780756 -14.77470131 51.37920511 -21 59 C-22 57 -22 57 -21.41912842 54.8637085 C-21.08842346 53.98023743 -20.75771851 53.09676636 -20.41699219 52.18652344 C-20.04620544 51.1849823 -19.6754187 50.18344116 -19.293396 49.15155029 C-18.88204407 48.06513245 -18.47069214 46.9787146 -18.046875 45.859375 C-17.63085022 44.74443665 -17.21482544 43.62949829 -16.78619385 42.48077393 C-15.90191754 40.11555284 -15.0139265 37.75171781 -14.12255859 35.38916016 C-12.76209348 31.78206429 -11.41326764 28.17078816 -10.06640625 24.55859375 C-9.20641659 22.26276321 -8.34576083 19.96718206 -7.484375 17.671875 C-7.08112 16.59355408 -6.67786499 15.51523315 -6.26239014 14.40423584 C-4.39427345 9.46273107 -2.50142381 4.65637339 0 0 Z " fill="#DBF87B" transform="translate(138,47)"/>
<path d="M0 0 C0.99 0.33 1.98 0.66 3 1 C4.14635703 7.58245305 5.28486048 14.16623002 6.41796875 20.75097656 C6.80419019 22.98989448 7.19219443 25.22850563 7.58203125 27.46679688 C8.14273928 30.68800727 8.69698236 33.91027406 9.25 37.1328125 C9.42499023 38.12991241 9.59998047 39.12701233 9.78027344 40.15432739 C10.57545521 44.82377038 11.22423783 49.2419535 11 54 C-2.6332574 54.18451025 -2.6332574 54.18451025 -9 53 C-8.68346843 45.38741575 -7.16723471 38.5062301 -5.12109375 31.18359375 C-3.83924579 26.51054203 -2.77265832 21.79824445 -1.75 17.0625 C-1.5749292 16.28197266 -1.3998584 15.50144531 -1.21948242 14.69726562 C-0.15853637 9.69528143 0.16287088 5.1129823 0 0 Z " fill="#AFFBAD" transform="translate(110,117)"/>
<path d="M0 0 C3.33877439 11.93958029 6.14804378 23.96358409 8.74588013 36.08456421 C10.49634422 44.25067252 12.30802286 52.39544882 14.26171875 60.515625 C14.54261101 61.68689186 14.54261101 61.68689186 14.82917786 62.88182068 C15.74173095 66.68116538 16.66381473 70.4778626 17.59887695 74.27172852 C17.93078978 75.64592645 18.26242866 77.02019059 18.59375 78.39453125 C18.88958984 79.59956299 19.18542969 80.80459473 19.49023438 82.04614258 C20 85 20 85 19 88 C17.02108672 84.52369103 16.20717063 81.07440092 15.3359375 77.18359375 C15.1828009 76.50704742 15.02966431 75.8305011 14.87188721 75.13345337 C14.36803919 72.90253722 13.87146868 70.6700689 13.375 68.4375 C13.02443115 66.87740914 12.67334914 65.31743351 12.32177734 63.75756836 C11.77384894 61.32588646 11.22639543 58.89410594 10.68093872 56.46186829 C9.39766455 50.74287104 8.08899792 45.030154 6.765625 39.3203125 C6.40309824 37.75204821 6.04063001 36.1837704 5.67822266 34.61547852 C5.15832928 32.36588131 4.63758788 30.11650503 4.11346436 27.8678894 C2.11499507 19.28616243 0.31186974 10.7172195 -1 2 C-14.24541943 6.5186932 -26.84999325 11.29493449 -38 20 C-36.33567319 23.99631962 -33.57801495 26.98138632 -30.75 30.1875 C-26.05993159 35.57802852 -21.46471761 41.03449622 -16.9375 46.5625 C-11.46933551 53.23020993 -5.94104639 59.84126464 -0.35302734 66.40869141 C2.06090465 69.24774026 4.46765626 72.09286494 6.875 74.9375 C7.31545654 75.45731445 7.75591309 75.97712891 8.2097168 76.51269531 C9.47492587 78.00695708 10.73748198 79.50346384 12 81 C12.47429443 81.53141602 12.94858887 82.06283203 13.43725586 82.61035156 C14.68048821 84.02658754 15.84648363 85.50978156 17 87 C16.8125 89.875 16.8125 89.875 16 92 C10.7767556 90.42953792 6.05477059 88.19133825 1.18359375 85.78125 C0.33769684 85.36659485 -0.50820007 84.9519397 -1.37973022 84.52471924 C-3.18085009 83.64141252 -4.98116402 82.75646085 -6.7807312 81.86999512 C-10.49714275 80.03969719 -14.2179037 78.21833159 -17.93855286 76.39666748 C-19.76929625 75.50028042 -21.59985402 74.60351415 -23.43022156 73.70635986 C-30.253836 70.36206021 -37.0839902 67.03272593 -43.9375 63.75 C-45.17512085 63.15155273 -45.17512085 63.15155273 -46.43774414 62.54101562 C-50.05707237 60.66199006 -50.05707237 60.66199006 -54 60 C-56.22996377 64.9135878 -57.86933182 69.71098882 -59.1875 74.9375 C-59.36474609 75.62134766 -59.54199219 76.30519531 -59.72460938 77.00976562 C-60.15467421 78.6719081 -60.57805437 80.33577788 -61 82 C-61.33 82 -61.66 82 -62 82 C-61.81351391 73.54031291 -60.21708429 65.43388982 -56 58 C-54.35668945 57.12768555 -54.35668945 57.12768555 -52 57 C-49.49207355 58.0346879 -47.22054325 59.1211929 -44.84375 60.40234375 C-43.40153314 61.15182539 -41.95880684 61.90032739 -40.515625 62.64794922 C-39.77054688 63.03811218 -39.02546875 63.42827515 -38.2578125 63.83026123 C-34.64971501 65.69956239 -30.99800985 67.47700441 -27.34375 69.25390625 C-26.61824951 69.60770355 -25.89274902 69.96150085 -25.14526367 70.32601929 C-23.66988276 71.04532652 -22.19421485 71.76404537 -20.71826172 72.48217773 C-19.23871509 73.20273616 -17.75987321 73.92474343 -16.28173828 74.64819336 C-5.96282777 79.69847786 4.43791362 84.47964871 15 89 C14.248396 88.11546143 13.49679199 87.23092285 12.72241211 86.31958008 C8.27223332 81.08044058 3.83939183 75.83170285 -0.5 70.5 C-3.78823483 66.46016863 -7.12721426 62.46907935 -10.5 58.5 C-13.87278574 54.53092065 -17.21176517 50.53983137 -20.5 46.5 C-24.74095066 41.29034298 -29.07221608 36.16173527 -33.421875 31.04296875 C-35.96447714 28.04192774 -38.48597372 25.02497047 -41 22 C-37.15872352 12.62156434 -23.62690332 7.83417925 -15 4 C-4.58823529 0 -4.58823529 0 0 0 Z " fill="#5D5955" transform="translate(92,19)"/>
<path d="M0 0 C7.43245044 7.19269398 14.11496012 15.05053436 20.6171875 23.08203125 C23.20756137 26.25417761 25.84694661 29.38032918 28.5 32.5 C36.16910411 41.53045992 43.62116371 50.73121654 51 60 C50.01 60.495 50.01 60.495 49 61 C46.47802734 60.01196289 46.47802734 60.01196289 43.3359375 58.47265625 C42.21445313 57.92802734 41.09296875 57.38339844 39.9375 56.82226562 C38.761875 56.24154297 37.58625 55.66082031 36.375 55.0625 C35.19164062 54.48564453 34.00828125 53.90878906 32.7890625 53.31445312 C29.85584787 51.88332824 26.92644177 50.44491089 24 49 C24.68379546 45.04991941 25.78843183 42.36542982 28 39 C24.4365375 34.58809404 20.77577229 30.78172486 16.3203125 27.26171875 C15.66675781 26.63716797 15.66675781 26.63716797 15 26 C15 25.34 15 24.68 15 24 C12.69 25.65 10.38 27.3 8 29 C8.309375 28.4225 8.61875 27.845 8.9375 27.25 C9.92583364 25.15705816 10.5168613 23.25464725 11 21 C10.278125 20.46375 9.55625 19.9275 8.8125 19.375 C6.66396603 17.56068243 5.10707643 16.02298536 3.375 13.875 C1.13441618 10.88146585 1.13441618 10.88146585 -2 9 C-2 8.34 -2 7.68 -2 7 C-3.98 8.32 -5.96 9.64 -8 11 C-7.690625 10.401875 -7.38125 9.80375 -7.0625 9.1875 C-5.89790296 6.91043228 -5.89790296 6.91043228 -5 4 C-3.68352881 3.30062468 -2.34977849 2.63270867 -1 2 C-0.67 1.34 -0.34 0.68 0 0 Z " fill="#F6F6F6" transform="translate(57,48)"/>
<path d="M0 0 C9 0 9 0 14 1.5 C14.94875 1.7784375 15.8975 2.056875 16.875 2.34375 C17.57625 2.5603125 18.2775 2.776875 19 3 C16.96070337 10.12208899 14.58175794 17.05596139 12 24 C6.06 23.01 6.06 23.01 0 22 C0 14.74 0 7.48 0 0 Z " fill="#FDFDFD" transform="translate(113,54)"/>
<path d="M0 0 C16.08795514 11.98710383 31.87866842 24.38110598 47.64086914 36.79199219 C55.3998823 42.89633573 63.20253125 48.94491544 71 55 C69.584092 59.45571047 67.39547334 61.95241134 64.0625 65.1875 C63.18722656 66.04730469 62.31195313 66.90710938 61.41015625 67.79296875 C56.8159292 72 56.8159292 72 53 72 C50.9765625 69.71875 50.9765625 69.71875 48.625 66.5 C47.73266515 65.29914602 46.83802364 64.10000356 45.94140625 62.90234375 C45.46590332 62.26538574 44.99040039 61.62842773 44.50048828 60.97216797 C41.93658803 57.60230363 39.24739445 54.33618012 36.5625 51.0625 C32.48986071 46.08073639 28.45916987 41.07243709 24.5 36 C20.47647414 30.84603734 16.38120128 25.75551644 12.25 20.6875 C11.15881287 19.34248142 10.06766561 17.99743049 8.9765625 16.65234375 C7.19730618 14.46123297 5.40263029 12.28953602 3.5859375 10.12890625 C2.93882813 9.34386719 2.29171875 8.55882813 1.625 7.75 C0.80902344 6.78320312 0.80902344 6.78320312 -0.0234375 5.796875 C-1 4 -1 4 -0.6640625 1.765625 C-0.44492188 1.18296875 -0.22578125 0.6003125 0 0 Z M4 6 C5.33775514 8.89620795 6.85373964 11.21482634 8.90625 13.65234375 C9.48028564 14.33989746 10.05432129 15.02745117 10.64575195 15.73583984 C11.25765381 16.4623877 11.86955566 17.18893555 12.5 17.9375 C16.86939891 23.17898864 21.18572105 28.43991251 25.3125 33.875 C29.00600001 38.73138011 32.8185872 43.46382103 36.703125 48.16796875 C40.1054953 52.36306818 43.37185119 56.65741865 46.640625 60.95703125 C49.02751476 64.03548675 51.48955226 67.02218167 54 70 C60.38559578 68.25847388 65.54352961 62.48968826 69 57 C69 56.34 69 55.68 69 55 C67.24379357 53.49424388 65.41507854 52.07296571 63.5625 50.6875 C62.36451217 49.78394851 61.16659926 48.88029769 59.96875 47.9765625 C59.32550781 47.49477539 58.68226563 47.01298828 58.01953125 46.51660156 C54.51749914 43.8866906 51.04098895 41.22342573 47.5625 38.5625 C46.8415918 38.01182861 46.12068359 37.46115723 45.37792969 36.89379883 C39.12172143 32.10893726 32.92215899 27.25501842 26.74121094 22.37353516 C23.0679883 19.47595375 19.38510948 16.59062858 15.7043457 13.70263672 C13.18472152 11.72386644 10.68323467 9.73580613 8.22265625 7.68359375 C6.19900781 5.79873209 6.19900781 5.79873209 4 6 Z " fill="#5C5854" transform="translate(117,115)"/>
<path d="M0 0 C0 7.59 0 15.18 0 23 C-3.96 23.33 -7.92 23.66 -12 24 C-12.677219 21.48159185 -13.34191174 18.96091276 -14 16.4375 C-14.19078125 15.73302734 -14.3815625 15.02855469 -14.578125 14.30273438 C-15.75834086 9.72939791 -16.19856973 5.72223635 -16 1 C-14.64648453 0.82812502 -13.29213367 0.66282742 -11.9375 0.5 C-10.80634766 0.36078125 -10.80634766 0.36078125 -9.65234375 0.21875 C-6.44495951 -0.04577654 -3.21827406 0 0 0 Z " fill="#FEFEFE" transform="translate(112,30)"/>
<path d="M0 0 C3.86935719 3.71514368 7.21800122 7.63690074 10.5 11.875 C11.19029297 12.75478516 11.19029297 12.75478516 11.89453125 13.65234375 C15.0450829 17.69037473 18.04647615 21.81584121 21 26 C18.87717331 27.00460531 16.75166979 28.00355602 14.625 29 C13.44164063 29.556875 12.25828125 30.11375 11.0390625 30.6875 C8 32 8 32 6 32 C5.67 32.66 5.34 33.32 5 34 C4.28373718 29.80148069 3.57178296 25.60226012 2.86376953 21.40234375 C2.62243318 19.97441001 2.37993152 18.54667269 2.13623047 17.11914062 C1.7856502 15.06431098 1.43930052 13.00880569 1.09375 10.953125 C0.88427734 9.71723633 0.67480469 8.48134766 0.45898438 7.20800781 C0 4 0 4 0 0 Z " fill="#F9F9F9" transform="translate(114,116)"/>
<path d="M0 0 C7.26326364 6.12310016 9.74568834 19.96487699 11 29 C11 32.63 11 36.26 11 40 C18.26 40 25.52 40 33 40 C33 40.33 33 40.66 33 41 C25.74 41 18.48 41 11 41 C11 44.63 11 48.26 11 52 C10.67 53.65 10.34 55.3 10 57 C9.67 57 9.34 57 9 57 C8.97236643 55.64595503 8.95332578 54.29173445 8.9375 52.9375 C8.92589844 52.18339844 8.91429687 51.42929688 8.90234375 50.65234375 C9.02148928 47.41635123 9.54205146 44.20563978 10 41 C2.41 41 -5.18 41 -13 41 C-13 44.63 -13 48.26 -13 52 C-13.5859375 55.19140625 -13.5859375 55.19140625 -14.375 57.5625 C-14.75785156 58.77099609 -14.75785156 58.77099609 -15.1484375 60.00390625 C-16 62 -16 62 -18 64 C-17.87882812 63.42894531 -17.75765625 62.85789063 -17.6328125 62.26953125 C-16.17407326 55.21147754 -15.06167822 48.12841088 -14 41 C-21.26 41 -28.52 41 -36 41 C-36.33 43.97 -36.66 46.94 -37 50 C-38.0625 53.0625 -38.0625 53.0625 -39 55 C-40.15837573 51.52487282 -39.77265943 49.86329714 -39.0625 46.3125 C-38.86785156 45.31863281 -38.67320312 44.32476562 -38.47265625 43.30078125 C-38.31667969 42.54152344 -38.16070312 41.78226563 -38 41 C-41.3 41 -44.6 41 -48 41 C-48 40.67 -48 40.34 -48 40 C-44.7 40 -41.4 40 -38 40 C-38.66 35.38 -39.32 30.76 -40 26 C-36.13023259 29.86976741 -36 34.73720449 -36 40 C-28.74 40 -21.48 40 -14 40 C-15.05529216 32.23606483 -16.16163172 24.61609716 -18 17 C-12.03469984 23.50760018 -13 31.6211922 -13 40 C-5.41 40 2.18 40 10 40 C8.53900568 28.31204545 6.82213222 18.05012393 2.3046875 7.1875 C1.31087113 4.75949355 0.52408767 2.55652524 0 0 Z " fill="#E8E8E8" transform="translate(185,72)"/>
<path d="M0 0 C0.51208008 0.39364746 1.02416016 0.78729492 1.55175781 1.19287109 C-1.3463979 4.28196412 -4.33378284 6.58147746 -7.88574219 8.88037109 C-11.30276598 11.10941241 -14.69420542 13.34731353 -18.01855469 15.71240234 C-18.60193604 16.12594971 -19.18531738 16.53949707 -19.78637695 16.96557617 C-21.43835233 18.14134854 -23.0859794 19.32322313 -24.73339844 20.50537109 C-27.44824219 22.19287109 -27.44824219 22.19287109 -30.44824219 22.19287109 C-32.55594977 19.30453107 -33.44824219 17.80824714 -33.44824219 14.19287109 C-29.11652073 11.99964252 -24.7751023 9.82750706 -20.42333984 7.67431641 C-18.9442445 6.93882594 -17.46796856 6.19763709 -15.99462891 5.45068359 C-13.87694194 4.37829262 -11.74997914 3.32676655 -9.62011719 2.27880859 C-8.96267517 1.94037933 -8.30523315 1.60195007 -7.62786865 1.25326538 C-2.99903288 -0.98871188 -2.99903288 -0.98871188 0 0 Z " fill="#565A59" transform="translate(102.4482421875,117.80712890625)"/>
<path d="M0 0 C0.33 0 0.66 0 1 0 C0.67 4.62 0.34 9.24 0 14 C7.26 14 14.52 14 22 14 C22.33 11.36 22.66 8.72 23 6 C23.33 6 23.66 6 24 6 C24 8.64 24 11.28 24 14 C31.26 14 38.52 14 46 14 C46 13.01 46 12.02 46 11 C49.12290635 11.48578543 51.99580359 11.9986012 55 13 C55 13.66 55 14.32 55 15 C50.92544453 15.71530155 46.8503259 16.42729289 42.7746582 17.13623047 C41.38843185 17.37783501 40.00236234 17.62034128 38.61645508 17.86376953 C36.62362537 18.21363931 34.63017908 18.55999138 32.63671875 18.90625 C31.43748779 19.11572266 30.23825684 19.32519531 29.00268555 19.54101562 C26 20 26 20 23 20 C22.67 18.35 22.34 16.7 22 15 C14.74 15 7.48 15 0 15 C0 17.64 0 20.28 0 23 C-0.33 23 -0.66 23 -1 23 C-1 20.36 -1 17.72 -1 15 C-8.26 15 -15.52 15 -23 15 C-23 17.97 -23 20.94 -23 24 C-23.33 24 -23.66 24 -24 24 C-24.33 16.74 -24.66 9.48 -25 2 C-24.01 2.495 -24.01 2.495 -23 3 C-23 6.63 -23 10.26 -23 14 C-15.74 14 -8.48 14 -1 14 C-1 10.7 -1 7.4 -1 4 C-0.67 2.68 -0.34 1.36 0 0 Z " fill="#E6C65C" transform="translate(54,98)"/>
<path d="M0 0 C0.99 0.33 1.98 0.66 3 1 C3.67862172 4.49778963 4.34068889 7.99852343 5 11.5 C5.19078125 12.48226562 5.3815625 13.46453125 5.578125 14.4765625 C6.62599407 20.09014679 7.21751082 25.2903409 7 31 C5.68 31.33 4.36 31.66 3 32 C3 38.93 3 45.86 3 53 C2.67 53 2.34 53 2 53 C2 46.07 2 39.14 2 32 C-0.31 32 -2.62 32 -5 32 C-4.88406494 31.44127197 -4.76812988 30.88254395 -4.64868164 30.30688477 C-4.11572693 27.72627597 -3.58908684 25.14441541 -3.0625 22.5625 C-2.88009766 21.68400391 -2.69769531 20.80550781 -2.50976562 19.90039062 C-1.17267847 13.31219757 0 6.73973021 0 0 Z " fill="#ACF6AA" transform="translate(110,117)"/>
<path d="M0 0 C0 7.26 0 14.52 0 22 C-2.31 22.33 -4.62 22.66 -7 23 C-7.67363372 20.27238489 -8.33909444 17.543201 -9 14.8125 C-9.19078125 14.04357422 -9.3815625 13.27464844 -9.578125 12.48242188 C-10.51623421 8.57921747 -11.25957208 5.04770205 -11 1 C-8 0 -8 0 0 0 Z " fill="#FDFDFD" transform="translate(112,54)"/>
<path d="M0 0 C4.55830529 1.92461779 6.94324978 3.42944397 9 8 C9 8.99 9 9.98 9 11 C7.35 9.68 5.7 8.36 4 7 C1.37812506 8.04874998 0.20628639 8.64931313 -1.25 11.125 C-1.4975 11.74375 -1.745 12.3625 -2 13 C-2.66 13 -3.32 13 -4 13 C-4.66 14.32 -5.32 15.64 -6 17 C-6.66 17 -7.32 17 -8 17 C-8.309375 17.78375 -8.61875 18.5675 -8.9375 19.375 C-10 22 -10 22 -11 24 C-11.969375 24.28875 -12.93875 24.5775 -13.9375 24.875 C-17.08627335 25.66611301 -17.08627335 25.66611301 -18.1875 28 C-18.455625 28.66 -18.72375 29.32 -19 30 C-19.99 30.66 -20.98 31.32 -22 32 C-22.99 31.67 -23.98 31.34 -25 31 C-24.00033203 29.83597656 -24.00033203 29.83597656 -22.98046875 28.6484375 C-15.02083253 19.33548831 -7.30983746 9.83461685 0 0 Z " fill="#F6F6F6" transform="translate(150,66)"/>
<path d="M0 0 C0.33 0 0.66 0 1 0 C0.31945655 7.73495725 -1.20821877 15.17224339 -2.875 22.75 C-3.13152344 23.9359375 -3.38804688 25.121875 -3.65234375 26.34375 C-5.36884338 34.24482367 -7.1683224 42.12488315 -9 50 C-2.4 50.33 4.2 50.66 11 51 C10.3503125 47.15408203 10.3503125 47.15408203 9.6875 43.23046875 C9.26992126 40.74838908 8.85318167 38.26616988 8.43652344 35.78393555 C8.14638596 34.05820174 7.85537559 32.33261446 7.56347656 30.60717773 C7.14418937 28.1278213 6.72803865 25.64795583 6.3125 23.16796875 C6.18125732 22.39599655 6.05001465 21.62402435 5.91479492 20.82865906 C5.4177877 17.84755325 5 15.02824037 5 12 C5.66 12 6.32 12 7 12 C7.86254997 16.57006195 8.71674558 21.14158027 9.56347656 25.71459961 C9.85224028 27.26775435 10.14322114 28.82049867 10.43652344 30.37280273 C10.85945976 32.61335824 11.27421094 34.85530369 11.6875 37.09765625 C11.81874268 37.78336197 11.94998535 38.46906769 12.08520508 39.17555237 C12.87237766 43.50153688 13.1198613 47.60758272 13 52 C9.20839703 52.05786668 5.41690689 52.09355054 1.625 52.125 C0.54476562 52.14175781 -0.53546875 52.15851563 -1.6484375 52.17578125 C-2.6796875 52.18222656 -3.7109375 52.18867188 -4.7734375 52.1953125 C-6.20308838 52.21102295 -6.20308838 52.21102295 -7.66162109 52.22705078 C-10 52 -10 52 -12 50 C-11.87432861 48.12945557 -11.87432861 48.12945557 -11.34082031 45.82910156 C-11.14691711 44.96770569 -10.95301392 44.10630981 -10.75323486 43.21881104 C-10.53044861 42.28550964 -10.30766235 41.35220825 -10.078125 40.390625 C-9.858078 39.43105896 -9.63803101 38.47149292 -9.41131592 37.48284912 C-8.94237539 35.44727444 -8.46786315 33.41297668 -7.98828125 31.37988281 C-7.25688959 28.27920786 -6.54094042 25.17530487 -5.828125 22.0703125 C-5.37069517 20.09354071 -4.91238969 18.1169713 -4.453125 16.140625 C-4.23843567 15.21542053 -4.02374634 14.29021606 -3.80255127 13.3369751 C-2.73203802 8.80632248 -1.57088158 4.39013387 0 0 Z " fill="#616661" transform="translate(110,120)"/>
<path d="M0 0 C-0.66 3.63 -1.32 7.26 -2 11 C-2.7425 10.46375 -3.485 9.9275 -4.25 9.375 C-6.84041472 7.70403248 -6.84041472 7.70403248 -9.1875 8.5625 C-11.24128309 10.19136245 -12.03432113 11.58580282 -13 14 C-13.66 14 -14.32 14 -15 14 C-15.66 15.32 -16.32 16.64 -17 18 C-17.66 18 -18.32 18 -19 18 C-19.2475 18.94875 -19.495 19.8975 -19.75 20.875 C-21 24 -21 24 -22.9375 25.375 C-25 26 -25 26 -28 26 C-27.649375 25.4225 -27.29875 24.845 -26.9375 24.25 C-25.83422289 21.60213494 -26.19843491 20.66814674 -27 18 C-26.11699219 17.3709375 -25.23398438 16.741875 -24.32421875 16.09375 C-23.11197624 15.22917077 -21.89973688 14.36458712 -20.6875 13.5 C-19.74148926 12.82638428 -19.74148926 12.82638428 -18.77636719 12.13916016 C-15.73090952 9.96679512 -12.69500238 7.7846718 -9.69140625 5.5546875 C-8.72074219 4.83539063 -7.75007813 4.11609375 -6.75 3.375 C-5.87859375 2.72273438 -5.0071875 2.07046875 -4.109375 1.3984375 C-2 0 -2 0 0 0 Z " fill="#F3F3F3" transform="translate(111,115)"/>
<path d="M0 0 C7 0 7 0 10 1 C9.42381249 6.14595054 8.25256722 10.55078055 6.4375 15.4375 C5.98246094 16.67371094 5.52742188 17.90992188 5.05859375 19.18359375 C4.70925781 20.11300781 4.35992187 21.04242188 4 22 C2.68 22 1.36 22 0 22 C0 14.74 0 7.48 0 0 Z " fill="#FCFCFC" transform="translate(113,78)"/>
<path d="M0 0 C3.96969711 3.86677904 7.63513001 7.92644557 11.25 12.125 C11.81557617 12.78008545 12.38115234 13.4351709 12.96386719 14.11010742 C26.31087542 29.62175085 26.31087542 29.62175085 28 33 C24.56247993 31.4722133 21.81046312 29.49818944 19 27 C19 26.34 19 25.68 19 25 C18.01 24.67 17.02 24.34 16 24 C16 23.34 16 22.68 16 22 C14.68 22.33 13.36 22.66 12 23 C11.979375 22.29875 11.95875 21.5975 11.9375 20.875 C10.72968019 17.17101925 8.8363997 15.86911976 5.85546875 13.484375 C3.35044399 11.48035519 1.16801153 9.36510348 -1 7 C-1 6.34 -1 5.68 -1 5 C-3.31 6.65 -5.62 8.3 -8 10 C-7.33333333 8.66666667 -6.66666667 7.33333333 -6 6 C-5.71125 5.29875 -5.4225 4.5975 -5.125 3.875 C-3.74781064 1.57968441 -2.44801496 0.97920598 0 0 Z " fill="#F3F3F3" transform="translate(73,67)"/>
<path d="M0 0 C7.70724072 2.69168277 14.25019171 6.43168869 21 11 C19.6685435 13.878418 18.16701678 16.19196251 16.12890625 18.6171875 C15.56026855 19.2992627 14.99163086 19.98133789 14.40576172 20.68408203 C13.49334717 21.76858643 13.49334717 21.76858643 12.5625 22.875 C8.09597224 28.23872422 3.66754067 33.62078457 -0.625 39.125 C-4.56032354 44.1644106 -8.51440374 49.18769566 -12.5 54.1875 C-13.25724365 55.14197021 -13.25724365 55.14197021 -14.02978516 56.11572266 C-16.24018821 58.88416435 -18.4634026 61.52847906 -21 64 C-21.495 62.515 -21.495 62.515 -22 61 C-21.278125 60.29359375 -20.55625 59.5871875 -19.8125 58.859375 C-11.6785545 50.71400542 -4.71256839 41.43483153 2.20385742 32.26025391 C6.36198293 26.76400323 10.72880436 21.50352698 15.26953125 16.3203125 C17.29891929 14.08161538 17.29891929 14.08161538 17 11 C14.71125827 9.66141476 12.41930344 8.32898986 10.125 7 C9.47402344 6.6184375 8.82304687 6.236875 8.15234375 5.84375 C4.79649799 3.72448844 4.79649799 3.72448844 1 3 C-0.32 6.3 -1.64 9.6 -3 13 C-4.08644535 8.6542186 -3.90680911 8.05039452 -2.0625 4.25 C-1.68222656 3.45078125 -1.30195313 2.6515625 -0.91015625 1.828125 C-0.60980469 1.22484375 -0.30945313 0.6215625 0 0 Z " fill="#545552" transform="translate(137,45)"/>
<path d="M0 0 C-16.70842825 8.44646925 -16.70842825 8.44646925 -25 12 C-25.36122881 10.68942607 -25.71380311 9.37646376 -26.0625 8.0625 C-26.35833984 6.96615234 -26.35833984 6.96615234 -26.66015625 5.84765625 C-26.77230469 5.23792969 -26.88445312 4.62820312 -27 4 C-24.36979233 1.36979233 -18.17524724 1.49224922 -14.625 0.875 C-13.55765625 0.68035156 -12.4903125 0.48570313 -11.390625 0.28515625 C-9.85535156 0.01638672 -9.85535156 0.01638672 -8.2890625 -0.2578125 C-6.87681396 -0.50748779 -6.87681396 -0.50748779 -5.43603516 -0.76220703 C-3 -1 -3 -1 0 0 Z " fill="#F3F3F3" transform="translate(104,116)"/>
<path d="M0 0 C1.69767706 3.06587369 2.53052579 5.89208079 3.2265625 9.3203125 C3.45013428 10.39740479 3.67370605 11.47449707 3.90405273 12.58422852 C4.14196533 13.75268311 4.37987793 14.9211377 4.625 16.125 C6.37329276 24.5494072 8.19395197 32.94344344 10.20703125 41.30859375 C10.39235413 42.0809436 10.577677 42.85329346 10.76861572 43.64904785 C11.50549662 46.71387382 12.24414679 49.77812913 12.99859619 52.83868408 C13.52532078 54.97551863 14.0426024 57.11445911 14.55859375 59.25390625 C14.86079834 60.48439697 15.16300293 61.7148877 15.47436523 62.98266602 C16 66 16 66 15 69 C12.94943659 65.43060471 12.15697999 61.8338542 11.265625 57.83203125 C11.0275135 56.77572258 11.0275135 56.77572258 10.78459167 55.69807434 C10.2682603 53.4039296 9.75896725 51.10828871 9.25 48.8125 C8.54037091 45.63873419 7.82739524 42.46572818 7.11328125 39.29296875 C6.84699669 38.10725281 6.84699669 38.10725281 6.57533264 36.89758301 C5.47364443 32.01709006 4.31637803 27.15535066 3.10546875 22.30078125 C2.82219727 21.16213623 2.53892578 20.02349121 2.24707031 18.8503418 C1.71972852 16.74940321 1.18431849 14.6504681 0.63964844 12.55395508 C0.40665039 11.62091553 0.17365234 10.68787598 -0.06640625 9.7265625 C-0.27209229 8.92814941 -0.47777832 8.12973633 -0.68969727 7.30712891 C-1.04787199 4.64406742 -0.65603599 2.59029513 0 0 Z " fill="#645D58" transform="translate(96,38)"/>
<path d="M0 0 C0.66 0.33 1.32 0.66 2 1 C-3.77258655 5.27262311 -9.59283611 9.47791229 -15.5 13.5625 C-16.4796875 14.24441406 -17.459375 14.92632812 -18.46875 15.62890625 C-19.72171875 16.30759766 -19.72171875 16.30759766 -21 17 C-21.99 16.67 -22.98 16.34 -24 16 C-24.6875 13.9375 -24.6875 13.9375 -25 12 C-24.38479492 11.70754395 -23.76958984 11.41508789 -23.13574219 11.11376953 C-20.34029957 9.78458982 -17.545147 8.45480126 -14.75 7.125 C-13.29787109 6.43470703 -13.29787109 6.43470703 -11.81640625 5.73046875 C-10.41455078 5.06337891 -10.41455078 5.06337891 -8.984375 4.3828125 C-7.69611816 3.77010498 -7.69611816 3.77010498 -6.38183594 3.14501953 C-4.83757453 2.40264704 -3.31225046 1.61895788 -1.81347656 0.78857422 C-1.2150293 0.52834473 -0.61658203 0.26811523 0 0 Z " fill="#79EFD3" transform="translate(96,121)"/>
<path d="M0 0 C0.54301758 0.2266333 1.08603516 0.4532666 1.64550781 0.68676758 C13.87931565 5.76434144 25.74097729 10.49329287 39 12 C39.495 13.485 39.495 13.485 40 15 C24.94481626 14.28308649 11.30277211 8.71915855 -2 2 C-1.34 1.34 -0.68 0.68 0 0 Z " fill="#205E83" transform="translate(61,205)"/>
<path d="M0 0 C1.98 0 3.96 0 6 0 C6 7.26 6 14.52 6 22 C5.34 22 4.68 22 4 22 C3.32636628 19.27238489 2.66090556 16.543201 2 13.8125 C1.80921875 13.04357422 1.6184375 12.27464844 1.421875 11.48242188 C0.48376579 7.57921747 -0.25957208 4.04770205 0 0 Z " fill="#F8F8F8" transform="translate(106,78)"/>
<path d="M0 0 C0.33 0 0.66 0 1 0 C1.12375 0.92296875 1.2475 1.8459375 1.375 2.796875 C3.06711882 13.9229178 6.75251647 23.77093046 11.19970703 34.07739258 C11.87112447 35.69039207 12.44749944 37.34249831 13 39 C12.34 39.66 11.68 40.32 11 41 C7.1816735 32.82415969 3.65036404 24.63611524 1 16 C0.67092651 14.97918335 0.67092651 14.97918335 0.33520508 13.93774414 C-1.12690633 8.94021441 -0.91478808 5.12281326 0 0 Z " fill="#1E5D82" transform="translate(7,125)"/>
<path d="M0 0 C4.29 0 8.58 0 13 0 C13 0.33 13 0.66 13 1 C11.02 1 9.04 1 7 1 C7 8.26 7 15.52 7 23 C10.465 22.505 10.465 22.505 14 22 C15.64485066 21.93943849 17.29172957 21.91218045 18.9375 21.9375 C19.70964844 21.94652344 20.48179688 21.95554688 21.27734375 21.96484375 C21.84582031 21.97644531 22.41429687 21.98804688 23 22 C23 22.33 23 22.66 23 23 C18 24 18 24 7 24 C7 31.26 7 38.52 7 46 C6.67 46 6.34 46 6 46 C6 38.74 6 31.48 6 24 C3.36 24 0.72 24 -2 24 C-2 23.67 -2 23.34 -2 23 C0.64 23 3.28 23 6 23 C6 15.74 6 8.48 6 1 C4.02 1 2.04 1 0 1 C0 0.67 0 0.34 0 0 Z " fill="#DADADA" transform="translate(106,172)"/>
<path d="M0 0 C0 6.27 0 12.54 0 19 C-1.98 19 -3.96 19 -6 19 C-5.33333333 15 -4.66666667 11 -4 7 C-3.85433594 5.89914063 -3.70867187 4.79828125 -3.55859375 3.6640625 C-3.37425781 2.78492188 -3.18992187 1.90578125 -3 1 C-1 0 -1 0 0 0 Z " fill="#AEFBAC" transform="translate(112,128)"/>
<path d="M0 0 C7.96105234 1.35022253 12.97386266 10.0514051 17.4375 16.1875 C17.87465332 16.78135498 18.31180664 17.37520996 18.76220703 17.98706055 C21.09277256 21.28001038 22.58152478 23.95981197 23 28 C20.02101669 25.17226749 17.65499017 22.24386426 15.3125 18.875 C11.80372973 13.96403823 7.99494242 9.50676748 3.8828125 5.09375 C2 3 2 3 0 0 Z " fill="#185A80" transform="translate(183,33)"/>
<path d="M0 0 C1.32091047 2.64182093 0.69401904 4.50321595 0.29345703 7.34765625 C-0.354414 13.20328927 -0.38669606 19.11489104 -0.5625 25 C-0.60578135 26.36068789 -0.64939839 27.72136515 -0.69335938 29.08203125 C-0.79886683 32.38793157 -0.90098256 35.69389999 -1 39 C-4.26538873 34.1019169 -3.3276789 28.63083744 -3.3125 22.875 C-3.32861328 21.67617187 -3.34472656 20.47734375 -3.36132812 19.2421875 C-3.36521285 12.15644995 -2.67853844 6.57266689 0 0 Z " fill="#13557D" transform="translate(8,90)"/>
<path d="M0 0 C0.33 0 0.66 0 1 0 C0.31137469 8.0107172 -1.33310583 15.71803223 -3.0625 23.5625 C-3.347422 24.87035198 -3.63193031 26.17829415 -3.91601562 27.48632812 C-4.60662738 30.6584601 -5.30138811 33.8296221 -6 37 C-6.66 36.34 -7.32 35.68 -8 35 C-7.64235721 23.59750625 -3.59145822 10.77437467 0 0 Z " fill="#626961" transform="translate(110,120)"/>
<path d="M0 0 C0 3.21518097 -0.1621112 4.41024759 -2 7 C-4 7.66666667 -6 8.33333333 -8 9 C-9.22527948 10.95021083 -9.22527948 10.95021083 -10 13 C-10.99 13.66 -11.98 14.32 -13 15 C-13.99 14.67 -14.98 14.34 -16 14 C-14.45230643 12.00753235 -12.88870987 10.0322034 -11.3125 8.0625 C-10.87744141 7.49853516 -10.44238281 6.93457031 -9.99414062 6.35351562 C-7.87694713 3.73446886 -6.50776982 2.14968109 -3.23046875 1.18359375 C-2.49441406 1.12300781 -1.75835937 1.06242187 -1 1 C-0.67 0.67 -0.34 0.34 0 0 Z " fill="#EBEBEB" transform="translate(141,83)"/>
<path d="M0 0 C4.13347071 0.47239665 7.35761877 2.05174957 11 4 C10.34 4.66 9.68 5.32 9 6 C7.576875 5.2575 7.576875 5.2575 6.125 4.5 C3.27721834 2.85575631 3.27721834 2.85575631 1 3 C-1.22996377 7.9135878 -2.86933182 12.71098882 -4.1875 17.9375 C-4.36474609 18.62134766 -4.54199219 19.30519531 -4.72460938 20.00976562 C-5.15467421 21.6719081 -5.57805437 23.33577788 -6 25 C-6.33 25 -6.66 25 -7 25 C-6.82950552 17.26575027 -5.76996119 5.76996119 0 0 Z " fill="#605F58" transform="translate(37,76)"/>
<path d="M0 0 C6.93 0 13.86 0 21 0 C14.83204838 4.11196775 7.23434167 4.26793858 0 4 C0 2.68 0 1.36 0 0 Z " fill="#FBD965" transform="translate(78,113)"/>
<path d="M0 0 C1.74087818 5.11306878 0.04405628 9.84113369 -1 15 C5.6 15.33 12.2 15.66 19 16 C19 16.33 19 16.66 19 17 C15.54173658 17.05789006 12.08359707 17.09355821 8.625 17.125 C7.64015625 17.14175781 6.6553125 17.15851563 5.640625 17.17578125 C4.69960937 17.18222656 3.75859375 17.18867188 2.7890625 17.1953125 C1.48509521 17.21102295 1.48509521 17.21102295 0.15478516 17.22705078 C-2 17 -2 17 -4 15 C-3.48616214 12.37174888 -2.8843344 9.93126859 -2.125 7.375 C-1.92519531 6.66859375 -1.72539063 5.9621875 -1.51953125 5.234375 C-1.0235315 3.48656637 -0.5131058 1.74286351 0 0 Z " fill="#555A54" transform="translate(102,155)"/>
<path d="M0 0 C1.62483572 2.97527008 2.53848969 5.76119512 3.2890625 9.0625 C3.61777344 10.50496094 3.61777344 10.50496094 3.953125 11.9765625 C4.17484375 12.97429688 4.3965625 13.97203125 4.625 15 C4.85445313 15.99773438 5.08390625 16.99546875 5.3203125 18.0234375 C6.2517222 22.15934007 7 25.73735 7 30 C6.34 30 5.68 30 5 30 C3.96205291 25.94167606 2.94767019 21.87781907 1.9375 17.8125 C1.64294922 16.66201172 1.34839844 15.51152344 1.04492188 14.32617188 C0.77099609 13.21435547 0.49707031 12.10253906 0.21484375 10.95703125 C-0.04176025 9.93585205 -0.29836426 8.91467285 -0.56274414 7.86254883 C-1.01430805 4.9063306 -0.77595451 2.86665687 0 0 Z " fill="#6C6661" transform="translate(96,38)"/>
<path d="M0 0 C0 1.32 0 2.64 0 4 C-5.28 4 -10.56 4 -16 4 C-11.95384951 -0.04615049 -5.4704121 -1.94111397 0 0 Z " fill="#638BE8" transform="translate(135,108)"/>
<path d="M0 0 C7.26 0 14.52 0 22 0 C22 0.33 22 0.66 22 1 C18.04 1 14.08 1 10 1 C9.34 2.65 8.68 4.3 8 6 C4.33759908 4.43039961 3.06096354 3.06096354 0 0 Z " fill="#DEDEDE" transform="translate(115,113)"/>
<path d="M0 0 C0.33 2.64 0.66 5.28 1 8 C0.34 8 -0.32 8 -1 8 C-1.33 6.68 -1.66 5.36 -2 4 C-6.81545046 4.6336119 -11.16349078 5.98173949 -15.73046875 7.57421875 C-18 8 -18 8 -21 6 C-17.87647773 4.99534271 -14.75095147 3.99707073 -11.625 3 C-10.73554687 2.71382813 -9.84609375 2.42765625 -8.9296875 2.1328125 C-7.65351563 1.72675781 -7.65351563 1.72675781 -6.3515625 1.3125 C-5.56604004 1.06113281 -4.78051758 0.80976562 -3.97119141 0.55078125 C-2 0 -2 0 0 0 Z " fill="#5C6069" transform="translate(136,104)"/>
<path d="M0 0 C0.99 0.33 1.98 0.66 3 1 C3.88370974 7.48708411 4.00278495 13.53919765 3.5625 20.0625 C3.51029297 20.92810547 3.45808594 21.79371094 3.40429688 22.68554688 C3.2763539 24.79079032 3.13916029 26.89546828 3 29 C2.67 29 2.34 29 2 29 C1.93941406 27.81921875 1.87882812 26.6384375 1.81640625 25.421875 C1.73197418 23.8645723 1.64732751 22.30728121 1.5625 20.75 C1.52318359 19.97269531 1.48386719 19.19539063 1.44335938 18.39453125 C1.40146484 17.64042969 1.35957031 16.88632813 1.31640625 16.109375 C1.27974854 15.41811523 1.24309082 14.72685547 1.20532227 14.01464844 C0.99313835 11.93267265 0.52416328 10.02297555 0 8 C-0.12205329 5.32459184 -0.04467313 2.68038762 0 0 Z " fill="#A1E49F" transform="translate(110,117)"/>
<path d="M0 0 C1.109375 1.6640625 1.109375 1.6640625 2 4 C1.390625 6.5859375 1.390625 6.5859375 0.25 9.375 C-0.13414063 10.33921875 -0.51828125 11.3034375 -0.9140625 12.296875 C-1.27242187 13.18890625 -1.63078125 14.0809375 -2 15 C-2.37125 16.19625 -2.7425 17.3925 -3.125 18.625 C-4 21 -4 21 -6 22 C-5.52960495 14.16008251 -2.77062812 7.27928865 0 0 Z " fill="#246085" transform="translate(13,69)"/>
<path d="M0 0 C4.58716587 4.44381694 8.78762713 9.20228499 13 14 C8.68381834 14 7.07210341 11.86729652 4 9 C4 8.34 4 7.68 4 7 C3.01 6.67 2.02 6.34 1 6 C1 5.34 1 4.68 1 4 C-0.32 4.33 -1.64 4.66 -3 5 C-2.625 3.0625 -2.625 3.0625 -2 1 C-1.34 0.67 -0.68 0.34 0 0 Z " fill="#E7E7E7" transform="translate(88,85)"/>
<path d="M0 0 C1.87939453 0.04833984 1.87939453 0.04833984 4.1328125 0.4609375 C5.34130859 0.67363281 5.34130859 0.67363281 6.57421875 0.890625 C7.83685547 1.13039062 7.83685547 1.13039062 9.125 1.375 C10.39923828 1.60316406 10.39923828 1.60316406 11.69921875 1.8359375 C13.80132265 2.21384382 15.9009229 2.60562794 18 3 C18.33 3.99 18.66 4.98 19 6 C11.69303751 5.54034292 5.00242552 4.11670277 -2 2 C-1.34 1.34 -0.68 0.68 0 0 Z " fill="#205E84" transform="translate(82,214)"/>
<path d="M0 0 C0.66 0 1.32 0 2 0 C1.34 3.63 0.68 7.26 0 11 C-2.31 9.35 -4.62 7.7 -7 6 C-6.21625 5.38125 -5.4325 4.7625 -4.625 4.125 C-2.03162353 2.10141339 -2.03162353 2.10141339 0 0 Z " fill="#E7E7E7" transform="translate(109,115)"/>
<path d="M0 0 C5.26630019 3.40554079 10.2703193 6.87668862 15 11 C13.21484375 11.66796875 13.21484375 11.66796875 11 12 C9.25390625 10.92578125 9.25390625 10.92578125 7.5625 9.3125 C6.964375 8.75949219 6.36625 8.20648438 5.75 7.63671875 C4.88375 6.82654297 4.88375 6.82654297 4 6 C2.34024611 4.65807132 0.67653359 3.32090525 -1 2 C-0.67 1.34 -0.34 0.68 0 0 Z " fill="#246286" transform="translate(170,21)"/>
<path d="M0 0 C0 0.66 0 1.32 0 2 C-0.99 2 -1.98 2 -3 2 C-3 8.93 -3 15.86 -3 23 C-3.33 23 -3.66 23 -4 23 C-4 16.07 -4 9.14 -4 2 C-6.31 2 -8.62 2 -11 2 C-11 1.34 -11 0.68 -11 0 C-3.57142857 -1.28571429 -3.57142857 -1.28571429 0 0 Z " fill="#A5F1A3" transform="translate(116,147)"/>
<path d="M0 0 C1.65 1.32 3.3 2.64 5 4 C6.65 3.34 8.3 2.68 10 2 C9.34 3.65 8.68 5.3 8 7 C9.32 8.65 10.64 10.3 12 12 C11.4225 11.67 10.845 11.34 10.25 11 C7.80116138 9.72924102 7.80116138 9.72924102 4 10 C3.34 9.67 2.68 9.34 2 9 C2.226875 8.401875 2.45375 7.80375 2.6875 7.1875 C2.790625 6.465625 2.89375 5.74375 3 5 C1.60411246 3.35405861 1.60411246 3.35405861 0 2 C0 1.34 0 0.68 0 0 Z " fill="#EBEBEB" transform="translate(65,148)"/>
<path d="M0 0 C0.99 0.99 1.98 1.98 3 3 C2.01 3.66 1.02 4.32 0 5 C0.33 6.65 0.66 8.3 1 10 C0.01 9.67 -0.98 9.34 -2 9 C-2 8.34 -2 7.68 -2 7 C-3.98 8.32 -5.96 9.64 -8 11 C-7.690625 10.401875 -7.38125 9.80375 -7.0625 9.1875 C-5.89790296 6.91043228 -5.89790296 6.91043228 -5 4 C-3.68352881 3.30062468 -2.34977849 2.63270867 -1 2 C-0.67 1.34 -0.34 0.68 0 0 Z " fill="#ECECEC" transform="translate(57,48)"/>
<path d="M0 0 C0.53625 0.391875 1.0725 0.78375 1.625 1.1875 C-0.86452921 3.85485273 -3.00908134 5.74496343 -6.375 7.1875 C-6.375 6.1975 -6.375 5.2075 -6.375 4.1875 C-7.035 4.1875 -7.695 4.1875 -8.375 4.1875 C-8.375 3.5275 -8.375 2.8675 -8.375 2.1875 C-2.95961538 -1.0125 -2.95961538 -1.0125 0 0 Z " fill="#5C6B68" transform="translate(102.375,117.8125)"/>
<path d="M0 0 C2.475 0.495 2.475 0.495 5 1 C5.33 6.61 5.66 12.22 6 18 C4.01114597 15.01671896 3.57928204 13.50198714 3 10.0625 C2.42620585 6.66584354 1.62925806 4.03449313 0 1 C0 0.67 0 0.34 0 0 Z " fill="#525753" transform="translate(110,114)"/>
<path d="M0 0 C4.55830529 1.92461779 6.94324978 3.42944397 9 8 C9 8.99 9 9.98 9 11 C7.35 9.68 5.7 8.36 4 7 C2.02 7.99 2.02 7.99 0 9 C0.66 7.35 1.32 5.7 2 4 C1.01 3.01 0.02 2.02 -1 1 C-0.67 0.67 -0.34 0.34 0 0 Z " fill="#E9E9E9" transform="translate(150,66)"/>
<path d="M0 0 C1.1171875 1.640625 1.1171875 1.640625 2 4 C1.3203125 6.796875 1.3203125 6.796875 0.125 9.75 C-0.26429688 10.73484375 -0.65359375 11.7196875 -1.0546875 12.734375 C-1.36664063 13.48203125 -1.67859375 14.2296875 -2 15 C-3.1171875 13.359375 -3.1171875 13.359375 -4 11 C-3.3203125 8.203125 -3.3203125 8.203125 -2.125 5.25 C-1.73570312 4.26515625 -1.34640625 3.2803125 -0.9453125 2.265625 C-0.63335937 1.51796875 -0.32140625 0.7703125 0 0 Z " fill="#286387" transform="translate(213,143)"/>
<path d="M0 0 C0.66 0.33 1.32 0.66 2 1 C0.04761147 3.00612399 -1.91137822 5.00492433 -3.875 7 C-4.43058594 7.57234375 -4.98617187 8.1446875 -5.55859375 8.734375 C-7.00134404 10.19450782 -8.4974374 11.60149298 -10 13 C-10.66 13 -11.32 13 -12 13 C-11.34 11.68 -10.68 10.36 -10 9 C-9.34 9 -8.68 9 -8 9 C-8 8.34 -8 7.68 -8 7 C-6.25 5.2734375 -6.25 5.2734375 -4 3.375 C-3.2575 2.74335938 -2.515 2.11171875 -1.75 1.4609375 C-1.1725 0.97882812 -0.595 0.49671875 0 0 Z " fill="#747474" transform="translate(40,23)"/>
<path d="M0 0 C4.21814817 3.9700218 7.61227103 8.30840284 11 13 C10.01 13 9.02 13 8 13 C5.95703125 10.91796875 5.95703125 10.91796875 3.8125 8.1875 C3.09707031 7.29417969 2.38164062 6.40085938 1.64453125 5.48046875 C0 3 0 3 0 0 Z " fill="#665F59" transform="translate(147,155)"/>
<path d="M0 0 C-1.59092052 4.13639336 -4.60474918 7.23213248 -8 10 C-8.66 10 -9.32 10 -10 10 C-8.50006099 6.10015857 -4.53875449 0 0 0 Z " fill="#0C547C" transform="translate(193,183)"/>
<path d="M0 0 C0.33 0 0.66 0 1 0 C1.36504603 1.58086048 1.71660506 3.16483907 2.0625 4.75 C2.25972656 5.63171875 2.45695313 6.5134375 2.66015625 7.421875 C2.99825872 9.98679028 2.81158635 11.57091639 2 14 C1.34 13.67 0.68 13.34 0 13 C-0.44921875 11.07421875 -0.44921875 11.07421875 -0.6875 8.6875 C-0.77386719 7.90761719 -0.86023438 7.12773437 -0.94921875 6.32421875 C-0.99984424 4.00712895 -0.67173402 2.20712606 0 0 Z " fill="#2D6789" transform="translate(7,125)"/>
<path d="M0 0 C4.875 4.75 4.875 4.75 6 7 C5.360625 7.12375 4.72125 7.2475 4.0625 7.375 C3.0415625 7.684375 3.0415625 7.684375 2 8 C1.67 8.66 1.34 9.32 1 10 C0.67 6.7 0.34 3.4 0 0 Z " fill="#DEDEDE" transform="translate(114,116)"/>
<path d="M0 0 C0.79921875 0.11085938 1.5984375 0.22171875 2.421875 0.3359375 C3.32679688 0.47902344 3.32679688 0.47902344 4.25 0.625 C4.58 1.615 4.91 2.605 5.25 3.625 C0.58333333 2.95833333 -4.08333333 2.29166667 -8.75 1.625 C-5.5750906 -0.2828584 -3.64414789 -0.5359041 0 0 Z " fill="#2D6789" transform="translate(133.75,6.375)"/>
<path d="M0 0 C0.99 0.66 1.98 1.32 3 2 C1.76115681 2.72767003 0.50831659 3.43154815 -0.75 4.125 C-1.79414063 4.71667969 -1.79414063 4.71667969 -2.859375 5.3203125 C-5 6 -5 6 -7.265625 5.1171875 C-7.83796875 4.74851563 -8.4103125 4.37984375 -9 4 C-7.57086153 3.27494442 -6.13129342 2.57041565 -4.6875 1.875 C-3.88699219 1.48054687 -3.08648437 1.08609375 -2.26171875 0.6796875 C-1.51535156 0.45539063 -0.76898438 0.23109375 0 0 Z " fill="#266286" transform="translate(163,205)"/>
<path d="M0 0 C0.66 0.66 1.32 1.32 2 2 C-2.296875 6.00390625 -2.296875 6.00390625 -4 7 C-5.32 6.67 -6.64 6.34 -8 6 C-5.36 4.02 -2.72 2.04 0 0 Z " fill="#216084" transform="translate(182,192)"/>
<path d="M0 0 C1.15518918 0.90484792 2.29885406 1.8244206 3.4375 2.75 C4.07558594 3.26046875 4.71367188 3.7709375 5.37109375 4.296875 C7.18810554 6.19667629 7.60423197 7.43586908 8 10 C6.84481082 9.09515208 5.70114594 8.1755794 4.5625 7.25 C3.60537109 6.48429688 3.60537109 6.48429688 2.62890625 5.703125 C0.81189446 3.80332371 0.39576803 2.56413092 0 0 Z " fill="#0A547B" transform="translate(33,183)"/>
<path d="M0 0 C3.40755272 1.92880342 6.74147635 3.8276509 10 6 C9.34 7.32 8.68 8.64 8 10 C7.79375 9.4225 7.5875 8.845 7.375 8.25 C5.51518335 5.20666366 2.95455813 3.92688574 0 2 C0 1.34 0 0.68 0 0 Z " fill="#606159" transform="translate(148,50)"/>
<path d="M0 0 C3.59905908 0.55550695 4.99909799 1.74887248 7.25 4.5625 C8.03117188 5.52349609 8.03117188 5.52349609 8.828125 6.50390625 C9.21484375 6.99761719 9.6015625 7.49132813 10 8 C6.40094092 7.44449305 5.00090201 6.25112752 2.75 3.4375 C2.22921875 2.79683594 1.7084375 2.15617187 1.171875 1.49609375 C0.78515625 1.00238281 0.3984375 0.50867187 0 0 Z " fill="#0B547C" transform="translate(183,33)"/>
<path d="M0 0 C0.99 0.33 1.98 0.66 3 1 C2.01 2.485 2.01 2.485 1 4 C0.34 4 -0.32 4 -1 4 C-1.66 5.32 -2.32 6.64 -3 8 C-3.66 7.67 -4.32 7.34 -5 7 C-3.75023244 3.34683329 -3.32901247 2.21934164 0 0 Z " fill="#F0F0F0" transform="translate(101,121)"/>
<path d="M0 0 C0.66 0.66 1.32 1.32 2 2 C-0.64 5.3 -3.28 8.6 -6 12 C-6.66 11.67 -7.32 11.34 -8 11 C-8 9 -8 9 -5.6875 6.625 C-4.800625 5.75875 -3.91375 4.8925 -3 4 C-1.97186389 2.68824014 -0.95915568 1.3630107 0 0 Z " fill="#5B5D55" transform="translate(123,97)"/>
<path d="M0 0 C0.66 0.66 1.32 1.32 2 2 C0.71064081 3.14842923 -0.58156579 4.29366227 -1.875 5.4375 C-2.59429687 6.07558594 -3.31359375 6.71367188 -4.0546875 7.37109375 C-6 9 -6 9 -8 10 C-7.33333333 8.66666667 -6.66666667 7.33333333 -6 6 C-5.71125 5.29875 -5.4225 4.5975 -5.125 3.875 C-3.74781064 1.57968441 -2.44801496 0.97920598 0 0 Z " fill="#E8E8E8" transform="translate(73,67)"/>
<path d="M0 0 C2.0343459 1.41519715 2.90410393 2.54982123 3.421875 4.98046875 C3.66273952 6.98176954 3.83532741 8.9909944 4 11 C2 10 2 10 0.875 7.1875 C0 4 0 4 0 0 Z " fill="#1B5A80" transform="translate(211,71)"/>
<path d="M0 0 C0.99 0.33 1.98 0.66 3 1 C1.02 2.98 -0.96 4.96 -3 7 C-3.99 6.67 -4.98 6.34 -6 6 C-4.02 4.02 -2.04 2.04 0 0 Z " fill="#08527A" transform="translate(40,32)"/>
<path d="M0 0 C0.99 0.33 1.98 0.66 3 1 C-1.75 5.875 -1.75 5.875 -4 7 C-4.66 6.34 -5.32 5.68 -6 5 C-1.60546875 0.99609375 -1.60546875 0.99609375 0 0 Z " fill="#236185" transform="translate(47,26)"/>
<path d="M0 0 C2.88437779 1.29299694 4.87219421 2.65941363 7 5 C6.01 5.66 5.02 6.32 4 7 C0 2.25 0 2.25 0 0 Z " fill="#E2935E" transform="translate(121,121)"/>
<path d="M0 0 C0 3 0 3 -1 6 C-3.5625 7.1875 -3.5625 7.1875 -6 8 C-4.73058503 4.08597051 -3.48832306 2.20927127 0 0 Z " fill="#F49A5C" transform="translate(157,150)"/>
<path d="M0 0 C2.12508244 3.18762365 2.5020163 5.26512223 3 9 C1.35 7.35 -0.3 5.7 -2 4 C-1.34 2.68 -0.68 1.36 0 0 Z " fill="#E99962" transform="translate(108,100)"/>
<path d="M0 0 C-3.44450737 2.29633824 -5.93812283 2.54016485 -10 3 C-10 2.34 -10 1.68 -10 1 C-6.52674819 -0.1577506 -3.63932552 -0.06866652 0 0 Z " fill="#10547C" transform="translate(95,7)"/>
<path d="M0 0 C0.33 0.99 0.66 1.98 1 3 C-2.3 2.67 -5.6 2.34 -9 2 C-5.23312136 0.11656068 -3.97041037 -0.22057835 0 0 Z " fill="#3D7191" transform="translate(100,217)"/>
<path d="M0 0 C2.97 1.98 2.97 1.98 6 4 C5.67 4.66 5.34 5.32 5 6 C3.02 5.34 1.04 4.68 -1 4 C-0.67 2.68 -0.34 1.36 0 0 Z " fill="#726359" transform="translate(117,115)"/>
</svg>
