<?xml version="1.0" encoding="UTF-8"?>
<svg version="1.1" xmlns="http://www.w3.org/2000/svg" width="225" height="225">
<path d="M0 0 C2.30039125 1.13603066 4.51801524 2.30660187 6.75 3.5625 C18.59476554 10.02621525 30.50871242 15.94514019 43.46826172 19.83447266 C46.73108601 20.87791393 48.68268059 21.58106707 50.78173828 24.35229492 C53.441232 27.52665211 56.35281592 29.10053413 60.00390625 30.8828125 C60.68243149 31.22375946 61.36095673 31.56470642 62.06004333 31.91598511 C63.49358694 32.63260796 64.93011314 33.34329179 66.36938477 34.04833984 C68.53930625 35.11361355 70.6966328 36.2015816 72.85351562 37.29296875 C79.71587029 40.71944943 86.18884465 43.75078612 93.78100586 45.22998047 C97.27351958 46.44192769 99.36443648 48.72887296 101 52 C101.12541235 53.97208304 101.18782336 55.94828727 101.22119141 57.92407227 C101.24436432 59.17039932 101.26753723 60.41672638 101.29141235 61.70082092 C101.3117518 63.07267844 101.3317938 64.44454039 101.3515625 65.81640625 C101.37470905 67.23014209 101.39809959 68.64387396 101.42172241 70.05760193 C101.47027358 73.0343732 101.51514996 76.01117305 101.55761719 78.98803711 C101.60104539 82.01093016 101.64947441 85.03366766 101.703125 88.05639648 C102.22501343 117.47114426 102.22501343 117.47114426 101.27148438 130.06567383 C100.69753839 138.38324539 100.62279555 146.72873794 100.4375 155.0625 C100.39415343 156.9121158 100.35053504 158.76172525 100.30664062 160.61132812 C100.20130721 165.07415209 100.09960381 169.53704463 100 174 C90.66676253 179.00368961 81.37995508 183.95363207 71.65234375 188.15625 C67.21808605 190.15717699 64.34816443 192.3747461 61 196 C57.69506387 198.96418742 54.73417265 199.68482239 50.4296875 200.61328125 C40.63386904 202.97913624 32.02761592 207.58334972 23.125 212.1875 C21.46809095 213.02926173 19.81054168 213.86976449 18.15234375 214.70898438 C11.1463423 217.76731991 11.1463423 217.76731991 5 222 C-6.01972431 223.3294941 -13.07145966 222.00332231 -22.19873047 215.27539062 C-24.21882357 213.84506176 -26.2970683 212.55441379 -28.41015625 211.265625 C-29.17078369 210.79680908 -29.93141113 210.32799316 -30.71508789 209.8449707 C-32.19875375 208.93105536 -33.68604081 208.02298336 -35.17749023 207.12182617 C-42.56689644 202.43957668 -46.09641443 196.29594919 -49.8125 188.5625 C-50.51163815 187.13798127 -51.2108591 185.71350318 -51.91015625 184.2890625 C-52.25965332 183.57137695 -52.60915039 182.85369141 -52.96923828 182.11425781 C-57.87037219 172.06124511 -62.95589011 162.10507108 -68.125 152.1875 C-68.61581055 151.24511475 -69.10662109 150.30272949 -69.61230469 149.33178711 C-70.09344727 148.41147705 -70.57458984 147.49116699 -71.0703125 146.54296875 C-71.49070801 145.73883545 -71.91110352 144.93470215 -72.34423828 144.10620117 C-74.86081154 139.38512161 -77.43817542 134.6966784 -80 130 C-80.33 147.82 -80.66 165.64 -81 184 C-84.51997607 182.59200957 -87.71370584 181.18036964 -91.046875 179.43359375 C-91.97371094 178.94826172 -92.90054688 178.46292969 -93.85546875 177.96289062 C-94.81066406 177.45951172 -95.76585937 176.95613281 -96.75 176.4375 C-97.72066406 175.93025391 -98.69132812 175.42300781 -99.69140625 174.90039062 C-106.86921254 171.13078746 -106.86921254 171.13078746 -108 170 C-108.11455509 168.43850157 -108.1601492 166.87189329 -108.17840576 165.30630493 C-108.19253006 164.29115311 -108.20665436 163.27600128 -108.22120667 162.23008728 C-108.23167526 161.10695633 -108.24214386 159.98382538 -108.25292969 158.82666016 C-108.26764816 157.65115097 -108.28236664 156.47564178 -108.29753113 155.26451111 C-108.3364973 152.03102932 -108.3708049 148.79754452 -108.40211773 145.56398058 C-108.42181432 143.54528206 -108.44266567 141.52659866 -108.46387482 139.5079155 C-108.5298716 133.19629402 -108.59184403 126.88465207 -108.64805388 120.5729357 C-108.71304219 113.27892386 -108.79116124 105.9852098 -108.88073611 98.6914593 C-108.94912327 93.05925141 -109.00592897 87.4270012 -109.05390286 81.79458272 C-109.08283127 78.42803084 -109.11669614 75.06169899 -109.16255951 71.69533157 C-109.21078359 67.94090004 -109.24009797 64.18677934 -109.26464844 60.43212891 C-109.28321396 59.31304642 -109.30177948 58.19396393 -109.32090759 57.04096985 C-109.32375259 56.02017838 -109.3265976 54.9993869 -109.32952881 53.94766235 C-109.33836971 53.05943094 -109.34721062 52.17119953 -109.35631943 51.25605202 C-108.92301504 48.51256634 -108.19440262 47.65257965 -106 46 C-103.53125 45.3671875 -103.53125 45.3671875 -100.5 44.875 C-90.97410435 42.84889079 -82.63396145 38.38226757 -74 34 C-73.2467041 33.62584961 -72.4934082 33.25169922 -71.71728516 32.86621094 C-69.6160951 31.82145125 -67.52515045 30.75901698 -65.4375 29.6875 C-64.81246582 29.37466064 -64.18743164 29.06182129 -63.54345703 28.73950195 C-60.14851501 27.0185092 -60.14851501 27.0185092 -58.09375 23.953125 C-56.22911114 20.62341275 -52.52412169 20.13245579 -49.0625 19.0625 C-39.89983444 16.14143223 -31.39174962 12.26829896 -22.8515625 7.8515625 C-21.82675781 7.32175781 -20.80195312 6.79195312 -19.74609375 6.24609375 C-17.63730087 5.15078831 -15.53322002 4.04636997 -13.43359375 2.93359375 C-12.41652344 2.41152344 -11.39945312 1.88945313 -10.3515625 1.3515625 C-8.98765381 0.63734131 -8.98765381 0.63734131 -7.59619141 -0.09130859 C-4.54289681 -1.15999041 -3.05446892 -0.96252682 0 0 Z " fill="#FBFCFE" transform="translate(115,3)"/>
<path d="M0 0 C2.475 0.99 2.475 0.99 5 2 C6.59096627 2.50447288 8.18211783 3.00836174 9.7734375 3.51171875 C20.96301974 7.59823553 27.98171432 12.71032636 33.24169922 23.43652344 C35.7564134 28.86324954 38.07197645 34.37036519 40.31494141 39.9140625 C42.87496543 46.20526633 45.84023045 52.30220234 48.75 58.4375 C54.55407619 70.93300728 60.25967149 83.47564688 66 96 C66.33 75.54 66.66 55.08 67 34 C76.70086788 38.59514794 86.39907412 43.19953706 96 48 C96 85.62 96 123.24 96 162 C91.73701148 161.1474023 90.03776394 160.65943963 86.6015625 158.453125 C85.79203125 157.9375 84.9825 157.421875 84.1484375 156.890625 C83.31570312 156.34921875 82.48296875 155.8078125 81.625 155.25 C80.8 154.7240625 79.975 154.198125 79.125 153.65625 C77.49541033 152.61124329 75.87315313 151.55470548 74.25878906 150.48632812 C72.86171119 149.5670231 71.4492865 148.6700595 70.01464844 147.81054688 C64.81089702 144.52544988 62.65498651 140.44596272 60 135 C59.08290286 133.25077745 58.162195 131.50344421 57.23828125 129.7578125 C56.26186197 127.88081072 55.28664484 126.00318319 54.3125 124.125 C50.48237645 116.7578746 46.63289627 109.4019353 42.75 102.0625 C39.26808177 95.47598695 35.8802385 88.84912404 32.59863281 82.16040039 C30.86786066 78.64995107 29.02152306 75.3692051 27 72 C26.67 89.82 26.34 107.64 26 126 C17.00340635 122.40136254 8.58337796 117.49605512 0 113 C0 75.71 0 38.42 0 0 Z " fill="#4E77CF" transform="translate(8,61)"/>
<path d="M0 0 C0 16.17 0 32.34 0 49 C-22.83805644 60.96934283 -22.83805644 60.96934283 -33.3125 66.25 C-34.0638623 66.63212646 -34.81522461 67.01425293 -35.58935547 67.40795898 C-40.76374989 70 -40.76374989 70 -43 70 C-43 53.83 -43 37.66 -43 21 C-20.55730712 9.18805638 -20.55730712 9.18805638 -11.9375 4.875 C-10.51727539 4.15570313 -10.51727539 4.15570313 -9.06835938 3.421875 C-8.16794922 2.97070312 -7.26753906 2.51953125 -6.33984375 2.0546875 C-5.54956787 1.65749512 -4.75929199 1.26030273 -3.94506836 0.85107422 C-2 0 -2 0 0 0 Z " fill="#4DABCF" transform="translate(162,154)"/>
<path d="M0 0 C0 15.84 0 31.68 0 48 C-6.909375 51.465 -13.81875 54.93 -20.9375 58.5 C-23.12109131 59.59634766 -25.30468262 60.69269531 -27.55444336 61.82226562 C-29.27449749 62.68375217 -30.9946258 63.54509062 -32.71484375 64.40625 C-34.067453 65.0863916 -34.067453 65.0863916 -35.4473877 65.78027344 C-36.72627869 66.41980957 -36.72627869 66.41980957 -38.03100586 67.07226562 C-38.77491074 67.44532837 -39.51881561 67.81839111 -40.28526306 68.20275879 C-42 69 -42 69 -43 69 C-43 52.83 -43 36.66 -43 20 C-36.461875 16.7 -29.92375 13.4 -23.1875 10 C-21.12653076 8.95585938 -19.06556152 7.91171875 -16.94213867 6.8359375 C-15.30932138 6.01514868 -13.67627998 5.19480548 -12.04296875 4.375 C-11.19464478 3.94316406 -10.3463208 3.51132813 -9.47229004 3.06640625 C-8.66054321 2.66035156 -7.84879639 2.25429687 -7.01245117 1.8359375 C-6.3085173 1.48063965 -5.60458344 1.1253418 -4.87931824 0.75927734 C-3 0 -3 0 0 0 Z " fill="#4CABCF" transform="translate(162,89)"/>
<path d="M0 0 C0 16.5 0 33 0 50 C-12 55.75 -12 55.75 -15.734375 57.53808594 C-16.72953125 58.01536133 -17.7246875 58.49263672 -18.75 58.984375 C-19.82636719 59.49935547 -20.90273437 60.01433594 -22.01171875 60.54492188 C-24.55517712 61.78340324 -27.05918983 63.07394887 -29.5625 64.390625 C-33 66 -33 66 -37 66 C-37 50.16 -37 34.32 -37 18 C-2.8 0 -2.8 0 0 0 Z " fill="#4FACCF" transform="translate(214,128)"/>
<path d="M0 0 C0 15.84 0 31.68 0 48 C-5.548125 50.784375 -11.09625 53.56875 -16.8125 56.4375 C-18.56022705 57.31591553 -20.3079541 58.19433105 -22.10864258 59.09936523 C-23.49552575 59.7942672 -24.88248357 60.4890202 -26.26953125 61.18359375 C-27.34769104 61.72651062 -27.34769104 61.72651062 -28.44763184 62.28039551 C-31.27315961 63.69340686 -33.99850198 64.99950066 -37 66 C-37 49.83 -37 33.66 -37 17 C-25.125 11.3125 -25.125 11.3125 -21.44580078 9.55200195 C-15.56442232 6.7319073 -9.71418804 3.87029217 -3.92138672 0.87182617 C-2 0 -2 0 0 0 Z " fill="#4EACCF" transform="translate(214,63)"/>
<path d="M0 0 C2.73147686 1.10148674 5.30666677 2.42832321 7.90234375 3.81640625 C8.6249086 4.19232407 9.34747345 4.56824188 10.0919342 4.95555115 C12.37899337 6.14821976 14.65821409 7.35505413 16.9375 8.5625 C18.49494539 9.37790372 20.05288367 10.19236675 21.61132812 11.00585938 C25.41333963 12.99307084 29.20839235 14.99301417 33 17 C33 17.66 33 18.32 33 19 C27.710986 21.76818879 22.40931338 24.50972349 17.09423828 27.22753906 C15.28844051 28.15556801 13.48629923 29.09074832 11.68798828 30.03320312 C9.10078414 31.38752092 6.50147515 32.71548776 3.8984375 34.0390625 C3.0982016 34.46498688 2.2979657 34.89091125 1.47348022 35.32974243 C-4.14932147 38.1439361 -4.14932147 38.1439361 -8.08203125 37.47851562 C-9.04496094 36.99060547 -10.00789063 36.50269531 -11 36 C-12.79123291 35.16057861 -12.79123291 35.16057861 -14.61865234 34.30419922 C-15.94314086 33.6417987 -17.26548646 32.97510031 -18.5859375 32.3046875 C-19.28772125 31.95238068 -19.989505 31.60007385 -20.71255493 31.23709106 C-22.93529034 30.12016304 -25.15516549 28.99768046 -27.375 27.875 C-28.88913684 27.11291144 -30.40345796 26.35118888 -31.91796875 25.58984375 C-35.61412431 23.73078965 -39.3077265 21.86675157 -43 20 C-43 19.34 -43 18.68 -43 18 C-42.08710205 17.53102295 -41.1742041 17.0620459 -40.23364258 16.57885742 C-36.83156004 14.83056147 -33.43062741 13.08003872 -30.0300293 11.32885742 C-28.56093885 10.57271982 -27.09154149 9.81717817 -25.62182617 9.06225586 C-23.50357469 7.97407858 -21.38645346 6.88372926 -19.26953125 5.79296875 C-18.61725052 5.45847214 -17.96496979 5.12397552 -17.29292297 4.77934265 C-14.56624239 3.37216288 -11.98292756 1.9877931 -9.4831543 0.20043945 C-5.90100863 -1.53128901 -3.82609353 -0.96242276 0 0 Z " fill="#4CABCF" transform="translate(117,58)"/>
<path d="M0 0 C0.7530542 0.36359619 1.5061084 0.72719238 2.28198242 1.10180664 C3.0835376 1.50391357 3.88509277 1.90602051 4.7109375 2.3203125 C5.53891846 2.72435303 6.36689941 3.12839355 7.2199707 3.54467773 C9.84855249 4.83198905 12.46777561 6.1369544 15.0859375 7.4453125 C16.83715169 8.3139793 18.5884523 9.1824719 20.33984375 10.05078125 C24.59633086 12.16702421 28.84340696 14.30123793 33.0859375 16.4453125 C30.30197506 19.79050507 26.55149689 21.47764113 22.75 23.421875 C22.03363373 23.79259125 21.31726746 24.1633075 20.57919312 24.54525757 C19.06597899 25.32631049 17.55126097 26.10445574 16.03515625 26.87988281 C13.72187463 28.06471067 11.41544074 29.26213764 9.109375 30.4609375 C7.63581268 31.21951976 6.16186664 31.9773572 4.6875 32.734375 C4.00088287 33.0916568 3.31426575 33.4489386 2.60684204 33.81704712 C-4.41983216 37.38743074 -4.41983216 37.38743074 -7.9140625 37.4453125 C-10.70262007 36.35140948 -13.20334533 35.20880991 -15.83984375 33.82421875 C-16.58743454 33.44547104 -17.33502533 33.06672333 -18.10527039 32.67649841 C-20.48593943 31.46660939 -22.85612047 30.23759792 -25.2265625 29.0078125 C-26.84114302 28.18296366 -28.45637087 27.35938061 -30.07226562 26.53710938 C-34.02718613 24.52110858 -37.97281384 22.48790361 -41.9140625 20.4453125 C-41.9140625 19.4553125 -41.9140625 18.4653125 -41.9140625 17.4453125 C-41.2540625 17.4453125 -40.5940625 17.4453125 -39.9140625 17.4453125 C-39.9140625 16.7853125 -39.9140625 16.1253125 -39.9140625 15.4453125 C-39.40657471 15.2093335 -38.89908691 14.97335449 -38.3762207 14.73022461 C-28.92521221 10.32445119 -19.57008435 5.87738739 -10.48046875 0.7578125 C-6.41414735 -1.32176739 -4.18663097 -2.06012068 0 0 Z " fill="#4FACD0" transform="translate(61.9140625,30.5546875)"/>
<path d="M0 0 C2.56729594 1.04488945 4.9071538 2.09925429 7.34375 3.37890625 C7.99831177 3.71043198 8.65287354 4.0419577 9.32727051 4.38352966 C11.39082633 5.43193172 13.44533175 6.4968037 15.5 7.5625 C16.90828666 8.28171128 18.31713651 8.99982089 19.7265625 9.71679688 C23.15767834 11.46520755 26.58078884 13.22842916 30 15 C30 15.66 30 16.32 30 17 C31.485 17.495 31.485 17.495 33 18 C30.33013225 21.14314607 26.93783603 22.78187427 23.3203125 24.609375 C22.67053436 24.9404425 22.02075623 25.27151001 21.35128784 25.61260986 C19.9794748 26.30827846 18.60598806 27.00065519 17.23095703 27.68994141 C15.13203425 28.74645923 13.04471747 29.82382882 10.95703125 30.90234375 C9.62045208 31.57683112 8.28323259 32.25005142 6.9453125 32.921875 C6.32431671 33.24573181 5.70332092 33.56958862 5.06350708 33.90325928 C2.48028506 35.1748489 0.46173478 36.013901 -2.44091797 35.92651367 C-6.0589606 34.61660413 -9.45706332 32.98527298 -12.890625 31.25390625 C-13.63584412 30.88273178 -14.38106323 30.51155731 -15.14886475 30.12913513 C-16.71693052 29.34611988 -18.28349493 28.56009164 -19.84863281 27.77124023 C-22.25145667 26.56176678 -24.66044382 25.36528545 -27.0703125 24.16992188 C-28.59413559 23.40701969 -30.11758651 22.64337359 -31.640625 21.87890625 C-32.36348694 21.52051163 -33.08634888 21.162117 -33.83111572 20.79286194 C-38.8850278 18.2299444 -38.8850278 18.2299444 -40 16 C-39.20827393 15.59160889 -38.41654785 15.18321777 -37.60083008 14.76245117 C-34.64621033 13.23739534 -31.69236193 11.71086533 -28.73901367 10.18334961 C-27.4639263 9.52423398 -26.18853983 8.86569661 -24.9128418 8.20776367 C-23.07260267 7.25854232 -21.23347157 6.30720335 -19.39453125 5.35546875 C-18.28956299 4.78465576 -17.18459473 4.21384277 -16.04614258 3.62573242 C-13.02428321 2.10777696 -13.02428321 2.10777696 -10.6003418 0.2277832 C-6.90434711 -1.51732592 -3.82736379 -0.99554297 0 0 Z " fill="#50ADD0" transform="translate(170,31)"/>
<path d="M0 0 C2.44744173 1.19714864 4.81196959 2.42586455 7.1875 3.75 C8.51506456 4.47498553 9.84319194 5.19894139 11.171875 5.921875 C11.81962891 6.27572266 12.46738281 6.62957031 13.13476562 6.99414062 C17.0375491 9.09878302 21.01779605 11.05106254 25 13 C25 13.66 25 14.32 25 15 C26.98 15.66 28.96 16.32 31 17 C28.05705193 20.22470575 25.19109705 22.17351661 21.31640625 24.1640625 C20.22392578 24.72867187 19.13144531 25.29328125 18.00585938 25.875 C16.86955078 26.4525 15.73324219 27.03 14.5625 27.625 C13.43005859 28.21023437 12.29761719 28.79546875 11.13085938 29.3984375 C8.09769319 30.95702378 5.06861901 32.5123956 2 34 C1.2275293 34.46696289 0.45505859 34.93392578 -0.34082031 35.41503906 C-4.64329567 36.36148884 -7.59266559 34.25810169 -11.36328125 32.2578125 C-12.15526413 31.8554538 -12.94724701 31.45309509 -13.76322937 31.0385437 C-16.28860373 29.75068489 -18.80030929 28.43835976 -21.3125 27.125 C-23.0232465 26.24705519 -24.73482663 25.37073273 -26.44726562 24.49609375 C-30.64141254 22.34942861 -34.82347303 20.18073447 -39 18 C-37.68 17.34 -36.36 16.68 -35 16 C-35 15.34 -35 14.68 -35 14 C-34.00742188 13.50371094 -33.01484375 13.00742187 -31.9921875 12.49609375 C-31.34161377 12.1705249 -30.69104004 11.84495605 -30.02075195 11.50952148 C-28.58009105 10.78976474 -27.13850707 10.07185292 -25.69604492 9.35571289 C-22.10586587 7.5702818 -18.53294567 5.76415121 -14.99609375 3.875 C-14.37428223 3.54830322 -13.7524707 3.22160645 -13.11181641 2.88500977 C-11.39918692 1.98314884 -9.69352804 1.06808732 -7.98828125 0.15234375 C-4.56037513 -1.16952855 -3.41821476 -1.2282576 0 0 Z " fill="#51ADD0" transform="translate(115,3)"/>
<path d="M0 0 C3.60296594 -0.41176754 4.78402067 -0.1535853 7.8125 2 C8.534375 2.66 9.25625 3.32 10 4 C7 5 7 5 5.17578125 4.22265625 C3.45052083 3.1484375 1.72526042 2.07421875 0 1 C0 0.67 0 0.34 0 0 Z " fill="#85C6DE" transform="translate(128,12)"/>
<path d="M0 0 C2.91517292 1.07401108 4.77810176 1.77810176 7 4 C2.73173127 4 2.06117568 3.62386487 -1 1 C-0.67 0.67 -0.34 0.34 0 0 Z " fill="#97CDE2" transform="translate(113,3)"/>
</svg>
