<svg version="1.1" id="Layer_1" xmlns="http://www.w3.org/2000/svg" xmlns:xlink="http://www.w3.org/1999/xlink" x="0px" y="0px"
	 width="100%" viewBox="0 0 2000 2000" enable-background="new 0 0 2000 2000" xml:space="preserve">
<path fill="#000000" opacity="1.000000" stroke="none" 
	d="
M1490.000000,0.999998 
	C1660.303467,1.000000 1830.606934,1.000000 2001.000000,1.000000 
	C2001.000000,594.366028 2001.000000,1187.732056 2000.656982,1781.843750 
	C1999.894775,1782.097534 1999.235962,1781.667847 1999.090698,1781.105347 
	C1991.628052,1752.218018 1984.344849,1723.283691 1976.745850,1694.432373 
	C1969.684082,1667.621216 1962.191528,1640.923706 1955.068115,1614.128296 
	C1946.327881,1581.250977 1937.805420,1548.315674 1929.130249,1515.420898 
	C1921.812622,1487.674072 1914.369263,1459.960449 1907.059082,1432.211670 
	C1899.706543,1404.301392 1892.480225,1376.357910 1885.142456,1348.443848 
	C1877.805298,1320.530518 1870.359619,1292.645874 1863.033447,1264.729736 
	C1855.789307,1237.125977 1848.643555,1209.496460 1841.438232,1181.882446 
	C1836.918701,1164.561523 1832.368774,1147.248657 1827.907227,1129.569580 
	C1833.001221,1118.842407 1838.020752,1108.477905 1843.360840,1097.946289 
	C1845.099121,1094.371826 1846.343872,1090.879761 1847.963623,1087.571411 
	C1856.305542,1070.533203 1864.755859,1053.548096 1873.144165,1036.532471 
	C1881.610840,1019.357605 1890.060303,1002.174072 1898.496460,984.984070 
	C1906.502563,968.670654 1914.483398,952.344849 1922.472534,936.023071 
	C1930.743164,919.126221 1938.979980,902.212646 1947.286255,885.333252 
	C1959.838135,859.826294 1972.254517,834.249146 1985.183350,808.934143 
	C1987.534424,804.330566 1986.173584,802.056763 1983.038452,799.479858 
	C1975.595581,793.362244 1968.061401,787.353821 1960.690918,781.150635 
	C1951.426270,773.353088 1942.370239,765.306702 1933.075684,757.545654 
	C1919.799561,746.459961 1906.351196,735.580872 1893.046265,724.529297 
	C1880.106812,713.781494 1867.286499,702.889954 1854.329468,692.163513 
	C1852.498901,690.648193 1849.936890,689.998901 1848.161865,688.438538 
	C1845.574463,686.164246 1843.393921,683.427063 1840.890869,680.580261 
	C1833.324951,674.177490 1825.846191,668.155090 1818.506958,661.967224 
	C1809.277832,654.186035 1800.226807,646.193481 1790.984009,638.428833 
	C1777.020386,626.698120 1762.980103,615.058105 1748.917358,603.446045 
	C1746.085449,601.107666 1743.008545,599.066040 1739.930420,596.594360 
	C1738.586060,595.183960 1737.355957,594.066772 1735.990479,592.650208 
	C1734.605591,591.550537 1733.356201,590.750244 1731.969727,589.634399 
	C1730.775757,588.266113 1729.796997,587.118286 1728.649780,586.175598 
	C1719.587646,578.729248 1710.421753,571.407471 1701.428711,563.879028 
	C1692.153564,556.114441 1683.098755,548.086975 1673.835327,540.308044 
	C1662.092163,530.446777 1650.235352,520.720825 1638.428589,510.935089 
	C1631.952637,505.567627 1625.479248,500.196960 1618.085693,494.065613 
	C1618.085693,497.077332 1618.085693,498.839142 1618.085693,500.600952 
	C1618.085693,631.265137 1618.084839,761.929260 1618.093506,892.593445 
	C1618.093628,894.421936 1618.213745,896.250427 1618.199463,898.536621 
	C1618.108032,900.993164 1618.083496,902.992065 1618.083496,904.990967 
	C1618.081665,1140.554321 1618.081909,1376.117676 1618.081909,1611.681030 
	C1618.081909,1613.765015 1618.081909,1615.849121 1618.081909,1618.081909 
	C1615.547119,1618.081909 1613.724243,1618.081909 1611.901489,1618.081909 
	C1544.597656,1618.083618 1477.293823,1618.083740 1409.989990,1618.095337 
	C1407.995972,1618.095581 1406.002075,1618.214600 1403.546265,1618.189819 
	C1382.483276,1618.094604 1361.882080,1618.059326 1341.280884,1618.088379 
	C1319.189453,1618.119507 1297.098145,1618.211060 1274.544922,1618.188721 
	C1242.390991,1618.159546 1210.698730,1618.217773 1178.544800,1618.188721 
	C1151.057373,1618.159790 1124.031738,1618.218140 1096.544189,1618.189697 
	C1070.723633,1618.160400 1045.364868,1618.218140 1019.544006,1618.189575 
	C998.721619,1618.161011 978.361328,1618.218872 957.539551,1618.190430 
	C929.052917,1618.161621 901.027710,1618.218994 872.541077,1618.189819 
	C838.722229,1618.161133 805.364868,1618.218994 771.545471,1618.190430 
	C735.725037,1618.161377 700.366577,1618.218506 664.546021,1618.189453 
	C646.349243,1618.156616 628.614624,1618.210083 610.659058,1618.191895 
	C610.438171,1618.120239 609.981140,1618.215942 609.659058,1618.154907 
	C608.906433,1618.151489 608.475952,1618.209229 607.580200,1618.187256 
	C532.812805,1618.107422 458.510651,1618.107422 383.722046,1618.107422 
	C383.722046,1609.250854 383.722046,1601.121948 383.801544,1592.531250 
	C383.895538,1551.680176 383.922791,1511.290894 383.914856,1470.901611 
	C383.913025,1461.598999 383.790375,1452.296509 383.800995,1442.531494 
	C383.892670,1420.640137 383.936646,1399.211426 383.911804,1377.782593 
	C383.889069,1358.186157 383.791901,1338.589844 383.805206,1318.531006 
	C383.830231,1287.043579 383.777557,1256.018799 383.803650,1224.531494 
	C383.829346,1196.710449 383.776276,1169.351685 383.802124,1141.530762 
	C383.894836,1125.302124 383.939667,1109.535645 383.914734,1093.769287 
	C383.881195,1072.531006 383.793854,1051.292847 383.808807,1029.588745 
	C383.888000,814.115479 383.888000,599.108032 383.888000,383.922546 
	C386.898712,383.922546 389.059814,383.922546 391.220886,383.922546 
	C605.321960,383.923279 819.423096,383.924622 1033.524170,383.916412 
	C1035.685181,383.916321 1037.846069,383.790405 1040.468628,383.802612 
	C1046.979004,383.828491 1053.027710,383.775024 1059.535156,383.795990 
	C1220.778076,383.887573 1381.562378,383.905365 1542.346680,383.908142 
	C1543.472168,383.908142 1544.597656,383.702148 1546.251099,383.540833 
	C1543.085815,362.181274 1539.960083,341.088165 1536.903442,319.580322 
	C1536.646606,317.425385 1536.279785,315.691742 1536.001587,313.943970 
	C1534.697144,305.751526 1533.333618,297.567230 1532.149170,289.357208 
	C1530.683472,279.195984 1529.372681,269.012360 1527.996338,258.838226 
	C1526.947632,251.084671 1525.968384,243.320953 1524.836426,235.579529 
	C1523.284058,224.962311 1521.597290,214.364777 1520.004028,203.753418 
	C1518.529907,193.935654 1517.116455,184.108749 1515.651611,174.289520 
	C1514.116455,163.998184 1512.513062,153.716873 1511.012939,143.420471 
	C1509.837646,135.353821 1508.824585,127.263535 1507.648682,119.196960 
	C1506.147827,108.899940 1504.529053,98.620163 1503.011108,88.325584 
	C1501.538574,78.339737 1500.160767,68.339920 1498.683594,58.354782 
	C1497.160400,48.059196 1495.565674,37.774212 1494.005981,27.484011 
	C1492.667847,18.656435 1491.335205,9.828031 1490.000000,0.999998 
M817.908142,573.579224 
	C816.304932,572.702759 814.718689,571.793518 813.095947,570.954712 
	C779.215881,553.442383 742.887268,546.831177 705.104614,546.813293 
	C637.787292,546.781372 570.469971,546.801025 503.152618,546.811462 
	C501.553192,546.811707 499.953766,546.958313 498.436890,547.032593 
	C498.436890,717.595154 498.436890,887.771851 498.436890,1057.879883 
	C535.581604,1057.879883 572.367188,1057.879883 609.709595,1057.879883 
	C609.709595,1007.481873 609.709595,957.283569 609.709595,906.808960 
	C611.901489,906.808960 613.546021,906.809021 615.190552,906.809021 
	C642.017517,906.808350 668.845093,906.919556 695.671265,906.777283 
	C726.168396,906.615601 756.065918,902.489624 784.827942,891.947021 
	C829.257324,875.661560 864.213989,848.263123 884.676147,804.686218 
	C900.872192,770.194763 904.020996,733.661926 899.088806,696.330933 
	C891.997009,642.655029 865.706787,601.372803 817.908142,573.579224 
M1254.577881,648.901062 
	C1289.354248,657.370667 1317.715576,676.923340 1343.875732,700.973450 
	C1367.721313,673.313293 1391.395630,645.851685 1415.078979,618.379578 
	C1414.648193,617.748840 1414.429932,617.290527 1414.091309,616.953369 
	C1387.485840,590.471863 1357.603394,568.811279 1322.038574,555.982849 
	C1268.639648,536.721741 1213.721680,533.135742 1158.182861,543.276733 
	C1099.064453,554.071228 1049.151611,582.191223 1010.045959,628.118591 
	C946.200684,703.101074 928.080750,811.703979 965.588196,903.511353 
	C1001.239502,990.775818 1066.464355,1043.092773 1159.383789,1060.126831 
	C1190.782349,1065.882812 1222.409790,1064.885254 1253.980713,1061.127075 
	C1294.301758,1056.327393 1331.550659,1043.175415 1365.067017,1019.985657 
	C1384.713257,1006.392456 1402.137451,990.338806 1417.722046,972.849304 
	C1393.775879,948.902161 1370.106079,925.231445 1346.312012,901.436462 
	C1344.568970,903.010681 1342.627441,904.784546 1340.663086,906.532776 
	C1338.671997,908.304871 1336.657593,910.050903 1334.654541,911.809692 
	C1303.490967,939.174377 1268.517822,957.984253 1226.178955,960.573364 
	C1173.516357,963.793884 1129.164185,947.075439 1097.056641,904.298828 
	C1065.881104,862.764038 1057.670532,815.552368 1068.080933,765.098938 
	C1086.069458,677.919556 1167.770508,626.872559 1254.577881,648.901062 
M775.500061,1386.802246 
	C684.096863,1386.802246 592.693604,1386.802246 501.254028,1386.802246 
	C501.254028,1412.757812 501.254028,1438.165894 501.254028,1463.626709 
	C655.534607,1463.626709 809.559998,1463.626709 963.645142,1463.626709 
	C963.645142,1437.929321 963.645142,1412.522461 963.645142,1386.802246 
	C901.083008,1386.802246 838.791565,1386.802246 775.500061,1386.802246 
z"/>
<path fill="#FCF84A" opacity="1.000000" stroke="none" 
	d="
M1827.832520,1129.932129 
	C1832.368774,1147.248657 1836.918701,1164.561523 1841.438232,1181.882446 
	C1848.643555,1209.496460 1855.789307,1237.125977 1863.033447,1264.729736 
	C1870.359619,1292.645874 1877.805298,1320.530518 1885.142456,1348.443848 
	C1892.480225,1376.357910 1899.706543,1404.301392 1907.059082,1432.211670 
	C1914.369263,1459.960449 1921.812622,1487.674072 1929.130249,1515.420898 
	C1937.805420,1548.315674 1946.327881,1581.250977 1955.068115,1614.128296 
	C1962.191528,1640.923706 1969.684082,1667.621216 1976.745850,1694.432373 
	C1984.344849,1723.283691 1991.628052,1752.218018 1999.090698,1781.105347 
	C1999.235962,1781.667847 1999.894775,1782.097534 2000.656982,1782.294678 
	C2001.000000,1784.700073 2001.000000,1787.400024 2000.677490,1790.233887 
	C1981.497437,1796.904663 1962.667236,1803.521484 1943.776001,1809.959473 
	C1915.135376,1819.720093 1886.430908,1829.293457 1857.793579,1839.063477 
	C1829.766113,1848.625366 1801.810303,1858.397583 1773.782959,1867.959595 
	C1745.147461,1877.729004 1716.439819,1887.286377 1687.807373,1897.064087 
	C1658.865234,1906.947632 1630.000122,1917.056519 1601.057983,1926.939819 
	C1572.424072,1936.717773 1543.736572,1946.339233 1515.071411,1956.025757 
	C1489.151123,1964.784668 1463.233276,1973.550781 1437.305786,1982.288818 
	C1425.583252,1986.239624 1413.840454,1990.130371 1401.789795,1993.815430 
	C1400.981812,1991.532959 1400.042114,1989.475586 1400.076660,1987.434814 
	C1400.236328,1977.983154 1400.828857,1968.538574 1400.969482,1959.086914 
	C1401.387695,1930.989624 1401.692749,1902.890259 1401.992676,1874.791260 
	C1402.354858,1840.864868 1402.728271,1806.938354 1402.985596,1773.010986 
	C1403.376709,1721.433838 1403.672119,1669.855835 1404.008057,1618.278198 
	C1406.002075,1618.214600 1407.995972,1618.095581 1409.989990,1618.095337 
	C1477.293823,1618.083740 1544.597656,1618.083618 1611.901489,1618.081909 
	C1613.724243,1618.081909 1615.547119,1618.081909 1618.081909,1618.081909 
	C1618.081909,1615.849121 1618.081909,1613.765015 1618.081909,1611.681030 
	C1618.081909,1376.117676 1618.081665,1140.554321 1618.083496,904.990967 
	C1618.083496,902.992065 1618.108032,900.993164 1618.552490,898.476807 
	C1635.534302,891.607971 1652.098267,885.291260 1668.632080,878.896790 
	C1690.101440,870.593445 1711.547119,862.228455 1733.327026,853.894531 
	C1734.431396,853.534912 1735.211670,853.170715 1736.316162,852.802734 
	C1737.775635,852.240662 1738.910889,851.682251 1740.424805,851.098083 
	C1744.622192,849.699951 1748.440796,848.327576 1752.317627,846.934265 
	C1752.673584,847.945068 1752.869507,848.397400 1752.993774,848.868652 
	C1777.314209,941.080566 1801.626343,1033.294678 1825.973145,1125.499634 
	C1826.378296,1127.033936 1827.203369,1128.457153 1827.832520,1129.932129 
z"/>
<path fill="#000000" opacity="1.000000" stroke="none" 
	d="
M0.999979,1579.000000 
	C1.000000,1053.087036 1.000000,527.174194 1.000000,1.000000 
	C283.699341,1.000000 566.398804,1.000000 849.818481,1.324735 
	C849.903625,2.122331 849.332092,2.744776 848.623962,3.045673 
	C837.620605,7.721341 826.585754,12.323079 815.586304,17.007841 
	C804.027649,21.930780 792.498962,26.923994 780.571960,31.933693 
	C770.895325,35.751377 761.574768,39.451813 752.318848,43.307537 
	C735.102234,50.479420 717.933167,57.765282 700.725525,64.958839 
	C687.881958,70.328056 674.993042,75.588974 662.152954,80.966377 
	C646.310425,87.601227 630.514771,94.347900 614.667236,100.970695 
	C597.775696,108.029808 580.835632,114.972717 563.938171,122.017921 
	C546.431335,129.317169 528.953796,136.686813 511.456757,144.009476 
	C498.754303,149.325562 486.029755,154.588806 473.335114,159.923386 
	C457.499725,166.577805 441.704437,173.327942 425.856018,179.950912 
	C408.965424,187.009415 392.020020,193.936600 375.122406,200.978363 
	C357.597107,208.281693 340.109039,215.674179 322.588440,222.988846 
	C309.729584,228.357285 296.829315,233.626556 283.975098,239.005981 
	C268.136383,245.634415 252.341721,252.368118 236.499878,258.989014 
	C218.129303,266.666718 199.736069,274.290405 181.338043,281.902252 
	C163.500549,289.282166 145.634201,296.592529 127.807060,303.997345 
	C124.947937,305.184875 122.819061,306.483276 122.806770,310.633881 
	C122.783043,318.647369 121.703125,326.664825 120.925484,334.667450 
	C119.674866,347.537537 118.248070,360.390686 117.023483,373.263123 
	C116.215347,381.757782 115.726036,390.282745 114.924675,398.778168 
	C113.692780,411.837708 112.274155,424.879578 111.015053,437.936646 
	C110.242043,445.952881 109.700768,453.991577 108.909302,462.005798 
	C107.671219,474.542480 106.237778,487.060028 105.024864,499.598999 
	C104.202621,508.099274 103.721214,516.632568 102.899994,525.132935 
	C101.687378,537.684570 100.242096,550.213745 99.023155,562.764832 
	C98.212669,571.110168 97.714279,579.485596 96.915428,587.832214 
	C95.682587,600.713257 94.264160,613.576416 93.017578,626.456177 
	C92.242744,634.461731 91.725235,642.492188 90.940025,650.496643 
	C89.693565,663.202942 88.239426,675.889038 87.027687,688.598450 
	C86.200546,697.274048 85.737602,705.984131 84.931541,714.661987 
	C83.702858,727.889893 82.285378,741.100098 81.012177,754.324036 
	C80.257294,762.164490 79.690384,770.023193 78.923698,777.862366 
	C77.665138,790.730957 76.261230,803.585449 75.018791,816.455566 
	C74.230087,824.625549 73.708000,832.821411 72.914352,840.990906 
	C71.677414,853.723511 70.254990,866.438171 69.020264,879.171021 
	C68.226990,887.351501 67.729774,895.560852 66.920692,903.739502 
	C65.695633,916.123230 64.231995,928.483643 63.028347,940.869263 
	C62.202370,949.368713 61.727844,957.901794 60.949760,966.406494 
	C59.696545,980.104553 58.299103,993.789307 57.008484,1007.484009 
	C56.268539,1015.335327 55.714252,1023.205017 54.906754,1031.048950 
	C53.682007,1042.946167 52.197155,1054.817261 51.037125,1066.720337 
	C50.176720,1075.548828 49.759892,1084.419922 48.961395,1093.255371 
	C47.722858,1106.959839 46.328491,1120.650269 44.998211,1134.346436 
	C44.569172,1138.763672 44.099594,1143.177490 43.708534,1147.598145 
	C42.841663,1157.397583 42.012779,1167.200317 41.080086,1177.418823 
	C40.702126,1178.409790 40.206470,1178.965088 40.153194,1179.560059 
	C39.071938,1191.636597 38.102821,1203.723267 36.980377,1215.795776 
	C36.148491,1224.743286 35.049801,1233.666138 34.218887,1242.613770 
	C33.433891,1251.066772 32.843246,1259.537720 32.097942,1268.437256 
	C31.344700,1277.047852 30.669468,1285.222534 29.972729,1293.395508 
	C29.637449,1297.328491 29.300463,1301.262085 28.896130,1305.188232 
	C28.009733,1313.795410 27.079895,1322.398193 26.098661,1331.439453 
	C26.017696,1332.875610 26.077343,1333.882080 25.983274,1334.873779 
	C24.666584,1348.754883 23.331442,1362.634277 21.995346,1376.513550 
	C21.254990,1384.204468 20.471649,1391.891235 19.766827,1399.585327 
	C18.868835,1409.388306 18.030659,1419.196655 17.096518,1429.424561 
	C16.356201,1434.518433 15.466319,1439.171265 15.055366,1443.865967 
	C13.566384,1460.875610 12.238150,1477.899170 10.490782,1495.154785 
	C9.739398,1501.811768 9.527546,1508.248901 8.914962,1514.647705 
	C7.728667,1527.039062 6.232127,1539.400879 5.027613,1551.790649 
	C4.199951,1560.304199 3.684645,1568.847778 2.893828,1577.365356 
	C2.838284,1577.963623 1.657498,1578.457520 0.999979,1579.000000 
z"/>
<path fill="#000000" opacity="1.000000" stroke="none" 
	d="
M683.000000,2001.000000 
	C455.755615,2001.000000 228.511215,2001.000000 1.000000,2001.000000 
	C1.000000,1868.640991 1.000000,1736.281738 1.314792,1603.186157 
	C5.228227,1604.342773 8.903932,1606.103638 12.412951,1608.150024 
	C34.585590,1621.082275 56.721329,1634.077637 79.034500,1647.371094 
	C88.842621,1653.136719 98.561432,1658.453857 108.113831,1664.054810 
	C134.675262,1679.629150 161.136383,1695.374512 187.695755,1710.952393 
	C215.652008,1727.349854 243.676102,1743.631714 271.670532,1759.964111 
	C299.662476,1776.295166 327.653839,1792.627319 355.646454,1808.957153 
	C383.638184,1825.286743 411.631287,1841.613647 439.623596,1857.942017 
	C467.616791,1874.270752 495.577484,1890.655640 523.612610,1906.911987 
	C549.107422,1921.695557 574.733154,1936.253662 600.209473,1951.068848 
	C627.523315,1966.952881 654.733582,1983.015137 681.958069,1999.052124 
	C682.499878,1999.371338 682.661194,2000.336304 683.000000,2001.000000 
z"/>
<path fill="#000000" opacity="1.000000" stroke="none" 
	d="
M1402.106812,1994.048218 
	C1413.840454,1990.130371 1425.583252,1986.239624 1437.305786,1982.288818 
	C1463.233276,1973.550781 1489.151123,1964.784668 1515.071411,1956.025757 
	C1543.736572,1946.339233 1572.424072,1936.717773 1601.057983,1926.939819 
	C1630.000122,1917.056519 1658.865234,1906.947632 1687.807373,1897.064087 
	C1716.439819,1887.286377 1745.147461,1877.729004 1773.782959,1867.959595 
	C1801.810303,1858.397583 1829.766113,1848.625366 1857.793579,1839.063477 
	C1886.430908,1829.293457 1915.135376,1819.720093 1943.776001,1809.959473 
	C1962.667236,1803.521484 1981.497437,1796.904663 2000.677490,1790.683838 
	C2001.000000,1860.979858 2001.000000,1930.959839 2001.000000,2001.000000 
	C1563.979126,2001.000000 1126.958252,2001.000000 689.187012,2000.708740 
	C693.156799,1994.959595 697.939331,1989.554199 702.583618,1984.032349 
	C711.193604,1973.795044 719.645203,1963.423950 728.307312,1953.231323 
	C736.931152,1943.084106 745.783630,1933.131348 754.442688,1923.013672 
	C765.710510,1909.847534 776.916016,1896.627808 788.080994,1883.374512 
	C790.887268,1880.043457 793.437683,1876.496948 796.411133,1872.913086 
	C806.215393,1861.844727 815.714172,1850.912720 825.599731,1839.990234 
	C841.325317,1844.277832 856.664001,1848.555786 872.390625,1852.911865 
	C887.746338,1857.325806 902.691101,1861.743286 917.689087,1865.971924 
	C930.066895,1869.461792 942.507690,1872.728271 955.112366,1876.442017 
	C956.125549,1876.864990 956.982971,1876.812134 957.763123,1877.032715 
	C977.514893,1882.615723 997.258606,1888.227295 1017.395996,1893.913086 
	C1018.217041,1894.196533 1018.626953,1894.467163 1019.077393,1894.594971 
	C1035.945312,1899.377563 1052.799194,1904.211060 1069.696045,1908.890137 
	C1077.421143,1911.029541 1085.231445,1912.861938 1093.353760,1915.003174 
	C1094.111450,1915.432251 1094.485107,1915.807617 1094.929810,1915.934204 
	C1114.885132,1921.620850 1134.828247,1927.351318 1154.817383,1932.916626 
	C1161.804688,1934.862061 1168.907349,1936.393555 1176.142700,1938.452881 
	C1194.852661,1944.010864 1213.365845,1949.271240 1231.905762,1954.435303 
	C1244.894043,1958.053101 1257.918945,1961.539429 1271.118652,1965.431152 
	C1279.812500,1968.177734 1288.312256,1970.588623 1296.818970,1972.975220 
	C1322.652710,1980.222534 1348.524048,1987.339111 1374.306396,1994.765137 
	C1383.758911,1997.487915 1392.983398,2000.106201 1402.106812,1994.048218 
z"/>
<path fill="#000000" opacity="1.000000" stroke="none" 
	d="
M858.000000,1.000000 
	C1067.360229,1.000000 1276.720337,1.000000 1486.822021,1.286412 
	C1486.804199,2.448010 1486.133057,3.422797 1485.272583,4.183549 
	C1471.272217,16.560816 1457.223755,28.883677 1443.239258,41.278721 
	C1436.229248,47.491959 1429.385620,53.893250 1422.361816,60.090473 
	C1409.079346,71.809845 1395.672485,83.388680 1382.412231,95.133011 
	C1374.645386,102.011925 1367.139160,109.184982 1359.379272,116.071983 
	C1343.586060,130.088715 1327.700439,144.001282 1311.549561,158.088287 
	C1302.061523,166.413452 1292.851929,174.579483 1283.699829,182.809494 
	C1276.236938,189.520538 1268.908447,196.382339 1261.403564,203.045639 
	C1247.430908,215.451233 1233.373413,227.761047 1219.148926,239.804047 
	C1208.589111,232.781738 1198.194092,226.123230 1187.881104,219.339966 
	C1156.378662,198.619293 1124.901245,177.860870 1093.427490,157.096741 
	C1074.055786,144.316696 1054.725464,131.474014 1035.345337,118.706879 
	C1019.768982,108.445595 1004.126099,98.285316 988.547729,88.027039 
	C965.193909,72.648689 941.891541,57.192177 918.528076,41.828438 
	C898.868286,28.900217 879.147095,16.065327 859.485352,3.140083 
	C858.812195,2.697547 858.487244,1.725330 858.000000,1.000000 
z"/>
<path fill="#1ED495" opacity="1.000000" stroke="none" 
	d="
M857.555847,1.000000 
	C858.487244,1.725330 858.812195,2.697547 859.485352,3.140083 
	C879.147095,16.065327 898.868286,28.900217 918.528076,41.828438 
	C941.891541,57.192177 965.193909,72.648689 988.547729,88.027039 
	C1004.126099,98.285316 1019.768982,108.445595 1035.345337,118.706879 
	C1054.725464,131.474014 1074.055786,144.316696 1093.427490,157.096741 
	C1124.901245,177.860870 1156.378662,198.619293 1187.881104,219.339966 
	C1198.194092,226.123230 1208.589111,232.781738 1219.029053,240.130127 
	C1218.492798,241.532486 1217.968384,242.407928 1217.241211,243.055786 
	C1205.710571,253.328247 1194.167725,263.587067 1182.599609,273.817200 
	C1169.416626,285.475525 1156.197632,297.093018 1143.009155,308.745361 
	C1131.132080,319.239166 1119.263062,329.742432 1107.414307,340.268188 
	C1101.390991,345.618896 1095.416260,351.024414 1089.425659,356.411957 
	C1079.306763,365.512268 1069.192627,374.618073 1059.076538,383.721558 
	C1053.027710,383.775024 1046.979004,383.828491 1040.459961,383.448639 
	C1039.432739,381.648651 1039.129395,380.094910 1038.280884,378.942932 
	C1021.190063,355.741180 1004.093140,332.543427 986.883301,309.429932 
	C955.928528,267.856567 924.908875,226.331436 893.897034,184.800598 
	C860.010986,139.420609 826.075012,94.077827 792.241394,48.658783 
	C788.220703,43.261227 784.706299,37.486423 780.957153,31.886509 
	C792.498962,26.923994 804.027649,21.930780 815.586304,17.007841 
	C826.585754,12.323079 837.620605,7.721341 848.623962,3.045673 
	C849.332092,2.744776 849.903625,2.122331 850.269348,1.324735 
	C852.370544,1.000000 854.741150,1.000000 857.555847,1.000000 
z"/>
<path fill="#3DD982" opacity="1.000000" stroke="none" 
	d="
M825.212891,1839.980713 
	C815.714172,1850.912720 806.215393,1861.844727 796.090454,1872.760132 
	C793.293152,1871.539673 791.249268,1869.939209 788.930603,1869.194946 
	C771.393250,1863.566772 753.789001,1858.147217 736.230469,1852.584351 
	C707.750732,1843.561279 679.289062,1834.481323 650.821350,1825.420410 
	C612.386719,1813.187378 573.951599,1800.955688 535.520447,1788.711548 
	C505.947388,1779.289673 476.382751,1769.841309 446.809723,1760.419312 
	C408.378662,1748.175049 369.941986,1735.948242 331.509430,1723.708496 
	C302.885071,1714.592407 274.262939,1705.469482 245.640854,1696.346313 
	C206.578079,1683.895386 167.518539,1671.433960 128.452789,1658.992065 
	C114.536285,1654.559937 100.650627,1650.018433 86.636391,1645.918091 
	C84.353386,1645.250122 81.473358,1646.622681 78.869263,1647.052124 
	C56.721329,1634.077637 34.585590,1621.082275 12.412951,1608.150024 
	C8.903932,1606.103638 5.228227,1604.342773 1.314792,1602.724854 
	C1.000000,1602.250000 1.000000,1601.500000 1.304497,1600.225952 
	C10.196797,1586.918579 18.814810,1574.155396 27.360811,1561.344238 
	C32.302544,1553.936157 37.128204,1546.450684 42.305397,1538.850098 
	C44.403122,1536.466675 46.201569,1534.233398 48.253040,1532.279785 
	C50.266342,1532.978516 52.059147,1533.293701 53.781769,1533.833008 
	C67.875786,1538.244019 81.965988,1542.667603 96.039673,1547.143066 
	C124.818985,1556.294800 153.583481,1565.493042 182.361069,1574.650146 
	C219.521011,1586.474365 256.692505,1598.262329 293.850189,1610.093506 
	C323.733948,1619.608521 353.599915,1629.179565 383.482086,1638.699585 
	C421.587219,1650.839478 459.708130,1662.929932 497.808105,1675.086182 
	C525.003540,1683.763062 552.164429,1692.548462 579.370972,1701.189941 
	C583.295654,1702.436523 587.390137,1703.148438 591.329224,1704.527344 
	C586.977234,1726.387939 582.701965,1747.828979 578.370544,1769.551514 
	C589.678894,1772.763916 600.821716,1775.985962 611.997009,1779.091309 
	C629.270996,1783.891235 646.567322,1788.611328 664.153992,1793.567871 
	C685.520752,1799.760864 706.571045,1805.810791 727.660522,1811.721191 
	C741.713379,1815.659424 755.821960,1819.398682 770.190430,1823.454712 
	C780.382874,1826.472778 790.321716,1829.158203 800.188782,1832.085327 
	C808.573059,1834.572510 816.874695,1837.338257 825.212891,1839.980713 
z"/>
<path fill="#31D885" opacity="1.000000" stroke="none" 
	d="
M79.034515,1647.371094 
	C81.473358,1646.622681 84.353386,1645.250122 86.636391,1645.918091 
	C100.650627,1650.018433 114.536285,1654.559937 128.452789,1658.992065 
	C167.518539,1671.433960 206.578079,1683.895386 245.640854,1696.346313 
	C274.262939,1705.469482 302.885071,1714.592407 331.509430,1723.708496 
	C369.941986,1735.948242 408.378662,1748.175049 446.809723,1760.419312 
	C476.382751,1769.841309 505.947388,1779.289673 535.520447,1788.711548 
	C573.951599,1800.955688 612.386719,1813.187378 650.821350,1825.420410 
	C679.289062,1834.481323 707.750732,1843.561279 736.230469,1852.584351 
	C753.789001,1858.147217 771.393250,1863.566772 788.930603,1869.194946 
	C791.249268,1869.939209 793.293152,1871.539673 795.785034,1872.896484 
	C793.437683,1876.496948 790.887268,1880.043457 788.080994,1883.374512 
	C776.916016,1896.627808 765.710510,1909.847534 754.442688,1923.013672 
	C745.783630,1933.131348 736.931152,1943.084106 728.307312,1953.231323 
	C719.645203,1963.423950 711.193604,1973.795044 702.583618,1984.032349 
	C697.939331,1989.554199 693.156799,1994.959595 688.718323,2000.708740 
	C687.285645,2001.000000 685.571289,2001.000000 683.428467,2001.000000 
	C682.661194,2000.336304 682.499878,1999.371338 681.958069,1999.052124 
	C654.733582,1983.015137 627.523315,1966.952881 600.209473,1951.068848 
	C574.733154,1936.253662 549.107422,1921.695557 523.612610,1906.911987 
	C495.577484,1890.655640 467.616791,1874.270752 439.623596,1857.942017 
	C411.631287,1841.613647 383.638184,1825.286743 355.646454,1808.957153 
	C327.653839,1792.627319 299.662476,1776.295166 271.670532,1759.964111 
	C243.676102,1743.631714 215.652008,1727.349854 187.695755,1710.952393 
	C161.136383,1695.374512 134.675262,1679.629150 108.113831,1664.054810 
	C98.561432,1658.453857 88.842621,1653.136719 79.034515,1647.371094 
z"/>
<path fill="#A4E36D" opacity="1.000000" stroke="none" 
	d="
M1311.852905,157.956802 
	C1327.700439,144.001282 1343.586060,130.088715 1359.379272,116.071983 
	C1367.139160,109.184982 1374.645386,102.011925 1382.412231,95.133011 
	C1395.672485,83.388680 1409.079346,71.809845 1422.361816,60.090473 
	C1429.385620,53.893250 1436.229248,47.491959 1443.239258,41.278721 
	C1457.223755,28.883677 1471.272217,16.560816 1485.272583,4.183549 
	C1486.133057,3.422797 1486.804199,2.448010 1487.281738,1.286412 
	C1487.750000,1.000000 1488.500000,1.000000 1489.625000,0.999998 
	C1491.335205,9.828031 1492.667847,18.656435 1494.005981,27.484011 
	C1495.565674,37.774212 1497.160400,48.059196 1498.683594,58.354782 
	C1500.160767,68.339920 1501.538574,78.339737 1503.011108,88.325584 
	C1504.529053,98.620163 1506.147827,108.899940 1507.648682,119.196960 
	C1508.824585,127.263535 1509.837646,135.353821 1511.012939,143.420471 
	C1512.513062,153.716873 1514.116455,163.998184 1515.651611,174.289520 
	C1517.116455,184.108749 1518.529907,193.935654 1520.004028,203.753418 
	C1521.597290,214.364777 1523.284058,224.962311 1524.836426,235.579529 
	C1525.968384,243.320953 1526.947632,251.084671 1527.996338,258.838226 
	C1529.372681,269.012360 1530.683472,279.195984 1532.149170,289.357208 
	C1533.333618,297.567230 1534.697144,305.751526 1536.001587,313.943970 
	C1536.279785,315.691742 1536.646606,317.425385 1536.541748,319.575500 
	C1534.607300,319.342407 1532.911621,318.960632 1531.628174,318.017822 
	C1504.641724,298.195160 1477.741577,278.255096 1450.743530,258.448303 
	C1409.844727,228.443344 1368.903687,198.495560 1327.925049,168.599731 
	C1322.739502,164.816605 1317.218506,161.493210 1311.852905,157.956802 
z"/>
<path fill="#56DE79" opacity="1.000000" stroke="none" 
	d="
M42.006119,1539.000000 
	C37.128204,1546.450684 32.302544,1553.936157 27.360811,1561.344238 
	C18.814810,1574.155396 10.196797,1586.918579 1.304497,1599.850952 
	C1.000000,1593.312378 1.000000,1586.624634 0.999979,1579.468506 
	C1.657498,1578.457520 2.838284,1577.963623 2.893828,1577.365356 
	C3.684645,1568.847778 4.199951,1560.304199 5.027613,1551.790649 
	C6.232127,1539.400879 7.728667,1527.039062 8.914962,1514.647705 
	C9.527546,1508.248901 9.739398,1501.811768 10.805745,1495.305542 
	C15.570898,1500.569458 19.888906,1505.764160 23.703083,1511.305542 
	C29.975807,1520.418823 35.922188,1529.756714 42.006119,1539.000000 
z"/>
<path fill="#21D68A" opacity="1.000000" stroke="none" 
	d="
M780.571960,31.933693 
	C784.706299,37.486423 788.220703,43.261227 792.241394,48.658783 
	C826.075012,94.077827 860.010986,139.420609 893.897034,184.800598 
	C924.908875,226.331436 955.928528,267.856567 986.883301,309.429932 
	C1004.093140,332.543427 1021.190063,355.741180 1038.280884,378.942932 
	C1039.129395,380.094910 1039.432739,381.648651 1039.998535,383.369263 
	C1037.846069,383.790405 1035.685181,383.916321 1033.524170,383.916412 
	C819.423096,383.924622 605.321960,383.923279 391.220886,383.922546 
	C389.059814,383.922546 386.898712,383.922546 383.888000,383.922546 
	C383.888000,599.108032 383.888000,814.115479 383.582184,1029.815430 
	C372.438934,1046.636353 361.551819,1062.731934 350.778809,1078.903320 
	C341.032471,1093.533691 331.410645,1108.247070 321.459778,1123.108398 
	C314.775085,1132.753784 308.290802,1142.165649 301.972260,1151.687500 
	C293.555389,1164.371460 285.267548,1177.140991 276.634277,1190.052246 
	C265.962036,1205.687866 255.541290,1221.119385 245.210800,1236.610840 
	C238.044907,1247.356934 231.003159,1258.185669 223.613312,1269.140625 
	C220.233658,1273.829468 217.120834,1278.338013 214.064056,1282.884033 
	C199.698425,1304.248779 185.348129,1325.623779 170.624939,1346.992188 
	C168.572205,1345.788452 166.449814,1344.913696 165.271347,1343.334717 
	C156.551193,1331.649902 148.088974,1319.773193 139.414917,1308.053467 
	C110.828651,1269.430542 82.213791,1230.828735 53.535721,1192.273926 
	C49.629440,1187.022339 45.301212,1182.084717 41.168392,1177.001709 
	C42.012779,1167.200317 42.841663,1157.397583 43.708534,1147.598145 
	C44.099594,1143.177490 44.569172,1138.763672 44.998211,1134.346436 
	C46.328491,1120.650269 47.722858,1106.959839 48.961395,1093.255371 
	C49.759892,1084.419922 50.176720,1075.548828 51.037125,1066.720337 
	C52.197155,1054.817261 53.682007,1042.946167 54.906754,1031.048950 
	C55.714252,1023.205017 56.268539,1015.335327 57.008484,1007.484009 
	C58.299103,993.789307 59.696545,980.104553 60.949760,966.406494 
	C61.727844,957.901794 62.202370,949.368713 63.028347,940.869263 
	C64.231995,928.483643 65.695633,916.123230 66.920692,903.739502 
	C67.729774,895.560852 68.226990,887.351501 69.020264,879.171021 
	C70.254990,866.438171 71.677414,853.723511 72.914352,840.990906 
	C73.708000,832.821411 74.230087,824.625549 75.018791,816.455566 
	C76.261230,803.585449 77.665138,790.730957 78.923698,777.862366 
	C79.690384,770.023193 80.257294,762.164490 81.012177,754.324036 
	C82.285378,741.100098 83.702858,727.889893 84.931541,714.661987 
	C85.737602,705.984131 86.200546,697.274048 87.027687,688.598450 
	C88.239426,675.889038 89.693565,663.202942 90.940025,650.496643 
	C91.725235,642.492188 92.242744,634.461731 93.017578,626.456177 
	C94.264160,613.576416 95.682587,600.713257 96.915428,587.832214 
	C97.714279,579.485596 98.212669,571.110168 99.023155,562.764832 
	C100.242096,550.213745 101.687378,537.684570 102.899994,525.132935 
	C103.721214,516.632568 104.202621,508.099274 105.024864,499.598999 
	C106.237778,487.060028 107.671219,474.542480 108.909302,462.005798 
	C109.700768,453.991577 110.242043,445.952881 111.015053,437.936646 
	C112.274155,424.879578 113.692780,411.837708 114.924675,398.778168 
	C115.726036,390.282745 116.215347,381.757782 117.023483,373.263123 
	C118.248070,360.390686 119.674866,347.537537 120.925484,334.667450 
	C121.703125,326.664825 122.783043,318.647369 122.806770,310.633881 
	C122.819061,306.483276 124.947937,305.184875 127.807060,303.997345 
	C145.634201,296.592529 163.500549,289.282166 181.338043,281.902252 
	C199.736069,274.290405 218.129303,266.666718 236.499878,258.989014 
	C252.341721,252.368118 268.136383,245.634415 283.975098,239.005981 
	C296.829315,233.626556 309.729584,228.357285 322.588440,222.988846 
	C340.109039,215.674179 357.597107,208.281693 375.122406,200.978363 
	C392.020020,193.936600 408.965424,187.009415 425.856018,179.950912 
	C441.704437,173.327942 457.499725,166.577805 473.335114,159.923386 
	C486.029755,154.588806 498.754303,149.325562 511.456757,144.009476 
	C528.953796,136.686813 546.431335,129.317169 563.938171,122.017921 
	C580.835632,114.972717 597.775696,108.029808 614.667236,100.970695 
	C630.514771,94.347900 646.310425,87.601227 662.152954,80.966377 
	C674.993042,75.588974 687.881958,70.328056 700.725525,64.958839 
	C717.933167,57.765282 735.102234,50.479420 752.318848,43.307537 
	C761.574768,39.451813 770.895325,35.751377 780.571960,31.933693 
z"/>
<path fill="#FEFEFE" opacity="1.000000" stroke="none" 
	d="
M818.230225,573.759644 
	C865.706787,601.372803 891.997009,642.655029 899.088806,696.330933 
	C904.020996,733.661926 900.872192,770.194763 884.676147,804.686218 
	C864.213989,848.263123 829.257324,875.661560 784.827942,891.947021 
	C756.065918,902.489624 726.168396,906.615601 695.671265,906.777283 
	C668.845093,906.919556 642.017517,906.808350 615.190552,906.809021 
	C613.546021,906.809021 611.901489,906.808960 609.709595,906.808960 
	C609.709595,957.283569 609.709595,1007.481873 609.709595,1057.879883 
	C572.367188,1057.879883 535.581604,1057.879883 498.436890,1057.879883 
	C498.436890,887.771851 498.436890,717.595154 498.436890,547.032593 
	C499.953766,546.958313 501.553192,546.811707 503.152618,546.811462 
	C570.469971,546.801025 637.787292,546.781372 705.104614,546.813293 
	C742.887268,546.831177 779.215881,553.442383 813.095947,570.954712 
	C814.718689,571.793518 816.304932,572.702759 818.230225,573.759644 
M642.500061,646.807861 
	C631.580261,646.807861 620.660522,646.807861 609.995422,646.807861 
	C609.995422,699.562012 609.995422,751.604553 609.995422,803.916992 
	C611.159973,803.916992 611.970459,803.917053 612.780945,803.916931 
	C641.763184,803.914124 670.748169,804.132690 699.725952,803.772034 
	C708.318420,803.665161 717.071350,802.714783 725.438599,800.792603 
	C751.404236,794.827332 771.248596,780.798767 781.490051,755.319946 
	C787.358887,740.719543 787.915405,725.439697 785.817871,710.096130 
	C782.209778,683.704224 768.250122,665.039124 743.362976,654.897461 
	C731.052673,649.880859 718.162415,647.329346 704.958679,647.074890 
	C684.478394,646.680298 663.986877,646.867371 642.500061,646.807861 
z"/>
<path fill="#FEFEFE" opacity="1.000000" stroke="none" 
	d="
M1254.174194,648.807617 
	C1167.770508,626.872559 1086.069458,677.919556 1068.080933,765.098938 
	C1057.670532,815.552368 1065.881104,862.764038 1097.056641,904.298828 
	C1129.164185,947.075439 1173.516357,963.793884 1226.178955,960.573364 
	C1268.517822,957.984253 1303.490967,939.174377 1334.654541,911.809692 
	C1336.657593,910.050903 1338.671997,908.304871 1340.663086,906.532776 
	C1342.627441,904.784546 1344.568970,903.010681 1346.312012,901.436462 
	C1370.106079,925.231445 1393.775879,948.902161 1417.722046,972.849304 
	C1402.137451,990.338806 1384.713257,1006.392456 1365.067017,1019.985657 
	C1331.550659,1043.175415 1294.301758,1056.327393 1253.980713,1061.127075 
	C1222.409790,1064.885254 1190.782349,1065.882812 1159.383789,1060.126831 
	C1066.464355,1043.092773 1001.239502,990.775818 965.588196,903.511353 
	C928.080750,811.703979 946.200684,703.101074 1010.045959,628.118591 
	C1049.151611,582.191223 1099.064453,554.071228 1158.182861,543.276733 
	C1213.721680,533.135742 1268.639648,536.721741 1322.038574,555.982849 
	C1357.603394,568.811279 1387.485840,590.471863 1414.091309,616.953369 
	C1414.429932,617.290527 1414.648193,617.748840 1415.078979,618.379578 
	C1391.395630,645.851685 1367.721313,673.313293 1343.875732,700.973450 
	C1317.715576,676.923340 1289.354248,657.370667 1254.174194,648.807617 
z"/>
<path fill="#98E270" opacity="1.000000" stroke="none" 
	d="
M1311.549561,158.088318 
	C1317.218506,161.493210 1322.739502,164.816605 1327.925049,168.599731 
	C1368.903687,198.495560 1409.844727,228.443344 1450.743530,258.448303 
	C1477.741577,278.255096 1504.641724,298.195160 1531.628174,318.017822 
	C1532.911621,318.960632 1534.607300,319.342407 1536.472656,319.990265 
	C1539.960083,341.088165 1543.085815,362.181274 1546.251099,383.540833 
	C1544.597656,383.702148 1543.472168,383.908142 1542.346680,383.908142 
	C1381.562378,383.905365 1220.778076,383.887573 1059.535156,383.796021 
	C1069.192627,374.618073 1079.306763,365.512268 1089.425659,356.411957 
	C1095.416260,351.024414 1101.390991,345.618896 1107.414307,340.268188 
	C1119.263062,329.742432 1131.132080,319.239166 1143.009155,308.745361 
	C1156.197632,297.093018 1169.416626,285.475525 1182.599609,273.817200 
	C1194.167725,263.587067 1205.710571,253.328247 1217.241211,243.055786 
	C1217.968384,242.407928 1218.492798,241.532486 1219.231445,240.436859 
	C1233.373413,227.761047 1247.430908,215.451233 1261.403564,203.045639 
	C1268.908447,196.382339 1276.236938,189.520538 1283.699829,182.809494 
	C1292.851929,174.579483 1302.061523,166.413452 1311.549561,158.088318 
z"/>
<path fill="#F3F54D" opacity="1.000000" stroke="none" 
	d="
M1401.789795,1993.815430 
	C1392.983398,2000.106201 1383.758911,1997.487915 1374.306396,1994.765137 
	C1348.524048,1987.339111 1322.652710,1980.222534 1296.818970,1972.975220 
	C1288.312256,1970.588623 1279.812500,1968.177734 1271.142334,1964.958984 
	C1271.316650,1953.353516 1271.808472,1942.569214 1271.970703,1931.779785 
	C1272.390991,1903.833740 1272.691040,1875.885864 1272.992676,1847.938110 
	C1273.353516,1814.493164 1273.709595,1781.047852 1273.980103,1747.602051 
	C1274.098633,1732.941528 1273.891113,1718.278198 1274.023193,1703.617920 
	C1274.279419,1675.170044 1274.671143,1646.723389 1275.006714,1618.276245 
	C1297.098145,1618.211060 1319.189453,1618.119507 1341.280884,1618.088379 
	C1361.882080,1618.059326 1382.483276,1618.094604 1403.546265,1618.189819 
	C1403.672119,1669.855835 1403.376709,1721.433838 1402.985596,1773.010986 
	C1402.728271,1806.938354 1402.354858,1840.864868 1401.992676,1874.791260 
	C1401.692749,1902.890259 1401.387695,1930.989624 1400.969482,1959.086914 
	C1400.828857,1968.538574 1400.236328,1977.983154 1400.076660,1987.434814 
	C1400.042114,1989.475586 1400.981812,1991.532959 1401.789795,1993.815430 
z"/>
<path fill="#50DB7E" opacity="1.000000" stroke="none" 
	d="
M383.723267,1442.993896 
	C383.790375,1452.296509 383.913025,1461.598999 383.914856,1470.901611 
	C383.922791,1511.290894 383.895538,1551.680176 383.428711,1592.522461 
	C354.973450,1584.144409 326.955444,1575.360474 298.970856,1566.471313 
	C253.898071,1552.154541 208.850388,1537.758789 163.786041,1523.415283 
	C142.915619,1516.772705 122.022888,1510.200073 101.156822,1503.543823 
	C92.519623,1500.788574 83.925789,1497.897461 74.023232,1494.644531 
	C78.531471,1486.919189 82.417320,1479.683594 86.847282,1472.798096 
	C94.384399,1461.082764 102.263794,1449.587646 110.270264,1437.803955 
	C118.685135,1425.401855 126.829140,1413.196045 135.128296,1400.688232 
	C142.524933,1389.593750 149.766418,1378.801270 157.043854,1368.372803 
	C158.756332,1370.339722 160.167191,1372.570068 162.164322,1373.415527 
	C166.417221,1375.215820 170.982559,1376.271606 175.405945,1377.676270 
	C212.555130,1389.474365 249.709778,1401.255371 286.845245,1413.096436 
	C314.029449,1421.764404 341.170441,1430.568115 368.371674,1439.181885 
	C373.388214,1440.770386 378.601044,1441.739136 383.723267,1442.993896 
z"/>
<path fill="#0CC7DD" opacity="1.000000" stroke="none" 
	d="
M1733.002930,853.890015 
	C1711.547119,862.228455 1690.101440,870.593445 1668.632080,878.896790 
	C1652.098267,885.291260 1635.534302,891.607971 1618.630737,898.019104 
	C1618.213745,896.250427 1618.093628,894.421936 1618.093506,892.593445 
	C1618.084839,761.929260 1618.085693,631.265137 1618.085693,500.600952 
	C1618.085693,498.839142 1618.085693,497.077332 1618.085693,494.065613 
	C1625.479248,500.196960 1631.952637,505.567627 1638.428589,510.935089 
	C1650.235352,520.720825 1662.092163,530.446777 1673.835327,540.308044 
	C1683.098755,548.086975 1692.153564,556.114441 1701.428711,563.879028 
	C1710.421753,571.407471 1719.587646,578.729248 1728.649780,586.175598 
	C1729.796997,587.118286 1730.775757,588.266113 1731.672363,589.877075 
	C1731.674683,602.023315 1731.971313,613.611267 1731.978149,625.199280 
	C1732.021118,698.813843 1731.989624,772.428345 1732.042236,846.042908 
	C1732.044067,848.658813 1732.668579,851.274292 1733.002930,853.890015 
z"/>
<path fill="#0AC5E8" opacity="1.000000" stroke="none" 
	d="
M1733.327026,853.894531 
	C1732.668579,851.274292 1732.044067,848.658813 1732.042236,846.042908 
	C1731.989624,772.428345 1732.021118,698.813843 1731.978149,625.199280 
	C1731.971313,613.611267 1731.674683,602.023315 1731.809326,590.192688 
	C1733.356201,590.750244 1734.605591,591.550537 1735.698608,592.875854 
	C1734.595337,597.723755 1735.889160,599.153320 1740.044556,596.887695 
	C1743.008545,599.066040 1746.085449,601.107666 1748.917358,603.446045 
	C1762.980103,615.058105 1777.020386,626.698120 1790.984009,638.428833 
	C1800.226807,646.193481 1809.277832,654.186035 1818.506958,661.967224 
	C1825.846191,668.155090 1833.324951,674.177490 1840.880493,681.016418 
	C1841.346191,687.710022 1841.955933,693.660461 1841.958496,699.611084 
	C1842.013062,829.497009 1841.993286,959.382874 1842.043579,1089.268799 
	C1842.044678,1092.217041 1842.693359,1095.165161 1843.040283,1098.113281 
	C1838.020752,1108.477905 1833.001221,1118.842407 1827.907227,1129.569580 
	C1827.203369,1128.457153 1826.378296,1127.033936 1825.973145,1125.499634 
	C1801.626343,1033.294678 1777.314209,941.080566 1752.993774,848.868652 
	C1752.869507,848.397400 1752.673584,847.945068 1752.317627,846.934265 
	C1748.440796,848.327576 1744.622192,849.699951 1740.267822,850.776733 
	C1738.789673,850.090515 1737.847046,849.699951 1736.904541,849.309448 
	C1736.600342,850.475159 1736.296143,851.640808 1735.991943,852.806519 
	C1735.211670,853.170715 1734.431396,853.534912 1733.327026,853.894531 
z"/>
<path fill="#FEFEFE" opacity="1.000000" stroke="none" 
	d="
M776.000122,1386.802246 
	C838.791565,1386.802246 901.083008,1386.802246 963.645142,1386.802246 
	C963.645142,1412.522461 963.645142,1437.929321 963.645142,1463.626709 
	C809.559998,1463.626709 655.534607,1463.626709 501.254028,1463.626709 
	C501.254028,1438.165894 501.254028,1412.757812 501.254028,1386.802246 
	C592.693604,1386.802246 684.096863,1386.802246 776.000122,1386.802246 
z"/>
<path fill="#3EDB80" opacity="1.000000" stroke="none" 
	d="
M109.999405,1438.000000 
	C102.263794,1449.587646 94.384399,1461.082764 86.847282,1472.798096 
	C82.417320,1479.683594 78.531471,1486.919189 74.023232,1494.644531 
	C83.925789,1497.897461 92.519623,1500.788574 101.156822,1503.543823 
	C122.022888,1510.200073 142.915619,1516.772705 163.786041,1523.415283 
	C208.850388,1537.758789 253.898071,1552.154541 298.970856,1566.471313 
	C326.955444,1575.360474 354.973450,1584.144409 383.349243,1592.984375 
	C383.722046,1601.121948 383.722046,1609.250854 383.722046,1618.107422 
	C458.510651,1618.107422 532.812805,1618.107422 607.710632,1618.366821 
	C608.528809,1618.832397 608.786255,1618.975830 609.070923,1619.474121 
	C606.364563,1633.220947 603.740967,1646.566040 600.946777,1659.875488 
	C597.847778,1674.636719 594.592957,1689.365112 591.406006,1704.107788 
	C587.390137,1703.148438 583.295654,1702.436523 579.370972,1701.189941 
	C552.164429,1692.548462 525.003540,1683.763062 497.808105,1675.086182 
	C459.708130,1662.929932 421.587219,1650.839478 383.482086,1638.699585 
	C353.599915,1629.179565 323.733948,1619.608521 293.850189,1610.093506 
	C256.692505,1598.262329 219.521011,1586.474365 182.361069,1574.650146 
	C153.583481,1565.493042 124.818985,1556.294800 96.039673,1547.143066 
	C81.965988,1542.667603 67.875786,1538.244019 53.781769,1533.833008 
	C52.059147,1533.293701 50.266342,1532.978516 48.288956,1531.928833 
	C54.073738,1522.148926 59.843174,1512.834229 66.179176,1503.922485 
	C69.183601,1499.696655 69.159798,1496.562866 66.071518,1492.454712 
	C51.739841,1473.390625 37.688061,1454.116333 23.415394,1435.007568 
	C21.709845,1432.723999 19.267513,1430.990967 17.166700,1429.002686 
	C18.030659,1419.196655 18.868835,1409.388306 19.766827,1399.585327 
	C20.471649,1391.891235 21.254990,1384.204468 21.995346,1376.513550 
	C23.331442,1362.634277 24.666584,1348.754883 25.983274,1334.873779 
	C26.077343,1333.882080 26.017696,1332.875610 26.433750,1331.481689 
	C28.248549,1332.437012 29.863272,1333.630981 31.033058,1335.164429 
	C35.255932,1340.699951 39.320068,1346.356323 43.460316,1351.955200 
	C61.990757,1377.013062 80.428001,1402.141113 99.159973,1427.047485 
	C102.206123,1431.097778 103.870056,1436.871094 109.999405,1438.000000 
z"/>
<path fill="#EDF450" opacity="1.000000" stroke="none" 
	d="
M1274.544922,1618.188721 
	C1274.671143,1646.723389 1274.279419,1675.170044 1274.023193,1703.617920 
	C1273.891113,1718.278198 1274.098633,1732.941528 1273.980103,1747.602051 
	C1273.709595,1781.047852 1273.353516,1814.493164 1272.992676,1847.938110 
	C1272.691040,1875.885864 1272.390991,1903.833740 1271.970703,1931.779785 
	C1271.808472,1942.569214 1271.316650,1953.353516 1270.951172,1964.612305 
	C1257.918945,1961.539429 1244.894043,1958.053101 1231.905762,1954.435303 
	C1213.365845,1949.271240 1194.852661,1944.010864 1176.155518,1937.977051 
	C1176.321655,1910.390869 1176.711182,1883.620117 1176.987061,1856.848145 
	C1177.369385,1819.751343 1177.684326,1782.653809 1177.995361,1745.556396 
	C1178.351196,1703.129639 1178.671021,1660.702759 1179.006592,1618.275879 
	C1210.698730,1618.217773 1242.390991,1618.159546 1274.544922,1618.188721 
z"/>
<path fill="#07C3F0" opacity="1.000000" stroke="none" 
	d="
M1843.360840,1097.946289 
	C1842.693359,1095.165161 1842.044678,1092.217041 1842.043579,1089.268799 
	C1841.993286,959.382874 1842.013062,829.497009 1841.958496,699.611084 
	C1841.955933,693.660461 1841.346191,687.710022 1841.029663,681.323364 
	C1843.393921,683.427063 1845.574463,686.164246 1848.161865,688.438538 
	C1849.936890,689.998901 1852.498901,690.648193 1854.329468,692.163513 
	C1867.286499,702.889954 1880.106812,713.781494 1893.046265,724.529297 
	C1906.351196,735.580872 1919.799561,746.459961 1933.075684,757.545654 
	C1942.370239,765.306702 1951.426270,773.353088 1960.690918,781.150635 
	C1968.061401,787.353821 1975.595581,793.362244 1983.038452,799.479858 
	C1986.173584,802.056763 1987.534424,804.330566 1985.183350,808.934143 
	C1972.254517,834.249146 1959.838135,859.826294 1947.286255,885.333252 
	C1938.979980,902.212646 1930.743164,919.126221 1922.472534,936.023071 
	C1914.483398,952.344849 1906.502563,968.670654 1898.496460,984.984070 
	C1890.060303,1002.174072 1881.610840,1019.357605 1873.144165,1036.532471 
	C1864.755859,1053.548096 1856.305542,1070.533203 1847.963623,1087.571411 
	C1846.343872,1090.879761 1845.099121,1094.371826 1843.360840,1097.946289 
z"/>
<path fill="#E6F253" opacity="1.000000" stroke="none" 
	d="
M1178.544800,1618.188721 
	C1178.671021,1660.702759 1178.351196,1703.129639 1177.995361,1745.556396 
	C1177.684326,1782.653809 1177.369385,1819.751343 1176.987061,1856.848145 
	C1176.711182,1883.620117 1176.321655,1910.390869 1175.969971,1937.638184 
	C1168.907349,1936.393555 1161.804688,1934.862061 1154.817383,1932.916626 
	C1134.828247,1927.351318 1114.885132,1921.620850 1094.929810,1915.934204 
	C1094.485107,1915.807617 1094.111450,1915.432251 1093.364990,1914.590820 
	C1093.350342,1912.056763 1093.926758,1910.109253 1093.961304,1908.152100 
	C1094.355469,1885.880981 1094.704346,1863.608887 1094.990723,1841.336060 
	C1095.362427,1812.403198 1095.733765,1783.469971 1095.984497,1754.535889 
	C1096.378174,1709.116577 1096.670776,1663.696289 1097.006104,1618.276489 
	C1124.031738,1618.218140 1151.057373,1618.159790 1178.544800,1618.188721 
z"/>
<path fill="#68DD7A" opacity="1.000000" stroke="none" 
	d="
M383.800964,1442.531494 
	C378.601044,1441.739136 373.388214,1440.770386 368.371674,1439.181885 
	C341.170441,1430.568115 314.029449,1421.764404 286.845245,1413.096436 
	C249.709778,1401.255371 212.555130,1389.474365 175.405945,1377.676270 
	C170.982559,1376.271606 166.417221,1375.215820 162.164322,1373.415527 
	C160.167191,1372.570068 158.756332,1370.339722 157.193359,1368.065552 
	C161.868729,1360.594604 166.430557,1353.794922 170.992386,1346.995117 
	C185.348129,1325.623779 199.698425,1304.248779 214.064056,1282.884033 
	C217.120834,1278.338013 220.233658,1273.829468 223.992172,1269.183716 
	C227.306580,1270.050537 229.912476,1271.153931 232.598373,1272.005005 
	C250.638718,1277.720825 268.713196,1283.329224 286.743927,1289.075195 
	C313.958374,1297.747559 341.129303,1306.557007 368.360138,1315.177368 
	C373.382019,1316.767090 378.600067,1317.737183 383.727539,1318.993408 
	C383.791901,1338.589844 383.889069,1358.186157 383.911804,1377.782593 
	C383.936646,1399.211426 383.892670,1420.640137 383.800964,1442.531494 
z"/>
<path fill="#CDEB5E" opacity="1.000000" stroke="none" 
	d="
M825.599792,1839.990234 
	C816.874695,1837.338257 808.573059,1834.572510 800.188782,1832.085327 
	C790.321716,1829.158203 780.382874,1826.472778 770.221680,1822.965576 
	C770.647888,1754.258057 771.327698,1686.267456 772.007507,1618.276855 
	C805.364868,1618.218994 838.722229,1618.161133 872.541565,1618.640503 
	C873.002380,1622.005615 873.013733,1624.833740 872.998291,1627.661499 
	C872.667236,1688.336060 872.333679,1749.010498 871.995239,1809.685059 
	C871.989685,1810.681030 871.880310,1811.677002 871.882812,1812.672729 
	C871.916199,1826.059814 871.960876,1839.446777 872.002686,1852.833862 
	C856.664001,1848.555786 841.325317,1844.277832 825.599792,1839.990234 
z"/>
<path fill="#E0F056" opacity="1.000000" stroke="none" 
	d="
M1096.544312,1618.189697 
	C1096.670776,1663.696289 1096.378174,1709.116577 1095.984497,1754.535889 
	C1095.733765,1783.469971 1095.362427,1812.403198 1094.990723,1841.336060 
	C1094.704346,1863.608887 1094.355469,1885.880981 1093.961304,1908.152100 
	C1093.926758,1910.109253 1093.350342,1912.056763 1093.014282,1914.421143 
	C1085.231445,1912.861938 1077.421143,1911.029541 1069.696045,1908.890137 
	C1052.799194,1904.211060 1035.945312,1899.377563 1019.077393,1894.594971 
	C1018.626953,1894.467163 1018.217041,1894.196533 1017.457153,1893.509521 
	C1017.417419,1891.241699 1017.938354,1889.460205 1017.965393,1887.671509 
	C1018.349426,1862.247803 1018.804443,1836.823975 1018.972778,1811.398560 
	C1019.389099,1748.522827 1019.666809,1685.646362 1019.999207,1622.770142 
	C1020.007080,1621.272095 1020.003967,1619.773926 1020.005981,1618.275879 
	C1045.364868,1618.218140 1070.723633,1618.160400 1096.544312,1618.189697 
z"/>
<path fill="#D5ED5B" opacity="1.000000" stroke="none" 
	d="
M872.390625,1852.911865 
	C871.960876,1839.446777 871.916199,1826.059814 871.882812,1812.672729 
	C871.880310,1811.677002 871.989685,1810.681030 871.995239,1809.685059 
	C872.333679,1749.010498 872.667236,1688.336060 872.998291,1627.661499 
	C873.013733,1624.833740 873.002380,1622.005615 873.003052,1618.727051 
	C901.027710,1618.218994 929.052917,1618.161621 957.539917,1618.641113 
	C956.974731,1704.816528 955.947632,1790.455200 954.920593,1876.093750 
	C942.507690,1872.728271 930.066895,1869.461792 917.689087,1865.971924 
	C902.691101,1861.743286 887.746338,1857.325806 872.390625,1852.911865 
z"/>
<path fill="#C4E962" opacity="1.000000" stroke="none" 
	d="
M771.545471,1618.190430 
	C771.327698,1686.267456 770.647888,1754.258057 769.936890,1822.737793 
	C755.821960,1819.398682 741.713379,1815.659424 727.660522,1811.721191 
	C706.571045,1805.810791 685.520752,1799.760864 664.164124,1793.114990 
	C663.583008,1790.172852 663.006226,1787.880859 663.046997,1785.599854 
	C663.284119,1772.340942 663.836731,1759.086304 663.967957,1745.827026 
	C664.388794,1703.310669 664.671936,1660.792847 665.008179,1618.275635 
	C700.366577,1618.218506 735.725037,1618.161377 771.545471,1618.190430 
z"/>
<path fill="#DAEF58" opacity="1.000000" stroke="none" 
	d="
M955.112366,1876.442017 
	C955.947632,1790.455200 956.974731,1704.816528 958.001343,1618.727295 
	C978.361328,1618.218872 998.721619,1618.161011 1019.543945,1618.189575 
	C1020.003967,1619.773926 1020.007080,1621.272095 1019.999207,1622.770142 
	C1019.666809,1685.646362 1019.389099,1748.522827 1018.972778,1811.398560 
	C1018.804443,1836.823975 1018.349426,1862.247803 1017.965393,1887.671509 
	C1017.938354,1889.460205 1017.417419,1891.241699 1017.064941,1893.430176 
	C997.258606,1888.227295 977.514893,1882.615723 957.763123,1877.032715 
	C956.982971,1876.812134 956.125549,1876.864990 955.112366,1876.442017 
z"/>
<path fill="#7DDF75" opacity="1.000000" stroke="none" 
	d="
M383.805206,1318.531006 
	C378.600067,1317.737183 373.382019,1316.767090 368.360138,1315.177368 
	C341.129303,1306.557007 313.958374,1297.747559 286.743927,1289.075195 
	C268.713196,1283.329224 250.638718,1277.720825 232.598373,1272.005005 
	C229.912476,1271.153931 227.306580,1270.050537 224.284821,1269.020752 
	C231.003159,1258.185669 238.044907,1247.356934 245.210800,1236.610840 
	C255.541290,1221.119385 265.962036,1205.687866 276.709778,1190.418091 
	C278.878540,1191.636597 280.567841,1193.020386 282.502258,1193.645752 
	C309.202423,1202.276733 335.915100,1210.870361 362.676270,1219.309937 
	C369.601257,1221.493896 376.703888,1223.114502 383.724915,1224.993896 
	C383.777557,1256.018799 383.830231,1287.043579 383.805206,1318.531006 
z"/>
<path fill="#BCE665" opacity="1.000000" stroke="none" 
	d="
M664.546021,1618.189453 
	C664.671936,1660.792847 664.388794,1703.310669 663.967957,1745.827026 
	C663.836731,1759.086304 663.284119,1772.340942 663.046997,1785.599854 
	C663.006226,1787.880859 663.583008,1790.172852 663.864319,1792.912598 
	C646.567322,1788.611328 629.270996,1783.891235 611.997009,1779.091309 
	C600.821716,1775.985962 589.678894,1772.763916 578.370544,1769.551514 
	C582.701965,1747.828979 586.977234,1726.387939 591.329224,1704.527344 
	C594.592957,1689.365112 597.847778,1674.636719 600.946777,1659.875488 
	C603.740967,1646.566040 606.364563,1633.220947 609.318970,1619.455200 
	C609.574585,1619.018921 610.072693,1619.009766 610.239441,1618.921143 
	C610.634399,1618.701294 610.792358,1618.511597 610.879944,1618.263428 
	C628.614624,1618.210083 646.349243,1618.156616 664.546021,1618.189453 
z"/>
<path fill="#90E171" opacity="1.000000" stroke="none" 
	d="
M383.803650,1224.531494 
	C376.703888,1223.114502 369.601257,1221.493896 362.676270,1219.309937 
	C335.915100,1210.870361 309.202423,1202.276733 282.502258,1193.645752 
	C280.567841,1193.020386 278.878540,1191.636597 276.999817,1190.239502 
	C285.267548,1177.140991 293.555389,1164.371460 301.972260,1151.687500 
	C308.290802,1142.165649 314.775085,1132.753784 321.845154,1123.160156 
	C324.727020,1124.077271 326.866302,1125.383423 329.185211,1126.135986 
	C343.947754,1130.926514 358.724579,1135.677124 373.558807,1140.238892 
	C376.818451,1141.241333 380.328491,1141.429688 383.723206,1141.992920 
	C383.776276,1169.351685 383.829346,1196.710449 383.803650,1224.531494 
z"/>
<path fill="#A3E36D" opacity="1.000000" stroke="none" 
	d="
M383.802124,1141.530762 
	C380.328491,1141.429688 376.818451,1141.241333 373.558807,1140.238892 
	C358.724579,1135.677124 343.947754,1130.926514 329.185211,1126.135986 
	C326.866302,1125.383423 324.727020,1124.077271 322.119293,1122.975586 
	C331.410645,1108.247070 341.032471,1093.533691 350.778809,1078.903320 
	C361.551819,1062.731934 372.438934,1046.636353 383.502991,1030.281250 
	C383.793854,1051.292847 383.881195,1072.531006 383.914734,1093.769287 
	C383.939667,1109.535645 383.894836,1125.302124 383.802124,1141.530762 
z"/>
<path fill="#0CC7DD" opacity="1.000000" stroke="none" 
	d="
M1739.930420,596.594421 
	C1735.889160,599.153320 1734.595337,597.723755 1735.833984,593.175293 
	C1737.355957,594.066772 1738.586060,595.183960 1739.930420,596.594421 
z"/>
<path fill="#3DD982" opacity="1.000000" stroke="none" 
	d="
M610.072693,1619.009766 
	C610.072693,1619.009766 609.574585,1619.018921 609.326538,1619.037842 
	C608.786255,1618.975830 608.528809,1618.832397 608.175903,1618.446533 
	C608.475952,1618.209229 608.906433,1618.151489 609.676514,1618.354004 
	C610.016174,1618.614136 610.072693,1619.009766 610.072693,1619.009766 
z"/>
<path fill="#D1D242" opacity="1.000000" stroke="none" 
	d="
M610.239441,1618.921143 
	C610.072693,1619.009766 610.016174,1618.614136 609.998657,1618.415039 
	C609.981140,1618.215942 610.438171,1618.120239 610.659058,1618.191895 
	C610.792358,1618.511597 610.634399,1618.701294 610.239441,1618.921143 
z"/>
<path fill="#0CC7DD" opacity="1.000000" stroke="none" 
	d="
M1736.316162,852.802795 
	C1736.296143,851.640808 1736.600342,850.475159 1736.904541,849.309448 
	C1737.847046,849.699951 1738.789673,850.090515 1739.889160,850.802490 
	C1738.910889,851.682251 1737.775635,852.240662 1736.316162,852.802795 
z"/>
<path fill="#2CD885" opacity="1.000000" stroke="none" 
	d="
M170.624954,1346.992188 
	C166.430557,1353.794922 161.868729,1360.594604 157.157379,1367.701416 
	C149.766418,1378.801270 142.524933,1389.593750 134.774780,1400.654541 
	C132.823044,1399.903320 131.031250,1399.154175 129.996658,1397.818481 
	C125.231171,1391.666382 120.674133,1385.352783 116.047005,1379.093750 
	C90.060577,1343.942627 64.095512,1308.775635 38.041439,1273.674805 
	C36.440758,1271.518188 34.141396,1269.880127 32.167114,1268.000854 
	C32.843246,1259.537720 33.433891,1251.066772 34.218887,1242.613770 
	C35.049801,1233.666138 36.148491,1224.743286 36.980377,1215.795776 
	C38.102821,1203.723267 39.071938,1191.636597 40.153194,1179.560059 
	C40.206470,1178.965088 40.702126,1178.409790 41.080078,1177.418823 
	C45.301212,1182.084717 49.629440,1187.022339 53.535721,1192.273926 
	C82.213791,1230.828735 110.828651,1269.430542 139.414917,1308.053467 
	C148.088974,1319.773193 156.551193,1331.649902 165.271347,1343.334717 
	C166.449814,1344.913696 168.572205,1345.788452 170.624954,1346.992188 
z"/>
<path fill="#34DA83" opacity="1.000000" stroke="none" 
	d="
M32.097942,1268.437256 
	C34.141396,1269.880127 36.440758,1271.518188 38.041439,1273.674805 
	C64.095512,1308.775635 90.060577,1343.942627 116.047005,1379.093750 
	C120.674133,1385.352783 125.231171,1391.666382 129.996658,1397.818481 
	C131.031250,1399.154175 132.823044,1399.903320 134.619629,1400.956543 
	C126.829140,1413.196045 118.685135,1425.401855 110.270264,1437.803955 
	C103.870056,1436.871094 102.206123,1431.097778 99.159973,1427.047485 
	C80.428001,1402.141113 61.990757,1377.013062 43.460316,1351.955200 
	C39.320068,1346.356323 35.255932,1340.699951 31.033058,1335.164429 
	C29.863272,1333.630981 28.248549,1332.437012 26.502890,1331.044922 
	C27.079895,1322.398193 28.009733,1313.795410 28.896130,1305.188232 
	C29.300463,1301.262085 29.637449,1297.328491 29.972729,1293.395508 
	C30.669468,1285.222534 31.344700,1277.047852 32.097942,1268.437256 
z"/>
<path fill="#50DB7E" opacity="1.000000" stroke="none" 
	d="
M17.096519,1429.424561 
	C19.267513,1430.990967 21.709845,1432.723999 23.415394,1435.007568 
	C37.688061,1454.116333 51.739841,1473.390625 66.071518,1492.454712 
	C69.159798,1496.562866 69.183601,1499.696655 66.179176,1503.922485 
	C59.843174,1512.834229 54.073738,1522.148926 48.035931,1531.649170 
	C46.201569,1534.233398 44.403122,1536.466675 42.305401,1538.850098 
	C35.922188,1529.756714 29.975807,1520.418823 23.703083,1511.305542 
	C19.888906,1505.764160 15.570898,1500.569458 11.164221,1495.068359 
	C12.238150,1477.899170 13.566384,1460.875610 15.055366,1443.865967 
	C15.466319,1439.171265 16.356201,1434.518433 17.096519,1429.424561 
z"/>
<path fill="#000000" opacity="1.000000" stroke="none" 
	d="
M643.000122,646.807861 
	C663.986877,646.867371 684.478394,646.680298 704.958679,647.074890 
	C718.162415,647.329346 731.052673,649.880859 743.362976,654.897461 
	C768.250122,665.039124 782.209778,683.704224 785.817871,710.096130 
	C787.915405,725.439697 787.358887,740.719543 781.490051,755.319946 
	C771.248596,780.798767 751.404236,794.827332 725.438599,800.792603 
	C717.071350,802.714783 708.318420,803.665161 699.725952,803.772034 
	C670.748169,804.132690 641.763184,803.914124 612.780945,803.916931 
	C611.970459,803.917053 611.159973,803.916992 609.995422,803.916992 
	C609.995422,751.604553 609.995422,699.562012 609.995422,646.807861 
	C620.660522,646.807861 631.580261,646.807861 643.000122,646.807861 
z"/>
</svg>