<?xml version="1.0" encoding="UTF-8"?>
<svg version="1.1" xmlns="http://www.w3.org/2000/svg" width="214" height="235">
<path d="M0 0 C6.0540549 7.14267395 5.58288153 14.48599908 5.5625 23.4765625 C5.56706891 24.83745075 5.57237659 26.1983367 5.5783844 27.55921936 C5.58728689 30.40277517 5.58492549 33.24604969 5.57495117 36.08959961 C5.56346579 39.71542202 5.58367942 43.34026983 5.61286831 46.96596432 C5.63130394 49.77403323 5.63092336 52.58187173 5.62523079 55.38998604 C5.62500494 57.37069474 5.641833 59.35138204 5.65904236 61.33201599 C5.59368613 69.81832807 4.72950707 75.45379654 -1.0546875 81.97265625 C-1.79847656 82.60429688 -2.54226562 83.2359375 -3.30859375 83.88671875 C-4.42041016 84.85738281 -4.42041016 84.85738281 -5.5546875 85.84765625 C-9.8878429 88.96051325 -13.58792775 89.76125666 -18.87963867 89.78295898 C-20.06824997 89.7931456 -21.25686127 89.80333221 -22.48149109 89.81382751 C-23.75861465 89.81596756 -25.03573822 89.8181076 -26.3515625 89.8203125 C-27.68810618 89.83142586 -29.02463974 89.84382218 -30.36116028 89.85743713 C-36.01712915 89.91259065 -41.67317028 89.94339029 -47.3293457 89.96801758 C-50.79770873 89.98402334 -54.26572812 90.01438023 -57.73391151 90.05278206 C-59.67786284 90.06988406 -61.62193721 90.07048575 -63.56596375 90.07066345 C-73.13123542 90.17660165 -81.54279437 90.87044744 -88.87109375 97.51171875 C-89.53109375 97.51171875 -90.19109375 97.51171875 -90.87109375 97.51171875 C-91.11859375 98.04796875 -91.36609375 98.58421875 -91.62109375 99.13671875 C-92.87109375 101.51171875 -92.87109375 101.51171875 -94.80859375 103.94921875 C-101.87707639 114.7504956 -100.14576354 129.23651601 -99.80517578 141.49316406 C-99.87109375 143.51171875 -99.87109375 143.51171875 -100.87109375 144.51171875 C-103.8819053 144.64015615 -106.85969003 144.69695454 -109.87109375 144.69921875 C-110.69738281 144.71146484 -111.52367187 144.72371094 -112.375 144.73632812 C-120.83524862 144.75618786 -128.3530106 143.90341376 -135.0234375 138.38671875 C-147.35250791 125.87518852 -148.09237672 107.06664928 -148.05175781 90.54345703 C-147.90282222 75.89384355 -146.40482277 60.62784145 -135.87109375 49.51171875 C-126.28961071 40.69030528 -114.79301106 41.09776564 -102.5859375 41.21875 C-100.91728601 41.22435411 -99.24862953 41.22862035 -97.57997131 41.23161316 C-93.21515978 41.24299786 -88.85065379 41.27240913 -84.48596191 41.3057251 C-80.02128226 41.33656443 -75.55655263 41.35014796 -71.09179688 41.36523438 C-62.35142321 41.3972858 -53.61129663 41.44840371 -44.87109375 41.51171875 C-44.87109375 39.53171875 -44.87109375 37.55171875 -44.87109375 35.51171875 C-61.37109375 35.51171875 -77.87109375 35.51171875 -94.87109375 35.51171875 C-94.93296875 31.40734375 -94.99484375 27.30296875 -95.05859375 23.07421875 C-95.08590576 21.79877197 -95.11321777 20.5233252 -95.14135742 19.20922852 C-95.19360382 12.00428127 -95.20733304 4.48741731 -90.3527832 -1.29760742 C-71.30754147 -19.83698344 -18.58665517 -16.61760342 0 0 Z " fill="#3D78A9" transform="translate(147.87109375,11.48828125)"/>
<path d="M0 0 C4.16642697 -0.11703447 8.3324259 -0.18753101 12.5 -0.25 C13.67304688 -0.28351562 14.84609375 -0.31703125 16.0546875 -0.3515625 C24.09116057 -0.44185995 29.90889378 0.2525467 35.953125 5.7890625 C48.31794748 23.29347986 50.51305249 48.01894005 47.375 68.8125 C44.70608817 80.57826625 40.62444538 92.8329326 30.875 100.4375 C21.57970109 105.04519854 8.67887541 103.06678078 -1.484375 102.87890625 C-3.03663342 102.85454064 -4.58890018 102.83070059 -6.14117432 102.80735779 C-10.18531947 102.74515637 -14.22931314 102.67591621 -18.27331543 102.60510254 C-22.41651637 102.53383352 -26.55982293 102.4693697 -30.703125 102.40429688 C-38.80220045 102.27611153 -46.9011284 102.14047419 -55 102 C-54.67 103.65 -54.34 105.3 -54 107 C-38.16 107.33 -22.32 107.66 -6 108 C-4.73106753 113.07572987 -5.02542916 117.61674749 -5.25 122.8125 C-5.29060547 124.27139648 -5.29060547 124.27139648 -5.33203125 125.75976562 C-5.61340942 132.46291974 -6.30315279 137.6798249 -10.65625 143.0390625 C-25.50309532 155.80986589 -46.04706836 158.35800974 -65 157 C-79.19239283 155.29057548 -92.19819731 151.53347108 -102.4765625 141.125 C-105.55587688 136.82975122 -106.25051199 132.32524498 -106.2746582 127.13745117 C-106.28419022 126.00574997 -106.29372223 124.87404877 -106.30354309 123.70805359 C-106.30263168 122.49857559 -106.30172028 121.2890976 -106.30078125 120.04296875 C-106.30506638 118.78543289 -106.3093515 117.52789703 -106.31376648 116.23225403 C-106.31950204 113.57518486 -106.320955 110.91850509 -106.31567383 108.26147461 C-106.30989274 104.87913356 -106.3267876 101.49734254 -106.3500185 98.11509228 C-106.36841606 94.86188936 -106.36456794 91.60871423 -106.36328125 88.35546875 C-106.372491 87.15206345 -106.38170074 85.94865814 -106.39118958 84.70878601 C-106.3479063 76.77898955 -105.73679465 69.85789126 -101.0546875 63.2578125 C-100.33539063 62.55398437 -99.61609375 61.85015625 -98.875 61.125 C-98.17117187 60.40570313 -97.46734375 59.68640625 -96.7421875 58.9453125 C-89.0696115 53.50237397 -80.71036425 53.58253144 -71.6015625 53.62890625 C-68.99218618 53.61152502 -66.38281121 53.59394063 -63.7734375 53.57617188 C-59.69661248 53.56312041 -55.61981002 53.56249957 -51.54296875 53.56420898 C-47.58315097 53.56427044 -43.62377105 53.5332192 -39.6640625 53.50390625 C-38.45851715 53.51208878 -37.2529718 53.5202713 -36.01089478 53.52870178 C-25.4080675 53.43628352 -16.46028534 51.35612804 -8.65234375 43.8515625 C-0.72138679 34.96439088 -0.66194064 24.32219962 -0.375 13 C-0.33632812 11.74832031 -0.29765625 10.49664062 -0.2578125 9.20703125 C-0.16410659 6.1381628 -0.0783893 3.06929147 0 0 Z M-33.8125 123.125 C-36.25055207 126.32929701 -37 127.98935002 -37 132 C-35.27321967 136.12508633 -33.12508633 138.27321967 -29 140 C-25.1038517 140 -23.53847245 139.48179114 -20.625 136.875 C-18.56076378 133.22288977 -18.40855696 131.1401013 -19 127 C-20.79562405 124.24670979 -22.05254922 122.47372539 -25 121 C-29.03366277 120.4621783 -30.51619826 120.63446091 -33.8125 123.125 Z " fill="#FDDE59" transform="translate(159,53)"/>
<path d="M0 0 C-0.33 0.66 -0.66 1.32 -1 2 C-2.73413086 2.42651367 -2.73413086 2.42651367 -4.96484375 2.66796875 C-6.16463867 2.80041992 -6.16463867 2.80041992 -7.38867188 2.93554688 C-8.6503418 3.06026367 -8.6503418 3.06026367 -9.9375 3.1875 C-11.19336914 3.32961914 -11.19336914 3.32961914 -12.47460938 3.47460938 C-18.73187292 4.13406354 -18.73187292 4.13406354 -21 3 C-21 3.66 -21 4.32 -21 5 C-20.34 5.33 -19.68 5.66 -19 6 C-19.33 6.61875 -19.66 7.2375 -20 7.875 C-21.14193235 9.91018344 -21.14193235 9.91018344 -21 12 C-21.66 12 -22.32 12 -23 12 C-23 12.99 -23 13.98 -23 15 C-21.5459375 16.0828125 -21.5459375 16.0828125 -20.0625 17.1875 C-17.43823629 19.25075722 -16.45396745 20.69428264 -15.875 24 C-15.68347788 27.26823236 -15.99537311 27.99250124 -17.8125 30.9375 C-21.23707052 34.16638078 -23.35621082 34.11535032 -28.02734375 34.1328125 C-30 34 -30 34 -33 33 C-30.525 35.475 -30.525 35.475 -28 38 C-29.65 38.66 -31.3 39.32 -33 40 C-33 40.66 -33 41.32 -33 42 C-36.90970072 44.60646715 -39.99950297 44.41467207 -44.6015625 44.65625 C-45.39304688 44.7696875 -46.18453125 44.883125 -47 45 C-47.33 45.66 -47.66 46.32 -48 47 C-48.0879568 42.854303 -48.14071153 38.70884988 -48.1875 34.5625 C-48.21263672 33.39783203 -48.23777344 32.23316406 -48.26367188 31.03320312 C-48.39037324 16.04020841 -48.39037324 16.04020841 -43.48168945 10.19067383 C-32.55798491 -0.44288331 -14.30149131 -0.5559975 0 0 Z " fill="#508CBB" transform="translate(101,0)"/>
<path d="M0 0 C1.32 0 2.64 0 4 0 C3.38461538 6.52307692 3.38461538 6.52307692 1.4375 8.9375 C0.963125 9.288125 0.48875 9.63875 0 10 C0.33 10.66 0.66 11.32 1 12 C3.55200488 12.46886936 3.55200488 12.46886936 6.5 12.625 C7.5003125 12.69976562 8.500625 12.77453125 9.53125 12.8515625 C11.69258555 12.98151622 13.28009022 12.9784546 15.4375 12.8125 C16.283125 12.874375 17.12875 12.93625 18 13 C18.66 13.99 19.32 14.98 20 16 C18.2984375 16.2165625 18.2984375 16.2165625 16.5625 16.4375 C13.19222799 16.61171478 13.19222799 16.61171478 12 18 C9.04294679 18.08868299 6.10934944 18.11520296 3.15234375 18.09765625 C1.82270348 18.09553383 1.82270348 18.09553383 0.46620178 18.09336853 C-2.37673254 18.08775215 -5.21958931 18.07519691 -8.0625 18.0625 C-9.98502491 18.05748711 -11.90755104 18.05292384 -13.83007812 18.04882812 C-18.55341549 18.03777741 -23.27669458 18.02050183 -28 18 C-28 16.68 -28 15.36 -28 14 C-26.95199219 13.92652344 -26.95199219 13.92652344 -25.8828125 13.8515625 C-24.97273438 13.77679688 -24.06265625 13.70203125 -23.125 13.625 C-22.22007813 13.55539063 -21.31515625 13.48578125 -20.3828125 13.4140625 C-17.82058097 13.20431868 -17.82058097 13.20431868 -16 11 C-14.68252676 10.30251417 -13.35085807 9.63040043 -12 9 C-13.65 7.68 -15.3 6.36 -17 5 C-16.67 4.34 -16.34 3.68 -16 3 C-15.01 3.66 -14.02 4.32 -13 5 C-8.9441848 5.46303849 -8.9441848 5.46303849 -5 5 C-2.24958334 2.58333229 -2.24958334 2.58333229 0 0 Z " fill="#447FAF" transform="translate(84,28)"/>
<path d="M0 0 C3.34065826 2.01700121 5.34510367 3.28133027 6.73828125 6.9375 C7.46884335 10.83383122 7.31639708 12.48721853 5.1875 15.9375 C1.85812546 19.07662457 -0.4409994 19.33458712 -5.02734375 19.29296875 C-7 19 -7 19 -9.4375 17.125 C-12.24954066 13.30062471 -12.40332315 10.75921314 -12 6 C-8.62794354 0.82951342 -6.18928406 -0.71414816 0 0 Z " fill="#F2F8FA" transform="translate(78,15)"/>
<path d="M0 0 C0.33 0 0.66 0 1 0 C1 2.31 1 4.62 1 7 C-0.35850067 7.01213028 -0.35850067 7.01213028 -1.7444458 7.02450562 C-10.27868626 7.10243991 -18.81276872 7.18972716 -27.34680557 7.28752708 C-31.73426398 7.33747718 -36.12169847 7.38380734 -40.50927734 7.421875 C-44.74337724 7.45874407 -48.97727633 7.50510843 -53.21120453 7.55806351 C-54.826693 7.57659884 -56.4422245 7.59171 -58.0577774 7.60334396 C-60.32030304 7.62022128 -62.58236969 7.64925934 -64.84472656 7.68115234 C-66.77665863 7.70113785 -66.77665863 7.70113785 -68.74761963 7.7215271 C-71.83088936 7.98552053 -73.36839139 8.51797232 -76 10 C-76.99 10 -77.98 10 -79 10 C-79.33 12.31 -79.66 14.62 -80 17 C-82.31 17 -84.62 17 -87 17 C-87.226875 17.94875 -87.45375 18.8975 -87.6875 19.875 C-89 23 -89 23 -91.375 24.25 C-92.24125 24.4975 -93.1075 24.745 -94 25 C-95.34050052 25.65213539 -96.67661368 26.31379969 -98 27 C-97.62457195 20.9931512 -93.61859687 16.43110784 -89.36328125 12.48046875 C-79.80827557 5.10819164 -69.15010486 5.59369632 -57.71484375 5.70703125 C-56.04619226 5.71263536 -54.37753578 5.7169016 -52.70887756 5.71989441 C-48.34406603 5.73127911 -43.97956004 5.76069038 -39.61486816 5.79400635 C-35.15018851 5.82484568 -30.68545888 5.83842921 -26.22070312 5.85351562 C-17.48032946 5.88556705 -8.74020288 5.93668496 0 6 C0 4.02 0 2.04 0 0 Z " fill="#7BA6C5" transform="translate(103,47)"/>
<path d="M0 0 C0.99 0.495 0.99 0.495 2 1 C0.63626214 4.32572166 -0.52943942 5.71051163 -3.79077148 7.22558594 C-9.88399231 9.70679238 -15.85688678 9.50226113 -22.34765625 9.390625 C-23.60009628 9.38496521 -24.85253632 9.37930542 -26.14292908 9.37347412 C-29.44265041 9.35498158 -32.7415626 9.31916413 -36.04101562 9.2746582 C-39.41982212 9.23344329 -42.79874796 9.21540771 -46.17773438 9.1953125 C-52.78546796 9.15137105 -59.39266793 9.08455268 -66 9 C-66 9.66 -66 10.32 -66 11 C-66.804375 10.731875 -67.60875 10.46375 -68.4375 10.1875 C-75.86722253 9.79646197 -82.26353549 15.72816473 -88 20 C-88.66 19.67 -89.32 19.34 -90 19 C-88.70848809 17.54361423 -87.39042492 16.11076312 -86.0625 14.6875 C-85.33160156 13.88699219 -84.60070312 13.08648437 -83.84765625 12.26171875 C-76.38938902 6.3380744 -67.75426565 6.58230793 -58.6015625 6.62890625 C-55.99218618 6.61152502 -53.38281121 6.59394063 -50.7734375 6.57617188 C-46.69661248 6.56312041 -42.61981002 6.56249957 -38.54296875 6.56420898 C-34.58315097 6.56427044 -30.62377105 6.5332192 -26.6640625 6.50390625 C-25.45851715 6.51208878 -24.2529718 6.5202713 -23.01089478 6.52870178 C-15.092455 6.45968166 -5.91451165 5.91451165 0 0 Z " fill="#F5EAA8" transform="translate(146,100)"/>
<path d="M0 0 C4.16642697 -0.11703447 8.3324259 -0.18753101 12.5 -0.25 C13.67304688 -0.28351562 14.84609375 -0.31703125 16.0546875 -0.3515625 C24.16756999 -0.44271848 30.09958549 0.21060298 36.05859375 6 C36.74115234 6.99 36.74115234 6.99 37.4375 8 C37.91058594 8.66 38.38367188 9.32 38.87109375 10 C40.00515203 12.00912747 40.56205308 13.74482504 41 16 C40.01 15.67 39.02 15.34 38 15 C38 13.68 38 12.36 38 11 C35.525 10.505 35.525 10.505 33 10 C32.505 8.02 32.505 8.02 32 6 C30.02 5.67 28.04 5.34 26 5 C26 4.34 26 3.68 26 3 C18.41 3 10.82 3 3 3 C2.96261719 4.86785156 2.92523438 6.73570313 2.88671875 8.66015625 C2.82104471 11.12762376 2.75459787 13.59507079 2.6875 16.0625 C2.66494141 17.29162109 2.64238281 18.52074219 2.61914062 19.78710938 C2.42826652 26.22477224 2.14768084 31.32067237 -1 37 C-1.66 37 -2.32 37 -3 37 C-2.86287598 36.44199707 -2.72575195 35.88399414 -2.58447266 35.30908203 C-0.90478969 27.83697401 -0.57127478 20.51336033 -0.375 12.875 C-0.33632812 11.63234375 -0.29765625 10.3896875 -0.2578125 9.109375 C-0.16438732 6.07305681 -0.07861881 3.0367315 0 0 Z " fill="#F9ECA1" transform="translate(159,53)"/>
<path d="M0 0 C0.144375 0.639375 0.28875 1.27875 0.4375 1.9375 C0.81007181 3.97545146 0.81007181 3.97545146 2 5 C3.50316769 5.1224331 5.01188167 5.17776285 6.51977539 5.20532227 C7.96115623 5.2352401 7.96115623 5.2352401 9.43165588 5.26576233 C10.476436 5.28247482 11.52121613 5.29918732 12.59765625 5.31640625 C13.66165146 5.33718735 14.72564667 5.35796844 15.82188416 5.37937927 C19.2353544 5.44499254 22.64890429 5.50381423 26.0625 5.5625 C28.37045109 5.60567403 30.678394 5.64928794 32.98632812 5.69335938 C38.65746682 5.80068584 44.32868552 5.90242992 50 6 C50.495 7.98 50.495 7.98 51 10 C50.34 9.67 49.68 9.34 49 9 C47.4330824 8.88664273 45.8616186 8.8333501 44.29077148 8.81054688 C42.82431435 8.78547058 42.82431435 8.78547058 41.32823181 8.7598877 C40.26987625 8.74631226 39.21152069 8.73273682 38.12109375 8.71875 C36.4974868 8.69113586 36.4974868 8.69113586 34.84107971 8.66296387 C30.19436801 8.58406159 25.54750755 8.51639688 20.90063477 8.44775391 C17.51571152 8.39616962 14.13091874 8.33886968 10.74609375 8.28125 C9.15552406 8.26088684 9.15552406 8.26088684 7.53282166 8.2401123 C6.07109276 8.21503601 6.07109276 8.21503601 4.57983398 8.18945312 C3.71760727 8.17692505 2.85538055 8.16439697 1.96702576 8.15148926 C0 8 0 8 -1 7 C-1.125 4 -1.125 4 -1 1 C-0.67 0.67 -0.34 0.34 0 0 Z " fill="#EFE098" transform="translate(103,155)"/>
<path d="M0 0 C2 2 2 2 2 5 C2.66 5.33 3.32 5.66 4 6 C3.835 6.928125 3.67 7.85625 3.5 8.8125 C2.92251612 11.95621353 2.92251612 11.95621353 3 15 C2.01 15.33 1.02 15.66 0 16 C0.04640625 16.61488281 0.0928125 17.22976562 0.140625 17.86328125 C0.17671875 18.67152344 0.2128125 19.47976562 0.25 20.3125 C0.29640625 21.11300781 0.3428125 21.91351563 0.390625 22.73828125 C0 25 0 25 -2.015625 26.79296875 C-2.67046875 27.19128906 -3.3253125 27.58960937 -4 28 C-3.67033322 18.30324949 -3.18223694 9.26651386 0 0 Z " fill="#5991BC" transform="translate(4,74)"/>
<path d="M0 0 C0.99 0 1.98 0 3 0 C4.53333722 5.89745085 4.53333722 5.89745085 3.12890625 8.80078125 C1.02752535 11.54370523 -0.34719752 12.91295967 -3.8125 13.375 C-4.534375 13.25125 -5.25625 13.1275 -6 13 C-6 8.59013749 -5.605534 8.20681108 -3 5 C-2.31822584 3.67432801 -1.64808564 2.34246312 -1 1 C-0.67 0.67 -0.34 0.34 0 0 Z " fill="#3F749B" transform="translate(147,81)"/>
<path d="M0 0 C1.6415049 3.2830098 0.51888624 6.42545033 0 10 C0.99 10.33 1.98 10.66 3 11 C3 11.66 3 12.32 3 13 C3.99 13.33 4.98 13.66 6 14 C6 14.99 6 15.98 6 17 C1.75620728 16.51033161 -1.08887738 13.92743143 -4 11 C-7 6.7 -7 6.7 -7 4 C-4.69 2.68 -2.38 1.36 0 0 Z " fill="#4F87B4" transform="translate(14,136)"/>
<path d="M0 0 C0.99 0 1.98 0 3 0 C3 1.65 3 3.3 3 5 C-16.47 5 -35.94 5 -56 5 C-56 4.67 -56 4.34 -56 4 C-37.52 3.67 -19.04 3.34 0 3 C0 2.01 0 1.02 0 0 Z " fill="#236393" transform="translate(128,96)"/>
<path d="M0 0 C-0.33 0.66 -0.66 1.32 -1 2 C-3.97788015 2.50618042 -6.87556453 2.8894051 -9.875 3.1875 C-11.11830078 3.32961914 -11.11830078 3.32961914 -12.38671875 3.47460938 C-18.60287017 4.13237661 -18.60287017 4.13237661 -22 3 C-24.35416349 3.94992562 -26.68895182 4.94952356 -29 6 C-29.66 6 -30.32 6 -31 6 C-31 5.01 -31 4.02 -31 3 C-20.82319645 0.06438359 -10.53725645 -0.18668368 0 0 Z " fill="#6796BD" transform="translate(101,0)"/>
<path d="M0 0 C6.15234375 -0.09765625 6.15234375 -0.09765625 8 0 C10.48664654 2.48664654 9.23404068 9.0960183 9.25 12.4375 C9.270625 13.51322266 9.29125 14.58894531 9.3125 15.69726562 C9.31765625 16.72400391 9.3228125 17.75074219 9.328125 18.80859375 C9.34214355 20.22869751 9.34214355 20.22869751 9.35644531 21.67749023 C9.23881836 22.44391846 9.12119141 23.21034668 9 24 C8.01 24.66 7.02 25.32 6 26 C6.33 18.08 6.66 10.16 7 2 C5.02 2 3.04 2 1 2 C0.67 1.34 0.34 0.68 0 0 Z " fill="#F5D355" transform="translate(144,163)"/>
<path d="M0 0 C1.67542976 0.28604898 3.34385343 0.61781233 5 1 C5 1.66 5 2.32 5 3 C-10.84 3 -26.68 3 -43 3 C-43 2.34 -43 1.68 -43 1 C-41.73293213 1.00523682 -40.46586426 1.01047363 -39.16040039 1.01586914 C-34.4771393 1.03391514 -29.79388129 1.04543053 -25.1105957 1.05493164 C-23.08031702 1.05997278 -21.05004198 1.06680557 -19.01977539 1.07543945 C-16.10822653 1.08751467 -13.1967255 1.09323034 -10.28515625 1.09765625 C-9.3716188 1.10281754 -8.45808136 1.10797882 -7.51686096 1.11329651 C-5.34424573 1.11349168 -3.17172704 1.06211805 -1 1 C-0.67 0.67 -0.34 0.34 0 0 Z " fill="#3C759A" transform="translate(97,44)"/>
<path d="M0 0 C2.93261437 3.02425856 3.95628972 4.47547661 4.3125 8.75 C4 12 4 12 3 13 C3.66 13.66 4.32 14.32 5 15 C4.34 17.31 3.68 19.62 3 22 C-0.70462206 15.29854953 -0.11850427 7.46576874 0 0 Z " fill="#79A7C8" transform="translate(0,106)"/>
<path d="M0 0 C1.1439499 3.35835439 0.86298395 5.21321403 -0.36328125 8.51171875 C-0.67330078 9.35154297 -0.98332031 10.19136719 -1.30273438 11.05664062 C-1.63595703 11.92482422 -1.96917969 12.79300781 -2.3125 13.6875 C-2.79493164 15.00717773 -2.79493164 15.00717773 -3.28710938 16.35351562 C-5.73252848 22.86626424 -5.73252848 22.86626424 -8 24 C-7.34 20.7 -6.68 17.4 -6 14 C-5.34 14 -4.68 14 -4 14 C-4 11.69 -4 9.38 -4 7 C-3.34 7 -2.68 7 -2 7 C-1.855625 6.401875 -1.71125 5.80375 -1.5625 5.1875 C-1.1127561 3.43849596 -0.57107659 1.71322977 0 0 Z " fill="#F9E47D" transform="translate(205,120)"/>
<path d="M0 0 C2 2 2 2 2.625 4.6875 C1.66055361 9.79906586 -1.98265126 11.96905385 -6 15 C-6.66 14.67 -7.32 14.34 -8 14 C-7.50628906 13.32453125 -7.01257813 12.6490625 -6.50390625 11.953125 C-5.86324219 11.06109375 -5.22257813 10.1690625 -4.5625 9.25 C-3.92441406 8.36828125 -3.28632813 7.4865625 -2.62890625 6.578125 C-1.1724919 4.27300875 -0.44068179 2.65650428 0 0 Z " fill="#FAD33C" transform="translate(142,182)"/>
<path d="M0 0 C0.66 0.33 1.32 0.66 2 1 C0.7934375 2.0828125 0.7934375 2.0828125 -0.4375 3.1875 C-3.13525147 6.14844674 -3.41730809 7.2125026 -4 11 C-5.4375 13.3125 -5.4375 13.3125 -7 15 C-7.66 15 -8.32 15 -9 15 C-8.61731407 8.87702516 -4.1716037 4.1716037 0 0 Z " fill="#92B6D0" transform="translate(14,59)"/>
<path d="M0 0 C2.79872437 2.52788007 4.45773019 4.20411134 5 8 C3.68 7.67 2.36 7.34 1 7 C1 7.66 1 8.32 1 9 C0.01 9.33 -0.98 9.66 -2 10 C-2 6.09567131 -1.31626692 3.61973402 0 0 Z " fill="#5988AD" transform="translate(147,12)"/>
<path d="M0 0 C-1 2 -1 2 -2.92578125 2.81640625 C-4.10720703 3.18572266 -4.10720703 3.18572266 -5.3125 3.5625 C-6.09238281 3.81128906 -6.87226563 4.06007813 -7.67578125 4.31640625 C-9.77386182 4.93348877 -11.87386388 5.4891435 -14 6 C-14.33 5.34 -14.66 4.68 -15 4 C-9.77228537 0.95842058 -6.07328688 -0.50610724 0 0 Z " fill="#759FBC" transform="translate(31,54)"/>
<path d="M0 0 C2.31 0.66 4.62 1.32 7 2 C7 2.66 7 3.32 7 4 C7.99 4.33 8.98 4.66 10 5 C10 5.99 10 6.98 10 8 C5.60249328 7.49259538 3.13051078 4.91706686 0 2 C0 1.34 0 0.68 0 0 Z " fill="#7AA4C3" transform="translate(10,145)"/>
<path d="M0 0 C0.33 0 0.66 0 1 0 C0.98839844 0.90363281 0.97679688 1.80726563 0.96484375 2.73828125 C0.95582031 3.91777344 0.94679688 5.09726563 0.9375 6.3125 C0.92589844 7.48425781 0.91429688 8.65601563 0.90234375 9.86328125 C0.85100102 13.03059195 0.85100102 13.03059195 2 16 C0.68 15.67 -0.64 15.34 -2 15 C-2.05429959 13.25034642 -2.09292823 11.50020213 -2.125 9.75 C-2.15980469 8.28820312 -2.15980469 8.28820312 -2.1953125 6.796875 C-1.99862781 3.9803502 -1.44568916 2.39050964 0 0 Z " fill="#F5D548" transform="translate(122,176)"/>
<path d="M0 0 C-2.77042109 2.77042109 -4.76533805 2.39796106 -8.625 2.625 C-9.81351562 2.69976562 -11.00203125 2.77453125 -12.2265625 2.8515625 C-13.59941406 2.92503906 -13.59941406 2.92503906 -15 3 C-14.67 2.01 -14.34 1.02 -14 0 C-13.05125 0.020625 -12.1025 0.04125 -11.125 0.0625 C-0.74193548 -0.14516129 -0.74193548 -0.14516129 0 0 Z " fill="#3173A1" transform="translate(80,98)"/>
<path d="M0 0 C0.66 0 1.32 0 2 0 C2.35233161 5.37305699 2.35233161 5.37305699 2 8 C-0 10 -0 10 -2 11 C-2.25 3.375 -2.25 3.375 0 0 Z " fill="#5A90BB" transform="translate(2,91)"/>
<path d="M0 0 C0.66 1.32 1.32 2.64 2 4 C-0.15777592 6.48144231 -1.67746968 7.70683556 -5 8 C-7.75 7.0625 -7.75 7.0625 -10 6 C-10 5.67 -10 5.34 -10 5 C-6.97265625 4.36523438 -6.97265625 4.36523438 -3.9453125 3.73046875 C-1.62953451 3.07691162 -1.62953451 3.07691162 0 0 Z " fill="#5488B1" transform="translate(83,29)"/>
<path d="M0 0 C4.75 1.875 4.75 1.875 7 3 C6.67 3.99 6.34 4.98 6 6 C3.03 6 0.06 6 -3 6 C-3 5.34 -3 4.68 -3 4 C-2.01 3.67 -1.02 3.34 0 3 C0 2.01 0 1.02 0 0 Z " fill="#FBD340" transform="translate(129,168)"/>
<path d="M0 0 C1.9375 0.8125 1.9375 0.8125 4 2 C5.0516399 5.15491969 4.98032423 6.03355588 4.1875 9.125 C4.01605469 9.82882813 3.84460938 10.53265625 3.66796875 11.2578125 C3 13 3 13 1 14 C1.01740234 13.11248047 1.01740234 13.11248047 1.03515625 12.20703125 C1.08322386 7.99768215 1.06006883 4.1077667 0 0 Z " fill="#FADE68" transform="translate(138,175)"/>
<path d="M0 0 C1.15154588 2.82652171 1.07817396 3.81325108 -0.125 6.6875 C-2.38581873 9.4758431 -3.56079873 9.48693883 -7 10 C-6.02223933 8.51990357 -5.0427506 7.04094856 -4.0625 5.5625 C-3.51722656 4.73878906 -2.97195312 3.91507812 -2.41015625 3.06640625 C-1 1 -1 1 0 0 Z " fill="#F9E892" transform="translate(155,90)"/>
<path d="M0 0 C2.31 0.33 4.62 0.66 7 1 C6 3 6 3 4.15234375 3.6328125 C3.42144531 3.79523438 2.69054687 3.95765625 1.9375 4.125 C1.20402344 4.29257813 0.47054687 4.46015625 -0.28515625 4.6328125 C-0.85105469 4.75398437 -1.41695312 4.87515625 -2 5 C-1.34 3.35 -0.68 1.7 0 0 Z " fill="#FAD33B" transform="translate(130,200)"/>
<path d="M0 0 C2.64 0 5.28 0 8 0 C8.33 0.99 8.66 1.98 9 3 C5.7 3 2.4 3 -1 3 C-0.67 2.01 -0.34 1.02 0 0 Z " fill="#FEE372" transform="translate(128,109)"/>
<path d="M0 0 C0.99 0 1.98 0 3 0 C3.33 1.65 3.66 3.3 4 5 C2.68 4.67 1.36 4.34 0 4 C0 4.66 0 5.32 0 6 C-0.99 5.67 -1.98 5.34 -3 5 C-1.125 1.125 -1.125 1.125 0 0 Z " fill="#306694" transform="translate(147,81)"/>
<path d="M0 0 C0.33 0.66 0.66 1.32 1 2 C-2.222107 5.8665284 -5.14922412 6.88059018 -10 8 C-9.67 7.01 -9.34 6.02 -9 5 C-6.68895182 3.94952356 -4.35416349 2.94992562 -2 2 C-1.34 1.34 -0.68 0.68 0 0 Z " fill="#FAD33B" transform="translate(147,192)"/>
<path d="M0 0 C2.125 2.125 2.125 2.125 4 5 C3.25 8.3125 3.25 8.3125 2 11 C0 9 0 9 -0.1953125 6.8359375 C-0.17210938 6.02382812 -0.14890625 5.21171875 -0.125 4.375 C-0.10695312 3.55773437 -0.08890625 2.74046875 -0.0703125 1.8984375 C-0.04710937 1.27195312 -0.02390625 0.64546875 0 0 Z " fill="#5D92BC" transform="translate(0,106)"/>
<path d="M0 0 C0.99 0.33 1.98 0.66 3 1 C2.67 2.65 2.34 4.3 2 6 C0.35 5.67 -1.3 5.34 -3 5 C-1.125 1.125 -1.125 1.125 0 0 Z " fill="#2E6693" transform="translate(143,88)"/>
<path d="M0 0 C3.63 0 7.26 0 11 0 C11.33 0.99 11.66 1.98 12 3 C7.97007218 2.44687265 3.97977076 1.8441938 0 1 C0 0.67 0 0.34 0 0 Z " fill="#FCDC43" transform="translate(167,153)"/>
<path d="M0 0 C0.66 0.33 1.32 0.66 2 1 C-0.78999451 4.48749314 -3.25235831 7.50157221 -7 10 C-7.66 9.67 -8.32 9.34 -9 9 C-6.03 6.03 -3.06 3.06 0 0 Z " fill="#F9EEB2" transform="translate(65,110)"/>
<path d="M0 0 C0.33 0 0.66 0 1 0 C1.33 3.3 1.66 6.6 2 10 C1.01 10.66 0.02 11.32 -1 12 C-1.08159574 7.83861737 -0.98248524 4.0527516 0 0 Z " fill="#82ABC7" transform="translate(2,80)"/>
<path d="M0 0 C0.33 0.99 0.66 1.98 1 3 C1.66 3 2.32 3 3 3 C4.4783226 5.95664519 4.06032783 8.74229737 4 12 C1.49484216 9.49484216 0.94900914 7.38931835 0 4 C0 2.68 0 1.36 0 0 Z " fill="#81ABC7" transform="translate(3,128)"/>
<path d="M0 0 C0.66 0.33 1.32 0.66 2 1 C1.38125 1.721875 0.7625 2.44375 0.125 3.1875 C-1.83666353 5.78381938 -2.95316 7.94671666 -4 11 C-5.1196437 7.64106891 -5.07992835 6.32285646 -4 3 C-1.9375 1.1875 -1.9375 1.1875 0 0 Z " fill="#F9E683" transform="translate(60,117)"/>
<path d="M0 0 C0.66 0.33 1.32 0.66 2 1 C1.2890625 2.953125 1.2890625 2.953125 0 5 C-2.1640625 5.609375 -2.1640625 5.609375 -4.625 5.75 C-5.44226563 5.80671875 -6.25953125 5.8634375 -7.1015625 5.921875 C-7.72804687 5.94765625 -8.35453125 5.9734375 -9 6 C-6 4 -3 2 0 0 Z " fill="#F7EBA3" transform="translate(146,100)"/>
<path d="M0 0 C2.00293347 3.00440021 2.49271626 4.70993945 3.125 8.1875 C3.37636719 9.53908203 3.37636719 9.53908203 3.6328125 10.91796875 C3.75398437 11.60503906 3.87515625 12.29210937 4 13 C3.01 13 2.02 13 1 13 C1.020625 12.030625 1.04125 11.06125 1.0625 10.0625 C1.35618499 7.12534105 1.35618499 7.12534105 0 6 C-0.04080783 4.00041636 -0.04254356 1.99954746 0 0 Z " fill="#FAEC9C" transform="translate(200,69)"/>
<path d="M0 0 C-4.95 2.475 -4.95 2.475 -10 5 C-8 1 -8 1 -5 -0.3125 C-2 -1 -2 -1 0 0 Z " fill="#F9E680" transform="translate(74,110)"/>
<path d="M0 0 C1.98362069 2.91708924 1.9876191 4.12380904 1.625 7.75 C1.41875 8.8225 1.2125 9.895 1 11 C0.87625 10.360625 0.7525 9.72125 0.625 9.0625 C0.41875 8.381875 0.2125 7.70125 0 7 C-0.66 6.67 -1.32 6.34 -2 6 C-1.34 4.02 -0.68 2.04 0 0 Z " fill="#4987B9" transform="translate(86,16)"/>
<path d="M0 0 C3 1 6 2 9 3 C9 3.33 9 3.66 9 4 C6.03 4 3.06 4 0 4 C0 2.68 0 1.36 0 0 Z " fill="#FBD94B" transform="translate(83,204)"/>
<path d="M0 0 C0.90105469 0.01804687 1.80210938 0.03609375 2.73046875 0.0546875 C3.41753906 0.07789062 4.10460937 0.10109375 4.8125 0.125 C4.8125 1.115 4.8125 2.105 4.8125 3.125 C3.595625 2.96 2.37875 2.795 1.125 2.625 C-2.00357836 2.23045459 -5.02918804 2.02630275 -8.1875 2.125 C-4.87379 -0.08414 -3.8428979 -0.09981553 0 0 Z " fill="#F8EB9C" transform="translate(75.1875,107.875)"/>
<path d="M0 0 C0.33 0.99 0.66 1.98 1 3 C-0.40445835 5.2636564 -2.1967913 7.0208685 -4 9 C-4.66 8.67 -5.32 8.34 -6 8 C-4.02 5.36 -2.04 2.72 0 0 Z " fill="#F5D146" transform="translate(140,188)"/>
<path d="M0 0 C0.33 0.99 0.66 1.98 1 3 C-0.65 4.65 -2.3 6.3 -4 8 C-3.67 5.69 -3.34 3.38 -3 1 C-2.01 0.67 -1.02 0.34 0 0 Z " fill="#FDE376" transform="translate(151,188)"/>
<path d="M0 0 C8.57142857 -0.28571429 8.57142857 -0.28571429 12 2 C4.61538462 3.35384615 4.61538462 3.35384615 1.5 1.5625 C1.005 1.046875 0.51 0.53125 0 0 Z " fill="#76A7C8" transform="translate(78,1)"/>
<path d="M0 0 C0.33 0 0.66 0 1 0 C1 1.65 1 3.3 1 5 C-0.32 5.33 -1.64 5.66 -3 6 C-3 4.68 -3 3.36 -3 2 C-2.01 2 -1.02 2 0 2 C0 1.34 0 0.68 0 0 Z " fill="#FAD646" transform="translate(191,146)"/>
<path d="M0 0 C1.65 0 3.3 0 5 0 C4.67 1.65 4.34 3.3 4 5 C3.34 5 2.68 5 2 5 C2 4.01 2 3.02 2 2 C1.34 2 0.68 2 0 2 C0 1.34 0 0.68 0 0 Z " fill="#FCD23A" transform="translate(194,136)"/>
</svg>
