<svg version="1.1" id="Layer_1" xmlns="http://www.w3.org/2000/svg" xmlns:xlink="http://www.w3.org/1999/xlink" x="0px" y="0px"
	 width="100%" viewBox="0 0 1200 648" enable-background="new 0 0 1200 648" xml:space="preserve">
<path fill="#F89939" opacity="1.000000" stroke="none" 
	d="
M751.000000,0.999991 
	C774.687561,1.000000 798.375122,1.000000 822.189819,1.335460 
	C823.156921,2.110752 823.950684,2.771312 824.843506,2.957670 
	C841.044189,6.339230 857.442749,8.961229 873.417480,13.187490 
	C891.289917,17.915815 908.537720,24.865278 924.190247,34.828621 
	C937.902405,43.556820 951.495117,52.677296 964.043762,62.962719 
	C973.767456,70.932663 982.582092,80.350136 990.383789,90.241760 
	C1000.328430,102.850365 1009.932190,115.978432 1017.739319,129.967270 
	C1031.655518,154.902557 1041.090820,181.699326 1045.005615,210.154953 
	C1046.989258,224.573364 1049.262573,239.046677 1049.744751,253.550385 
	C1050.231812,268.200958 1049.320312,282.986877 1047.821167,297.590302 
	C1046.243652,312.957611 1044.141479,328.387360 1040.650269,343.413879 
	C1035.750488,364.502502 1029.061890,385.119080 1020.653748,405.175720 
	C1018.574097,410.136505 1016.133728,411.917450 1011.331238,411.526062 
	C1007.419861,411.207336 1005.363953,413.046539 1003.151184,416.353241 
	C997.623474,424.613739 991.832764,432.826569 985.154724,440.153625 
	C978.218445,447.764038 969.183105,452.407471 957.996826,453.708252 
	C958.953857,450.934387 960.003906,448.704987 960.481384,446.359070 
	C962.130310,438.259003 964.257019,430.170990 964.894958,421.976624 
	C965.423950,415.181580 960.810608,411.352844 954.010132,410.930084 
	C945.265442,410.386536 937.379395,412.974396 932.478760,420.154449 
	C927.863403,426.916443 923.753784,434.421570 921.330078,442.194824 
	C916.927124,456.316101 920.277222,463.183289 932.963806,470.912292 
	C933.198059,471.054993 933.320312,471.381409 933.560181,471.712341 
	C921.482422,490.136169 905.923584,505.364838 889.176636,519.455811 
	C887.089233,521.212097 884.314148,522.390564 881.662598,523.189514 
	C875.144592,525.153687 869.888245,522.368896 869.096130,515.723511 
	C868.399780,509.882050 868.208984,503.576111 869.655640,497.954132 
	C875.578064,474.938324 882.194092,452.100616 888.597717,429.209381 
	C890.273071,423.220612 892.103271,417.275177 894.083679,410.558960 
	C876.580505,410.634583 865.655334,424.078491 851.068726,428.784912 
	C839.615234,411.725922 828.074890,406.149597 809.805176,412.377106 
	C771.394104,425.470032 746.788940,452.026794 737.006531,491.775391 
	C736.495422,493.852295 736.564819,496.581390 735.249939,497.870422 
	C724.928711,507.987976 715.269775,519.144470 701.559509,524.883789 
	C677.978638,534.755127 654.514954,520.695374 652.410522,495.564056 
	C653.921326,495.065552 655.517578,494.638672 657.036743,494.021820 
	C669.648804,488.900940 682.486328,484.251740 694.773621,478.440552 
	C704.761353,473.716949 713.490906,466.868469 719.581604,457.299225 
	C731.991150,437.802582 722.118591,415.646210 699.365540,411.879639 
	C683.202393,409.203979 668.481934,413.247498 655.427673,422.619812 
	C634.217224,437.847961 619.305359,457.990143 614.794006,483.893341 
	C612.872620,494.925415 608.139771,502.501526 599.849182,508.745026 
	C591.773132,514.827026 584.137268,521.875854 575.239502,526.396973 
	C561.077698,533.592896 550.136169,527.764648 545.962585,512.460022 
	C545.482910,510.700958 544.923218,508.882111 544.916748,507.089111 
	C544.882935,497.782776 544.752991,488.461731 545.249939,479.177582 
	C545.402344,476.329315 546.919373,473.196198 548.684143,470.849945 
	C560.381836,455.297455 573.116333,440.463470 583.988403,424.365692 
	C600.535461,399.865143 609.590088,372.494965 609.669373,342.694580 
	C609.688049,335.683502 608.272461,328.460052 606.253662,321.712189 
	C604.323792,315.261597 600.455933,314.106659 594.152710,316.425507 
	C581.825134,320.960663 569.470276,325.429108 557.242004,330.219574 
	C555.192017,331.022675 553.047729,332.981689 552.094238,334.959625 
	C546.102661,347.388336 539.941040,359.772583 534.753845,372.544464 
	C518.930847,411.503418 505.768005,451.230377 502.469269,493.553345 
	C501.530762,505.594452 501.805878,517.531738 505.981720,529.071289 
	C512.150635,546.118225 525.586182,555.698608 542.610413,555.340881 
	C554.109558,555.099243 564.776489,551.644165 574.060913,545.283630 
	C586.116699,537.024414 597.456543,527.719788 609.095398,518.853149 
	C610.467590,517.807800 611.782471,516.687256 612.971191,515.725159 
	C614.966370,520.899963 616.345154,525.738464 618.605713,530.122314 
	C628.682495,549.663757 650.007446,558.655396 674.439819,554.623474 
	C691.206238,551.856628 704.837463,543.314514 717.573669,532.868286 
	C723.717834,527.828735 729.575562,522.439880 735.287842,517.449585 
	C737.243042,523.160278 738.654968,529.039368 741.197754,534.380188 
	C748.697815,550.133606 760.852478,557.589783 776.263733,554.696472 
	C783.367432,553.362854 790.789856,550.215759 796.506592,545.847595 
	C804.620178,539.648132 811.473572,531.731995 818.509521,524.216187 
	C822.414612,520.044678 825.596252,515.195801 829.710999,509.865967 
	C829.824585,511.472198 829.837952,512.068665 829.912598,512.657410 
	C831.038940,521.532166 831.117676,530.707825 833.549805,539.210022 
	C837.328125,552.418457 847.937317,557.802429 861.263855,554.628723 
	C864.941284,553.752991 868.723389,552.454407 871.880798,550.444092 
	C877.757324,546.702454 883.498291,542.632263 888.789429,538.106934 
	C910.863098,519.228394 932.282776,499.709839 947.171631,474.232635 
	C947.755493,473.233490 948.988708,472.334534 950.108093,471.972656 
	C957.677856,469.525543 965.298462,467.235809 973.088928,465.063599 
	C973.406189,465.336243 973.537170,465.440491 973.520752,465.859955 
	C964.882446,480.114471 956.239807,494.182892 952.738770,510.219147 
	C950.693359,519.588196 945.686951,526.372314 939.610779,532.780396 
	C930.747681,542.127563 921.801086,551.453857 912.230469,560.055054 
	C903.151978,568.214050 893.503723,575.814331 883.609436,582.974121 
	C865.668823,595.956360 846.171265,606.213867 825.722839,614.748718 
	C797.558105,626.504272 768.548523,635.364746 738.372864,639.919922 
	C719.160583,642.820190 699.788086,644.655151 680.500671,647.073547 
	C679.600769,647.186401 678.830566,648.334229 678.000000,649.000000 
	C653.979126,649.000000 629.958191,649.000000 605.754761,648.621460 
	C604.719299,647.831604 603.892456,647.133789 603.009399,647.053467 
	C594.827332,646.309265 586.619324,645.826782 578.450745,644.965576 
	C567.063171,643.765137 555.586792,642.927246 544.354553,640.830139 
	C518.202637,635.947754 492.117645,630.406738 467.642731,619.623474 
	C459.107666,615.863037 450.127289,611.311646 443.794006,604.759460 
	C433.133789,593.730713 427.116516,579.400085 421.912842,564.922668 
	C411.412323,535.708313 404.975769,505.607697 402.033691,474.755127 
	C400.458069,458.232391 398.697174,441.686707 398.180969,425.115204 
	C397.680695,409.054779 398.615265,392.946655 399.035156,376.862488 
	C399.150940,372.427917 399.463440,367.974823 400.058624,363.580750 
	C401.942200,349.675049 403.442474,335.683594 406.135437,321.929840 
	C409.522675,304.630096 413.374817,287.376648 418.044525,270.382965 
	C425.508636,243.220016 436.683105,217.528122 450.468628,192.919281 
	C462.742950,171.008148 477.665009,151.081863 494.815552,132.881897 
	C503.624390,123.534050 513.237244,114.859520 523.090210,106.600731 
	C536.099426,95.696381 549.338440,84.993095 563.126343,75.106613 
	C588.695312,56.772617 616.171387,41.645645 645.431946,30.043297 
	C660.441345,24.091787 675.727966,18.671835 691.222473,14.154307 
	C710.254333,8.605450 729.611938,4.141920 749.536194,2.886683 
	C750.061646,2.853580 750.513672,1.655031 751.000000,0.999991 
M792.213074,348.357544 
	C792.213074,348.856873 792.199585,349.356659 792.215332,349.855499 
	C792.304749,352.693634 791.236267,355.780457 796.295349,355.876526 
	C801.643250,355.978058 800.661987,352.710724 800.701538,349.666748 
	C800.729553,347.503265 801.004761,345.289368 800.652771,343.184357 
	C799.464600,336.078674 802.990479,331.576355 808.981140,327.789001 
	C813.708923,335.382172 818.433655,342.982239 823.170776,350.574646 
	C826.794189,356.382050 828.873230,357.073364 836.055359,354.674622 
	C829.199646,343.622345 822.384583,332.635620 814.931030,320.619598 
	C820.777100,315.071167 826.603027,309.541870 832.926086,303.540741 
	C826.570801,302.542542 821.873291,302.905060 817.924011,307.843567 
	C814.204529,312.494598 809.574524,316.420349 805.314636,320.634399 
	C804.124451,321.811676 802.826660,322.880066 800.488892,324.974213 
	C800.488892,310.014832 800.488892,296.620239 800.488892,283.213440 
	C797.501648,283.213440 795.101318,283.213440 792.213135,283.213440 
	C792.213135,304.851654 792.213135,326.123535 792.213074,348.357544 
M682.164246,348.710022 
	C679.926086,346.063904 677.687988,343.417816 675.099731,340.357727 
	C673.396057,340.357727 670.805176,340.357727 668.223022,340.357727 
	C668.186157,348.672974 671.670776,354.084656 678.745850,356.398804 
	C685.946106,358.753906 693.221069,358.610779 700.268555,355.761780 
	C705.326843,353.716949 708.920898,350.118683 709.965637,344.548096 
	C711.457581,336.592834 708.303467,331.001282 700.322510,328.237518 
	C694.678406,326.283051 688.723633,325.225403 683.079834,323.270203 
	C678.083679,321.539368 676.661133,317.795837 678.865234,313.920593 
	C682.088989,308.252594 695.452759,307.646545 697.891663,313.607147 
	C700.234253,319.332703 703.788208,317.921936 707.717834,317.588501 
	C708.051453,310.524445 704.919495,304.833954 698.305237,303.406342 
	C692.797852,302.217682 686.702087,302.091431 681.164062,303.109985 
	C673.404968,304.536987 669.182312,310.493500 669.109375,317.606476 
	C669.039185,324.450317 672.127380,328.433502 680.176208,331.089508 
	C685.379211,332.806458 690.928467,333.587891 695.955688,335.673065 
	C698.248291,336.623993 701.181702,339.795380 701.071899,341.809631 
	C700.937805,344.269104 698.304932,348.010895 696.050110,348.627075 
	C691.948486,349.747955 687.328552,348.971802 682.164246,348.710022 
M733.473572,311.628113 
	C742.885864,307.004028 748.022034,309.302612 753.804688,320.683258 
	C756.122070,320.683258 758.407776,320.683258 761.245117,320.683258 
	C760.974426,318.620605 760.941406,316.820679 760.482178,315.137024 
	C758.461182,307.728394 753.150696,303.696594 745.973083,302.330170 
	C737.443665,300.706512 729.708557,302.465668 723.877014,309.509247 
	C715.752014,319.323059 715.355408,339.261841 723.037048,349.448120 
	C728.826843,357.125610 739.516418,360.002594 749.154541,356.477234 
	C756.940735,353.629272 761.833740,346.321655 761.519165,338.010254 
	C756.954102,336.974030 753.375916,337.032684 751.869202,342.920074 
	C750.707825,347.458282 746.804382,349.694611 742.008301,350.033264 
	C736.723633,350.406433 732.583679,348.481873 729.621338,344.086731 
	C724.253174,336.122070 725.131836,317.362915 733.473572,311.628113 
M867.820007,325.505066 
	C867.820557,332.824982 867.791809,340.145050 867.829773,347.464783 
	C867.870178,355.267639 870.948853,358.142914 878.899597,357.904816 
	C884.863892,357.726196 885.671448,356.508545 883.329590,351.227570 
	C880.709778,350.170471 876.485291,348.722992 876.409668,347.084076 
	C875.845642,334.859802 876.103210,322.597687 876.103210,310.215393 
	C879.211609,310.049011 881.774963,309.911835 884.659485,309.757446 
	C884.544922,307.301117 884.456360,305.402191 884.364075,303.422516 
	C881.386108,303.227600 878.950134,303.068176 876.006714,302.875549 
	C876.006714,298.243347 876.006714,293.825348 876.006714,289.223694 
	C873.088806,289.223694 870.703369,289.223694 867.739868,289.223694 
	C867.739868,293.925842 867.739868,298.331970 867.739868,302.801514 
	C865.231384,303.063202 863.291016,303.265594 861.159119,303.487976 
	C861.159119,305.740356 861.159119,307.745575 861.159119,309.740204 
	C863.513550,309.964294 865.442383,310.147858 867.819946,310.374146 
	C867.819946,315.258118 867.819946,319.882935 867.820007,325.505066 
M771.011719,311.579224 
	C771.011719,326.123383 771.011719,340.667511 771.011719,355.292725 
	C774.089478,355.292725 776.474243,355.292725 778.799194,355.292725 
	C778.799194,337.751251 778.799194,320.607452 778.799194,303.472839 
	C776.042053,303.472839 773.787781,303.472839 771.011719,303.472839 
	C771.011719,306.047974 771.011719,308.329010 771.011719,311.579224 
M843.824341,341.493164 
	C843.824341,346.080627 843.824341,350.668121 843.824341,355.242004 
	C847.010620,355.242004 849.385620,355.242004 851.665161,355.242004 
	C851.665161,337.719666 851.665161,320.640533 851.665161,303.607910 
	C848.902222,303.607910 846.524048,303.607910 843.824280,303.607910 
	C843.824280,316.190369 843.824280,328.342743 843.824341,341.493164 
M775.503723,293.175812 
	C783.383423,292.147156 777.162048,286.533325 779.765503,283.297363 
	C776.174133,283.297363 773.692444,283.297363 770.957336,283.297363 
	C770.957336,285.837555 771.096558,287.971863 770.923340,290.080505 
	C770.686768,292.961487 772.318970,293.364227 775.503723,293.175812 
M843.761841,284.678192 
	C843.761841,287.393799 843.761841,290.109406 843.761841,292.828247 
	C846.892090,292.828247 849.262695,292.828247 851.743286,292.828247 
	C851.743286,289.438812 851.743286,286.402344 851.743286,282.584991 
	C848.907776,283.009033 846.440857,283.377960 843.761841,284.678192 
z"/>
<path fill="#000000" opacity="1.000000" stroke="none" 
	d="
M750.531372,0.999991 
	C750.513672,1.655031 750.061646,2.853580 749.536194,2.886683 
	C729.611938,4.141920 710.254333,8.605450 691.222473,14.154307 
	C675.727966,18.671835 660.441345,24.091787 645.431946,30.043297 
	C616.171387,41.645645 588.695312,56.772617 563.126343,75.106613 
	C549.338440,84.993095 536.099426,95.696381 523.090210,106.600731 
	C513.237244,114.859520 503.624390,123.534050 494.815552,132.881897 
	C477.665009,151.081863 462.742950,171.008148 450.468628,192.919281 
	C436.683105,217.528122 425.508636,243.220016 418.044525,270.382965 
	C413.374817,287.376648 409.522675,304.630096 406.135437,321.929840 
	C403.442474,335.683594 401.942200,349.675049 400.058624,363.580750 
	C399.463440,367.974823 399.150940,372.427917 399.035156,376.862488 
	C398.615265,392.946655 397.680695,409.054779 398.180969,425.115204 
	C398.697174,441.686707 400.458069,458.232391 402.033691,474.755127 
	C404.975769,505.607697 411.412323,535.708313 421.912842,564.922668 
	C427.116516,579.400085 433.133789,593.730713 443.794006,604.759460 
	C450.127289,611.311646 459.107666,615.863037 467.642731,619.623474 
	C492.117645,630.406738 518.202637,635.947754 544.354553,640.830139 
	C555.586792,642.927246 567.063171,643.765137 578.450745,644.965576 
	C586.619324,645.826782 594.827332,646.309265 603.009399,647.053467 
	C603.892456,647.133789 604.719299,647.831604 605.286133,648.621460 
	C403.775726,649.000000 202.551422,649.000000 1.000000,649.000000 
	C1.000000,581.312805 1.000000,513.625061 1.359002,445.184265 
	C2.133089,445.104736 2.832313,445.742615 2.922086,446.457031 
	C5.880299,469.998871 13.534661,492.108856 23.815805,513.316528 
	C31.844408,529.877747 41.536518,545.438904 53.173164,559.808105 
	C62.741993,571.623840 72.750984,582.885986 84.250320,592.925354 
	C100.582451,607.183899 119.119408,617.596680 139.104065,625.429260 
	C167.195068,636.438904 196.632141,641.467041 226.647202,642.864746 
	C237.535812,643.371826 248.524109,642.713684 259.416351,641.905457 
	C271.480682,641.010315 283.571747,639.847046 295.498169,637.875122 
	C311.905273,635.162231 327.958191,630.874390 342.634003,622.670532 
	C346.297577,620.622498 350.668549,618.607239 352.809814,615.331787 
	C356.942383,609.010193 360.280792,602.013794 362.954498,594.922363 
	C372.461273,569.707581 375.559296,543.164368 376.724243,516.556335 
	C377.503448,498.758423 376.589783,480.746277 374.697510,463.015289 
	C373.151581,448.529175 369.472046,434.209686 365.966187,420.006927 
	C359.310150,393.042450 347.069183,368.545258 328.798096,347.761536 
	C317.726013,335.166779 305.006500,323.700500 291.685211,313.475494 
	C270.067108,296.882111 246.073242,284.131531 220.057617,275.550079 
	C205.680450,270.807678 190.981491,267.707428 175.905365,265.825409 
	C159.590851,263.788818 143.371521,263.867859 127.237206,266.173370 
	C108.301369,268.879150 90.244827,274.687378 73.473839,284.164703 
	C54.307346,294.995728 38.292912,309.426117 26.215168,327.703705 
	C14.067238,346.087463 5.953016,366.306061 2.907125,388.343536 
	C2.820332,388.971527 1.659842,389.451172 0.999997,390.000000 
	C1.000000,260.383148 1.000000,130.766281 1.000000,1.000000 
	C250.687546,1.000000 500.375122,1.000000 750.531372,0.999991 
z"/>
<path fill="#010100" opacity="1.000000" stroke="none" 
	d="
M972.902649,464.895172 
	C965.298462,467.235809 957.677856,469.525543 950.108093,471.972656 
	C948.988708,472.334534 947.755493,473.233490 947.171631,474.232635 
	C932.282776,499.709839 910.863098,519.228394 888.789429,538.106934 
	C883.498291,542.632263 877.757324,546.702454 871.880798,550.444092 
	C868.723389,552.454407 864.941284,553.752991 861.263855,554.628723 
	C847.937317,557.802429 837.328125,552.418457 833.549805,539.210022 
	C831.117676,530.707825 831.038940,521.532166 829.912598,512.657410 
	C829.837952,512.068665 829.824585,511.472198 829.710999,509.865967 
	C825.596252,515.195801 822.414612,520.044678 818.509521,524.216187 
	C811.473572,531.731995 804.620178,539.648132 796.506592,545.847595 
	C790.789856,550.215759 783.367432,553.362854 776.263733,554.696472 
	C760.852478,557.589783 748.697815,550.133606 741.197754,534.380188 
	C738.654968,529.039368 737.243042,523.160278 735.287842,517.449585 
	C729.575562,522.439880 723.717834,527.828735 717.573669,532.868286 
	C704.837463,543.314514 691.206238,551.856628 674.439819,554.623474 
	C650.007446,558.655396 628.682495,549.663757 618.605713,530.122314 
	C616.345154,525.738464 614.966370,520.899963 612.971191,515.725159 
	C611.782471,516.687256 610.467590,517.807800 609.095398,518.853149 
	C597.456543,527.719788 586.116699,537.024414 574.060913,545.283630 
	C564.776489,551.644165 554.109558,555.099243 542.610413,555.340881 
	C525.586182,555.698608 512.150635,546.118225 505.981720,529.071289 
	C501.805878,517.531738 501.530762,505.594452 502.469269,493.553345 
	C505.768005,451.230377 518.930847,411.503418 534.753845,372.544464 
	C539.941040,359.772583 546.102661,347.388336 552.094238,334.959625 
	C553.047729,332.981689 555.192017,331.022675 557.242004,330.219574 
	C569.470276,325.429108 581.825134,320.960663 594.152710,316.425507 
	C600.455933,314.106659 604.323792,315.261597 606.253662,321.712189 
	C608.272461,328.460052 609.688049,335.683502 609.669373,342.694580 
	C609.590088,372.494965 600.535461,399.865143 583.988403,424.365692 
	C573.116333,440.463470 560.381836,455.297455 548.684143,470.849945 
	C546.919373,473.196198 545.402344,476.329315 545.249939,479.177582 
	C544.752991,488.461731 544.882935,497.782776 544.916748,507.089111 
	C544.923218,508.882111 545.482910,510.700958 545.962585,512.460022 
	C550.136169,527.764648 561.077698,533.592896 575.239502,526.396973 
	C584.137268,521.875854 591.773132,514.827026 599.849182,508.745026 
	C608.139771,502.501526 612.872620,494.925415 614.794006,483.893341 
	C619.305359,457.990143 634.217224,437.847961 655.427673,422.619812 
	C668.481934,413.247498 683.202393,409.203979 699.365540,411.879639 
	C722.118591,415.646210 731.991150,437.802582 719.581604,457.299225 
	C713.490906,466.868469 704.761353,473.716949 694.773621,478.440552 
	C682.486328,484.251740 669.648804,488.900940 657.036743,494.021820 
	C655.517578,494.638672 653.921326,495.065552 652.410522,495.564056 
	C654.514954,520.695374 677.978638,534.755127 701.559509,524.883789 
	C715.269775,519.144470 724.928711,507.987976 735.249939,497.870422 
	C736.564819,496.581390 736.495422,493.852295 737.006531,491.775391 
	C746.788940,452.026794 771.394104,425.470032 809.805176,412.377106 
	C828.074890,406.149597 839.615234,411.725922 851.068726,428.784912 
	C865.655334,424.078491 876.580505,410.634583 894.083679,410.558960 
	C892.103271,417.275177 890.273071,423.220612 888.597717,429.209381 
	C882.194092,452.100616 875.578064,474.938324 869.655640,497.954132 
	C868.208984,503.576111 868.399780,509.882050 869.096130,515.723511 
	C869.888245,522.368896 875.144592,525.153687 881.662598,523.189514 
	C884.314148,522.390564 887.089233,521.212097 889.176636,519.455811 
	C905.923584,505.364838 921.482422,490.136169 933.560181,471.712341 
	C933.320312,471.381409 933.198059,471.054993 932.963806,470.912292 
	C920.277222,463.183289 916.927124,456.316101 921.330078,442.194824 
	C923.753784,434.421570 927.863403,426.916443 932.478760,420.154449 
	C937.379395,412.974396 945.265442,410.386536 954.010132,410.930084 
	C960.810608,411.352844 965.423950,415.181580 964.894958,421.976624 
	C964.257019,430.170990 962.130310,438.259003 960.481384,446.359070 
	C960.003906,448.704987 958.953857,450.934387 957.996826,453.708252 
	C969.183105,452.407471 978.218445,447.764038 985.154724,440.153625 
	C991.832764,432.826569 997.623474,424.613739 1003.151184,416.353241 
	C1005.363953,413.046539 1007.419861,411.207336 1011.331238,411.526062 
	C1016.133728,411.917450 1018.574097,410.136505 1020.653748,405.175720 
	C1029.061890,385.119080 1035.750488,364.502502 1040.650269,343.413879 
	C1044.141479,328.387360 1046.243652,312.957611 1047.821167,297.590302 
	C1049.320312,282.986877 1050.231812,268.200958 1049.744751,253.550385 
	C1049.262573,239.046677 1046.989258,224.573364 1045.005615,210.154953 
	C1041.090820,181.699326 1031.655518,154.902557 1017.739319,129.967270 
	C1009.932190,115.978432 1000.328430,102.850365 990.383789,90.241760 
	C982.582092,80.350136 973.767456,70.932663 964.043762,62.962719 
	C951.495117,52.677296 937.902405,43.556820 924.190247,34.828621 
	C908.537720,24.865278 891.289917,17.915815 873.417480,13.187490 
	C857.442749,8.961229 841.044189,6.339230 824.843506,2.957670 
	C823.950684,2.771312 823.156921,2.110752 822.658508,1.335460 
	C948.964417,1.000000 1074.928833,1.000000 1200.946655,1.000000 
	C1200.946655,216.903427 1200.946655,432.806885 1200.946655,649.000000 
	C1026.979248,649.000000 852.958252,649.000000 678.468628,649.000000 
	C678.830566,648.334229 679.600769,647.186401 680.500671,647.073547 
	C699.788086,644.655151 719.160583,642.820190 738.372864,639.919922 
	C768.548523,635.364746 797.558105,626.504272 825.722839,614.748718 
	C846.171265,606.213867 865.668823,595.956360 883.609436,582.974121 
	C893.503723,575.814331 903.151978,568.214050 912.230469,560.055054 
	C921.801086,551.453857 930.747681,542.127563 939.610779,532.780396 
	C945.686951,526.372314 950.693359,519.588196 952.738770,510.219147 
	C956.239807,494.182892 964.882446,480.114471 973.651489,465.643616 
	C973.876709,464.880890 973.823792,464.649719 973.770874,464.418549 
	C973.481445,464.577423 973.192078,464.736298 972.902649,464.895172 
M815.564331,425.858734 
	C811.751953,428.760620 807.136536,431.028320 804.260559,434.669708 
	C788.406433,454.742920 778.615601,477.352295 777.654175,503.248901 
	C777.354980,511.308472 779.193298,518.947571 787.144592,522.690063 
	C795.288757,526.523315 802.468506,522.899902 808.601562,517.462341 
	C811.807068,514.620361 814.561890,511.184814 817.119507,507.721436 
	C819.580383,504.389038 821.738892,500.787048 823.659729,497.109955 
	C832.771973,479.666260 839.581726,461.519348 838.892456,441.429138 
	C838.416626,427.561493 829.484558,421.442230 815.564331,425.858734 
M564.984924,388.442017 
	C559.896667,408.454163 554.808411,428.466278 549.720154,448.478424 
	C550.148315,448.646820 550.576538,448.815247 551.004761,448.983643 
	C552.620605,447.119659 554.282227,445.293213 555.845093,443.385834 
	C568.689026,427.710846 579.002930,410.502075 586.691833,391.763458 
	C592.523926,377.550018 597.315979,363.021057 597.023315,347.395447 
	C596.962585,344.155945 596.329346,340.728363 595.080872,337.756836 
	C593.244385,333.385559 589.915161,332.912567 587.049744,336.608002 
	C584.324890,340.122101 581.740173,343.962311 580.103027,348.062134 
	C574.872864,361.159454 570.111572,374.444061 564.984924,388.442017 
M689.700195,427.884216 
	C683.847290,422.917755 676.887268,422.938141 670.427917,428.925415 
	C654.430359,443.753845 650.840820,463.099640 650.729797,484.304138 
	C663.674927,480.431580 675.185486,475.565796 683.854492,465.668213 
	C693.041748,455.179016 695.711121,439.126892 689.700195,427.884216 
z"/>
<path fill="#3499CD" opacity="1.000000" stroke="none" 
	d="
M0.999997,390.468658 
	C1.659842,389.451172 2.820332,388.971527 2.907125,388.343536 
	C5.953016,366.306061 14.067238,346.087463 26.215168,327.703705 
	C38.292912,309.426117 54.307346,294.995728 73.473839,284.164703 
	C90.244827,274.687378 108.301369,268.879150 127.237206,266.173370 
	C143.371521,263.867859 159.590851,263.788818 175.905365,265.825409 
	C190.981491,267.707428 205.680450,270.807678 220.057617,275.550079 
	C246.073242,284.131531 270.067108,296.882111 291.685211,313.475494 
	C305.006500,323.700500 317.726013,335.166779 328.798096,347.761536 
	C347.069183,368.545258 359.310150,393.042450 365.966187,420.006927 
	C369.472046,434.209686 373.151581,448.529175 374.697510,463.015289 
	C376.589783,480.746277 377.503448,498.758423 376.724243,516.556335 
	C375.559296,543.164368 372.461273,569.707581 362.954498,594.922363 
	C360.280792,602.013794 356.942383,609.010193 352.809814,615.331787 
	C350.668549,618.607239 346.297577,620.622498 342.634003,622.670532 
	C327.958191,630.874390 311.905273,635.162231 295.498169,637.875122 
	C283.571747,639.847046 271.480682,641.010315 259.416351,641.905457 
	C248.524109,642.713684 237.535812,643.371826 226.647202,642.864746 
	C196.632141,641.467041 167.195068,636.438904 139.104065,625.429260 
	C119.119408,617.596680 100.582451,607.183899 84.250320,592.925354 
	C72.750984,582.885986 62.741993,571.623840 53.173164,559.808105 
	C41.536518,545.438904 31.844408,529.877747 23.815805,513.316528 
	C13.534661,492.108856 5.880299,469.998871 2.922086,446.457031 
	C2.832313,445.742615 2.133089,445.104736 1.359002,444.715576 
	C1.000000,426.979095 1.000000,408.958221 0.999997,390.468658 
z"/>
<path fill="#FFF9F4" opacity="1.000000" stroke="none" 
	d="
M792.213135,347.876465 
	C792.213135,326.123535 792.213135,304.851654 792.213135,283.213440 
	C795.101318,283.213440 797.501648,283.213440 800.488892,283.213440 
	C800.488892,296.620239 800.488892,310.014832 800.488892,324.974213 
	C802.826660,322.880066 804.124451,321.811676 805.314636,320.634399 
	C809.574524,316.420349 814.204529,312.494598 817.924011,307.843567 
	C821.873291,302.905060 826.570801,302.542542 832.926086,303.540741 
	C826.603027,309.541870 820.777100,315.071167 814.931030,320.619598 
	C822.384583,332.635620 829.199646,343.622345 836.055359,354.674622 
	C828.873230,357.073364 826.794189,356.382050 823.170776,350.574646 
	C818.433655,342.982239 813.708923,335.382172 808.981140,327.789001 
	C802.990479,331.576355 799.464600,336.078674 800.652771,343.184357 
	C801.004761,345.289368 800.729553,347.503265 800.701538,349.666748 
	C800.661987,352.710724 801.643250,355.978058 796.295349,355.876526 
	C791.236267,355.780457 792.304749,352.693634 792.215332,349.855499 
	C792.199585,349.356659 792.213074,348.856873 792.213135,347.876465 
z"/>
<path fill="#FFFCF9" opacity="1.000000" stroke="none" 
	d="
M682.544556,348.848633 
	C687.328552,348.971802 691.948486,349.747955 696.050110,348.627075 
	C698.304932,348.010895 700.937805,344.269104 701.071899,341.809631 
	C701.181702,339.795380 698.248291,336.623993 695.955688,335.673065 
	C690.928467,333.587891 685.379211,332.806458 680.176208,331.089508 
	C672.127380,328.433502 669.039185,324.450317 669.109375,317.606476 
	C669.182312,310.493500 673.404968,304.536987 681.164062,303.109985 
	C686.702087,302.091431 692.797852,302.217682 698.305237,303.406342 
	C704.919495,304.833954 708.051453,310.524445 707.717834,317.588501 
	C703.788208,317.921936 700.234253,319.332703 697.891663,313.607147 
	C695.452759,307.646545 682.088989,308.252594 678.865234,313.920593 
	C676.661133,317.795837 678.083679,321.539368 683.079834,323.270203 
	C688.723633,325.225403 694.678406,326.283051 700.322510,328.237518 
	C708.303467,331.001282 711.457581,336.592834 709.965637,344.548096 
	C708.920898,350.118683 705.326843,353.716949 700.268555,355.761780 
	C693.221069,358.610779 685.946106,358.753906 678.745850,356.398804 
	C671.670776,354.084656 668.186157,348.672974 668.223022,340.357727 
	C670.805176,340.357727 673.396057,340.357727 675.099731,340.357727 
	C677.687988,343.417816 679.926086,346.063904 682.544556,348.848633 
z"/>
<path fill="#FFFCF9" opacity="1.000000" stroke="none" 
	d="
M733.154175,311.849854 
	C725.131836,317.362915 724.253174,336.122070 729.621338,344.086731 
	C732.583679,348.481873 736.723633,350.406433 742.008301,350.033264 
	C746.804382,349.694611 750.707825,347.458282 751.869202,342.920074 
	C753.375916,337.032684 756.954102,336.974030 761.519226,338.010376 
	C761.833740,346.321655 756.940735,353.629272 749.154541,356.477234 
	C739.516418,360.002594 728.826843,357.125610 723.037048,349.448120 
	C715.355408,339.261841 715.752014,319.323059 723.877014,309.509247 
	C729.708557,302.465668 737.443665,300.706512 745.973083,302.330170 
	C753.150696,303.696594 758.461182,307.728394 760.482178,315.137024 
	C760.941406,316.820679 760.974426,318.620605 761.245117,320.683258 
	C758.407776,320.683258 756.122070,320.683258 753.804688,320.683258 
	C748.022034,309.302612 742.885864,307.004028 733.154175,311.849854 
z"/>
<path fill="#FFFDFB" opacity="1.000000" stroke="none" 
	d="
M867.819946,325.006409 
	C867.819946,319.882935 867.819946,315.258118 867.819946,310.374146 
	C865.442383,310.147858 863.513550,309.964294 861.159119,309.740204 
	C861.159119,307.745575 861.159119,305.740356 861.159119,303.487976 
	C863.291016,303.265594 865.231384,303.063202 867.739868,302.801514 
	C867.739868,298.331970 867.739868,293.925842 867.739868,289.223694 
	C870.703369,289.223694 873.088806,289.223694 876.006714,289.223694 
	C876.006714,293.825348 876.006714,298.243347 876.006714,302.875549 
	C878.950134,303.068176 881.386108,303.227600 884.364075,303.422516 
	C884.456360,305.402191 884.544922,307.301117 884.659485,309.757446 
	C881.774963,309.911835 879.211609,310.049011 876.103210,310.215393 
	C876.103210,322.597687 875.845642,334.859802 876.409668,347.084076 
	C876.485291,348.722992 880.709778,350.170471 883.329590,351.227570 
	C885.671448,356.508545 884.863892,357.726196 878.899597,357.904816 
	C870.948853,358.142914 867.870178,355.267639 867.829773,347.464783 
	C867.791809,340.145050 867.820557,332.824982 867.819946,325.006409 
z"/>
<path fill="#FFFDFB" opacity="1.000000" stroke="none" 
	d="
M771.011719,311.094635 
	C771.011719,308.329010 771.011719,306.047974 771.011719,303.472839 
	C773.787781,303.472839 776.042053,303.472839 778.799194,303.472839 
	C778.799194,320.607452 778.799194,337.751251 778.799194,355.292725 
	C776.474243,355.292725 774.089478,355.292725 771.011719,355.292725 
	C771.011719,340.667511 771.011719,326.123383 771.011719,311.094635 
z"/>
<path fill="#FFFEFD" opacity="1.000000" stroke="none" 
	d="
M843.824341,340.994141 
	C843.824280,328.342743 843.824280,316.190369 843.824280,303.607910 
	C846.524048,303.607910 848.902222,303.607910 851.665161,303.607910 
	C851.665161,320.640533 851.665161,337.719666 851.665161,355.242004 
	C849.385620,355.242004 847.010620,355.242004 843.824341,355.242004 
	C843.824341,350.668121 843.824341,346.080627 843.824341,340.994141 
z"/>
<path fill="#FFFFFF" opacity="1.000000" stroke="none" 
	d="
M775.035278,293.175842 
	C772.318970,293.364227 770.686768,292.961487 770.923340,290.080505 
	C771.096558,287.971863 770.957336,285.837555 770.957336,283.297363 
	C773.692444,283.297363 776.174133,283.297363 779.765503,283.297363 
	C777.162048,286.533325 783.383423,292.147156 775.035278,293.175842 
z"/>
<path fill="#FFFFFF" opacity="1.000000" stroke="none" 
	d="
M843.867859,284.212524 
	C846.440857,283.377960 848.907776,283.009033 851.743286,282.584991 
	C851.743286,286.402344 851.743286,289.438812 851.743286,292.828247 
	C849.262695,292.828247 846.892090,292.828247 843.761841,292.828247 
	C843.761841,290.109406 843.761841,287.393799 843.867859,284.212524 
z"/>
<path fill="#F69839" opacity="1.000000" stroke="none" 
	d="
M815.921509,425.698151 
	C829.484558,421.442230 838.416626,427.561493 838.892456,441.429138 
	C839.581726,461.519348 832.771973,479.666260 823.659729,497.109955 
	C821.738892,500.787048 819.580383,504.389038 817.119507,507.721436 
	C814.561890,511.184814 811.807068,514.620361 808.601562,517.462341 
	C802.468506,522.899902 795.288757,526.523315 787.144592,522.690063 
	C779.193298,518.947571 777.354980,511.308472 777.654175,503.248901 
	C778.615601,477.352295 788.406433,454.742920 804.260559,434.669708 
	C807.136536,431.028320 811.751953,428.760620 815.921509,425.698151 
z"/>
<path fill="#F49738" opacity="1.000000" stroke="none" 
	d="
M565.077087,388.049194 
	C570.111572,374.444061 574.872864,361.159454 580.103027,348.062134 
	C581.740173,343.962311 584.324890,340.122101 587.049744,336.608002 
	C589.915161,332.912567 593.244385,333.385559 595.080872,337.756836 
	C596.329346,340.728363 596.962585,344.155945 597.023315,347.395447 
	C597.315979,363.021057 592.523926,377.550018 586.691833,391.763458 
	C579.002930,410.502075 568.689026,427.710846 555.845093,443.385834 
	C554.282227,445.293213 552.620605,447.119659 551.004761,448.983643 
	C550.576538,448.815247 550.148315,448.646820 549.720154,448.478424 
	C554.808411,428.466278 559.896667,408.454163 565.077087,388.049194 
z"/>
<path fill="#F59738" opacity="1.000000" stroke="none" 
	d="
M689.917908,428.196289 
	C695.711121,439.126892 693.041748,455.179016 683.854492,465.668213 
	C675.185486,475.565796 663.674927,480.431580 650.729797,484.304138 
	C650.840820,463.099640 654.430359,443.753845 670.427917,428.925415 
	C676.887268,422.938141 683.847290,422.917755 689.917908,428.196289 
z"/>
<path fill="#F89939" opacity="1.000000" stroke="none" 
	d="
M973.088928,465.063599 
	C973.192078,464.736298 973.481445,464.577423 973.770874,464.418549 
	C973.823792,464.649719 973.876709,464.880890 973.798828,465.328400 
	C973.537170,465.440491 973.406189,465.336243 973.088928,465.063599 
z"/>
</svg>