<svg version="1.1" id="Layer_1" xmlns="http://www.w3.org/2000/svg" xmlns:xlink="http://www.w3.org/1999/xlink" x="0px" y="0px"
	 width="100%" viewBox="0 0 360 360" enable-background="new 0 0 360 360" xml:space="preserve">
<path fill="#000000" opacity="1.000000" stroke="none" 
	d="
M234.000000,361.000000 
	C156.026901,361.000000 78.553818,361.000000 1.040362,361.000000 
	C1.040362,241.068588 1.040362,121.137146 1.040362,1.102857 
	C120.889679,1.102857 240.779480,1.102857 360.834656,1.102857 
	C360.834656,120.999809 360.834656,240.999893 360.834656,361.000000 
	C318.803925,361.000000 276.651947,361.000000 234.000000,361.000000 
M167.806198,281.941559 
	C159.719009,281.967438 151.624908,281.827759 143.550720,282.165039 
	C142.017380,282.229095 139.677109,283.920441 139.262741,285.320679 
	C138.480911,287.962524 140.448822,289.112671 144.009247,288.946289 
	C169.641846,288.912994 195.274429,288.879700 221.716934,288.937775 
	C224.293137,289.201294 226.437073,288.263672 225.740784,285.512512 
	C225.380539,284.089172 223.078476,282.220337 221.598373,282.169678 
	C212.126434,281.845520 202.639130,281.970367 193.420670,281.168274 
	C193.620529,279.209656 194.023270,277.247223 193.986694,275.293030 
	C193.779510,264.220825 193.467117,253.150635 193.862778,241.724609 
	C194.640060,241.484497 195.401611,241.144958 196.196991,241.019073 
	C210.801666,238.707397 221.973572,231.193024 230.056152,218.881790 
	C236.813599,208.588959 238.417191,197.202423 238.074661,185.152847 
	C237.702011,172.043518 237.990067,172.035324 250.851883,171.999420 
	C251.018524,171.998947 251.188583,171.976456 251.351303,172.001511 
	C256.817047,172.842972 260.443054,170.849197 261.628143,163.563919 
	C263.364044,170.979614 264.354919,176.881104 266.269073,182.466156 
	C266.921295,184.369141 269.772095,186.353180 271.852081,186.647385 
	C273.309113,186.853485 276.074066,184.564148 276.654114,182.848160 
	C277.961670,178.979843 278.269867,174.774628 278.995178,170.708374 
	C279.978760,165.194107 280.972137,159.681564 281.961334,154.168289 
	C284.673523,166.197083 286.548920,178.089233 288.485992,189.971313 
	C288.961182,192.886017 289.735229,195.135300 293.728424,195.136642 
	C297.613739,195.137955 299.194550,193.388260 299.833099,190.115112 
	C300.971741,184.278442 301.957184,178.412033 303.070251,172.570190 
	C304.778839,163.603378 304.801666,163.607529 313.864716,162.974915 
	C314.362915,162.940140 315.021210,163.104721 315.330231,162.847015 
	C316.251678,162.078583 317.793915,161.048401 317.697601,160.300171 
	C317.551147,159.162704 316.383606,157.488617 315.378693,157.265991 
	C313.147217,156.771698 310.746338,156.967484 308.416473,157.004257 
	C296.018982,157.199921 297.847656,154.999237 294.290924,168.679047 
	C292.099274,155.232101 289.936127,142.602386 288.048645,129.931580 
	C287.571838,126.730583 286.338074,125.215157 283.071960,124.979294 
	C279.592529,124.728020 277.663971,126.181519 277.120209,129.493866 
	C276.343903,134.222794 275.829376,138.998093 274.944336,143.704941 
	C273.883514,149.346619 272.550537,154.937119 271.335388,160.549789 
	C269.456390,156.267029 268.812103,151.970245 267.282043,148.016251 
	C266.631012,146.333786 264.211182,144.520706 262.437286,144.342987 
	C260.990540,144.198059 258.595764,146.066498 257.872040,147.623550 
	C256.069427,151.501602 254.787231,155.658798 253.661926,159.803253 
	C252.660492,163.491592 251.065918,165.523117 246.772293,165.085464 
	C242.650421,164.665359 238.437866,165.218811 234.287430,164.971207 
	C230.294052,164.732956 228.963623,166.623947 228.983856,170.245712 
	C229.025757,177.744232 229.004730,185.243164 228.992203,192.741913 
	C228.964111,209.571442 216.870605,226.158173 201.106094,232.221237 
	C192.352356,235.587906 183.400986,235.551224 174.565323,234.758133 
	C167.981583,234.167160 160.966187,232.480453 155.247391,229.297562 
	C139.883896,220.746704 132.906158,206.844894 132.990280,189.333359 
	C133.020691,183.001221 132.948517,176.668381 133.007889,170.336655 
	C133.041870,166.712204 131.779358,164.758911 127.742218,164.978714 
	C123.423241,165.213882 119.060081,164.742249 114.753571,165.070038 
	C110.958046,165.358948 109.426880,163.688400 108.543648,160.290359 
	C107.505814,156.297485 105.940575,152.444778 104.727676,148.493332 
	C103.850479,145.635513 102.318535,143.907227 99.069496,144.061996 
	C95.621429,144.226257 94.782082,146.684601 94.125977,149.343216 
	C93.207741,153.064072 92.348984,156.799606 91.464783,160.528870 
	C88.499817,150.326706 86.711960,140.170609 84.959290,130.008453 
	C84.418671,126.873833 83.152802,124.831779 79.451691,124.969070 
	C76.049797,125.095268 74.459824,126.366905 73.937706,129.912125 
	C72.069832,142.595261 69.891190,155.232651 67.621292,169.169312 
	C66.858635,165.630432 66.653358,163.275696 65.800140,161.185440 
	C65.175865,159.656052 63.785229,157.416428 62.588894,157.319946 
	C57.294125,156.893021 51.938683,156.984177 46.624680,157.261337 
	C45.740883,157.307419 44.456139,159.136246 44.298168,160.272186 
	C44.194256,161.019394 45.648525,162.512070 46.637165,162.765549 
	C48.364746,163.208496 50.287666,163.128510 52.099129,162.956299 
	C56.024635,162.583099 57.573814,164.076523 58.147202,168.156433 
	C59.246094,175.975494 60.945175,183.730392 62.854202,191.397659 
	C63.218597,192.861191 65.586258,194.595947 67.224991,194.828339 
	C72.215675,195.536102 73.108353,194.046967 74.013435,187.622131 
	C75.625626,176.177689 77.559464,164.778580 79.358780,153.360504 
	C81.604912,162.753357 83.404861,172.138657 84.943253,181.566635 
	C85.477951,184.843445 86.899727,186.842560 90.266701,186.936966 
	C93.580994,187.029892 95.344620,185.258148 96.042831,181.976761 
	C97.247696,176.314224 98.723434,170.709320 100.085533,165.080246 
	C101.694565,170.587753 105.163322,172.409424 110.335091,172.034500 
	C113.152977,171.830200 116.024429,172.247711 118.824913,171.947723 
	C123.101555,171.489609 123.997391,173.315948 124.139320,177.334717 
	C124.464760,186.548843 122.867462,195.762238 125.858894,204.997253 
	C131.724945,223.106689 142.890762,235.287201 161.591187,240.076309 
	C163.796722,240.641129 165.965240,241.350494 168.050415,242.815506 
	C168.077911,245.245377 168.092545,247.675476 168.135147,250.105072 
	C168.321060,260.707489 168.515106,271.309753 167.806198,281.941559 
M180.520859,230.936111 
	C184.644623,230.622696 188.770462,230.334351 192.891769,229.991516 
	C210.304871,228.542984 225.983658,211.595963 225.984146,194.215622 
	C225.984863,167.741592 225.562607,141.259277 226.100494,114.796356 
	C226.480927,96.080864 212.633575,78.787613 194.328537,74.442734 
	C180.973465,71.272774 167.811600,72.943581 155.985580,80.192032 
	C144.786316,87.056335 136.425110,96.683922 136.181442,110.425377 
	C135.676727,138.888397 135.819809,167.368729 136.129639,195.837219 
	C136.237137,205.713623 141.191086,213.961044 148.332489,220.501328 
	C157.080856,228.513275 167.913116,231.154144 180.520859,230.936111 
z"/>
<path fill="#0F396A" opacity="1.000000" stroke="none" 
	d="
M168.150925,241.992859 
	C165.965240,241.350494 163.796722,240.641129 161.591187,240.076309 
	C142.890762,235.287201 131.724945,223.106689 125.858894,204.997253 
	C122.867462,195.762238 124.464760,186.548843 124.139320,177.334717 
	C123.997391,173.315948 123.101555,171.489609 118.824913,171.947723 
	C116.024429,172.247711 113.152977,171.830200 110.335091,172.034500 
	C105.163322,172.409424 101.694565,170.587753 100.085533,165.080246 
	C98.723434,170.709320 97.247696,176.314224 96.042831,181.976761 
	C95.344620,185.258148 93.580994,187.029892 90.266701,186.936966 
	C86.899727,186.842560 85.477951,184.843445 84.943253,181.566635 
	C83.404861,172.138657 81.604912,162.753357 79.358780,153.360504 
	C77.559464,164.778580 75.625626,176.177689 74.013435,187.622131 
	C73.108353,194.046967 72.215675,195.536102 67.224991,194.828339 
	C65.586258,194.595947 63.218597,192.861191 62.854202,191.397659 
	C60.945175,183.730392 59.246094,175.975494 58.147202,168.156433 
	C57.573814,164.076523 56.024635,162.583099 52.099129,162.956299 
	C50.287666,163.128510 48.364746,163.208496 46.637165,162.765549 
	C45.648525,162.512070 44.194256,161.019394 44.298168,160.272186 
	C44.456139,159.136246 45.740883,157.307419 46.624680,157.261337 
	C51.938683,156.984177 57.294125,156.893021 62.588894,157.319946 
	C63.785229,157.416428 65.175865,159.656052 65.800140,161.185440 
	C66.653358,163.275696 66.858635,165.630432 67.621292,169.169312 
	C69.891190,155.232651 72.069832,142.595261 73.937706,129.912125 
	C74.459824,126.366905 76.049797,125.095268 79.451691,124.969070 
	C83.152802,124.831779 84.418671,126.873833 84.959290,130.008453 
	C86.711960,140.170609 88.499817,150.326706 91.464783,160.528870 
	C92.348984,156.799606 93.207741,153.064072 94.125977,149.343216 
	C94.782082,146.684601 95.621429,144.226257 99.069496,144.061996 
	C102.318535,143.907227 103.850479,145.635513 104.727676,148.493332 
	C105.940575,152.444778 107.505814,156.297485 108.543648,160.290359 
	C109.426880,163.688400 110.958046,165.358948 114.753571,165.070038 
	C119.060081,164.742249 123.423241,165.213882 127.742218,164.978714 
	C131.779358,164.758911 133.041870,166.712204 133.007889,170.336655 
	C132.948517,176.668381 133.020691,183.001221 132.990280,189.333359 
	C132.906158,206.844894 139.883896,220.746704 155.247391,229.297562 
	C160.966187,232.480453 167.981583,234.167160 174.565323,234.758133 
	C183.400986,235.551224 192.352356,235.587906 201.106094,232.221237 
	C216.870605,226.158173 228.964111,209.571442 228.992203,192.741913 
	C229.004730,185.243164 229.025757,177.744232 228.983856,170.245712 
	C228.963623,166.623947 230.294052,164.732956 234.287430,164.971207 
	C238.437866,165.218811 242.650421,164.665359 246.772293,165.085464 
	C251.065918,165.523117 252.660492,163.491592 253.661926,159.803253 
	C254.787231,155.658798 256.069427,151.501602 257.872040,147.623550 
	C258.595764,146.066498 260.990540,144.198059 262.437286,144.342987 
	C264.211182,144.520706 266.631012,146.333786 267.282043,148.016251 
	C268.812103,151.970245 269.456390,156.267029 271.335388,160.549789 
	C272.550537,154.937119 273.883514,149.346619 274.944336,143.704941 
	C275.829376,138.998093 276.343903,134.222794 277.120209,129.493866 
	C277.663971,126.181519 279.592529,124.728020 283.071960,124.979294 
	C286.338074,125.215157 287.571838,126.730583 288.048645,129.931580 
	C289.936127,142.602386 292.099274,155.232101 294.290924,168.679047 
	C297.847656,154.999237 296.018982,157.199921 308.416473,157.004257 
	C310.746338,156.967484 313.147217,156.771698 315.378693,157.265991 
	C316.383606,157.488617 317.551147,159.162704 317.697601,160.300171 
	C317.793915,161.048401 316.251678,162.078583 315.330231,162.847015 
	C315.021210,163.104721 314.362915,162.940140 313.864716,162.974915 
	C304.801666,163.607529 304.778839,163.603378 303.070251,172.570190 
	C301.957184,178.412033 300.971741,184.278442 299.833099,190.115112 
	C299.194550,193.388260 297.613739,195.137955 293.728424,195.136642 
	C289.735229,195.135300 288.961182,192.886017 288.485992,189.971313 
	C286.548920,178.089233 284.673523,166.197083 281.961334,154.168289 
	C280.972137,159.681564 279.978760,165.194107 278.995178,170.708374 
	C278.269867,174.774628 277.961670,178.979843 276.654114,182.848160 
	C276.074066,184.564148 273.309113,186.853485 271.852081,186.647385 
	C269.772095,186.353180 266.921295,184.369141 266.269073,182.466156 
	C264.354919,176.881104 263.364044,170.979614 261.628143,163.563919 
	C260.443054,170.849197 256.817047,172.842972 251.351303,172.001511 
	C251.188583,171.976456 251.018524,171.998947 250.851883,171.999420 
	C237.990067,172.035324 237.702011,172.043518 238.074661,185.152847 
	C238.417191,197.202423 236.813599,208.588959 230.056152,218.881790 
	C221.973572,231.193024 210.801666,238.707397 196.196991,241.019073 
	C195.401611,241.144958 194.640060,241.484497 193.141006,242.015259 
	C191.953247,243.287659 191.090683,244.265945 191.082031,245.251724 
	C190.984726,256.348206 190.956329,267.446655 191.110901,278.541809 
	C191.126846,279.686340 192.443680,280.812744 193.156876,281.947571 
	C202.639130,281.970367 212.126434,281.845520 221.598373,282.169678 
	C223.078476,282.220337 225.380539,284.089172 225.740784,285.512512 
	C226.437073,288.263672 224.293137,289.201294 220.969025,288.682007 
	C219.407700,288.287323 218.594391,288.027893 217.780838,288.027069 
	C194.159637,288.002716 170.538376,287.991302 146.917252,288.036926 
	C145.642120,288.039398 144.367966,288.555237 143.093353,288.832062 
	C140.448822,289.112671 138.480911,287.962524 139.262741,285.320679 
	C139.677109,283.920441 142.017380,282.229095 143.550720,282.165039 
	C151.624908,281.827759 159.719009,281.967438 168.653046,281.823547 
	C169.979965,280.912231 170.871017,280.122620 170.878311,279.324982 
	C170.982040,267.958893 171.043289,256.590424 170.855789,245.226852 
	C170.837738,244.134277 169.093719,243.070160 168.150925,241.992859 
M182.882843,281.920227 
	C183.259918,281.010193 183.957031,280.102814 183.964661,279.189667 
	C184.042511,269.861328 184.008102,260.531982 184.005554,251.202942 
	C184.004761,248.274002 184.005432,245.345078 184.005432,242.005905 
	C181.571701,242.173203 180.008118,242.280685 178.169067,242.407104 
	C178.169067,255.786713 178.169067,268.698395 178.169067,281.968353 
	C179.509872,281.968353 180.816544,281.968353 182.882843,281.920227 
M185.002609,245.507965 
	C185.002609,256.456726 185.002609,267.405487 185.002609,278.354248 
	C185.888809,266.960114 185.889755,255.564362 185.876556,244.168610 
	C185.876404,244.042114 185.691727,243.915863 185.593185,243.789505 
	C185.419235,243.960114 185.213257,244.109787 185.083069,244.309006 
	C185.001785,244.433304 185.034851,244.632355 185.002609,245.507965 
z"/>
<path fill="#173E6C" opacity="1.000000" stroke="none" 
	d="
M180.040649,230.935913 
	C167.913116,231.154144 157.080856,228.513275 148.332489,220.501328 
	C141.191086,213.961044 136.237137,205.713623 136.129639,195.837219 
	C135.819809,167.368729 135.676727,138.888397 136.181442,110.425377 
	C136.425110,96.683922 144.786316,87.056335 155.985580,80.192032 
	C167.811600,72.943581 180.973465,71.272774 194.328537,74.442734 
	C212.633575,78.787613 226.480927,96.080864 226.100494,114.796356 
	C225.562607,141.259277 225.984863,167.741592 225.984146,194.215622 
	C225.983658,211.595963 210.304871,228.542984 192.891769,229.991516 
	C188.770462,230.334351 184.644623,230.622696 180.040649,230.935913 
M167.500000,155.016510 
	C184.637726,155.016510 201.775452,155.016510 219.254013,155.016510 
	C219.381744,153.163239 219.566269,151.705078 219.569382,150.246536 
	C219.592926,139.248718 219.635086,128.250458 219.567261,117.252983 
	C219.463028,100.355042 210.479752,86.857269 195.769547,81.335114 
	C180.793076,75.713005 161.610291,80.326202 151.311523,92.203773 
	C149.213150,94.623825 147.654099,97.511505 145.281021,101.019409 
	C151.662750,101.019409 156.800842,100.842453 161.911926,101.136101 
	C163.297302,101.215691 164.600967,102.717651 165.942139,103.566772 
	C164.649170,104.317688 163.386444,105.647064 162.057861,105.716492 
	C157.072281,105.977081 152.057358,105.675125 147.071533,105.933342 
	C145.783417,106.000046 143.703171,107.138435 143.467987,108.134323 
	C142.729553,111.261345 142.696838,114.555000 142.347366,118.242416 
	C148.951447,118.242416 154.766708,118.093956 160.564758,118.344223 
	C162.060532,118.408783 163.502243,119.726097 164.968781,120.467941 
	C163.472565,121.323952 162.009811,122.840546 160.474136,122.918388 
	C154.692764,123.211426 148.887619,123.035965 142.788208,123.035965 
	C142.788208,126.719635 142.788208,129.930634 142.788208,133.651978 
	C148.946579,133.651978 154.747040,133.509171 160.531586,133.749466 
	C162.031952,133.811798 163.482529,135.072723 164.955978,135.783096 
	C163.442123,136.625961 161.960938,138.117676 160.408569,138.195862 
	C154.640945,138.486298 148.849915,138.311676 142.752502,138.311676 
	C142.752502,144.138992 142.752502,149.364532 142.752502,155.016510 
	C150.887207,155.016510 158.693604,155.016510 167.500000,155.016510 
M189.874405,224.760376 
	C209.334061,220.873352 219.382645,208.624741 219.426590,188.727280 
	C219.437241,183.903732 219.320801,179.077042 219.464157,174.257767 
	C219.551254,171.329681 218.582794,170.094681 215.477402,170.106354 
	C192.524261,170.192612 169.570511,170.188812 146.617310,170.107742 
	C143.612518,170.097137 142.458679,171.141998 142.534149,174.162888 
	C142.691971,180.479614 142.400986,186.811630 142.678818,193.120438 
	C143.343018,208.202560 153.831894,221.043915 168.639755,223.892227 
	C175.239243,225.161652 182.192291,224.592911 189.874405,224.760376 
M176.500092,159.835327 
	C165.254349,159.835327 154.008591,159.835327 142.699326,159.835327 
	C142.699326,161.985046 142.699326,163.414993 142.699326,165.131927 
	C168.317474,165.131927 193.685867,165.131927 219.226715,165.131927 
	C219.226715,163.275833 219.226715,161.716492 219.226715,159.835327 
	C205.104233,159.835327 191.302170,159.835327 176.500092,159.835327 
z"/>
<path fill="#093567" opacity="1.000000" stroke="none" 
	d="
M168.100677,242.404175 
	C169.093719,243.070160 170.837738,244.134277 170.855789,245.226852 
	C171.043289,256.590424 170.982040,267.958893 170.878311,279.324982 
	C170.871017,280.122620 169.979965,280.912231 169.103058,281.808807 
	C168.515106,271.309753 168.321060,260.707489 168.135147,250.105072 
	C168.092545,247.675476 168.077911,245.245377 168.100677,242.404175 
z"/>
<path fill="#083265" opacity="1.000000" stroke="none" 
	d="
M193.288773,281.557922 
	C192.443680,280.812744 191.126846,279.686340 191.110901,278.541809 
	C190.956329,267.446655 190.984726,256.348206 191.082031,245.251724 
	C191.090683,244.265945 191.953247,243.287659 192.804901,242.192841 
	C193.467117,253.150635 193.779510,264.220825 193.986694,275.293030 
	C194.023270,277.247223 193.620529,279.209656 193.288773,281.557922 
z"/>
<path fill="#0A4276" opacity="1.000000" stroke="none" 
	d="
M143.551300,288.889160 
	C144.367966,288.555237 145.642120,288.039398 146.917252,288.036926 
	C170.538376,287.991302 194.159637,288.002716 217.780838,288.027069 
	C218.594391,288.027893 219.407700,288.287323 220.564072,288.636322 
	C195.274429,288.879700 169.641846,288.912994 143.551300,288.889160 
z"/>
<path fill="#000000" opacity="1.000000" stroke="none" 
	d="
M182.503021,281.944275 
	C180.816544,281.968353 179.509872,281.968353 178.169067,281.968353 
	C178.169067,268.698395 178.169067,255.786713 178.169067,242.407104 
	C180.008118,242.280685 181.571701,242.173203 184.005432,242.005905 
	C184.005432,245.345078 184.004761,248.274002 184.005554,251.202942 
	C184.008102,260.531982 184.042511,269.861328 183.964661,279.189667 
	C183.957031,280.102814 183.259918,281.010193 182.503021,281.944275 
z"/>
<path fill="#0E2D5A" opacity="1.000000" stroke="none" 
	d="
M185.009613,245.152924 
	C185.034851,244.632355 185.001785,244.433304 185.083069,244.309006 
	C185.213257,244.109787 185.419235,243.960114 185.593185,243.789505 
	C185.691727,243.915863 185.876404,244.042114 185.876556,244.168610 
	C185.889755,255.564362 185.888809,266.960114 185.002609,278.354248 
	C185.002609,267.405487 185.002609,256.456726 185.009613,245.152924 
z"/>
<path fill="#EC8512" opacity="1.000000" stroke="none" 
	d="
M167.000000,155.016510 
	C158.693604,155.016510 150.887207,155.016510 142.752502,155.016510 
	C142.752502,149.364532 142.752502,144.138992 142.752502,138.311676 
	C148.849915,138.311676 154.640945,138.486298 160.408569,138.195862 
	C161.960938,138.117676 163.442123,136.625961 164.955978,135.783096 
	C163.482529,135.072723 162.031952,133.811798 160.531586,133.749466 
	C154.747040,133.509171 148.946579,133.651978 142.788208,133.651978 
	C142.788208,129.930634 142.788208,126.719635 142.788208,123.035965 
	C148.887619,123.035965 154.692764,123.211426 160.474136,122.918388 
	C162.009811,122.840546 163.472565,121.323952 164.968781,120.467941 
	C163.502243,119.726097 162.060532,118.408783 160.564758,118.344223 
	C154.766708,118.093956 148.951447,118.242416 142.347366,118.242416 
	C142.696838,114.555000 142.729553,111.261345 143.467987,108.134323 
	C143.703171,107.138435 145.783417,106.000046 147.071533,105.933342 
	C152.057358,105.675125 157.072281,105.977081 162.057861,105.716492 
	C163.386444,105.647064 164.649170,104.317688 165.942139,103.566772 
	C164.600967,102.717651 163.297302,101.215691 161.911926,101.136101 
	C156.800842,100.842453 151.662750,101.019409 145.281021,101.019409 
	C147.654099,97.511505 149.213150,94.623825 151.311523,92.203773 
	C161.610291,80.326202 180.793076,75.713005 195.769547,81.335114 
	C210.479752,86.857269 219.463028,100.355042 219.567261,117.252983 
	C219.635086,128.250458 219.592926,139.248718 219.569382,150.246536 
	C219.566269,151.705078 219.381744,153.163239 219.254013,155.016510 
	C201.775452,155.016510 184.637726,155.016510 167.000000,155.016510 
z"/>
<path fill="#57AFDF" opacity="1.000000" stroke="none" 
	d="
M189.429642,224.809402 
	C182.192291,224.592911 175.239243,225.161652 168.639755,223.892227 
	C153.831894,221.043915 143.343018,208.202560 142.678818,193.120438 
	C142.400986,186.811630 142.691971,180.479614 142.534149,174.162888 
	C142.458679,171.141998 143.612518,170.097137 146.617310,170.107742 
	C169.570511,170.188812 192.524261,170.192612 215.477402,170.106354 
	C218.582794,170.094681 219.551254,171.329681 219.464157,174.257767 
	C219.320801,179.077042 219.437241,183.903732 219.426590,188.727280 
	C219.382645,208.624741 209.334061,220.873352 189.429642,224.809402 
M202.410950,209.941040 
	C197.431610,212.003769 192.425644,214.005783 187.490524,216.169357 
	C186.158936,216.753143 185.042191,217.826965 183.826843,218.675858 
	C185.229675,219.448547 186.560120,220.467941 188.060486,220.908264 
	C189.081635,221.207947 190.355377,220.769073 191.491165,220.537766 
	C209.505783,216.869034 221.561951,195.612213 215.508408,178.066559 
	C215.205383,177.188263 213.972778,176.630692 213.173004,175.923782 
	C212.424377,176.842606 211.101669,177.718613 211.029373,178.687897 
	C210.757828,182.328278 210.859207,185.999329 210.885040,189.658447 
	C210.939331,197.348389 208.479553,204.013000 202.410950,209.941040 
z"/>
<path fill="#FAFBFC" opacity="1.000000" stroke="none" 
	d="
M177.000092,159.835327 
	C191.302170,159.835327 205.104233,159.835327 219.226715,159.835327 
	C219.226715,161.716492 219.226715,163.275833 219.226715,165.131927 
	C193.685867,165.131927 168.317474,165.131927 142.699326,165.131927 
	C142.699326,163.414993 142.699326,161.985046 142.699326,159.835327 
	C154.008591,159.835327 165.254349,159.835327 177.000092,159.835327 
z"/>
<path fill="#184475" opacity="1.000000" stroke="none" 
	d="
M202.674255,209.694382 
	C208.479553,204.013000 210.939331,197.348389 210.885040,189.658447 
	C210.859207,185.999329 210.757828,182.328278 211.029373,178.687897 
	C211.101669,177.718613 212.424377,176.842606 213.173004,175.923782 
	C213.972778,176.630692 215.205383,177.188263 215.508408,178.066559 
	C221.561951,195.612213 209.505783,216.869034 191.491165,220.537766 
	C190.355377,220.769073 189.081635,221.207947 188.060486,220.908264 
	C186.560120,220.467941 185.229675,219.448547 183.826843,218.675842 
	C185.042191,217.826965 186.158936,216.753143 187.490524,216.169357 
	C192.425644,214.005783 197.431610,212.003769 202.674255,209.694382 
z"/>
</svg>