<?xml version="1.0" encoding="UTF-8"?>
<svg version="1.1" xmlns="http://www.w3.org/2000/svg" width="225" height="225">
<path d="M0 0 C74.25 0 148.5 0 225 0 C225 74.25 225 148.5 225 225 C150.75 225 76.5 225 0 225 C0 150.75 0 76.5 0 0 Z " fill="#FBFBFB" transform="translate(0,0)"/>
<path d="M0 0 C0.33 0 0.66 0 1 0 C1 19.47 1 38.94 1 59 C-73.25 59 -147.5 59 -224 59 C-224 39.86 -224 20.72 -224 1 C-222.22424472 3.66363291 -221.27087199 5.78109973 -220.1875 8.75 C-216.76472136 17.34442227 -212.37321278 22.73415185 -204 27 C-199.13668619 28.61194423 -194.93062571 29.25212951 -189.81634521 29.26069641 C-189.12800512 29.26452196 -188.43966502 29.26834751 -187.73046613 29.27228898 C-185.44230157 29.28254187 -183.15439158 29.27864162 -180.86621094 29.2746582 C-179.21802032 29.27900905 -177.56983173 29.28419344 -175.92164612 29.29014587 C-171.45656553 29.3035095 -166.99156973 29.3041173 -162.52647305 29.30158257 C-158.79170341 29.30051071 -155.05695078 29.30540194 -151.3221848 29.310188 C-142.50530421 29.32127486 -133.68846622 29.32172572 -124.87158203 29.31567383 C-115.79492735 29.30963906 -106.71842789 29.32193429 -97.64179969 29.3432439 C-89.83347329 29.36089757 -82.02519612 29.36685518 -74.21685052 29.36360615 C-69.56025233 29.36179857 -64.90376477 29.36437654 -60.24718475 29.37832069 C-55.86403344 29.39095521 -51.48112267 29.3889021 -47.09797478 29.37590981 C-45.49648136 29.37355637 -43.89497073 29.3762341 -42.29349709 29.38453293 C-30.6438477 29.44051023 -19.86161614 29.40717429 -11 21 C-10.34 21 -9.68 21 -9 21 C-8.7215625 20.41605469 -8.443125 19.83210938 -8.15625 19.23046875 C-7.06525296 17.12587649 -5.84135546 15.26319071 -4.5 13.3125 C-1.79213633 9.07097902 -0.76503864 4.93278643 0 0 Z " fill="#000000" transform="translate(224,166)"/>
<path d="M0 0 C74.25 0 148.5 0 225 0 C225 19.47 225 38.94 225 59 C224.67 59 224.34 59 224 59 C223.85304687 58.2265625 223.70609375 57.453125 223.5546875 56.65625 C222.00180623 49.44516914 220.08505165 44.3742489 215 39 C214.49726563 38.44570313 213.99453125 37.89140625 213.4765625 37.3203125 C204.27352758 28.29684899 191.42621629 28.41820092 179.37451172 28.49829102 C177.73381081 28.49449983 176.09311313 28.48899324 174.4524231 28.48191833 C170.0309773 28.46805277 165.60992452 28.47906937 161.18850088 28.49562955 C156.54339956 28.50956529 151.89831908 28.5030105 147.25320435 28.49949646 C139.45763883 28.49680158 131.66222793 28.51020946 123.86669922 28.53344727 C114.87340498 28.56007111 105.88036877 28.56179544 96.8870486 28.5500589 C88.20736149 28.53925542 79.52776708 28.54548714 70.84808731 28.55961418 C67.16651322 28.56534983 63.4850075 28.5653105 59.80343246 28.56054878 C55.46451006 28.55575324 51.12586792 28.56598665 46.78699875 28.58750343 C45.20121709 28.59303584 43.61540831 28.59356948 42.02962494 28.58855057 C31.04701025 28.55816694 20.75343422 28.85433139 11.88671875 36.06640625 C6.46121173 41.62670847 2.52436937 48.37815315 1 56 C0.67 56 0.34 56 0 56 C0 37.52 0 19.04 0 0 Z " fill="#000000" transform="translate(0,0)"/>
<path d="M0 0 C48.51 0 97.02 0 147 0 C142.83953804 4.85387228 138.67333738 9.5906511 134.3125 14.25 C133.705271 14.9004126 133.09804199 15.5508252 132.47241211 16.22094727 C127.87192392 21.12528109 123.14571251 25.87840572 118.36328125 30.60546875 C116.39687754 32.59787449 114.5561526 34.61462465 112.75 36.75 C109.22368427 40.89256508 105.36238848 44.67492027 101.5 48.5 C97.1230862 52.83471651 92.86490163 57.16865242 88.89453125 61.8828125 C84.18011486 67.15129432 79.03141734 72.03667703 74 77 C69.11408264 72.89931936 64.49196427 68.6517857 60 64.125 C59.38189453 63.50496094 58.76378906 62.88492188 58.12695312 62.24609375 C54.58873994 58.67418329 51.21377437 55.02854925 47.96875 51.1875 C45.10161308 48.00179232 42.04567924 45.01415455 39 42 C31.64288509 34.71895711 31.64288509 34.71895711 28.5625 31.0625 C25.10958912 26.97375899 21.29904432 23.26288039 17.5 19.5 C11.23668464 13.29084314 5.29854726 7.06472968 0 0 Z " fill="#010101" transform="translate(39,51)"/>
<path d="M0 0 C4.33286377 1.66567513 7.13494271 4.87459028 10.3125 8.125 C10.88991943 8.70813965 11.46733887 9.2912793 12.06225586 9.89208984 C15.71153801 13.60352022 19.22554479 17.39336741 22.53515625 21.4140625 C24.79230147 23.85779839 26.81333829 25.69218174 30.078125 26.5390625 C34.79816461 26.72582666 37.48675349 26.10029566 41.125 23 C44.26480821 19.91570903 47.14985822 16.6235396 49.9921875 13.265625 C54.10056307 8.62971483 58.58576205 4.34239682 63 0 C68.21608697 4.36821848 73.12518617 8.94240875 77.9375 13.75 C78.62134766 14.42160156 79.30519531 15.09320313 80.00976562 15.78515625 C80.65494141 16.42839844 81.30011719 17.07164062 81.96484375 17.734375 C82.5487085 18.31413086 83.13257324 18.89388672 83.73413086 19.49121094 C85 21 85 21 85 23 C85.66 23 86.32 23 87 23 C88.3046875 24.328125 88.3046875 24.328125 89.875 26.25 C93.68659953 30.76565294 97.83247727 34.86942916 102.08740234 38.96191406 C103.42774345 40.27195774 104.71855875 41.63228766 106 43 C106 43.66 106 44.32 106 45 C57.49 45 8.98 45 -41 45 C-39.31148181 41.62296361 -38.34574053 40.10993053 -35.76953125 37.609375 C-35.13523193 36.98667725 -34.50093262 36.36397949 -33.84741211 35.72241211 C-33.17589111 35.07151611 -32.50437012 34.42062012 -31.8125 33.75 C-30.43303917 32.39381303 -29.05540608 31.03576422 -27.6796875 29.67578125 C-27.06077637 29.06903564 -26.44186523 28.46229004 -25.80419922 27.8371582 C-23.39450358 25.38344241 -21.16201345 22.79892938 -18.94921875 20.16796875 C-15.43175578 16.25576044 -11.64085557 12.60324137 -7.88452148 8.92163086 C-5.01003958 6.08826381 -2.28729318 3.34806683 0 0 Z " fill="#060606" transform="translate(80,129)"/>
<path d="M0 0 C0.33 0 0.66 0 1 0 C1 29.04 1 58.08 1 88 C-6.96727273 81.17090909 -6.96727273 81.17090909 -10.5 77.625 C-11.1909375 76.93664062 -11.881875 76.24828125 -12.59375 75.5390625 C-14.54956427 73.47529744 -16.41127538 71.37959222 -18.265625 69.2265625 C-22.06139357 64.85836754 -26.12145753 60.80151743 -30.25 56.75 C-31.6534099 55.37219977 -33.05453717 53.99206979 -34.453125 52.609375 C-35.06317383 52.01092773 -35.67322266 51.41248047 -36.30175781 50.79589844 C-38.0357947 48.96214695 -39.52585452 47.04623555 -41 45 C-39.54189378 41.60534645 -37.66233272 39.47748287 -35 36.9375 C-32.62557202 34.66346144 -30.83652048 32.75478071 -29 30 C-28.34 30 -27.68 30 -27 30 C-26.74565186 29.41895508 -26.49130371 28.83791016 -26.22924805 28.23925781 C-24.86726505 25.75820358 -23.3568556 24.14481897 -21.33203125 22.171875 C-20.60306641 21.45386719 -19.87410156 20.73585938 -19.12304688 19.99609375 C-18.36056641 19.25488281 -17.59808594 18.51367188 -16.8125 17.75 C-11.28828749 12.35514893 -6.02340112 6.86481848 -1 1 C-0.67 0.67 -0.34 0.34 0 0 Z " fill="#020202" transform="translate(201,68)"/>
<path d="M0 0 C1.65 1.65 3.3 3.3 5 5 C6.46557278 6.45500453 7.93171763 7.90943306 9.3984375 9.36328125 C11.05735698 11.01295516 12.71620932 12.66269658 14.375 14.3125 C15.6125 15.53743164 15.6125 15.53743164 16.875 16.78710938 C21.22573987 21.12058441 25.40455205 25.52243716 29.40527344 30.18041992 C31.79694644 32.90931443 34.3495995 35.4586316 36.9375 38 C37.43056641 38.48855469 37.92363281 38.97710937 38.43164062 39.48046875 C39.61873229 40.65603525 40.80900498 41.82838826 42 43 C40.40399643 46.77720846 38.02273588 49.38077338 35.25 52.375 C34.53505371 53.1479541 34.53505371 53.1479541 33.80566406 53.93652344 C29.30160941 58.76373896 24.62071053 63.40930092 19.9284668 68.05249023 C16.29771405 71.65806788 12.84005571 75.34333132 9.52734375 79.24609375 C6.8541135 82.31586455 4.02059565 85.26951806 1 88 C0.67 88 0.34 88 0 88 C0 58.96 0 29.92 0 0 Z " fill="#010101" transform="translate(23,68)"/>
<path d="M0 0 C0.66 0.33 1.32 0.66 2 1 C-1.3 4.3 -4.6 7.6 -8 11 C-8 8 -8 8 -5.6875 5.5 C-4.800625 4.675 -3.91375 3.85 -3 3 C-2.401875 2.401875 -1.80375 1.80375 -1.1875 1.1875 C-0.795625 0.795625 -0.40375 0.40375 0 0 Z " fill="#DDDDDD" transform="translate(15,33)"/>
</svg>
