<?xml version="1.0" encoding="UTF-8"?>
<svg version="1.1" xmlns="http://www.w3.org/2000/svg" width="600" height="600">
<path d="M0 0 C198 0 396 0 600 0 C600 198 600 396 600 600 C402 600 204 600 0 600 C0 402 0 204 0 0 Z " fill="#000000" transform="translate(0,0)"/>
<path d="M0 0 C198 0 396 0 600 0 C600 198 600 396 600 600 C402 600 204 600 0 600 C0 402 0 204 0 0 Z M139 62 C138.28505371 62.51175781 137.57010742 63.02351563 136.83349609 63.55078125 C124.12247706 72.64349733 124.12247706 72.64349733 112.30078125 82.83984375 C110.3140998 84.70509815 108.28861746 86.48915585 106.2265625 88.26953125 C95.55969972 97.57065884 85.61270844 107.76926619 77 119 C75.98643512 120.28575417 74.97204904 121.57086124 73.95703125 122.85546875 C34.64120351 172.97862905 12.72344812 234.59819014 12.8125 298.375 C12.81310425 299.173685 12.8137085 299.97237 12.81433105 300.79525757 C12.94956958 366.72321234 35.54275155 429.73076955 77 481 C77.42506836 481.52803223 77.85013672 482.05606445 78.28808594 482.60009766 C90.27979541 497.38047432 103.81731034 511.48785069 119 523 C120.28239492 524.00896317 121.56354231 525.01951305 122.84375 526.03125 C157.75417713 553.43279478 199.24088888 573.58654499 243 582 C243.81750732 582.15774902 244.63501465 582.31549805 245.47729492 582.47802734 C291.24781997 591.08682664 341.89065841 589.65843667 386 574 C387.99998572 573.30985445 389.99998703 572.61975409 392 571.9296875 C402.87858459 568.13506059 413.64058545 564.2827181 423.92480469 559.05322266 C425.46246352 558.27281557 427.00567188 557.50332202 428.55175781 556.73974609 C442.49480409 549.84603556 455.45984795 542.20408299 468 533 C468.61020996 532.55414551 469.22041992 532.10829102 469.84912109 531.64892578 C473.64151578 528.85695902 477.33754445 525.96152933 481 523 C481.52803223 522.57493164 482.05606445 522.14986328 482.60009766 521.71191406 C497.38047432 509.72020459 511.48785069 496.18268966 523 481 C524.00896317 479.71760508 525.01951305 478.43645769 526.03125 477.15625 C543.06936067 455.44733389 557.13325417 431.81798492 567 406 C567.37253906 405.0315918 567.74507812 404.06318359 568.12890625 403.06542969 C595.26080765 331.90015365 593.45749148 253.10610739 562.91479492 183.22167969 C552.39383024 160.10176958 538.93436566 138.74895622 523 119 C522.35804688 118.20142578 522.35804688 118.20142578 521.703125 117.38671875 C509.71378445 102.61161966 496.17809517 88.50866557 481 77 C479.71760508 75.99103683 478.43645769 74.98048695 477.15625 73.96875 C455.43546414 56.92132342 431.81454104 42.90540957 406 33 C404.58726807 32.44916748 404.58726807 32.44916748 403.14599609 31.88720703 C382.07727072 23.73388722 360.4233962 17.9123188 338 15 C337.22849609 14.89703613 336.45699219 14.79407227 335.66210938 14.68798828 C268.37842895 6.12190427 194.32565541 21.7631597 139 62 Z " fill="#DEDEDE" transform="translate(0,0)"/>
<path d="M0 0 C1.14980244 -0.00384115 2.29960489 -0.00768229 3.48424983 -0.01163983 C5.39539163 -0.01034011 5.39539163 -0.01034011 7.34514236 -0.00901413 C8.7037773 -0.01159641 10.06241147 -0.01460918 11.42104459 -0.01801753 C15.16746537 -0.02610707 18.91386701 -0.02787819 22.66029549 -0.028615 C26.69586453 -0.03046219 30.73142357 -0.03800786 34.76698685 -0.04475021 C43.59756679 -0.05834832 52.42814221 -0.06436066 61.25873089 -0.06876087 C66.77019408 -0.07152102 72.28165552 -0.07575797 77.79311752 -0.08026505 C93.04550822 -0.09246005 108.2978975 -0.10275864 123.55029297 -0.10614014 C124.52702507 -0.1063597 125.50375717 -0.10657927 126.51008721 -0.10680549 C127.97874303 -0.10713291 127.97874303 -0.10713291 129.47706866 -0.10746694 C131.46118975 -0.10791041 133.44531083 -0.10835697 135.42943192 -0.10880661 C136.41362992 -0.10902804 137.39782793 -0.10924947 138.41185012 -0.10947761 C154.36061146 -0.11342589 170.30932711 -0.1308798 186.2580708 -0.15416613 C202.6230045 -0.1778677 218.98791526 -0.19034146 235.35286641 -0.19150805 C244.54494542 -0.19242553 253.73696492 -0.19819604 262.92902756 -0.21632767 C270.7563673 -0.23171261 278.58362916 -0.23685867 286.41098115 -0.22858956 C290.40562268 -0.22467723 294.40010729 -0.22564093 298.39472961 -0.23964691 C302.05149142 -0.25235115 305.70797785 -0.25121915 309.36473909 -0.2390562 C311.31471711 -0.23616294 313.26469974 -0.24806136 315.21464038 -0.26047826 C323.00519341 -0.21622981 327.54419281 0.32872532 333.45309067 5.71834087 C336.53531446 9.74369603 336.30701273 13.84287383 336.23839188 18.74081802 C336.2447807 19.70205155 336.25116952 20.66328507 336.25775194 21.65364689 C336.27300026 24.87135614 336.25254099 28.08783384 336.23216629 31.30550003 C336.23566749 33.6135181 336.24132605 35.92153375 336.24898148 38.22954178 C336.2632382 44.49601135 336.24615921 50.7620426 336.2226963 57.02847028 C336.2026037 63.58312783 336.208466 70.13776689 336.21080399 76.69244766 C336.21164723 87.6991158 336.19110937 98.70562116 336.1589241 109.71223831 C336.12582612 121.03519878 336.11166727 132.35798044 336.11790848 143.68098831 C336.12539479 157.3300017 336.11802477 170.97890127 336.09625626 184.62790108 C336.08807477 189.84032095 336.08537409 195.05270142 336.08694839 200.26512718 C336.08782628 206.4006118 336.07363669 212.53588229 336.04772186 218.67131042 C336.04054998 220.92517242 336.03848133 223.17905718 336.0418396 225.43292809 C336.04554461 228.50519267 336.03084048 231.57682896 336.01134109 234.64902115 C336.01666902 235.54473707 336.02199695 236.440453 336.02748632 237.36331183 C335.975263 242.11966366 335.69552174 245.26719882 332.61693192 249.13142776 C328.14151956 253.15929889 325.06461227 254.2536555 319.11640263 254.27402878 C317.96584253 254.28033672 316.81528244 254.28664466 315.62985688 254.29314375 C314.36003943 254.29500575 313.09022197 254.29686774 311.7819252 254.29878616 C310.42385177 254.30423225 309.06577996 254.31009568 307.70770997 254.31634188 C303.96741915 254.3322053 300.22713489 254.34171238 296.48682082 254.35010672 C293.28072552 254.35810741 290.07464798 254.36979862 286.86856446 254.38152152 C275.38497044 254.42343772 263.90135556 254.45063493 252.41771317 254.47517776 C251.51158735 254.47715266 250.60546153 254.47912756 249.67187735 254.48116231 C231.68295159 254.52032209 213.69401892 254.55402953 195.70506382 254.57624435 C191.74966102 254.58121373 187.79425833 254.58625805 183.83885574 254.5913887 C182.36419391 254.59329471 182.36419391 254.59329471 180.85974094 254.59523922 C164.93171167 254.61660237 149.00388861 254.66560079 133.07596312 254.72563285 C116.72681222 254.78674495 100.37776775 254.82143087 84.02850407 254.83071756 C74.84742547 254.83663047 65.66669626 254.85440291 56.48573112 254.90210342 C48.66717625 254.94268786 40.84902778 254.95958839 33.03037224 254.9454506 C29.04127731 254.93897997 25.05304811 254.94385225 21.06408691 254.97932434 C17.40995705 255.01155787 13.75730295 255.0113014 10.10313525 254.98550731 C8.15958841 254.98013939 6.21604002 255.00923118 4.27272397 255.03965902 C-2.86782949 254.95034655 -6.88059599 254.03628225 -12.00896388 248.92581606 C-14.18374484 246.08585568 -14.50899814 243.57294206 -14.5256691 240.11454868 C-14.53197704 239.29491117 -14.53828498 238.47527365 -14.54478407 237.63079864 C-14.54664607 236.73062127 -14.54850806 235.8304439 -14.55042648 234.90298843 C-14.55911656 233.4681581 -14.55911656 233.4681581 -14.5679822 232.0043413 C-14.58608412 228.78474549 -14.59692576 225.56516726 -14.60767746 222.34553909 C-14.61885 220.0428336 -14.63036324 217.74012973 -14.64219284 215.43742752 C-14.67878046 207.86279444 -14.70397166 200.28814459 -14.72681808 192.71345901 C-14.73076395 191.42543436 -14.73470982 190.1374097 -14.73877525 188.81035399 C-14.77519194 176.6665645 -14.80679461 164.52277125 -14.82788467 152.37894535 C-14.83285388 149.56654025 -14.83789822 146.75413531 -14.84302902 143.9417305 C-14.84429969 143.24273102 -14.84557037 142.54373153 -14.84687954 141.82355025 C-14.86823492 130.50287888 -14.91722651 119.18249799 -14.97727317 107.86197273 C-15.03842949 96.23626893 -15.07252033 84.6107308 -15.08235788 72.98486918 C-15.08862132 66.45855441 -15.10679754 59.93277389 -15.15374374 53.4066143 C-15.19736874 47.26609277 -15.2079107 41.12639841 -15.19311523 34.98574829 C-15.19344425 32.7331031 -15.20574853 30.48042271 -15.23096466 28.22791862 C-15.26360844 25.1492067 -15.25292592 22.07352893 -15.23157883 18.99478531 C-15.2512866 18.10576155 -15.27099437 17.21673779 -15.29129934 16.30077392 C-15.1833182 10.122878 -13.34941253 7.06110374 -9.07980013 2.63232535 C-6.04253811 -0.0543801 -3.9700196 0.0049563 0 0 Z " fill="#FEFEFE" transform="translate(139.3830680847168,172.86857223510742)"/>
<path d="M0 0 C80.52 0 161.04 0 244 0 C237.31845043 7.79514117 237.31845043 7.79514117 232.9375 11.1875 C228.61436899 14.6307536 224.52570283 18.22109725 220.5 22 C215.76189035 26.43888992 210.87875415 30.5914647 205.8125 34.65625 C202.60150195 37.33208171 199.54970863 40.14358276 196.5 43 C191.76133536 47.43832674 186.87880674 51.5914225 181.8125 55.65625 C178.60150066 58.33208278 175.54972364 61.14359707 172.5 64 C167.73911006 68.45874444 162.8353218 72.6379783 157.74609375 76.72265625 C154.73680664 79.21826704 151.86066245 81.83770131 149 84.5 C144.35870777 88.81779461 139.56440562 92.87419228 134.625 96.8515625 C130.64083135 100.11241482 126.81446578 103.54343471 123 107 C117.97711876 105.504423 115.03152151 102.5010805 111.375 98.9375 C107.17771199 94.93780892 102.97163686 91.05948304 98.4375 87.4375 C94.28899495 84.1174776 90.37474704 80.62948833 86.5 77 C82.60423719 73.35111551 78.66665716 69.84301562 74.5 66.5 C70.3333379 63.15698041 66.39580188 59.64884863 62.5 56 C57.73911006 51.54125556 52.8353218 47.3620217 47.74609375 43.27734375 C44.20321701 40.33922549 40.84558228 37.21768822 37.47802734 34.08349609 C34.26683127 31.11269934 30.97363159 28.30031679 27.5625 25.5625 C22.74032336 21.68666682 18.2280768 17.55719598 13.72412109 13.32299805 C9.84491593 9.70299166 5.81831621 6.41286017 1.51171875 3.3046875 C1.01285156 2.87414062 0.51398438 2.44359375 0 2 C0 1.34 0 0.68 0 0 Z " fill="#010101" transform="translate(178,207)"/>
<path d="M0 0 C3.73922129 1.5813062 6.29649737 3.93230398 9.25 6.6875 C12.48815511 9.68479616 15.72928552 12.67054609 19.0625 15.5625 C22.07073528 18.17701942 25.04130249 20.82951656 28 23.5 C30.98062721 26.18983431 33.97245233 28.86310364 37 31.5 C42.58979989 36.37143203 48.07534898 41.3589515 53.578125 46.328125 C57.99984933 50.31581504 62.44304535 54.2736415 66.93359375 58.18359375 C70.18183566 61.03885365 73.38198542 63.94719702 76.58984375 66.84765625 C78.74038347 68.76815444 80.92009475 70.64253437 83.125 72.5 C84.07375 73.325 85.0225 74.15 86 75 C86 75.33 86 75.66 86 76 C7.13 76 -71.74 76 -153 76 C-146.27678571 68.15625 -146.27678571 68.15625 -143.25 65.625 C-140.12194365 62.96257036 -137.04595874 60.25631236 -134 57.5 C-130.38323655 54.23609152 -126.73610392 51.01209051 -123.0625 47.8125 C-119.8248667 44.9673071 -116.6331371 42.07146164 -113.43359375 39.18359375 C-111.32488854 37.29151315 -109.20080199 35.42094242 -107.0625 33.5625 C-103.83440488 30.75177475 -100.66261557 27.884201 -97.5 25 C-93.71879399 21.55166495 -89.90740494 18.14745872 -86.04296875 14.79296875 C-82.75673918 11.90887817 -79.52927576 8.95978621 -76.296875 6.015625 C-75.15992188 5.01789063 -75.15992188 5.01789063 -74 4 C-73.32453125 3.39671875 -72.6490625 2.7934375 -71.953125 2.171875 C-70 1 -70 1 -68.09765625 1 C-65.04917557 2.45327943 -62.8342759 4.67528708 -60.4375 7 C-48.94074621 18.97805428 -48.94074621 18.97805428 -34.5625 25.375 C-28.55753872 24.74289881 -24.61725379 21.9531878 -20.3125 17.875 C-15.83920035 13.72653905 -11.20773678 9.85429664 -6.4453125 6.04296875 C-4.16064697 4.13421464 -2.06749022 2.13961197 0 0 Z " fill="#000000" transform="translate(334,322)"/>
<path d="M0 0 C9.57 0 19.14 0 29 0 C29 9.57 29 19.14 29 29 C19.43 29 9.86 29 0 29 C0 38.9 0 48.8 0 59 C9.57 59 19.14 59 29 59 C30.10527945 72.92652102 30.10527945 72.92652102 30.1953125 77.7890625 C30.22383301 78.8404541 30.25235352 79.8918457 30.28173828 80.97509766 C29.86220791 85.4794142 28.22169507 88.59101074 25.359375 92.04296875 C22.02282943 96.22469888 19.60193263 100.80302526 17.0625 105.5 C16.54034912 106.46381592 16.01819824 107.42763184 15.48022461 108.4206543 C-5.74661941 148.13764187 -16.25018215 193.48355566 -16.1875 238.375 C-16.18659363 239.5730275 -16.18659363 239.5730275 -16.18566895 240.79525757 C-16.08808803 288.36535911 -5.052038 336.78589613 19.20727539 378.05371094 C22 382.81374254 22 382.81374254 22 385 C14.74 385 7.48 385 0 385 C0 375.43 0 365.86 0 356 C-9.9 356 -19.8 356 -30 356 C-30 248.09 -30 140.18 -30 29 C-20.43 28.67 -10.86 28.34 -1 28 C-0.67 18.76 -0.34 9.52 0 0 Z " fill="#CCCCCC" transform="translate(30,60)"/>
<path d="M0 0 C29.37 0 58.74 0 89 0 C89 9.57 89 19.14 89 29 C88 30 88 30 85.31616211 30.11352539 C84.14835205 30.10828857 82.98054199 30.10305176 81.77734375 30.09765625 C80.64288818 30.09515869 79.50843262 30.09266113 78.33959961 30.09008789 C76.1605603 30.07643188 76.1605603 30.07643188 73.9375 30.0625 C69.338125 30.041875 64.73875 30.02125 60 30 C60 39.57 60 49.14 60 59 C69.57 59 79.14 59 89 59 C89 49.43 89 39.86 89 30 C98.9 30 108.8 30 119 30 C119 39.57 119 49.14 119 59 C126.92 59 134.84 59 143 59 C139.22362504 62.77637496 135.70922416 65.77429975 131.375 68.75 C111.55673197 82.66710466 92.82997156 99.8082721 78 119 C77.2255957 119.99966797 77.2255957 119.99966797 76.43554688 121.01953125 C69.15317793 130.40590668 69.15317793 130.40590668 62.171875 140.015625 C61.45515625 141.00046875 60.7384375 141.9853125 60 143 C59.67 143 59.34 143 59 143 C59 135.08 59 127.16 59 119 C49.43 119 39.86 119 30 119 C30 109.1 30 99.2 30 89 C39.57 89 49.14 89 59 89 C59 79.43 59 69.86 59 60 C49.43 60 39.86 60 30 60 C30.03959518 69.1698291 30.03959518 69.1698291 30.09008789 78.33959961 C30.09258545 79.47405518 30.09508301 80.60851074 30.09765625 81.77734375 C30.10551147 83.52905884 30.10551147 83.52905884 30.11352539 85.31616211 C30 88 30 88 29 89 C19.43 89 9.86 89 0 89 C0 59.63 0 30.26 0 0 Z " fill="#E2E2E2" transform="translate(0,0)"/>
<path d="M0 0 C1 1 1 1 1.11352539 3.68383789 C1.10828857 4.85164795 1.10305176 6.01945801 1.09765625 7.22265625 C1.09515869 8.35711182 1.09266113 9.49156738 1.09008789 10.66040039 C1.07643188 12.8394397 1.07643188 12.8394397 1.0625 15.0625 C1.041875 19.661875 1.02125 24.26125 1 29 C-8.57 29 -18.14 29 -28 29 C-27.67 38.57 -27.34 48.14 -27 58 C-13.14 58.495 -13.14 58.495 1 59 C1 60.98 1 62.96 1 65 C-106.58 65 -214.16 65 -325 65 C-325 63.02 -325 61.04 -325 59 C-315.76 58.67 -306.52 58.34 -297 58 C-296.67 48.43 -296.34 38.86 -296 29 C-305.57 29 -315.14 29 -325 29 C-325 22.4 -325 15.8 -325 9 C-322.855 10.155 -320.71 11.31 -318.5 12.5 C-310.408632 16.82259018 -302.26107925 21.01082533 -294 25 C-292.26169922 25.84498047 -292.26169922 25.84498047 -290.48828125 26.70703125 C-271.79215172 35.33756888 -251.21959586 42.1124288 -231 46 C-230.18249268 46.15774902 -229.36498535 46.31549805 -228.52270508 46.47802734 C-182.75218003 55.08682664 -132.10934159 53.65843667 -88 38 C-86.00001428 37.30985445 -84.00001297 36.61975409 -82 35.9296875 C-70.34784707 31.86522739 -59.00893453 27.59841772 -48 22 C-47.14196777 21.57348145 -46.28393555 21.14696289 -45.39990234 20.70751953 C-34.50004609 15.28087772 -23.80524523 9.92595515 -14.31079102 2.21386719 C-9.5447687 -1.42031675 -5.76896052 -1.52872025 0 0 Z " fill="#E3E3E3" transform="translate(474,535)"/>
<path d="M0 0 C3.86553549 1.93276774 6.49037909 4.1339874 9.5625 7.0625 C13.41569892 10.67048999 17.31356011 14.13592936 21.4375 17.4375 C26.21621628 21.28110057 30.69157687 25.36960164 35.16381836 29.55834961 C38.51099327 32.67553945 41.93005023 35.63573798 45.5 38.5 C50.26108478 42.31994011 54.71273025 46.38938819 59.1640625 50.55859375 C63.34202608 54.44944609 67.69629636 58.05491196 72.15234375 61.625 C76.16191469 64.96905917 79.96527344 68.5208931 83.76171875 72.10351562 C86.64468718 74.87435368 86.64468718 74.87435368 90 77 C88.42774566 81.0442928 85.54827288 83.50573014 82.375 86.3125 C81.83302979 86.80032959 81.29105957 87.28815918 80.73266602 87.79077148 C77.20449731 90.95820604 73.64108239 94.08558969 70.05859375 97.19140625 C67.5104335 99.4301125 65.00589407 101.71410212 62.5 104 C58.71337002 107.45328153 54.8952368 110.86099051 51.02734375 114.22265625 C48.66510827 116.29359487 46.33204147 118.39512848 44 120.5 C41.01937279 123.18983431 38.02754767 125.86310364 35 128.5 C30.28298716 132.61081039 25.64361111 136.80667845 21 141 C17.67165076 144.00560022 14.33796667 147.005087 11 150 C10.24074219 150.68835938 9.48148438 151.37671875 8.69921875 152.0859375 C7.99410156 152.71757812 7.28898438 153.34921875 6.5625 154 C5.94503906 154.556875 5.32757813 155.11375 4.69140625 155.6875 C3 157 3 157 0 158 C0 105.86 0 53.72 0 0 Z " fill="#020202" transform="translate(153,225)"/>
<path d="M0 0 C0 52.14 0 104.28 0 158 C-7.60644514 151.48018988 -15.12985242 144.89573442 -22.56640625 138.18359375 C-24.67511146 136.29151315 -26.79919801 134.42094242 -28.9375 132.5625 C-33.13164365 128.91062947 -37.23094292 125.15733816 -41.33984375 121.41015625 C-44.18755795 118.83006864 -47.07244018 116.29798144 -49.97265625 113.77734375 C-52.33489173 111.70640513 -54.66795853 109.60487152 -57 107.5 C-59.98062721 104.81016569 -62.97245233 102.13689636 -66 99.5 C-70.71703068 95.38917407 -75.35560225 91.19247282 -80 87 C-81.87474528 85.31221702 -83.74973662 83.62470731 -85.625 81.9375 C-87.08333333 80.625 -88.54166667 79.3125 -90 78 C-82.87502247 70.79729544 -75.46043098 63.91091012 -67.5625 57.5625 C-62.78378372 53.71889943 -58.30842313 49.63039836 -53.83618164 45.44165039 C-49.64670474 41.5400333 -45.27827064 37.92675203 -40.8125 34.34375 C-37.60150066 31.66791722 -34.54972364 28.85640293 -31.5 26 C-26.75110388 21.55248821 -21.86437219 17.37899775 -16.78125 13.3125 C-13.00802385 10.17521084 -9.43116108 6.84100967 -5.88256836 3.45288086 C-2.2119884 0 -2.2119884 0 0 0 Z " fill="#020202" transform="translate(447,225)"/>
<path d="M0 0 C29.37 0 58.74 0 89 0 C89 9.57 89 19.14 89 29 C97.58 29 106.16 29 115 29 C112.6138388 30.59077413 110.7233785 31.61084905 108.11328125 32.6640625 C107.34814209 32.97714355 106.58300293 33.29022461 105.79467773 33.61279297 C104.97555908 33.94682129 104.15644043 34.28084961 103.3125 34.625 C87.36537702 41.24911984 70.89672003 48.84782136 56.6171875 58.6328125 C53.5191949 60.25116684 51.72718033 60.27806943 48.26171875 60.07421875 C46.81865356 60.00207153 46.81865356 60.00207153 45.34643555 59.9284668 C44.13898682 59.84894775 42.93153809 59.76942871 41.6875 59.6875 C37.830625 59.460625 33.97375 59.23375 30 59 C30 49.43 30 39.86 30 30 C20.1 30 10.2 30 0 30 C0 39.57 0 49.14 0 59 C-9.57 59 -19.14 59 -29 59 C-29 49.43 -29 39.86 -29 30 C-19.76 29.67 -10.52 29.34 -1 29 C-0.67 19.43 -0.34 9.86 0 0 Z " fill="#CCCCCC" transform="translate(89,0)"/>
<path d="M0 0 C9.57 0 19.14 0 29 0 C29 9.57 29 19.14 29 29 C19.43 29 9.86 29 0 29 C0 38.9 0 48.8 0 59 C9.57 59 19.14 59 29 59 C30.10527945 72.92652102 30.10527945 72.92652102 30.1953125 77.7890625 C30.22383301 78.8404541 30.25235352 79.8918457 30.28173828 80.97509766 C29.86220791 85.4794142 28.22169507 88.59101074 25.359375 92.04296875 C22.02259793 96.22498901 19.60357106 100.80360603 17.0625 105.5 C16.5454248 106.44786377 16.02834961 107.39572754 15.49560547 108.37231445 C9.32934994 119.84931824 4.52892213 131.80357141 0 144 C-0.33 144 -0.66 144 -1 144 C-1 135.42 -1 126.84 -1 118 C-10.57 118 -20.14 118 -30 118 C-30 88.63 -30 59.26 -30 29 C-20.43 28.67 -10.86 28.34 -1 28 C-0.67 18.76 -0.34 9.52 0 0 Z " fill="#CCCCCC" transform="translate(30,60)"/>
<path d="M0 0 C6.93 0 13.86 0 21 0 C21 9.24 21 18.48 21 28 C30.24 28 39.48 28 49 28 C49 18.76 49 9.52 49 0 C49.33 0 49.66 0 50 0 C50 9.57 50 19.14 50 29 C51.98 29 53.96 29 56 29 C56 87.74 56 146.48 56 207 C54.02 207 52.04 207 50 207 C50 216.9 50 226.8 50 237 C43.4 237 36.8 237 30 237 C31.04496039 231.33979786 32.30180001 225.84966846 33.875 220.3125 C52.46745347 152.82066725 42.04916355 75.1791258 7.86328125 14.33984375 C5.95423523 11.00564186 4.00315536 7.70044185 2.01953125 4.41015625 C0 1 0 1 0 0 Z " fill="#DADADA" transform="translate(544,149)"/>
<path d="M0 0 C4.51945695 3.6977375 8.66374482 7.64514757 12.75 11.8125 C21.3771653 20.54147657 30.99621491 27.8494004 40.87011719 35.10351562 C42.59705069 36.37969021 44.30101002 37.68685342 46 39 C46 39.33 46 39.66 46 40 C40.72 40 35.44 40 30 40 C30.33 49.24 30.66 58.48 31 68 C44.86 68.495 44.86 68.495 59 69 C59 78.57 59 88.14 59 98 C49.43 98 39.86 98 30 98 C30 88.43 30 78.86 30 69 C20.43 69.33 10.86 69.66 1 70 C0.71069287 79.16963953 0.71069287 79.16963953 0.43188477 88.33959961 C0.3747229 90.04128296 0.3747229 90.04128296 0.31640625 91.77734375 C0.27974854 92.94515381 0.24309082 94.11296387 0.20532227 95.31616211 C0 98 0 98 -1 99 C-2.818122 99.09964888 -4.64008784 99.13080495 -6.4609375 99.1328125 C-8.12769531 99.13474609 -8.12769531 99.13474609 -9.828125 99.13671875 C-10.99859375 99.13285156 -12.1690625 99.12898437 -13.375 99.125 C-15.11910156 99.13080078 -15.11910156 99.13080078 -16.8984375 99.13671875 C-18.0121875 99.13542969 -19.1259375 99.13414062 -20.2734375 99.1328125 C-21.29872559 99.13168457 -22.32401367 99.13055664 -23.38037109 99.12939453 C-26 99 -26 99 -29 98 C-29 88.76 -29 79.52 -29 70 C-25.5750464 69.1437616 -22.84918455 68.81353347 -19.359375 68.68359375 C-18.39483398 68.64548584 -17.43029297 68.60737793 -16.43652344 68.56811523 C-14.61169434 68.50346069 -14.61169434 68.50346069 -12.75 68.4375 C-6.93375 68.2209375 -6.93375 68.2209375 -1 68 C-1 58.76 -1 49.52 -1 40 C-14.86 39.505 -14.86 39.505 -29 39 C-29 29.43 -29 19.86 -29 10 C-19.76 9.67 -10.52 9.34 -1 9 C-0.67 6.03 -0.34 3.06 0 0 Z " fill="#CCCCCC" transform="translate(89,495)"/>
<path d="M0 0 C1.98 0 3.96 0 6 0 C6 29.37 6 58.74 6 89 C4.02 89 2.04 89 0 89 C0 98.9 0 108.8 0 119 C-9.57 119.33 -19.14 119.66 -29 120 C-29.33 129.24 -29.66 138.48 -30 148 C-39.57 148 -49.14 148 -59 148 C-59 138.1 -59 128.2 -59 118 C-49.76 118 -40.52 118 -31 118 C-31 108.76 -31 99.52 -31 90 C-35.95 90 -40.9 90 -46 90 C-44.92255156 85.69020624 -43.06583923 82.28197221 -40.9375 78.4375 C-32.56964725 62.93570956 -26.66678803 46.64618984 -21 30 C-14.07 30 -7.14 30 0 30 C0 20.1 0 10.2 0 0 Z " fill="#DDDDDD" transform="translate(594,356)"/>
<path d="M0 0 C1.98 0 3.96 0 6 0 C6 38.94 6 77.88 6 118 C4.02 118 2.04 118 0 118 C0 127.9 0 137.8 0 148 C-6.6 148 -13.2 148 -20 148 C-18.95503961 142.33979786 -17.69819999 136.84966846 -16.125 131.3125 C-9.74856584 108.16562332 -7.83075415 84.46418003 -7.8125 60.5625 C-7.81086853 59.41329575 -7.81086853 59.41329575 -7.8092041 58.24087524 C-7.81077944 48.44685493 -8.15290581 38.76254118 -9 29 C-6.36 29 -3.72 29 -1 29 C-0.67 19.43 -0.34 9.86 0 0 Z " fill="#CCCCCC" transform="translate(594,238)"/>
<path d="M0 0 C9.57 0 19.14 0 29 0 C29 9.57 29 19.14 29 29 C19.43 29 9.86 29 0 29 C0.03959626 38.49892964 0.03959626 38.49892964 0.09008789 47.99780273 C0.09258545 49.17286377 0.09508301 50.3479248 0.09765625 51.55859375 C0.10289307 52.76829834 0.10812988 53.97800293 0.11352539 55.22436523 C0 58 0 58 -1 59 C-3.14558827 59.08775605 -5.29404421 59.10695219 -7.44140625 59.09765625 C-8.74658203 59.09443359 -10.05175781 59.09121094 -11.39648438 59.08789062 C-12.7851569 59.07953401 -14.17382877 59.07106905 -15.5625 59.0625 C-16.95507656 59.05748666 -18.34765481 59.05292347 -19.74023438 59.04882812 C-23.16017451 59.03699442 -26.5800925 59.01905831 -30 59 C-30.33 49.76 -30.66 40.52 -31 31 C-33.64 30.67 -36.28 30.34 -39 30 C-33.85714286 24.42857143 -33.85714286 24.42857143 -30 24 C-30 25.65 -30 27.3 -30 29 C-20.43 28.67 -10.86 28.34 -1 28 C-0.67 18.76 -0.34 9.52 0 0 Z " fill="#FEFEFE" transform="translate(505,505)"/>
<path d="M0 0 C1.20970459 0.00523682 2.41940918 0.01047363 3.66577148 0.01586914 C4.84083252 0.0183667 6.01589355 0.02086426 7.2265625 0.0234375 C8.7314624 0.0325415 10.2363623 0.04164551 11.78686523 0.05102539 C16.55124023 0.07165039 21.31561523 0.09227539 26.22436523 0.11352539 C26.22436523 10.01352539 26.22436523 19.91352539 26.22436523 30.11352539 C16.65436523 30.44352539 7.08436523 30.77352539 -2.77563477 31.11352539 C-3.10563477 40.35352539 -3.43563477 49.59352539 -3.77563477 59.11352539 C-13.34563477 59.11352539 -22.91563477 59.11352539 -32.77563477 59.11352539 C-32.77563477 49.54352539 -32.77563477 39.97352539 -32.77563477 30.11352539 C-23.20563477 30.11352539 -13.63563477 30.11352539 -3.77563477 30.11352539 C-3.81523103 20.61459575 -3.81523103 20.61459575 -3.86572266 11.11572266 C-3.86822021 9.94066162 -3.87071777 8.76560059 -3.87329102 7.55493164 C-3.87852783 6.34522705 -3.88376465 5.13552246 -3.88916016 3.88916016 C-3.73650993 0.15694421 -3.73221595 0.15265023 0 0 Z " fill="#FDFDFD" transform="translate(567.775634765625,444.886474609375)"/>
<path d="M0 0 C9.9 0 19.8 0 30 0 C30.020625 4.764375 30.04125 9.52875 30.0625 14.4375 C30.071604 15.9423999 30.08070801 17.4472998 30.09008789 18.99780273 C30.09258545 20.17286377 30.09508301 21.3479248 30.09765625 22.55859375 C30.10289307 23.76829834 30.10812988 24.97800293 30.11352539 26.22436523 C30 29 30 29 29 30 C26.85441173 30.08775605 24.70595579 30.10695219 22.55859375 30.09765625 C21.38353271 30.09515869 20.20847168 30.09266113 18.99780273 30.09008789 C17.49290283 30.08098389 15.98800293 30.07187988 14.4375 30.0625 C9.673125 30.041875 4.90875 30.02125 0 30 C0 39.57 0 49.14 0 59 C-9.57 59 -19.14 59 -29 59 C-29 49.43 -29 39.86 -29 30 C-19.76 29.67 -10.52 29.34 -1 29 C-0.67 19.43 -0.34 9.86 0 0 Z " fill="#CCCCCC" transform="translate(564,0)"/>
<path d="M0 0 C9.57 0 19.14 0 29 0 C31.56275304 15.37651822 31.56275304 15.37651822 28.96337891 19.74023438 C25.82811096 23.13151041 21.95103007 25.6437961 18.203125 28.30810547 C14.01828939 31.52185888 10.38920241 35.3145504 6.6875 39.0625 C5.51803833 40.21745972 5.51803833 40.21745972 4.32495117 41.39575195 C1.08139658 44.64208267 -2.00725002 47.77360949 -4.51171875 51.6328125 C-7.955901 56.92426735 -7.955901 56.92426735 -11 59 C-17.11759421 59.99486864 -22.877778 58.86164606 -29 58 C-29 48.43 -29 38.86 -29 29 C-19.76 28.67 -10.52 28.34 -1 28 C-0.67 18.76 -0.34 9.52 0 0 Z " fill="#CCCCCC" transform="translate(89,60)"/>
<path d="M0 0 C1.7977841 2.69667615 2.66858428 4.66132055 3.6640625 7.69140625 C3.97722412 8.62718506 4.29038574 9.56296387 4.61303711 10.52709961 C4.94698486 11.52878174 5.28093262 12.53046387 5.625 13.5625 C10.59205954 28.09827007 16.41452181 41.79949117 24.20678711 55.05249023 C27 59.81433539 27 59.81433539 27 62 C19.74 62 12.48 62 5 62 C5 52.43 5 42.86 5 33 C-4.9 33 -14.8 33 -25 33 C-25 23.1 -25 13.2 -25 3 C-17.08 2.67 -9.16 2.34 -1 2 C-0.67 1.34 -0.34 0.68 0 0 Z " fill="#CCCCCC" transform="translate(25,383)"/>
<path d="M0 0 C9.9 0 19.8 0 30 0 C30 9.57 30 19.14 30 29 C39.57 29 49.14 29 59 29 C59 19.43 59 9.86 59 0 C60.98 0 62.96 0 65 0 C65 11.88 65 23.76 65 36 C52.79 36 40.58 36 28 36 C28 33.69 28 31.38 28 29 C18.76 29 9.52 29 0 29 C0 19.43 0 9.86 0 0 Z " fill="#CCCCCC" transform="translate(535,564)"/>
<path d="M0 0 C1.98 0 3.96 0 6 0 C6 9.9 6 19.8 6 30 C4.02 30 2.04 30 0 30 C0 39.57 0 49.14 0 59 C-9.9 59 -19.8 59 -30 59 C-30 49.43 -30 39.86 -30 30 C-20.43 29.67 -10.86 29.34 -1 29 C-0.67 19.43 -0.34 9.86 0 0 Z " fill="#FEFEFE" transform="translate(594,0)"/>
<path d="M0 0 C9.9 0 19.8 0 30 0 C30.020625 4.764375 30.04125 9.52875 30.0625 14.4375 C30.071604 15.9423999 30.08070801 17.4472998 30.09008789 18.99780273 C30.09258545 20.17286377 30.09508301 21.3479248 30.09765625 22.55859375 C30.10551147 24.37315063 30.10551147 24.37315063 30.11352539 26.22436523 C30 29 30 29 29 30 C26.85441173 30.08775605 24.70595579 30.10695219 22.55859375 30.09765625 C21.38353271 30.09515869 20.20847168 30.09266113 18.99780273 30.09008789 C17.49290283 30.08098389 15.98800293 30.07187988 14.4375 30.0625 C9.673125 30.041875 4.90875 30.02125 0 30 C0 20.1 0 10.2 0 0 Z " fill="#FCFCFC" transform="translate(564,89)"/>
<path d="M0 0 C9.57 0 19.14 0 29 0 C29 9.57 29 19.14 29 29 C19.43 29 9.86 29 0 29 C0 32.3 0 35.6 0 39 C-7.57142857 32.71428571 -7.57142857 32.71428571 -10 29 C-7.03 28.67 -4.06 28.34 -1 28 C-0.67 18.76 -0.34 9.52 0 0 Z " fill="#CCCCCC" transform="translate(505,60)"/>
<path d="M0 0 C9.57 0 19.14 0 29 0 C29 9.9 29 19.8 29 30 C24.400625 30.020625 19.80125 30.04125 15.0625 30.0625 C13.60980713 30.071604 12.15711426 30.08070801 10.66040039 30.09008789 C9.52594482 30.09258545 8.39148926 30.09508301 7.22265625 30.09765625 C5.47094116 30.10551147 5.47094116 30.10551147 3.68383789 30.11352539 C1 30 1 30 0 29 C-0.08775605 26.85441173 -0.10695219 24.70595579 -0.09765625 22.55859375 C-0.09515869 21.38353271 -0.09266113 20.20847168 -0.09008789 18.99780273 C-0.08098389 17.49290283 -0.07187988 15.98800293 -0.0625 14.4375 C-0.041875 9.673125 -0.02125 4.90875 0 0 Z " fill="#FDFDFD" transform="translate(446,564)"/>
<path d="M0 0 C1.16781006 0.00523682 2.33562012 0.01047363 3.53881836 0.01586914 C4.67327393 0.0183667 5.80772949 0.02086426 6.9765625 0.0234375 C9.15560181 0.03709351 9.15560181 0.03709351 11.37866211 0.05102539 C15.97803711 0.07165039 20.57741211 0.09227539 25.31616211 0.11352539 C25.31616211 10.01352539 25.31616211 19.91352539 25.31616211 30.11352539 C15.74616211 30.11352539 6.17616211 30.11352539 -3.68383789 30.11352539 C-3.70446289 25.34915039 -3.72508789 20.58477539 -3.74633789 15.67602539 C-3.75544189 14.17112549 -3.7645459 12.66622559 -3.77392578 11.11572266 C-3.77642334 9.94066162 -3.7789209 8.76560059 -3.78149414 7.55493164 C-3.78673096 6.34522705 -3.79196777 5.13552246 -3.79736328 3.88916016 C-3.64459939 0.15416526 -3.64459939 0.15416526 0 0 Z " fill="#CCCCCC" transform="translate(33.683837890625,533.886474609375)"/>
<path d="M0 0 C7.1465625 -0.0309375 7.1465625 -0.0309375 14.4375 -0.0625 C15.9423999 -0.071604 17.4472998 -0.08070801 18.99780273 -0.09008789 C20.17286377 -0.09258545 21.3479248 -0.09508301 22.55859375 -0.09765625 C24.37315063 -0.10551147 24.37315063 -0.10551147 26.22436523 -0.11352539 C29 0 29 0 30 1 C30.08767112 3.07262076 30.10695873 5.14820294 30.09765625 7.22265625 C30.09515869 8.35711182 30.09266113 9.49156738 30.09008789 10.66040039 C30.08098389 12.11309326 30.07187988 13.56578613 30.0625 15.0625 C30.041875 19.661875 30.02125 24.26125 30 29 C20.1 29 10.2 29 0 29 C0 19.43 0 9.86 0 0 Z " fill="#CCCCCC" transform="translate(0,505)"/>
<path d="M0 0 C9.57 0 19.14 0 29 0 C29.020625 4.764375 29.04125 9.52875 29.0625 14.4375 C29.071604 15.9423999 29.08070801 17.4472998 29.09008789 18.99780273 C29.09258545 20.17286377 29.09508301 21.3479248 29.09765625 22.55859375 C29.10551147 24.37315063 29.10551147 24.37315063 29.11352539 26.22436523 C29 29 29 29 28 30 C25.92737924 30.08767112 23.85179706 30.10695873 21.77734375 30.09765625 C20.64288818 30.09515869 19.50843262 30.09266113 18.33959961 30.09008789 C16.1605603 30.07643188 16.1605603 30.07643188 13.9375 30.0625 C7.0384375 30.0315625 7.0384375 30.0315625 0 30 C0 20.1 0 10.2 0 0 Z " fill="#FDFDFD" transform="translate(0,178)"/>
<path d="M0 0 C9.9 0 19.8 0 30 0 C30.020625 4.599375 30.04125 9.19875 30.0625 13.9375 C30.071604 15.39019287 30.08070801 16.84288574 30.09008789 18.33959961 C30.09258545 19.47405518 30.09508301 20.60851074 30.09765625 21.77734375 C30.10551147 23.52905884 30.10551147 23.52905884 30.11352539 25.31616211 C30 28 30 28 29 29 C26.85441173 29.08775605 24.70595579 29.10695219 22.55859375 29.09765625 C21.38353271 29.09515869 20.20847168 29.09266113 18.99780273 29.09008789 C17.49290283 29.08098389 15.98800293 29.07187988 14.4375 29.0625 C9.673125 29.041875 4.90875 29.02125 0 29 C0 19.43 0 9.86 0 0 Z " fill="#FDFDFD" transform="translate(178,0)"/>
<path d="M0 0 C9.57 0 19.14 0 29 0 C29 9.9 29 19.8 29 30 C25.514375 30.020625 22.02875 30.04125 18.4375 30.0625 C17.35267334 30.071604 16.26784668 30.08070801 15.15014648 30.09008789 C14.27430908 30.09258545 13.39847168 30.09508301 12.49609375 30.09765625 C11.61107178 30.10289307 10.7260498 30.10812988 9.81420898 30.11352539 C6.52449209 29.98081798 3.25930231 29.46561462 0 29 C0 19.43 0 9.86 0 0 Z " fill="#CCCCCC" transform="translate(505,534)"/>
<path d="M0 0 C9.57 0 19.14 0 29 0 C29 9.57 29 19.14 29 29 C26.09604425 30.45197787 23.35353076 30.51209479 20.125 30.8125 C18.89007813 30.94269531 17.65515625 31.07289062 16.3828125 31.20703125 C12 31 12 31 0 27 C0 18.09 0 9.18 0 0 Z " fill="#CBCBCB" transform="translate(386,0)"/>
<path d="M0 0 C9.57 0 19.14 0 29 0 C30.39850246 2.79700492 30.0101384 4.98115359 29.87890625 8.1015625 C29.81425171 9.73859131 29.81425171 9.73859131 29.74829102 11.40869141 C29.68697998 12.80007324 29.62566895 14.19145508 29.5625 15.625 C29.376875 20.03875 29.19125 24.4525 29 29 C19.43 29 9.86 29 0 29 C0 19.43 0 9.86 0 0 Z " fill="#CCCCCC" transform="translate(475,30)"/>
<path d="M0 0 C9.57 0 19.14 0 29 0 C29 9.57 29 19.14 29 29 C19.43 29 9.86 29 0 29 C0 19.43 0 9.86 0 0 Z " fill="#FDFDFD" transform="translate(565,564)"/>
<path d="M0 0 C9.57 0 19.14 0 29 0 C29 9.57 29 19.14 29 29 C19.43 29 9.86 29 0 29 C0 19.43 0 9.86 0 0 Z " fill="#FEFEFE" transform="translate(505,564)"/>
<path d="M0 0 C9.57 0 19.14 0 29 0 C29 9.57 29 19.14 29 29 C19.43 29 9.86 29 0 29 C0 19.43 0 9.86 0 0 Z " fill="#FEFEFE" transform="translate(149,564)"/>
<path d="M0 0 C9.57 0 19.14 0 29 0 C29 9.57 29 19.14 29 29 C19.43 29 9.86 29 0 29 C0 19.43 0 9.86 0 0 Z " fill="#FEFEFE" transform="translate(30,564)"/>
<path d="M0 0 C9.57 0 19.14 0 29 0 C29 9.57 29 19.14 29 29 C19.43 29 9.86 29 0 29 C0 19.43 0 9.86 0 0 Z " fill="#CCCCCC" transform="translate(535,505)"/>
<path d="M0 0 C9.57 0 19.14 0 29 0 C29 9.57 29 19.14 29 29 C19.43 29 9.86 29 0 29 C0 19.43 0 9.86 0 0 Z " fill="#CCCCCC" transform="translate(565,475)"/>
<path d="M0 0 C9.57 0 19.14 0 29 0 C29 9.57 29 19.14 29 29 C19.43 29 9.86 29 0 29 C0 19.43 0 9.86 0 0 Z " fill="#FEFEFE" transform="translate(0,475)"/>
<path d="M0 0 C9.57 0 19.14 0 29 0 C29 9.57 29 19.14 29 29 C19.43 29 9.86 29 0 29 C0 19.43 0 9.86 0 0 Z " fill="#CCCCCC" transform="translate(0,446)"/>
<path d="M0 0 C9.57 0 19.14 0 29 0 C29 9.57 29 19.14 29 29 C19.43 29 9.86 29 0 29 C0 19.43 0 9.86 0 0 Z " fill="#CCCCCC" transform="translate(565,416)"/>
<path d="M0 0 C9.57 0 19.14 0 29 0 C29 9.57 29 19.14 29 29 C19.43 29 9.86 29 0 29 C0 19.43 0 9.86 0 0 Z " fill="#FEFEFE" transform="translate(0,119)"/>
<path d="M0 0 C9.57 0 19.14 0 29 0 C29 9.57 29 19.14 29 29 C19.43 29 9.86 29 0 29 C0 19.43 0 9.86 0 0 Z " fill="#FDFDFD" transform="translate(30,89)"/>
<path d="M0 0 C9.57 0 19.14 0 29 0 C29 9.57 29 19.14 29 29 C19.43 29 9.86 29 0 29 C0 19.43 0 9.86 0 0 Z " fill="#FEFEFE" transform="translate(0,60)"/>
<path d="M0 0 C9.57 0 19.14 0 29 0 C29 9.57 29 19.14 29 29 C19.43 29 9.86 29 0 29 C0 19.43 0 9.86 0 0 Z " fill="#FEFEFE" transform="translate(505,30)"/>
<path d="M0 0 C9.57 0 19.14 0 29 0 C29 9.57 29 19.14 29 29 C19.43 29 9.86 29 0 29 C0 19.43 0 9.86 0 0 Z " fill="#FDFDFD" transform="translate(89,30)"/>
<path d="M0 0 C9.57 0 19.14 0 29 0 C29 9.57 29 19.14 29 29 C19.43 29 9.86 29 0 29 C0 19.43 0 9.86 0 0 Z " fill="#FEFEFE" transform="translate(30,30)"/>
<path d="M0 0 C9.57 0 19.14 0 29 0 C29 9.57 29 19.14 29 29 C19.43 29 9.86 29 0 29 C0 19.43 0 9.86 0 0 Z " fill="#CCCCCC" transform="translate(0,30)"/>
<path d="M0 0 C9.57 0 19.14 0 29 0 C29 9.57 29 19.14 29 29 C19.43 29 9.86 29 0 29 C0 19.43 0 9.86 0 0 Z " fill="#FEFEFE" transform="translate(535,0)"/>
<path d="M0 0 C9.57 0 19.14 0 29 0 C29 9.57 29 19.14 29 29 C19.43 29 9.86 29 0 29 C0 19.43 0 9.86 0 0 Z " fill="#CCCCCC" transform="translate(505,0)"/>
<path d="M0 0 C9.57 0 19.14 0 29 0 C29 9.57 29 19.14 29 29 C19.43 29 9.86 29 0 29 C0 19.43 0 9.86 0 0 Z " fill="#FEFEFE" transform="translate(416,0)"/>
<path d="M0 0 C9.57 0 19.14 0 29 0 C29 9.57 29 19.14 29 29 C19.43 29 9.86 29 0 29 C0 19.43 0 9.86 0 0 Z " fill="#FEFEFE" transform="translate(119,0)"/>
<path d="M0 0 C9.57 0 19.14 0 29 0 C29 9.57 29 19.14 29 29 C19.43 29 9.86 29 0 29 C0 19.43 0 9.86 0 0 Z " fill="#FEFEFE" transform="translate(60,0)"/>
<path d="M0 0 C9.57 0 19.14 0 29 0 C29 9.57 29 19.14 29 29 C19.43 29 9.86 29 0 29 C0 19.43 0 9.86 0 0 Z " fill="#CCCCCC" transform="translate(30,0)"/>
<path d="M0 0 C9.57 0 19.14 0 29 0 C29 9.57 29 19.14 29 29 C19.43 29 9.86 29 0 29 C0 19.43 0 9.86 0 0 Z " fill="#FEFEFE" transform="translate(0,0)"/>
<path d="M0 0 C0.33 0.66 0.66 1.32 1 2 C1.6705542 1.99476318 2.3411084 1.98952637 3.03198242 1.98413086 C6.083812 1.96328395 9.13562656 1.95031531 12.1875 1.9375 C13.77014648 1.92493164 13.77014648 1.92493164 15.38476562 1.91210938 C16.91713867 1.90727539 16.91713867 1.90727539 18.48046875 1.90234375 C19.41785889 1.89710693 20.35524902 1.89187012 21.32104492 1.88647461 C24 2 24 2 29 3 C29 12.24 29 21.48 29 31 C19.43 31 9.86 31 0 31 C0 21.43 0 11.86 0 2 C-0.99 1.67 -1.98 1.34 -3 1 C-2.01 0.67 -1.02 0.34 0 0 Z " fill="#CCCCCC" transform="translate(416,562)"/>
<path d="M0 0 C9.57 0 19.14 0 29 0 C29 9.57 29 19.14 29 29 C24.400625 29.020625 19.80125 29.04125 15.0625 29.0625 C13.60980713 29.071604 12.15711426 29.08070801 10.66040039 29.09008789 C9.52594482 29.09258545 8.39148926 29.09508301 7.22265625 29.09765625 C5.47094116 29.10551147 5.47094116 29.10551147 3.68383789 29.11352539 C1 29 1 29 0 28 C-0.08767112 25.92737924 -0.10695873 23.85179706 -0.09765625 21.77734375 C-0.09515869 20.64288818 -0.09266113 19.50843262 -0.09008789 18.33959961 C-0.08098389 16.88690674 -0.07187988 15.43421387 -0.0625 13.9375 C-0.041875 9.338125 -0.02125 4.73875 0 0 Z " fill="#FEFEFE" transform="translate(535,535)"/>
<path d="M0 0 C9.57 0 19.14 0 29 0 C29.020625 4.599375 29.04125 9.19875 29.0625 13.9375 C29.071604 15.39019287 29.08070801 16.84288574 29.09008789 18.33959961 C29.09258545 19.47405518 29.09508301 20.60851074 29.09765625 21.77734375 C29.10551147 23.52905884 29.10551147 23.52905884 29.11352539 25.31616211 C29 28 29 28 28 29 C25.92737924 29.08767112 23.85179706 29.10695873 21.77734375 29.09765625 C20.64288818 29.09515869 19.50843262 29.09266113 18.33959961 29.09008789 C16.1605603 29.07643188 16.1605603 29.07643188 13.9375 29.0625 C7.0384375 29.0315625 7.0384375 29.0315625 0 29 C0 19.43 0 9.86 0 0 Z " fill="#FDFDFD" transform="translate(60,535)"/>
<path d="M0 0 C9.57 0 19.14 0 29 0 C29 9.57 29 19.14 29 29 C24.400625 29.020625 19.80125 29.04125 15.0625 29.0625 C13.60980713 29.071604 12.15711426 29.08070801 10.66040039 29.09008789 C9.52594482 29.09258545 8.39148926 29.09508301 7.22265625 29.09765625 C5.47094116 29.10551147 5.47094116 29.10551147 3.68383789 29.11352539 C1 29 1 29 0 28 C-0.08767112 25.92737924 -0.10695873 23.85179706 -0.09765625 21.77734375 C-0.09515869 20.64288818 -0.09266113 19.50843262 -0.09008789 18.33959961 C-0.08098389 16.88690674 -0.07187988 15.43421387 -0.0625 13.9375 C-0.041875 9.338125 -0.02125 4.73875 0 0 Z " fill="#FEFEFE" transform="translate(30,505)"/>
<path d="M0 0 C1.16781006 0.00523682 2.33562012 0.01047363 3.53881836 0.01586914 C4.67327393 0.0183667 5.80772949 0.02086426 6.9765625 0.0234375 C9.15560181 0.03709351 9.15560181 0.03709351 11.37866211 0.05102539 C15.97803711 0.07165039 20.57741211 0.09227539 25.31616211 0.11352539 C25.31616211 9.68352539 25.31616211 19.25352539 25.31616211 29.11352539 C15.74616211 29.11352539 6.17616211 29.11352539 -3.68383789 29.11352539 C-3.70446289 24.51415039 -3.72508789 19.91477539 -3.74633789 15.17602539 C-3.75544189 13.72333252 -3.7645459 12.27063965 -3.77392578 10.77392578 C-3.77642334 9.63947021 -3.7789209 8.50501465 -3.78149414 7.33618164 C-3.78673096 6.16837158 -3.79196777 5.00056152 -3.79736328 3.79736328 C-3.64461122 0.18617326 -3.61119002 0.15275206 0 0 Z " fill="#CCCCCC" transform="translate(33.683837890625,474.886474609375)"/>
<path d="M0 0 C9.57 0 19.14 0 29 0 C29.020625 4.599375 29.04125 9.19875 29.0625 13.9375 C29.071604 15.39019287 29.08070801 16.84288574 29.09008789 18.33959961 C29.09258545 19.47405518 29.09508301 20.60851074 29.09765625 21.77734375 C29.10551147 23.52905884 29.10551147 23.52905884 29.11352539 25.31616211 C29 28 29 28 28 29 C25.92737924 29.08767112 23.85179706 29.10695873 21.77734375 29.09765625 C20.64288818 29.09515869 19.50843262 29.09266113 18.33959961 29.09008789 C16.1605603 29.07643188 16.1605603 29.07643188 13.9375 29.0625 C7.0384375 29.0315625 7.0384375 29.0315625 0 29 C0 19.43 0 9.86 0 0 Z " fill="#FEFEFE" transform="translate(0,416)"/>
<path d="M0 0 C9.57 0 19.14 0 29 0 C29.020625 4.599375 29.04125 9.19875 29.0625 13.9375 C29.071604 15.39019287 29.08070801 16.84288574 29.09008789 18.33959961 C29.09258545 19.47405518 29.09508301 20.60851074 29.09765625 21.77734375 C29.10551147 23.52905884 29.10551147 23.52905884 29.11352539 25.31616211 C29 28 29 28 28 29 C25.92737924 29.08767112 23.85179706 29.10695873 21.77734375 29.09765625 C20.64288818 29.09515869 19.50843262 29.09266113 18.33959961 29.09008789 C16.1605603 29.07643188 16.1605603 29.07643188 13.9375 29.0625 C7.0384375 29.0315625 7.0384375 29.0315625 0 29 C0 19.43 0 9.86 0 0 Z " fill="#FDFDFD" transform="translate(60,60)"/>
<path d="M0 0 C9.57 0 19.14 0 29 0 C29.020625 4.599375 29.04125 9.19875 29.0625 13.9375 C29.071604 15.39019287 29.08070801 16.84288574 29.09008789 18.33959961 C29.09258545 19.47405518 29.09508301 20.60851074 29.09765625 21.77734375 C29.10551147 23.52905884 29.10551147 23.52905884 29.11352539 25.31616211 C29 28 29 28 28 29 C25.92737924 29.08767112 23.85179706 29.10695873 21.77734375 29.09765625 C20.64288818 29.09515869 19.50843262 29.09266113 18.33959961 29.09008789 C16.1605603 29.07643188 16.1605603 29.07643188 13.9375 29.0625 C7.0384375 29.0315625 7.0384375 29.0315625 0 29 C0 19.43 0 9.86 0 0 Z " fill="#CCCCCC" transform="translate(149,0)"/>
<path d="M0 0 C1.16781006 0.00523682 2.33562012 0.01047363 3.53881836 0.01586914 C4.67327393 0.0183667 5.80772949 0.02086426 6.9765625 0.0234375 C9.15560181 0.03709351 9.15560181 0.03709351 11.37866211 0.05102539 C15.97803711 0.07165039 20.57741211 0.09227539 25.31616211 0.11352539 C25.31616211 9.68352539 25.31616211 19.25352539 25.31616211 29.11352539 C15.74616211 29.11352539 6.17616211 29.11352539 -3.68383789 29.11352539 C-3.70446289 24.51415039 -3.72508789 19.91477539 -3.74633789 15.17602539 C-3.75544189 13.72333252 -3.7645459 12.27063965 -3.77392578 10.77392578 C-3.77642334 9.63947021 -3.7789209 8.50501465 -3.78149414 7.33618164 C-3.78673096 6.16837158 -3.79196777 5.00056152 -3.79736328 3.79736328 C-3.64461122 0.18617326 -3.61119002 0.15275206 0 0 Z " fill="#CCCCCC" transform="translate(122.683837890625,563.886474609375)"/>
<path d="M0 0 C9.57 0 19.14 0 29 0 C29 9.24 29 18.48 29 28 C26.23382437 29.38308781 23.98982 29.11210196 20.8984375 29.09765625 C19.80708496 29.09515869 18.71573242 29.09266113 17.59130859 29.09008789 C16.19992676 29.08098389 14.80854492 29.07187988 13.375 29.0625 C8.96125 29.041875 4.5475 29.02125 0 29 C0 19.43 0 9.86 0 0 Z " fill="#FEFEFE" transform="translate(0,535)"/>
<path d="M0 0 C1.16781006 0.00523682 2.33562012 0.01047363 3.53881836 0.01586914 C4.79887695 0.0190918 6.05893555 0.02231445 7.35717773 0.02563477 C8.6976732 0.03399136 10.03816799 0.04245632 11.37866211 0.05102539 C12.72306153 0.05603879 14.06746271 0.06060197 15.41186523 0.06469727 C18.71334151 0.07653051 22.01473014 0.09301568 25.31616211 0.11352539 C25.57118485 4.19567571 25.79069197 8.2789823 26.00366211 12.36352539 C26.07649414 13.52239258 26.14932617 14.68125977 26.22436523 15.87524414 C26.27915039 16.9902832 26.33393555 18.10532227 26.39038086 19.25415039 C26.47678833 20.79377441 26.47678833 20.79377441 26.56494141 22.36450195 C26.26739379 25.65241771 25.79709034 26.92855851 23.31616211 29.11352539 C20.49707031 29.56762695 20.49707031 29.56762695 17.11694336 29.50415039 C15.90844727 29.49125977 14.69995117 29.47836914 13.45483398 29.46508789 C12.19219727 29.43157227 10.92956055 29.39805664 9.62866211 29.36352539 C8.35442383 29.34547852 7.08018555 29.32743164 5.76733398 29.30883789 C2.6161937 29.2616298 -0.53344929 29.19578923 -3.68383789 29.11352539 C-3.7084967 25.1442155 -3.72667812 21.17493505 -3.73876953 17.20556641 C-3.74380846 15.85432153 -3.75063966 14.50308213 -3.75927734 13.15185547 C-3.77136208 11.21332105 -3.77653617 9.27474739 -3.78149414 7.33618164 C-3.78673096 6.16837158 -3.79196777 5.00056152 -3.79736328 3.79736328 C-3.64461122 0.18617326 -3.61119002 0.15275206 0 0 Z " fill="#CCCCCC" transform="translate(33.683837890625,118.886474609375)"/>
<path d="M0 0 C1.16781006 0.00523682 2.33562012 0.01047363 3.53881836 0.01586914 C4.79887695 0.0190918 6.05893555 0.02231445 7.35717773 0.02563477 C8.6976732 0.03399136 10.03816799 0.04245632 11.37866211 0.05102539 C12.72306153 0.05603879 14.06746271 0.06060197 15.41186523 0.06469727 C18.71334151 0.07653051 22.01473014 0.09301568 25.31616211 0.11352539 C25.46099253 4.55068394 25.55007963 8.98723816 25.62866211 13.42602539 C25.67055664 14.68866211 25.71245117 15.95129883 25.75561523 17.25219727 C25.77172852 18.46069336 25.7878418 19.66918945 25.80444336 20.91430664 C25.83062744 22.02974854 25.85681152 23.14519043 25.88378906 24.29443359 C25.31616211 27.11352539 25.31616211 27.11352539 23.14428711 28.99633789 C19.99182028 30.24164937 17.94840354 30.38601018 14.57788086 30.18774414 C13.51118164 30.13295898 12.44448242 30.07817383 11.34545898 30.02172852 C10.24266602 29.94889648 9.13987305 29.87606445 8.00366211 29.80102539 C6.32046875 29.70917969 6.32046875 29.70917969 4.60327148 29.61547852 C1.83973959 29.46260228 -0.92204803 29.29480853 -3.68383789 29.11352539 C-3.7084967 25.1442155 -3.72667812 21.17493505 -3.73876953 17.20556641 C-3.74380846 15.85432153 -3.75063966 14.50308213 -3.75927734 13.15185547 C-3.77136208 11.21332105 -3.77653617 9.27474739 -3.78149414 7.33618164 C-3.78673096 6.16837158 -3.79196777 5.00056152 -3.79736328 3.79736328 C-3.64461122 0.18617326 -3.61119002 0.15275206 0 0 Z " fill="#CCCCCC" transform="translate(122.683837890625,29.886474609375)"/>
<path d="M0 0 C3.856875 -0.020625 7.71375 -0.04125 11.6875 -0.0625 C13.4986731 -0.07615601 13.4986731 -0.07615601 15.34643555 -0.09008789 C16.308479 -0.09258545 17.27052246 -0.09508301 18.26171875 -0.09765625 C19.24100342 -0.10289307 20.22028809 -0.10812988 21.22924805 -0.11352539 C24 0 24 0 29 1 C29 10.24 29 19.48 29 29 C19.43 29 9.86 29 0 29 C0 19.43 0 9.86 0 0 Z " fill="#CCCCCC" transform="translate(0,564)"/>
<path d="M0 0 C9.57 0 19.14 0 29 0 C29 9.24 29 18.48 29 28 C25.10828687 28.77834263 22.15001261 29.11844927 18.26171875 29.09765625 C17.29967529 29.09515869 16.33763184 29.09266113 15.34643555 29.09008789 C14.13898682 29.08098389 12.93153809 29.07187988 11.6875 29.0625 C7.830625 29.041875 3.97375 29.02125 0 29 C0 19.43 0 9.86 0 0 Z " fill="#CCCCCC" transform="translate(0,149)"/>
<path d="M0 0 C9.57 0 19.14 0 29 0 C29.020625 3.856875 29.04125 7.71375 29.0625 11.6875 C29.071604 12.89494873 29.08070801 14.10239746 29.09008789 15.34643555 C29.09258545 16.308479 29.09508301 17.27052246 29.09765625 18.26171875 C29.10551147 19.73064575 29.10551147 19.73064575 29.11352539 21.22924805 C29 24 29 24 28 29 C18.76 29 9.52 29 0 29 C0 19.43 0 9.86 0 0 Z " fill="#CCCCCC" transform="translate(446,0)"/>
<path d="M0 0 C9.24 0 18.48 0 28 0 C28 9.57 28 19.14 28 29 C18.76 29 9.52 29 0 29 C0 19.43 0 9.86 0 0 Z " fill="#FEFEFE" transform="translate(90,564)"/>
<path d="M0 0 C9.24 0 18.48 0 28 0 C28 9.57 28 19.14 28 29 C18.76 29 9.52 29 0 29 C0 19.43 0 9.86 0 0 Z " fill="#CCCCCC" transform="translate(565,535)"/>
<path d="M0 0 C9.24 0 18.48 0 28 0 C28 9.57 28 19.14 28 29 C18.76 29 9.52 29 0 29 C0 19.43 0 9.86 0 0 Z " fill="#FEFEFE" transform="translate(565,505)"/>
<path d="M0 0 C9.24 0 18.48 0 28 0 C28 9.57 28 19.14 28 29 C18.76 29 9.52 29 0 29 C0 19.43 0 9.86 0 0 Z " fill="#CCCCCC" transform="translate(565,119)"/>
<path d="M0 0 C9.57 0 19.14 0 29 0 C29 9.24 29 18.48 29 28 C19.43 28 9.86 28 0 28 C0 18.76 0 9.52 0 0 Z " fill="#CCCCCC" transform="translate(0,90)"/>
<path d="M0 0 C9.57 0 19.14 0 29 0 C29 9.24 29 18.48 29 28 C19.43 28 9.86 28 0 28 C0 18.76 0 9.52 0 0 Z " fill="#FEFEFE" transform="translate(535,60)"/>
<path d="M0 0 C9.24 0 18.48 0 28 0 C28 9.57 28 19.14 28 29 C18.76 29 9.52 29 0 29 C0 19.43 0 9.86 0 0 Z " fill="#FEFEFE" transform="translate(476,0)"/>
<path d="M0 0 C9.57 0 19.14 0 29 0 C29 9.57 29 19.14 29 29 C24.3284375 29.185625 24.3284375 29.185625 19.5625 29.375 C18.60029541 29.42962402 17.63809082 29.48424805 16.64672852 29.54052734 C10.7857881 29.65175425 6.41529647 28.62249429 1.67211914 25.06787109 C-1.66520432 20.9406803 -0.92285994 16.16578717 -0.5625 11.125 C-0.376875 7.45375 -0.19125 3.7825 0 0 Z " fill="#FDFDFD" transform="translate(446,30)"/>
<path d="M0 0 C1.44681152 0.00374634 1.44681152 0.00374634 2.92285156 0.00756836 C4.74768066 0.02122437 4.74768066 0.02122437 6.609375 0.03515625 C10.486875 0.05578125 14.364375 0.07640625 18.359375 0.09765625 C18.359375 9.66765625 18.359375 19.23765625 18.359375 29.09765625 C12.2646875 29.37609375 12.2646875 29.37609375 6.046875 29.66015625 C4.76901123 29.72146729 3.49114746 29.78277832 2.17456055 29.84594727 C1.1669165 29.88905029 0.15927246 29.93215332 -0.87890625 29.9765625 C-1.91055908 30.02369385 -2.94221191 30.0708252 -4.00512695 30.11938477 C-6.640625 30.09765625 -6.640625 30.09765625 -9.640625 29.09765625 C-9.640625 19.85765625 -9.640625 10.61765625 -9.640625 1.09765625 C-6.11780386 0.21695096 -3.5783246 -0.01903364 0 0 Z " fill="#CCCCCC" transform="translate(69.640625,563.90234375)"/>
<path d="M0 0 C9.24 0 18.48 0 28 0 C28 9.57 28 19.14 28 29 C23.936875 29.020625 19.87375 29.04125 15.6875 29.0625 C14.40963623 29.071604 13.13177246 29.08070801 11.81518555 29.09008789 C10.8075415 29.09258545 9.79989746 29.09508301 8.76171875 29.09765625 C7.2142395 29.10551147 7.2142395 29.10551147 5.63549805 29.11352539 C3 29 3 29 0 28 C0 18.76 0 9.52 0 0 Z " fill="#CCCCCC" transform="translate(90,535)"/>
<path d="M0 0 C1.44681152 0.00374634 1.44681152 0.00374634 2.92285156 0.00756836 C4.74768066 0.02122437 4.74768066 0.02122437 6.609375 0.03515625 C10.486875 0.05578125 14.364375 0.07640625 18.359375 0.09765625 C18.359375 9.66765625 18.359375 19.23765625 18.359375 29.09765625 C9.119375 29.09765625 -0.120625 29.09765625 -9.640625 29.09765625 C-9.640625 19.85765625 -9.640625 10.61765625 -9.640625 1.09765625 C-6.11780386 0.21695096 -3.5783246 -0.01903364 0 0 Z " fill="#CCCCCC" transform="translate(485.640625,563.90234375)"/>
<path d="M0 0 C9.73089275 -0.83012355 18.71444543 -1.3034766 26.92578125 4.82421875 C31.46894681 11.7801389 29.84077294 21.04930615 29 29 C25.03069011 29.02465881 21.06140966 29.04284023 17.09204102 29.05493164 C15.74079614 29.05997057 14.38955674 29.06680177 13.03833008 29.07543945 C11.09979566 29.08752419 9.161222 29.09269828 7.22265625 29.09765625 C5.47094116 29.10551147 5.47094116 29.10551147 3.68383789 29.11352539 C1 29 1 29 0 28 C-0.08767112 25.92737924 -0.10695873 23.85179706 -0.09765625 21.77734375 C-0.09443359 20.51728516 -0.09121094 19.25722656 -0.08789062 17.95898438 C-0.07953403 16.61848891 -0.07106907 15.27799412 -0.0625 13.9375 C-0.0574866 12.59310058 -0.05292342 11.2486994 -0.04882812 9.90429688 C-0.03699488 6.60282059 -0.02050971 3.30143197 0 0 Z " fill="#FDFDFD" transform="translate(119,535)"/>
<path d="M0 0 C9.57 0 19.14 0 29 0 C29 9.57 29 19.14 29 29 C10.16305587 30.41277081 10.16305587 30.41277081 4.82421875 26.92578125 C-1.45123483 18.516444 -0.64454037 9.9903757 0 0 Z " fill="#FDFDFD" transform="translate(535,119)"/>
<path d="M0 0 C9.24 0 18.48 0 28 0 C28 9.57 28 19.14 28 29 C14.14 28.505 14.14 28.505 0 28 C0 18.76 0 9.52 0 0 Z " fill="#CBCBCB" transform="translate(565,60)"/>
<path d="M0 0 C9.24 0 18.48 0 28 0 C28 9.24 28 18.48 28 28 C18.76 28 9.52 28 0 28 C0 18.76 0 9.52 0 0 Z " fill="#FEFEFE" transform="translate(565,149)"/>
<path d="M0 0 C9.24 0 18.48 0 28 0 C28 9.24 28 18.48 28 28 C18.76 28 9.52 28 0 28 C0 18.76 0 9.52 0 0 Z " fill="#CBCBCB" transform="translate(535,90)"/>
<path d="M0 0 C9.24 0 18.48 0 28 0 C28 9.24 28 18.48 28 28 C18.76 28 9.52 28 0 28 C0 18.76 0 9.52 0 0 Z " fill="#CCCCCC" transform="translate(60,30)"/>
<path d="M0 0 C3.67125 -0.185625 7.3425 -0.37125 11.125 -0.5625 C12.2711377 -0.64443604 13.41727539 -0.72637207 14.59814453 -0.81079102 C21.82043635 -0.98745412 21.82043635 -0.98745412 25.06567383 1.72924805 C28.88652032 6.93589378 29.83642135 11.60532589 29.4375 17.9375 C29.41880859 18.69095703 29.40011719 19.44441406 29.38085938 20.22070312 C29.20286284 25.59427433 29.20286284 25.59427433 28 28 C18.76 28 9.52 28 0 28 C0 18.76 0 9.52 0 0 Z " fill="#FEFEFE" transform="translate(30,446)"/>
<path d="M0 0 C0.92490234 0.36738281 1.84980469 0.73476563 2.80273438 1.11328125 C3.74568359 1.51160156 4.68863281 1.90992188 5.66015625 2.3203125 C6.63017578 2.71089844 7.60019531 3.10148438 8.59960938 3.50390625 C10.9820628 4.4662766 13.35513879 5.44688893 15.72265625 6.4453125 C15.75153439 9.92446191 15.76941312 13.40358081 15.78515625 16.8828125 C15.79353516 17.87603516 15.80191406 18.86925781 15.81054688 19.89257812 C15.81538086 21.30893555 15.81538086 21.30893555 15.8203125 22.75390625 C15.82816772 24.06572876 15.82816772 24.06572876 15.83618164 25.40405273 C15.72265625 27.4453125 15.72265625 27.4453125 14.72265625 28.4453125 C12.72300643 28.53289253 10.72029515 28.55227826 8.71875 28.54296875 C7.6248999 28.54047119 6.5310498 28.53797363 5.40405273 28.53540039 C4.00356689 28.52629639 2.60308105 28.51719238 1.16015625 28.5078125 C-5.49140625 28.476875 -5.49140625 28.476875 -12.27734375 28.4453125 C-12.27734375 19.2053125 -12.27734375 9.9653125 -12.27734375 0.4453125 C-4.40234375 -1.8046875 -4.40234375 -1.8046875 0 0 Z " fill="#CBCBCB" transform="translate(191.27734375,564.5546875)"/>
<path d="M0 0 C9.24 0 18.48 0 28 0 C30.04377357 14.18619304 30.04377357 14.18619304 27.16796875 19.18359375 C24.8948953 21.6549644 22.57543956 23.84942037 20 26 C19.54036865 26.53302734 19.0807373 27.06605469 18.60717773 27.61523438 C17 29 17 29 15.09887695 29.2487793 C14.40238037 29.19117432 13.70588379 29.13356934 12.98828125 29.07421875 C12.30548096 29.02612061 11.62268066 28.97802246 10.91918945 28.9284668 C10.05898193 28.84894775 9.19877441 28.76942871 8.3125 28.6875 C5.569375 28.460625 2.82625 28.23375 0 28 C0 18.76 0 9.52 0 0 Z " fill="#CBCBCB" transform="translate(60,90)"/>
<path d="M0 0 C9.24 0 18.48 0 28 0 C28.0309375 6.6515625 28.0309375 6.6515625 28.0625 13.4375 C28.071604 14.83798584 28.08070801 16.23847168 28.09008789 17.68139648 C28.09258545 18.77524658 28.09508301 19.86909668 28.09765625 20.99609375 C28.10551147 22.68496704 28.10551147 22.68496704 28.11352539 24.40795898 C28 27 28 27 27 28 C25.43827255 28.08685603 23.87270656 28.10702219 22.30859375 28.09765625 C21.36435547 28.09443359 20.42011719 28.09121094 19.44726562 28.08789062 C18.45404297 28.07951172 17.46082031 28.07113281 16.4375 28.0625 C15.44041016 28.05798828 14.44332031 28.05347656 13.41601562 28.04882812 C10.94395151 28.03700007 8.47200482 28.02051849 6 28 C4.78467104 25.2177756 3.60350396 22.42785142 2.4375 19.625 C2.09525391 18.85027344 1.75300781 18.07554687 1.40039062 17.27734375 C1.08134766 16.49746094 0.76230469 15.71757812 0.43359375 14.9140625 C-0.01415405 13.8614624 -0.01415405 13.8614624 -0.47094727 12.78759766 C-1 10 -1 10 0 0 Z " fill="#CBCBCB" transform="translate(565,179)"/>
<path d="M0 0 C0.78761719 0.10828125 1.57523437 0.2165625 2.38671875 0.328125 C4.3125 0.75 4.3125 0.75 5.3125 1.75 C5.40017112 3.82262076 5.41945873 5.89820294 5.41015625 7.97265625 C5.40693359 9.23271484 5.40371094 10.49277344 5.40039062 11.79101562 C5.39203403 13.13151109 5.38356907 14.47200588 5.375 15.8125 C5.3699866 17.15689942 5.36542342 18.5013006 5.36132812 19.84570312 C5.34949488 23.14717941 5.33300971 26.44856803 5.3125 29.75 C0.85418018 29.77891546 -3.60411569 29.79676981 -8.0625 29.8125 C-9.33351563 29.82087891 -10.60453125 29.82925781 -11.9140625 29.83789062 C-13.73164063 29.84272461 -13.73164063 29.84272461 -15.5859375 29.84765625 C-17.26695557 29.85551147 -17.26695557 29.85551147 -18.98193359 29.86352539 C-21.6875 29.75 -21.6875 29.75 -23.6875 28.75 C-23.99991455 26.03553021 -24.20086592 23.41090639 -24.3125 20.6875 C-24.35117187 19.92888672 -24.38984375 19.17027344 -24.4296875 18.38867188 C-24.52423562 16.50952805 -24.60696756 14.62979664 -24.6875 12.75 C-23.02460938 11.71939453 -23.02460938 11.71939453 -21.328125 10.66796875 C-19.86452344 9.75790881 -18.40098509 8.84774722 -16.9375 7.9375 C-16.20789063 7.48568359 -15.47828125 7.03386719 -14.7265625 6.56835938 C-14.01757812 6.12685547 -13.30859375 5.68535156 -12.578125 5.23046875 C-11.89210205 4.80330566 -11.2060791 4.37614258 -10.49926758 3.93603516 C-8.56317015 2.71674578 -8.56317015 2.71674578 -6.46484375 0.91015625 C-4.09884431 -0.63424338 -2.75654908 -0.41917771 0 0 Z " fill="#CBCBCB" transform="translate(469.6875,534.25)"/>
<path d="M0 0 C9.24 0 18.48 0 28 0 C27.01 3.63 26.02 7.26 25 11 C24.09391029 14.56054969 23.19544462 18.121329 22.3125 21.6875 C21.549375 24.760625 20.78625 27.83375 20 31 C13.4 30.67 6.8 30.34 0 30 C0 20.1 0 10.2 0 0 Z " fill="#CCCCCC" transform="translate(0,208)"/>
<path d="M0 0 C9.9 0 19.8 0 30 0 C30.33 6.6 30.66 13.2 31 20 C27.33346689 20.95884665 23.66677863 21.91709307 20 22.875 C18.97003906 23.14441406 17.94007813 23.41382812 16.87890625 23.69140625 C15.86699219 23.95566406 14.85507813 24.21992188 13.8125 24.4921875 C12.42998047 24.85352783 12.42998047 24.85352783 11.01953125 25.22216797 C7.35120092 26.16713081 3.67498407 27.08125398 0 28 C0 18.76 0 9.52 0 0 Z " fill="#CCCCCC" transform="translate(208,0)"/>
<path d="M0 0 C9.57 0 19.14 0 29 0 C29.020625 4.599375 29.04125 9.19875 29.0625 13.9375 C29.071604 15.39019287 29.08070801 16.84288574 29.09008789 18.33959961 C29.09258545 19.47405518 29.09508301 20.60851074 29.09765625 21.77734375 C29.10551147 23.52905884 29.10551147 23.52905884 29.11352539 25.31616211 C29 28 29 28 28 29 C24.51990287 29.74523292 21.47985486 29.75084005 18 29 C15.13180288 27.02193302 12.83952098 24.83867891 10.40625 22.34765625 C8.14444653 20.14092916 6.10500554 18.84572494 3.375 17.3125 C2.26125 16.219375 1.1475 15.12625 0 14 C0 9.38 0 4.76 0 0 Z " fill="#FCFCFC" transform="translate(476,60)"/>
<path d="M0 0 C0 9.24 0 18.48 0 28 C-9.24 28 -18.48 28 -28 28 C-28.103125 24.926875 -28.20625 21.85375 -28.3125 18.6875 C-28.35802002 17.72287842 -28.40354004 16.75825684 -28.45043945 15.7644043 C-28.48855724 13.43233369 -28.43191827 11.29402764 -28 9 C-26.0078125 7.09375 -26.0078125 7.09375 -23 6 C-22.3702124 5.74516846 -21.7404248 5.49033691 -21.09155273 5.2277832 C-18.93236317 4.36597593 -16.75541954 3.58411808 -14.5625 2.8125 C-13.82451172 2.53986328 -13.08652344 2.26722656 -12.32617188 1.98632812 C-11.60107422 1.72916016 -10.87597656 1.47199219 -10.12890625 1.20703125 C-9.47994385 0.9747583 -8.83098145 0.74248535 -8.16235352 0.50317383 C-6 0 -6 0 0 0 Z " fill="#FCFCFC" transform="translate(415,565)"/>
<path d="M0 0 C0.78552246 0.01047363 1.57104492 0.02094727 2.38037109 0.03173828 C3.53013428 0.03923096 3.53013428 0.03923096 4.703125 0.046875 C5.67685059 0.06508301 6.65057617 0.08329102 7.65380859 0.10205078 C10.74755859 0.14330078 13.84130859 0.18455078 17.02880859 0.22705078 C17.02880859 9.46705078 17.02880859 18.70705078 17.02880859 28.22705078 C7.78880859 28.22705078 -1.45119141 28.22705078 -10.97119141 28.22705078 C-9.84507881 18.09203743 -9.84507881 18.09203743 -8.63134766 14.69970703 C-8.24366211 13.60625977 -8.24366211 13.60625977 -7.84814453 12.49072266 C-7.579375 11.76433594 -7.31060547 11.03794922 -7.03369141 10.28955078 C-6.76878906 9.53609375 -6.50388672 8.78263672 -6.23095703 8.00634766 C-3.48728605 0.40168145 -3.48728605 0.40168145 0 0 Z " fill="#FCFCFC" transform="translate(575.97119140625,386.77294921875)"/>
<path d="M0 0 C11 0 11 0 15.0625 3.5 C15.68253906 4.23863281 16.30257812 4.97726562 16.94140625 5.73828125 C19.23193214 8.25481728 21.66381459 9.82190258 24.5 11.6875 C26.7275 13.8221875 26.7275 13.8221875 29 16 C29 20.29 29 24.58 29 29 C19.43 29 9.86 29 0 29 C0 19.43 0 9.86 0 0 Z " fill="#FCFCFC" transform="translate(89,505)"/>
<path d="M0 0 C13 0 13 0 16.5 2.6328125 C17.80859375 4.328125 17.80859375 4.328125 19 6.125 C19.42410156 6.69476563 19.84820312 7.26453125 20.28515625 7.8515625 C21.1338359 8.99351676 21.96110136 10.151714 22.765625 11.32519531 C24.14722199 13.2880412 24.14722199 13.2880412 26.8125 15.8046875 C29 19 29 19 29 29 C19.43 29 9.86 29 0 29 C0 19.43 0 9.86 0 0 Z " fill="#FDFDFD" transform="translate(60,475)"/>
<path d="M0 0 C5.28 0.33 10.56 0.66 16 1 C16 10.24 16 19.48 16 29 C6.76 29 -2.48 29 -12 29 C-13.12488593 18.87602667 -13.12488593 18.87602667 -10.5078125 15.25390625 C-9.96769531 14.47982422 -9.42757812 13.70574219 -8.87109375 12.90820312 C-8.00677734 11.74708008 -8.00677734 11.74708008 -7.125 10.5625 C-6.0024899 8.98054982 -4.88008866 7.3985224 -3.7578125 5.81640625 C-3.2539502 5.13006104 -2.75008789 4.44371582 -2.23095703 3.73657227 C-0.94313897 2.0132717 -0.94313897 2.0132717 0 0 Z " fill="#CACACA" transform="translate(547,445)"/>
<path d="M0 0 C9.9 0 19.8 0 30 0 C30 8.58 30 17.16 30 26 C23.91756887 24.78351377 18.12702892 23.57320273 12.1875 21.9375 C8.12022011 20.82057858 4.14079931 19.82815986 0 19 C0 12.73 0 6.46 0 0 Z " fill="#FCFCFC" transform="translate(356,0)"/>
<path d="M0 0 C6.27 0 12.54 0 19 0 C20.875 8.5625 20.875 8.5625 21.45263672 11.21704102 C22.24406575 14.80358352 23.08546134 18.27006902 24.1953125 21.77734375 C25 25 25 25 24 30 C16.08 30 8.16 30 0 30 C0 20.1 0 10.2 0 0 Z " fill="#FCFCFC" transform="translate(0,356)"/>
<path d="M0 0 C9.57 0 19.14 0 29 0 C29 9.24 29 18.48 29 28 C16 28 16 28 13.0078125 25.83984375 C12.38648438 24.88207031 11.76515625 23.92429687 11.125 22.9375 C8.59199777 19.2667537 6.36865753 16.28652501 2.9375 13.4375 C0 10 0 10 0 0 Z " fill="#FDFDFD" transform="translate(505,90)"/>
<path d="M0 0 C2.74489644 2.74489644 2.32367585 4.44365057 2.44921875 8.28515625 C2.49240234 9.53748047 2.53558594 10.78980469 2.58007812 12.08007812 C2.63325195 14.05137695 2.63325195 14.05137695 2.6875 16.0625 C2.73455078 17.38056641 2.78160156 18.69863281 2.83007812 20.05664062 C3.05571563 27.23635207 3.05571563 27.23635207 3 30 C2 31 2 31 -0.77563477 31.11352539 C-1.98533936 31.10828857 -3.19504395 31.10305176 -4.44140625 31.09765625 C-5.74658203 31.09443359 -7.05175781 31.09121094 -8.39648438 31.08789062 C-9.7851569 31.07953401 -11.17382877 31.07106905 -12.5625 31.0625 C-13.95507656 31.05748666 -15.34765481 31.05292347 -16.74023438 31.04882812 C-20.1601987 31.03699434 -23.58007844 31.0205088 -27 31 C-27 29.35 -27 27.7 -27 26 C-27.66 25.67 -28.32 25.34 -29 25 C-28.23558594 24.44054687 -27.47117187 23.88109375 -26.68359375 23.3046875 C-17.16747858 16.22170411 -8.38898357 8.38898357 0 0 Z " fill="#CACACA" transform="translate(502,503)"/>
<path d="M0 0 C0.33 0.66 0.66 1.32 1 2 C2.65 2 4.3 2 6 2 C6 11.57 6 21.14 6 31 C-1.115625 31.061875 -1.115625 31.061875 -8.375 31.125 C-9.8707959 31.14320801 -11.3665918 31.16141602 -12.90771484 31.18017578 C-14.08027832 31.1851709 -15.2528418 31.19016602 -16.4609375 31.1953125 C-17.66540527 31.20578613 -18.86987305 31.21625977 -20.11083984 31.22705078 C-23 31 -23 31 -25 29 C-24.38253906 28.40574219 -23.76507813 27.81148438 -23.12890625 27.19921875 C-14.54587923 18.79908729 -7.08324548 9.6943242 0 0 Z " fill="#CACACA" transform="translate(528,473)"/>
<path d="M0 0 C8.25 0 16.5 0 25 0 C23.51987937 4.44036188 22.22746922 7.66186745 19.9609375 11.6171875 C19.38085938 12.63554687 18.80078125 13.65390625 18.203125 14.703125 C17.59984375 15.74984375 16.9965625 16.7965625 16.375 17.875 C15.76398437 18.94492188 15.15296875 20.01484375 14.5234375 21.1171875 C13.0203689 23.74755755 11.51243714 26.37500926 10 29 C6.7 29 3.4 29 0 29 C0 19.43 0 9.86 0 0 Z " fill="#FCFCFC" transform="translate(30,149)"/>
<path d="M0 0 C9.57 0 19.14 0 29 0 C29 3.3 29 6.6 29 10 C15.81640625 17.32421875 15.81640625 17.32421875 13.42236328 18.64990234 C11.76477766 19.57375323 10.11231239 20.50683493 8.46435547 21.44775391 C7.6601416 21.90456543 6.85592773 22.36137695 6.02734375 22.83203125 C4.93860962 23.45621948 4.93860962 23.45621948 3.82788086 24.09301758 C2 25 2 25 0 25 C0 16.75 0 8.5 0 0 Z " fill="#FCFCFC" transform="translate(149,30)"/>
<path d="M0 0 C9.57 0 19.14 0 29 0 C29 4.95 29 9.9 29 15 C21.22394632 18.88802684 8.5241129 18.36858423 0 19 C0 12.73 0 6.46 0 0 Z " fill="#FDFDFD" transform="translate(238,0)"/>
<path d="M0 0 C6.27 0 12.54 0 19 0 C18.3774549 9.83621265 16.82143223 19.33151696 15 29 C10.05 29 5.1 29 0 29 C0 19.43 0 9.86 0 0 Z " fill="#FDFDFD" transform="translate(0,238)"/>
<path d="M0 0 C5.15888034 0.53435973 10.10524035 1.6612095 15.125 2.9375 C15.81464844 3.10701172 16.50429687 3.27652344 17.21484375 3.45117188 C20.98524996 4.39918032 24.36831209 5.54732484 28 7 C28 11.29 28 15.58 28 20 C18.43 20 8.86 20 -1 20 C-1.0309375 15.3284375 -1.0309375 15.3284375 -1.0625 10.5625 C-1.071604 9.57967041 -1.08070801 8.59684082 -1.09008789 7.58422852 C-1.09258545 6.81522217 -1.09508301 6.04621582 -1.09765625 5.25390625 C-1.10551147 4.06776733 -1.10551147 4.06776733 -1.11352539 2.85766602 C-1 1 -1 1 0 0 Z " fill="#FCFCFC" transform="translate(209,573)"/>
<path d="M0 0 C0.33 0.66 0.66 1.32 1 2 C4.96 2 8.92 2 13 2 C13 11.9 13 21.8 13 32 C6.4 32 -0.2 32 -7 32 C-5.66253668 24.75540701 -3.88626621 17.70299661 -1.90234375 10.61328125 C-1.01311156 7.05250301 -0.45272598 3.63580966 0 0 Z " fill="#CBCBCB" transform="translate(581,354)"/>
<path d="M0 0 C6.27 0 12.54 0 19 0 C19 9.57 19 19.14 19 29 C14.71 29 10.42 29 6 29 C5.58814453 27.53433594 5.58814453 27.53433594 5.16796875 26.0390625 C4.37843503 23.26977122 3.54276885 20.51942141 2.67578125 17.7734375 C2.45212891 17.0515625 2.22847656 16.3296875 1.99804688 15.5859375 C1.5377703 14.10151275 1.0688864 12.61973181 0.59179688 11.140625 C0.37201172 10.42132813 0.15222656 9.70203125 -0.07421875 8.9609375 C-0.27619873 8.31946777 -0.47817871 7.67799805 -0.6862793 7.01708984 C-1 5 -1 5 0 0 Z " fill="#FDFDFD" transform="translate(574,208)"/>
<path d="M0 0 C0 6.27 0 12.54 0 19 C-2.70096077 20.35048039 -4.82726517 20.12963577 -7.84765625 20.1328125 C-9.00974609 20.13410156 -10.17183594 20.13539063 -11.36914062 20.13671875 C-12.58794922 20.13285156 -13.80675781 20.12898437 -15.0625 20.125 C-16.28517578 20.12886719 -17.50785156 20.13273438 -18.76757812 20.13671875 C-19.92837891 20.13542969 -21.08917969 20.13414062 -22.28515625 20.1328125 C-23.35644775 20.13168457 -24.42773926 20.13055664 -25.53149414 20.12939453 C-28 20 -28 20 -29 19 C-29.07226502 17.14712498 -29.0838122 15.29166122 -29.0625 13.4375 C-29.05347656 12.42558594 -29.04445313 11.41367187 -29.03515625 10.37109375 C-29.02355469 9.58863281 -29.01195312 8.80617188 -29 8 C-29.99 7.67 -30.98 7.34 -32 7 C-31.44127197 6.89453857 -30.88254395 6.78907715 -30.30688477 6.68041992 C-27.72416641 6.18914632 -25.14337279 5.6883751 -22.5625 5.1875 C-21.68400391 5.02185547 -20.80550781 4.85621094 -19.90039062 4.68554688 C-14.73033464 3.67442891 -9.83866388 2.39460182 -4.89038086 0.5793457 C-3 0 -3 0 0 0 Z " fill="#CBCBCB" transform="translate(386,574)"/>
<path d="M0 0 C9.57 0 19.14 0 29 0 C29 5.94 29 11.88 29 18 C22.08282662 17.481212 15.19777952 16.83509578 8.3125 16 C7.25192383 15.8755249 7.25192383 15.8755249 6.16992188 15.74853516 C1.11902863 15.11902863 1.11902863 15.11902863 0 14 C0 9.38 0 4.76 0 0 Z " fill="#CACACA" transform="translate(327,0)"/>
<path d="M0 0 C4.62 0 9.24 0 14 0 C15.82143223 9.66848304 17.3774549 19.16378735 18 29 C12.06 29 6.12 29 0 29 C0 19.43 0 9.86 0 0 Z " fill="#CBCBCB" transform="translate(0,327)"/>
<path d="M0 0 C0.33 0 0.66 0 1 0 C1 9.57 1 19.14 1 29 C10.57 29 20.14 29 30 29 C30 19.43 30 9.86 30 0 C31.98 0 33.96 0 36 0 C36 11.88 36 23.76 36 36 C23.79 36 11.58 36 -1 36 C-0.67 24.12 -0.34 12.24 0 0 Z " fill="#E3E3E3" transform="translate(564,564)"/>
<path d="M0 0 C2.24069474 3.36104212 3.97386889 6.8831054 5.75 10.5 C8.6705743 16.41215339 11.71099618 22.22521136 14.96875 27.9609375 C16 30 16 30 16 32 C8.74 32 1.48 32 -6 32 C-6 22.43 -6 12.86 -6 3 C-4.35 2.67 -2.7 2.34 -1 2 C-0.67 1.34 -0.34 0.68 0 0 Z " fill="#C9C9C9" transform="translate(36,413)"/>
<path d="M0 0 C9.57 0 19.14 0 29 0 C29 7.26 29 14.52 29 22 C24.7716994 20.30867976 20.90733613 18.37451231 16.9375 16.1875 C10.46085973 12.66746485 3.87950856 9.6646886 -3 7 C-2.34 6.34 -1.68 5.68 -1 5 C-0.67 3.35 -0.34 1.7 0 0 Z " fill="#C9C9C9" transform="translate(416,30)"/>
<path d="M0 0 C0.33 0 0.66 0 1 0 C1 9.57 1 19.14 1 29 C10.24 29 19.48 29 29 29 C29 19.43 29 9.86 29 0 C29.33 0 29.66 0 30 0 C30 9.57 30 19.14 30 29 C39.57 29 49.14 29 59 29 C59 19.43 59 9.86 59 0 C59.33 0 59.66 0 60 0 C60 9.57 60 19.14 60 29 C64.24875 28.814375 68.4975 28.62875 72.875 28.4375 C86.96118657 27.88905414 100.92361967 28.21332103 115 29 C112.52055531 30.65296313 110.40675618 31.76506632 107.69140625 32.91015625 C106.86189453 33.26013672 106.03238281 33.61011719 105.17773438 33.97070312 C104.31470703 34.33099609 103.45167969 34.69128906 102.5625 35.0625 C101.70333984 35.42666016 100.84417969 35.79082031 99.95898438 36.16601562 C96.28500658 37.7080032 92.88126216 39.02968446 89 40 C89 36.7 89 33.4 89 30 C79.43 30 69.86 30 60 30 C60.33 38.58 60.66 47.16 61 56 C60.34 56 59.68 56 59 56 C59 47.42 59 38.84 59 30 C52.750625 30.2784375 52.750625 30.2784375 46.375 30.5625 C30.84824892 31.17276477 15.53453826 30.66261064 0 30 C0 39.57 0 49.14 0 59 C-9.57 59 -19.14 59 -29 59 C-29 58.67 -29 58.34 -29 58 C-19.76 58 -10.52 58 -1 58 C-1.020625 53.813125 -1.04125 49.62625 -1.0625 45.3125 C-1.09825503 30.188995 -0.62993966 15.11017493 0 0 Z " fill="#DCDCDC" transform="translate(89,0)"/>
<path d="M0 0 C1.98 0 3.96 0 6 0 C6 9.9 6 19.8 6 30 C4.02 30 2.04 30 0 30 C0.00523682 30.84296631 0.01047363 31.68593262 0.01586914 32.55444336 C0.03287826 35.67227936 0.04543406 38.79009177 0.05493164 41.90795898 C0.05997057 43.25920386 0.06680177 44.61044326 0.07543945 45.96166992 C0.08752419 47.90020434 0.09269828 49.838778 0.09765625 51.77734375 C0.10289307 52.94515381 0.10812988 54.11296387 0.11352539 55.31616211 C0 58 0 58 -1 59 C-2.98 59 -4.96 59 -7 59 C-7.66 49.1 -8.32 39.2 -9 29 C-6.36 29 -3.72 29 -1 29 C-0.67 19.43 -0.34 9.86 0 0 Z " fill="#FDFDFD" transform="translate(594,238)"/>
<path d="M0 0 C9.9 0 19.8 0 30 0 C30 4.62 30 9.24 30 14 C19.97010499 14.1453608 10.00847869 13.58080291 0 13 C0 8.71 0 4.42 0 0 Z " fill="#FCFCFC" transform="translate(297,0)"/>
<path d="M0 0 C4.29 0 8.58 0 13 0 C13.33 9.9 13.66 19.8 14 30 C9.38 30 4.76 30 0 30 C0 20.1 0 10.2 0 0 Z " fill="#FDFDFD" transform="translate(0,297)"/>
<path d="M0 0 C0 0.33 0 0.66 0 1 C-9.57 1 -19.14 1 -29 1 C-28.814375 5.5375 -28.62875 10.075 -28.4375 14.75 C-27.88483599 29.91656342 -28.29256328 44.82941252 -29 60 C-20.42 60 -11.84 60 -3 60 C-3.495 60.99 -3.495 60.99 -4 62 C-12.25 61.67 -20.5 61.34 -29 61 C-29 70.57 -29 80.14 -29 90 C-25.7 90 -22.4 90 -19 90 C-20.75935548 95.57437895 -22.93835762 100.95861728 -25.125 106.375 C-25.49753906 107.30183594 -25.87007812 108.22867188 -26.25390625 109.18359375 C-27.16770139 111.45636629 -28.08310707 113.72847583 -29 116 C-29.33 116 -29.66 116 -30 116 C-30 107.42 -30 98.84 -30 90 C-31.65 90 -33.3 90 -35 90 C-35 89.67 -35 89.34 -35 89 C-33.35 89 -31.7 89 -30 89 C-30 79.76 -30 70.52 -30 61 C-39.57 61 -49.14 61 -59 61 C-59 60.67 -59 60.34 -59 60 C-49.43 60 -39.86 60 -30 60 C-30 50.43 -30 40.86 -30 31 C-39.57 31 -49.14 31 -59 31 C-59 30.67 -59 30.34 -59 30 C-49.43 30 -39.86 30 -30 30 C-30 20.76 -30 11.52 -30 2 C-39.57 2 -49.14 2 -59 2 C-59 1.67 -59 1.34 -59 1 C-39.3156898 0.17340846 -19.70002592 -0.13629608 0 0 Z " fill="#DEDEDE" transform="translate(59,88)"/>
<path d="M0 0 C2.145 1.155 4.29 2.31 6.5 3.5 C14.58510319 7.83185504 22.7771474 11.93719766 31 16 C30.34 17.32 29.68 18.64 29 20 C19.43 20 9.86 20 0 20 C0 13.4 0 6.8 0 0 Z " fill="#CACACA" transform="translate(149,544)"/>
<path d="M0 0 C6.6 0 13.2 0 20 0 C20 9.57 20 19.14 20 29 C15 28 15 28 13.16308594 25.53149414 C12.60911133 24.46020264 12.05513672 23.38891113 11.484375 22.28515625 C10.87335937 21.12435547 10.26234375 19.96355469 9.6328125 18.76757812 C9.00483525 17.53274174 8.37723532 16.29771341 7.75 15.0625 C7.10836796 13.83054707 6.46515547 12.5994159 5.8203125 11.36914062 C3.8518808 7.59352109 1.90421533 3.80843066 0 0 Z " fill="#CACACA" transform="translate(544,149)"/>
<path d="M0 0 C4.29 0 8.58 0 13 0 C14.28947284 2.57894568 14.1294785 4.4552189 14.1328125 7.33984375 C14.13474609 8.9340918 14.13474609 8.9340918 14.13671875 10.56054688 C14.13285156 11.67494141 14.12898437 12.78933594 14.125 13.9375 C14.12886719 15.04802734 14.13273438 16.15855469 14.13671875 17.30273438 C14.13542969 18.36685547 14.13414062 19.43097656 14.1328125 20.52734375 C14.13168457 21.50437256 14.13055664 22.48140137 14.12939453 23.48803711 C14 26 14 26 13 29 C10.36 29 7.72 29 5 29 C4.82609741 27.94872925 4.82609741 27.94872925 4.64868164 26.8762207 C4.1208134 23.68817089 3.59166947 20.50033408 3.0625 17.3125 C2.88009766 16.20970703 2.69769531 15.10691406 2.50976562 13.97070312 C2.33251953 12.90400391 2.15527344 11.83730469 1.97265625 10.73828125 C1.81031494 9.75899658 1.64797363 8.77971191 1.48071289 7.77075195 C1.02996393 5.17270728 0.51713005 2.58565026 0 0 Z " fill="#CBCBCB" transform="translate(580,238)"/>
<path d="M0 0 C2.64 0 5.28 0 8 0 C8 9.57 8 19.14 8 29 C4.04 29 0.08 29 -4 29 C-3.3774549 19.16378735 -1.82143223 9.66848304 0 0 Z " fill="#FAFAFA" transform="translate(586,327)"/>
<path d="M0 0 C1.54107422 0.30744141 1.54107422 0.30744141 3.11328125 0.62109375 C10.39164883 2.04508392 17.54465202 3.31854288 24.9609375 3.7890625 C27 4 27 4 29 5 C29 7.64 29 10.28 29 13 C19.43 13 9.86 13 0 13 C0 8.71 0 4.42 0 0 Z " fill="#CACACA" transform="translate(238,580)"/>
<path d="M0 0 C0.33 0 0.66 0 1 0 C1 8.58 1 17.16 1 26 C10.57 26 20.14 26 30 26 C30 22.04 30 18.08 30 14 C42.31931979 22.08455361 42.31931979 22.08455361 47 26 C47 26.33 47 26.66 47 27 C41.72 27 36.44 27 31 27 C31.33 36.9 31.66 46.8 32 57 C31.34 56.67 30.68 56.34 30 56 C30 46.43 30 36.86 30 27 C20.76 27 11.52 27 2 27 C2 36.24 2 45.48 2 55 C2.99 55.33 3.98 55.66 5 56 C3.515 56.495 3.515 56.495 2 57 C1.67 66.24 1.34 75.48 1 85 C0.67 85 0.34 85 0 85 C0 56.95 0 28.9 0 0 Z M-24 85 C-16.08 85 -8.16 85 0 85 C0 85.33 0 85.66 0 86 C-7.92 86 -15.84 86 -24 86 C-24 85.67 -24 85.34 -24 85 Z " fill="#D7D7D7" transform="translate(88,508)"/>
<path d="M0 0 C1.98 0 3.96 0 6 0 C6 9.9 6 19.8 6 30 C4.02 30 2.04 30 0 30 C0 39.57 0 49.14 0 59 C-9.9 59 -19.8 59 -30 59 C-30 49.43 -30 39.86 -30 30 C-29.67 30 -29.34 30 -29 30 C-29 39.24 -29 48.48 -29 58 C-19.76 58 -10.52 58 -1 58 C-1.020625 53.813125 -1.04125 49.62625 -1.0625 45.3125 C-1.09825503 30.188995 -0.62993966 15.11017493 0 0 Z " fill="#F7F7F7" transform="translate(594,0)"/>
<path d="M0 0 C0 3.63 0 7.26 0 11 C-9.57 11 -19.14 11 -29 11 C-29 8.69 -29 6.38 -29 4 C-26.29172996 3.52047335 -23.58338656 3.04136769 -20.875 2.5625 C-20.11445313 2.42779297 -19.35390625 2.29308594 -18.5703125 2.15429688 C-16.38059086 1.76732021 -14.19031495 1.38360138 -12 1 C-10.8965625 0.8040625 -9.793125 0.608125 -8.65625 0.40625 C-5.73730822 -0.04017639 -2.94835441 -0.07019891 0 0 Z " fill="#FCFCFC" transform="translate(356,582)"/>
<path d="M0 0 C0 4.95 0 9.9 0 15 C-9.24 15 -18.48 15 -28 15 C-27 12 -27 12 -23.68359375 10.09765625 C-22.27315615 9.40908567 -20.85750707 8.73111319 -19.4375 8.0625 C-18.74591797 7.72798828 -18.05433594 7.39347656 -17.34179688 7.04882812 C-15.9411115 6.3713298 -14.53792274 5.69898359 -13.13232422 5.03173828 C-10.30336017 3.6629265 -7.52328451 2.20336785 -4.74633789 0.73217773 C-3 0 -3 0 0 0 Z " fill="#F8F8F8" transform="translate(445,549)"/>
<path d="M0 0 C0.66 0 1.32 0 2 0 C2 9.24 2 18.48 2 28 C-2.95 28 -7.9 28 -13 28 C-12.04995089 23.24975443 -10.49733408 19.83654989 -8.1875 15.6875 C-7.4614882 14.35718062 -6.73622099 13.0264546 -6.01171875 11.6953125 C-5.66415527 11.06012695 -5.3165918 10.42494141 -4.95849609 9.77050781 C-3.21827759 6.55602371 -1.60760947 3.28220266 0 0 Z " fill="#F8F8F8" transform="translate(562,417)"/>
<path d="M0 0 C0.33 0 0.66 0 1 0 C1 9.57 1 19.14 1 29 C10.57 29 20.14 29 30 29 C30 19.43 30 9.86 30 0 C30.33 0 30.66 0 31 0 C31 9.57 31 19.14 31 29 C40.24 29 49.48 29 59 29 C59 27.35 59 25.7 59 24 C59.33 24 59.66 24 60 24 C60 25.98 60 27.96 60 30 C50.43 30 40.86 30 31 30 C31 37.59 31 45.18 31 53 C30.67 53 30.34 53 30 53 C30 45.41 30 37.82 30 30 C20.43 30 10.86 30 1 30 C1 31.65 1 33.3 1 35 C-3.08931596 36.15471692 -5.35843874 35.83617042 -9.25 34.1875 C-10.12140625 33.83042969 -10.9928125 33.47335938 -11.890625 33.10546875 C-14 32 -14 32 -15 30 C-10.05 29.67 -5.1 29.34 0 29 C0 19.43 0 9.86 0 0 Z " fill="#E0E0E0" transform="translate(415,0)"/>
<path d="M0 0 C5.28 0 10.56 0 16 0 C14.5423052 3.64423701 13.6599492 5.74326832 11.43359375 8.69921875 C10.94826172 9.35083984 10.46292969 10.00246094 9.96289062 10.67382812 C9.45951172 11.33833984 8.95613281 12.00285156 8.4375 12.6875 C7.43495214 14.02380586 6.43359272 15.36100441 5.43359375 16.69921875 C4.99072021 17.28533936 4.54784668 17.87145996 4.09155273 18.4753418 C2.92281806 20.02349814 2.92281806 20.02349814 2 22 C1.34 22 0.68 22 0 22 C0 14.74 0 7.48 0 0 Z " fill="#F9F9F9" transform="translate(60,119)"/>
<path d="M0 0 C7.26 0 14.52 0 22 0 C17.87328767 4.12671233 13.97758113 7.42341585 9.3125 10.8125 C8.63638672 11.31458984 7.96027344 11.81667969 7.26367188 12.33398438 C2.25095663 16 2.25095663 16 0 16 C0 10.72 0 5.44 0 0 Z " fill="#FAFAFA" transform="translate(119,60)"/>
<path d="M0 0 C-0.99 0 -1.98 0 -3 0 C-3 2.31 -3 4.62 -3 7 C-7.1117256 7.02465746 -11.22342278 7.04283959 -15.33520508 7.05493164 C-16.73495228 7.0599708 -18.1346942 7.06680216 -19.53442383 7.07543945 C-21.54245777 7.0875232 -23.55052957 7.09269807 -25.55859375 7.09765625 C-26.76829834 7.10289307 -27.97800293 7.10812988 -29.22436523 7.11352539 C-32 7 -32 7 -33 6 C-33.04063832 4.33382885 -33.042721 2.66611905 -33 1 C-32.16190796 0.96241577 -32.16190796 0.96241577 -31.30688477 0.92407227 C-28.72527572 0.80656895 -26.14389764 0.6845562 -23.5625 0.5625 C-22.68400391 0.52318359 -21.80550781 0.48386719 -20.90039062 0.44335938 C-15.88720606 0.20287451 -10.95782541 -0.18689758 -5.98803711 -0.89868164 C-3.79801168 -1.01029414 -2.09032705 -0.6292923 0 0 Z " fill="#CACACA" transform="translate(330,586)"/>
<path d="M0 0 C9.71614177 -0.14973506 19.31629705 0.30386731 29 1 C29 2.98 29 4.96 29 7 C19.43 7 9.86 7 0 7 C0 4.69 0 2.38 0 0 Z " fill="#FDFDFD" transform="translate(268,586)"/>
<path d="M0 0 C9.9 0 19.8 0 30 0 C30 1.98 30 3.96 30 6 C20.1 6 10.2 6 0 6 C0 4.02 0 2.04 0 0 Z " fill="#FCFCFC" transform="translate(178,594)"/>
<path d="M0 0 C1.98 0 3.96 0 6 0 C6 9.9 6 19.8 6 30 C4.02 30 2.04 30 0 30 C0 20.1 0 10.2 0 0 Z " fill="#CDCDCD" transform="translate(594,445)"/>
<path d="M0 0 C1.98 0 3.96 0 6 0 C6 9.9 6 19.8 6 30 C4.02 30 2.04 30 0 30 C0 20.1 0 10.2 0 0 Z " fill="#FBFBFB" transform="translate(594,356)"/>
<path d="M0 0 C4.1117256 -0.02465746 8.22342278 -0.04283959 12.33520508 -0.05493164 C13.73495228 -0.0599708 15.1346942 -0.06680216 16.53442383 -0.07543945 C18.54245777 -0.0875232 20.55052957 -0.09269807 22.55859375 -0.09765625 C24.37315063 -0.10551147 24.37315063 -0.10551147 26.22436523 -0.11352539 C29 0 29 0 30 1 C30 2.65 30 4.3 30 6 C20.1 6 10.2 6 0 6 C0 4.02 0 2.04 0 0 Z " fill="#FCFCFC" transform="translate(475,594)"/>
<path d="M0 0 C9.57 0 19.14 0 29 0 C29 1.98 29 3.96 29 6 C19.43 6 9.86 6 0 6 C0 4.02 0 2.04 0 0 Z " fill="#CCCCCC" transform="translate(564,594)"/>
<path d="M0 0 C9.57 0 19.14 0 29 0 C29 1.98 29 3.96 29 6 C19.43 6 9.86 6 0 6 C0 4.02 0 2.04 0 0 Z " fill="#CCCCCC" transform="translate(505,594)"/>
<path d="M0 0 C9.57 0 19.14 0 29 0 C29 1.98 29 3.96 29 6 C19.43 6 9.86 6 0 6 C0 4.02 0 2.04 0 0 Z " fill="#CCCCCC" transform="translate(446,594)"/>
<path d="M0 0 C9.57 0 19.14 0 29 0 C29 1.98 29 3.96 29 6 C19.43 6 9.86 6 0 6 C0 4.02 0 2.04 0 0 Z " fill="#FDFDFD" transform="translate(416,594)"/>
<path d="M0 0 C9.57 0 19.14 0 29 0 C29 1.98 29 3.96 29 6 C19.43 6 9.86 6 0 6 C0 4.02 0 2.04 0 0 Z " fill="#CCCCCC" transform="translate(386,594)"/>
<path d="M0 0 C9.57 0 19.14 0 29 0 C29 1.98 29 3.96 29 6 C19.43 6 9.86 6 0 6 C0 4.02 0 2.04 0 0 Z " fill="#FDFDFD" transform="translate(297,594)"/>
<path d="M0 0 C9.57 0 19.14 0 29 0 C29 1.98 29 3.96 29 6 C19.43 6 9.86 6 0 6 C0 4.02 0 2.04 0 0 Z " fill="#FDFDFD" transform="translate(238,594)"/>
<path d="M0 0 C9.57 0 19.14 0 29 0 C29 1.98 29 3.96 29 6 C19.43 6 9.86 6 0 6 C0 4.02 0 2.04 0 0 Z " fill="#CCCCCC" transform="translate(208,594)"/>
<path d="M0 0 C9.57 0 19.14 0 29 0 C29 1.98 29 3.96 29 6 C19.43 6 9.86 6 0 6 C0 4.02 0 2.04 0 0 Z " fill="#FDFDFD" transform="translate(119,594)"/>
<path d="M0 0 C9.57 0 19.14 0 29 0 C29 1.98 29 3.96 29 6 C19.43 6 9.86 6 0 6 C0 4.02 0 2.04 0 0 Z " fill="#CCCCCC" transform="translate(89,594)"/>
<path d="M0 0 C9.57 0 19.14 0 29 0 C29 1.98 29 3.96 29 6 C19.43 6 9.86 6 0 6 C0 4.02 0 2.04 0 0 Z " fill="#FDFDFD" transform="translate(0,594)"/>
<path d="M0 0 C1.98 0 3.96 0 6 0 C6 9.57 6 19.14 6 29 C4.02 29 2.04 29 0 29 C0 19.43 0 9.86 0 0 Z " fill="#FCFCFC" transform="translate(594,535)"/>
<path d="M0 0 C1.98 0 3.96 0 6 0 C6 9.57 6 19.14 6 29 C4.02 29 2.04 29 0 29 C0 19.43 0 9.86 0 0 Z " fill="#FCFCFC" transform="translate(594,475)"/>
<path d="M0 0 C1.98 0 3.96 0 6 0 C6 9.57 6 19.14 6 29 C4.02 29 2.04 29 0 29 C0 19.43 0 9.86 0 0 Z " fill="#FCFCFC" transform="translate(594,416)"/>
<path d="M0 0 C1.98 0 3.96 0 6 0 C6 9.57 6 19.14 6 29 C4.02 29 2.04 29 0 29 C0 19.43 0 9.86 0 0 Z " fill="#CDCDCD" transform="translate(594,386)"/>
<path d="M0 0 C1.98 0 3.96 0 6 0 C6 9.57 6 19.14 6 29 C4.02 29 2.04 29 0 29 C0 19.43 0 9.86 0 0 Z " fill="#FCFCFC" transform="translate(594,297)"/>
<path d="M0 0 C1.98 0 3.96 0 6 0 C6 9.57 6 19.14 6 29 C4.02 29 2.04 29 0 29 C0 19.43 0 9.86 0 0 Z " fill="#CDCDCD" transform="translate(594,208)"/>
<path d="M0 0 C1.98 0 3.96 0 6 0 C6 9.57 6 19.14 6 29 C4.02 29 2.04 29 0 29 C0 19.43 0 9.86 0 0 Z " fill="#FCFCFC" transform="translate(594,119)"/>
<path d="M0 0 C1.98 0 3.96 0 6 0 C6 9.57 6 19.14 6 29 C4.02 29 2.04 29 0 29 C0 19.43 0 9.86 0 0 Z " fill="#FCFCFC" transform="translate(594,60)"/>
<path d="M0 0 C1.98 0 3.96 0 6 0 C6 9.57 6 19.14 6 29 C4.02 29 2.04 29 0 29 C0 19.43 0 9.86 0 0 Z " fill="#CDCDCD" transform="translate(594,30)"/>
<path d="M0 0 C1.16781006 0.00523682 2.33562012 0.01047363 3.53881836 0.01586914 C4.79887695 0.0190918 6.05893555 0.02231445 7.35717773 0.02563477 C8.6976732 0.03399136 10.03816799 0.04245632 11.37866211 0.05102539 C12.72306153 0.05603879 14.06746271 0.06060197 15.41186523 0.06469727 C18.71334151 0.07653051 22.01473014 0.09301568 25.31616211 0.11352539 C25.31616211 2.09352539 25.31616211 4.07352539 25.31616211 6.11352539 C15.74616211 6.11352539 6.17616211 6.11352539 -3.68383789 6.11352539 C-3.68383789 0.15582504 -3.68383789 0.15582504 0 0 Z " fill="#CCCCCC" transform="translate(330.683837890625,593.886474609375)"/>
<path d="M0 0 C3.96930989 -0.02465881 7.93859034 -0.04284023 11.90795898 -0.05493164 C13.25920386 -0.05997057 14.61044326 -0.06680177 15.96166992 -0.07543945 C17.90020434 -0.08752419 19.838778 -0.09269828 21.77734375 -0.09765625 C23.52905884 -0.10551147 23.52905884 -0.10551147 25.31616211 -0.11352539 C28 0 28 0 29 1 C29 2.65 29 4.3 29 6 C19.43 6 9.86 6 0 6 C0 4.02 0 2.04 0 0 Z " fill="#CCCCCC" transform="translate(268,594)"/>
<path d="M0 0 C3.96930989 -0.02465881 7.93859034 -0.04284023 11.90795898 -0.05493164 C13.25920386 -0.05997057 14.61044326 -0.06680177 15.96166992 -0.07543945 C17.90020434 -0.08752419 19.838778 -0.09269828 21.77734375 -0.09765625 C23.52905884 -0.10551147 23.52905884 -0.10551147 25.31616211 -0.11352539 C28 0 28 0 29 1 C29 2.65 29 4.3 29 6 C19.43 6 9.86 6 0 6 C0 4.02 0 2.04 0 0 Z " fill="#FDFDFD" transform="translate(60,594)"/>
<path d="M0 0 C1.16781006 0.00523682 2.33562012 0.01047363 3.53881836 0.01586914 C4.79887695 0.0190918 6.05893555 0.02231445 7.35717773 0.02563477 C8.6976732 0.03399136 10.03816799 0.04245632 11.37866211 0.05102539 C12.72306153 0.05603879 14.06746271 0.06060197 15.41186523 0.06469727 C18.71334151 0.07653051 22.01473014 0.09301568 25.31616211 0.11352539 C25.31616211 2.09352539 25.31616211 4.07352539 25.31616211 6.11352539 C15.74616211 6.11352539 6.17616211 6.11352539 -3.68383789 6.11352539 C-3.68383789 0.15582504 -3.68383789 0.15582504 0 0 Z " fill="#CCCCCC" transform="translate(33.683837890625,593.886474609375)"/>
<path d="M0 0 C1.98 0 3.96 0 6 0 C6 9.57 6 19.14 6 29 C4.35 29 2.7 29 1 29 C0 28 0 28 -0.11352539 25.31616211 C-0.10828857 24.14835205 -0.10305176 22.98054199 -0.09765625 21.77734375 C-0.09443359 20.51728516 -0.09121094 19.25722656 -0.08789062 17.95898438 C-0.07953403 16.61848891 -0.07106907 15.27799412 -0.0625 13.9375 C-0.0574866 12.59310058 -0.05292342 11.2486994 -0.04882812 9.90429688 C-0.03699488 6.60282059 -0.02050971 3.30143197 0 0 Z " fill="#FCFCFC" transform="translate(594,178)"/>
<path d="M0 0 C4.45827926 -0.0578304 8.9164628 -0.09353855 13.375 -0.125 C15.28152344 -0.15013672 15.28152344 -0.15013672 17.2265625 -0.17578125 C18.43828125 -0.18222656 19.65 -0.18867187 20.8984375 -0.1953125 C22.01911621 -0.20578613 23.13979492 -0.21625977 24.29443359 -0.22705078 C27 0 27 0 29 2 C29 3.32 29 4.64 29 6 C19.43 6 9.86 6 0 6 C0 4.02 0 2.04 0 0 Z " fill="#CCCCCC" transform="translate(149,594)"/>
<path d="M0 0 C9.24 0 18.48 0 28 0 C28 1.98 28 3.96 28 6 C18.76 6 9.52 6 0 6 C0 4.02 0 2.04 0 0 Z " fill="#FDFDFD" transform="translate(535,594)"/>
<path d="M0 0 C9.24 0 18.48 0 28 0 C28 1.98 28 3.96 28 6 C18.76 6 9.52 6 0 6 C0 4.02 0 2.04 0 0 Z " fill="#FDFDFD" transform="translate(357,594)"/>
<path d="M0 0 C0.99 0 1.98 0 3 0 C3 1.65 3 3.3 3 5 C12.9 4.67 22.8 4.34 33 4 C33.020625 8.929375 33.04125 13.85875 33.0625 18.9375 C33.071604 20.49460693 33.08070801 22.05171387 33.09008789 23.65600586 C33.09258545 24.87167236 33.09508301 26.08733887 33.09765625 27.33984375 C33.10289307 28.59144287 33.10812988 29.84304199 33.11352539 31.13256836 C33 34 33 34 32 35 C29.85441173 35.08775605 27.70595579 35.10695219 25.55859375 35.09765625 C24.25341797 35.09443359 22.94824219 35.09121094 21.60351562 35.08789062 C20.2148431 35.07953401 18.82617123 35.07106905 17.4375 35.0625 C16.04492344 35.05748666 14.65234519 35.05292347 13.25976562 35.04882812 C9.83982549 35.03699442 6.4199075 35.01905831 3 35 C2.67 25.76 2.34 16.52 2 7 C-0.64 6.67 -3.28 6.34 -6 6 C-4 4 -2 2 0 0 Z M4 6 C4 15.24 4 24.48 4 34 C13.24 34 22.48 34 32 34 C32 24.76 32 15.52 32 6 C22.76 6 13.52 6 4 6 Z " fill="#ECECEC" transform="translate(472,529)"/>
<path d="M0 0 C1.65 0 3.3 0 5 0 C5 9.57 5 19.14 5 29 C3.35 29 1.7 29 0 29 C0 19.43 0 9.86 0 0 Z " fill="#CBCBCB" transform="translate(595,505)"/>
<path d="M0 0 C1.65 0 3.3 0 5 0 C5 9.24 5 18.48 5 28 C3.35 28 1.7 28 0 28 C0 18.76 0 9.52 0 0 Z " fill="#CBCBCB" transform="translate(595,565)"/>
<path d="M0 0 C1.65 0 3.3 0 5 0 C5 9.24 5 18.48 5 28 C3.35 28 1.7 28 0 28 C0 18.76 0 9.52 0 0 Z " fill="#CBCBCB" transform="translate(595,149)"/>
<path d="M0 0 C1.65 0 3.3 0 5 0 C5 9.24 5 18.48 5 28 C3.35 28 1.7 28 0 28 C0 18.76 0 9.52 0 0 Z " fill="#CBCBCB" transform="translate(595,90)"/>
<path d="M0 0 C4.95 0 9.9 0 15 0 C12.99008639 4.01982722 10.6444163 6.65433434 7.5 9.75 C7.00113281 10.25660156 6.50226563 10.76320313 5.98828125 11.28515625 C2.25341139 15 2.25341139 15 0 15 C0 10.05 0 5.1 0 0 Z " fill="#F6F6F6" transform="translate(89,89)"/>
<path d="M0 0 C6.27 0 12.54 0 19 0 C19 4.29 19 8.58 19 13 C14.83703214 10.91851607 11.11078108 8.51743594 7.25 5.9375 C6.55261719 5.47794922 5.85523438 5.01839844 5.13671875 4.54492188 C3.40546579 3.3913179 1.70014226 2.19898092 0 1 C0 0.67 0 0.34 0 0 Z " fill="#C9C9C9" transform="translate(456,59)"/>
<path d="M0 0 C0.33 0 0.66 0 1 0 C1 9.24 1 18.48 1 28 C10.24 28 19.48 28 29 28 C29 18.76 29 9.52 29 0 C29.33 0 29.66 0 30 0 C30 9.57 30 19.14 30 29 C20.43 29 10.86 29 1 29 C1 31.97 1 34.94 1 38 C-2.10551666 34.89448334 -2.81323934 33.10801767 -4 29 C-2.68 29 -1.36 29 0 29 C0 19.43 0 9.86 0 0 Z " fill="#EDEDED" transform="translate(564,149)"/>
<path d="M0 0 C7.26 0 14.52 0 22 0 C19.31518614 2.68481386 16.16652915 3.66012605 12.6875 5 C12.02298828 5.26039062 11.35847656 5.52078125 10.67382812 5.7890625 C8.78384553 6.52935242 6.89196482 7.26479086 5 8 C3.3324305 8.66440515 1.66533045 9.33000245 0 10 C0 6.7 0 3.4 0 0 Z " fill="#C7C7C7" transform="translate(179,30)"/>
<path d="M0 0 C3.25696479 0.41755959 4.63443291 0.63443291 7 3 C4.69 3.33 2.38 3.66 0 4 C0 13.24 0 22.48 0 32 C8.91 31.67 17.82 31.34 27 31 C27.33 24.4 27.66 17.8 28 11 C29.485 11.495 29.485 11.495 31 12 C30.67 12.33 30.34 12.66 30 13 C29.84344973 14.48638992 29.74933057 15.97949127 29.68359375 17.47265625 C29.64548584 18.28226807 29.60737793 19.09187988 29.56811523 19.92602539 C29.52501221 20.96106201 29.48190918 21.99609863 29.4375 23.0625 C29.293125 26.341875 29.14875 29.62125 29 33 C19.1 33 9.2 33 -1 33 C-1.33 33.66 -1.66 34.32 -2 35 C-2 29.52621508 -1.79237817 24.05496324 -1.62768555 18.58398438 C-1.58412446 17.10780208 -1.54246676 15.63156243 -1.50268555 14.15527344 C-1.44516798 12.02783343 -1.38145836 9.90065878 -1.31640625 7.7734375 C-1.27974854 6.49903809 -1.24309082 5.22463867 -1.20532227 3.91162109 C-1 1 -1 1 0 0 Z " fill="#D8D8D8" transform="translate(179,561)"/>
<path d="M0 0 C2.97 0 5.94 0 9 0 C6.03 7.26 3.06 14.52 0 22 C-0.33 22 -0.66 22 -1 22 C-1.02895225 18.70835171 -1.0467823 15.41673601 -1.0625 12.125 C-1.07506836 10.71927734 -1.07506836 10.71927734 -1.08789062 9.28515625 C-1.09111328 8.38925781 -1.09433594 7.49335938 -1.09765625 6.5703125 C-1.10289307 5.74289551 -1.10812988 4.91547852 -1.11352539 4.06298828 C-1 2 -1 2 0 0 Z " fill="#C8C8C8" transform="translate(31,179)"/>
<path d="M0 0 C3.17003995 3.17003995 5.6523661 6.08448557 8.25 9.6875 C8.95640625 10.66074219 9.6628125 11.63398438 10.390625 12.63671875 C12 15 12 15 12 16 C8.04 16 4.08 16 0 16 C0 10.72 0 5.44 0 0 Z " fill="#C5C5C5" transform="translate(60,458)"/>
<path d="M0 0 C3.96 0.33 7.92 0.66 12 1 C12 5.62 12 10.24 12 15 C7.47619711 10.75036698 3.61682339 6.04479113 0 1 C0 0.67 0 0.34 0 0 Z " fill="#C7C7C7" transform="translate(522,118)"/>
<path d="M0 0 C5.25781354 3.40005275 10.33397013 6.8125373 15 11 C15 11.33 15 11.66 15 12 C12.85423363 12.02685938 10.70837355 12.04633088 8.5625 12.0625 C7.36753906 12.07410156 6.17257813 12.08570313 4.94140625 12.09765625 C2 12 2 12 1 11 C0.76636119 9.15108054 0.58696365 7.29511969 0.4375 5.4375 C0.35371094 4.42558594 0.26992187 3.41367187 0.18359375 2.37109375 C0.12300781 1.58863281 0.06242187 0.80617188 0 0 Z " fill="#C7C7C7" transform="translate(118,522)"/>
<path d="M0 0 C0.33 0 0.66 0 1 0 C1 7.26 1 14.52 1 22 C10.57 22 20.14 22 30 22 C30 22.33 30 22.66 30 23 C20.43 23 10.86 23 1 23 C1 28.28 1 33.56 1 39 C0.67 39 0.34 39 0 39 C0 33.72 0 28.44 0 23 C-3.3 23 -6.6 23 -10 23 C-10 22.67 -10 22.34 -10 22 C-6.7 22 -3.4 22 0 22 C0 14.74 0 7.48 0 0 Z " fill="#DFDFDF" transform="translate(534,96)"/>
<path d="M0 0 C0.33 0 0.66 0 1 0 C1.33 2.97 1.66 5.94 2 9 C6.95 9.33 11.9 9.66 17 10 C17 10.33 17 10.66 17 11 C11.72 11 6.44 11 1 11 C1.33 20.9 1.66 30.8 2 41 C1.34 40.67 0.68 40.34 0 40 C0 30.43 0 20.86 0 11 C-1.98 11 -3.96 11 -6 11 C-6 10.67 -6 10.34 -6 10 C-4.02 10 -2.04 10 0 10 C0 6.7 0 3.4 0 0 Z " fill="#E0E0E0" transform="translate(118,524)"/>
<path d="M0 0 C2.7631944 1.3815972 3.0286058 2.92179609 4.1875 5.75 C4.55230469 6.61109375 4.91710938 7.4721875 5.29296875 8.359375 C6.08497555 11.31736724 5.82358185 13.08336619 5 16 C3.35 16 1.7 16 0 16 C0 10.72 0 5.44 0 0 Z " fill="#F4F4F4" transform="translate(30,400)"/>
<path d="M0 0 C4.95 0 9.9 0 15 0 C15 1.98 15 3.96 15 6 C9.45949887 5.43174347 4.96284034 3.37113483 0 1 C0 0.67 0 0.34 0 0 Z " fill="#F3F3F3" transform="translate(400,30)"/>
<path d="M0 0 C9.9 0.33 19.8 0.66 30 1 C30 1.33 30 1.66 30 2 C20.76 2 11.52 2 2 2 C2 10.58 2 19.16 2 28 C1.67 28 1.34 28 1 28 C0.67 18.76 0.34 9.52 0 0 Z " fill="#DBDBDB" transform="translate(503,503)"/>
<path d="M0 0 C0.33 0 0.66 0 1 0 C1 9.57 1 19.14 1 29 C2.98 29 4.96 29 7 29 C7 29.33 7 29.66 7 30 C5.02 30 3.04 30 1 30 C0.67 30.66 0.34 31.32 0 32 C0 31.34 0 30.68 0 30 C-4.29 30 -8.58 30 -13 30 C-13 29.67 -13 29.34 -13 29 C-8.71 29 -4.42 29 0 29 C0 19.43 0 9.86 0 0 Z " fill="#E6E6E6" transform="translate(593,208)"/>
<path d="M0 0 C0.33 0.99 0.66 1.98 1 3 C2.98 3 4.96 3 7 3 C7 3.33 7 3.66 7 4 C5.02 4 3.04 4 1 4 C1 13.24 1 22.48 1 32 C0.67 32 0.34 32 0 32 C0 22.76 0 13.52 0 4 C-2.64 4.33 -5.28 4.66 -8 5 C-8 4.34 -8 3.68 -8 3 C-5.36 3 -2.72 3 0 3 C0 2.01 0 1.02 0 0 Z " fill="#E7E7E7" transform="translate(593,264)"/>
<path d="M0 0 C1.12894876 0.93274109 2.25300876 1.87140122 3.375 2.8125 C4.00148438 3.33457031 4.62796875 3.85664063 5.2734375 4.39453125 C7 6 7 6 9 9 C6.03 8.67 3.06 8.34 0 8 C0 5.36 0 2.72 0 0 Z " fill="#C3C3C3" transform="translate(90,496)"/>
<path d="M0 0 C2.64 0 5.28 0 8 0 C8.33 2.97 8.66 5.94 9 9 C2.25 3.375 2.25 3.375 0 0 Z " fill="#C3C3C3" transform="translate(496,90)"/>
<path d="M0 0 C1.98 0 3.96 0 6 0 C6 1.98 6 3.96 6 6 C4.02 6 2.04 6 0 6 C0 4.02 0 2.04 0 0 Z " fill="#FBFBFB" transform="translate(594,594)"/>
<path d="M0 0 C1.65 0 3.3 0 5 0 C5 2.97 5 5.94 5 9 C1.89448334 5.89448334 1.18676066 4.10801767 0 0 Z " fill="#E5E5E5" transform="translate(560,178)"/>
<path d="M0 0 C0.99 0 1.98 0 3 0 C3 1.65 3 3.3 3 5 C1.02 5 -0.96 5 -3 5 C-1.6875 2.5 -1.6875 2.5 0 0 Z " fill="#F6F6F6" transform="translate(472,529)"/>
<path d="M0 0 C0 1.98 0 3.96 0 6 C-1.65 6 -3.3 6 -5 6 C-4.6875 4.125 -4.6875 4.125 -4 2 C-1 0 -1 0 0 0 Z " fill="#F5F5F5" transform="translate(534,469)"/>
<path d="M0 0 C4.75 0.75 4.75 0.75 7 3 C4.36 3 1.72 3 -1 3 C-0.67 2.01 -0.34 1.02 0 0 Z " fill="#EEEEEE" transform="translate(179,561)"/>
</svg>
