<?xml version="1.0" encoding="UTF-8"?>
<svg version="1.1" xmlns="http://www.w3.org/2000/svg" width="225" height="225">
<path d="M0 0 C74.25 0 148.5 0 225 0 C225 74.25 225 148.5 225 225 C150.75 225 76.5 225 0 225 C0 150.75 0 76.5 0 0 Z " fill="#FCFCFC" transform="translate(0,0)"/>
<path d="M0 0 C74.25 0 148.5 0 225 0 C225 74.25 225 148.5 225 225 C150.75 225 76.5 225 0 225 C0 150.75 0 76.5 0 0 Z M19.13671875 44.75390625 C18.41935547 45.64916016 18.41935547 45.64916016 17.6875 46.5625 C17.19636719 47.16191406 16.70523437 47.76132812 16.19921875 48.37890625 C14.03733574 51.3013214 13.87174487 53.16988322 13.85955811 56.75579834 C13.85384796 57.7595752 13.84813782 58.76335205 13.84225464 59.79754639 C13.84113678 60.90301819 13.84001892 62.00848999 13.83886719 63.14746094 C13.83390228 64.3085437 13.82893738 65.46962646 13.82382202 66.66589355 C13.80917031 70.52205998 13.80239299 74.37818526 13.796875 78.234375 C13.79257794 80.23228659 13.78828037 82.23019819 13.7839005 84.2281096 C13.77208311 89.79764205 13.76455013 95.3671645 13.7611053 100.93670821 C13.75662792 108.1360554 13.7390966 115.33521242 13.7101047 122.53450179 C13.6884692 128.1006235 13.67839997 133.66669178 13.67706418 139.23285508 C13.67601718 142.55640129 13.66868301 145.87972832 13.65224457 149.20323944 C13.63520289 152.91395994 13.63706021 156.62421726 13.64355469 160.33496094 C13.6343399 161.43233582 13.62512512 162.52971069 13.6156311 163.66033936 C13.65122419 170.14767893 14.13313022 174.89205254 18.71875 179.86328125 C19.60046875 180.58064453 19.60046875 180.58064453 20.5 181.3125 C21.0878125 181.80363281 21.675625 182.29476562 22.28125 182.80078125 C25.96217601 185.36906371 29.45554825 185.13450559 33.79875183 185.15390015 C34.49395803 185.1582824 35.18916423 185.16266465 35.90543729 185.1671797 C38.2405905 185.18055987 40.57570597 185.18674481 42.91088867 185.19287109 C44.58306041 185.20077273 46.25523044 185.20904172 47.92739868 185.21765137 C53.42423882 185.24386608 58.92108655 185.25917923 64.41796875 185.2734375 C66.31072812 185.27879755 68.20348745 185.28417506 70.09624672 185.28956985 C77.97042144 185.31119846 85.8445941 185.32993462 93.71879101 185.34119225 C105.00036359 185.35742777 116.28159156 185.39059615 127.56303424 185.44759309 C135.4969121 185.48630921 143.43069787 185.50582696 151.36466771 185.51111281 C156.10238597 185.51476419 160.83973662 185.52676265 165.57735252 185.55921555 C170.03686212 185.58932535 174.49578225 185.59559772 178.95537186 185.58383179 C180.58878211 185.58361129 182.22221994 185.59189668 183.85553551 185.60948563 C195.88857229 185.868203 195.88857229 185.868203 206 180 C209.87964498 175.82192079 211.11960142 172.76474286 211.14717102 167.12394714 C211.15432632 166.11879562 211.16148163 165.1136441 211.16885376 164.07803345 C211.17154266 162.97615692 211.17423157 161.8742804 211.17700195 160.73901367 C211.18685875 158.99717049 211.18685875 158.99717049 211.19691467 157.22013855 C211.21665904 153.36941466 211.22831203 149.51872977 211.23828125 145.66796875 C211.24235678 144.3543014 211.2464323 143.04063404 211.25063133 141.68715858 C211.26967667 135.45292392 211.28390939 129.21870105 211.2922433 122.98444289 C211.30201543 115.79353969 211.32833667 108.60294434 211.36874419 101.41214961 C211.39892352 95.8502553 211.41371385 90.28844917 211.41702431 84.72647458 C211.41937266 81.40622333 211.43028248 78.08637611 211.45348549 74.7661953 C211.47777718 71.06026944 211.47692971 67.35515067 211.4699707 63.64916992 C211.48278076 62.55336609 211.49559082 61.45756226 211.50878906 60.32855225 C211.46694275 54.22011304 211.09227532 50.64193619 207 46 C201.70740736 41.23666662 198.20622517 39.75103181 191.0675354 39.73930359 C190.37006364 39.73547804 189.67259188 39.73165249 188.95398462 39.72771102 C186.6171956 39.71739342 184.28065286 39.72137077 181.94384766 39.7253418 C180.2682828 39.7209946 178.59271994 39.71581142 176.91716003 39.70985413 C172.36546394 39.69645286 167.81385082 39.69588677 163.26213884 39.69841743 C159.46242998 39.6994865 155.66273796 39.69460534 151.8630327 39.689812 C142.89825902 39.67871265 133.93352723 39.67828165 124.96875 39.68432617 C115.72108041 39.6903656 106.47356299 39.67805672 97.22591937 39.6567561 C89.28609803 39.63914045 81.34632512 39.63313874 73.40648496 39.63639385 C68.66448861 39.6382071 63.92260076 39.63556641 59.1806221 39.62167931 C54.72037428 39.60910639 50.26036357 39.61103998 45.8001194 39.62409019 C44.16427722 39.6264568 42.52841838 39.62371827 40.89259529 39.61546707 C38.65693256 39.60500455 36.42206617 39.61309561 34.18643188 39.6257782 C32.93614511 39.62561046 31.68585835 39.62544271 30.3976841 39.62526989 C25.83797256 40.12815985 22.48127642 41.60567482 19.13671875 44.75390625 Z " fill="#FDFDFD" transform="translate(0,0)"/>
<path d="M0 0 C0.6952062 -0.00438225 1.3904124 -0.00876451 2.10668546 -0.01327956 C4.44183866 -0.02665972 6.77695413 -0.03284466 9.11213684 -0.03897095 C10.78430858 -0.04687258 12.45647861 -0.05514157 14.12864685 -0.06375122 C19.62548699 -0.08996594 25.12233471 -0.10527908 30.61921692 -0.11953735 C32.51197629 -0.12489741 34.40473561 -0.13027492 36.29749489 -0.13566971 C44.1716696 -0.15729831 52.04584227 -0.17603447 59.92003918 -0.1872921 C71.20161176 -0.20352763 82.48283973 -0.23669601 93.76428241 -0.29369295 C101.69816027 -0.33240907 109.63194603 -0.35192682 117.56591588 -0.35721266 C122.30363414 -0.36086405 127.04098479 -0.3728625 131.77860069 -0.4053154 C136.23811029 -0.4354252 140.69703042 -0.44169758 145.15662003 -0.42993164 C146.79003028 -0.42971114 148.42346811 -0.43799653 150.05678368 -0.45558548 C166.12462544 -0.6191468 166.12462544 -0.6191468 172.20124817 5.15390015 C175.84671251 9.17325827 177.32342991 11.53670692 177.34169006 16.90969849 C177.34740021 17.91347534 177.35311035 18.9172522 177.35899353 19.95144653 C177.36067032 21.60965424 177.36067032 21.60965424 177.36238098 23.30136108 C177.36734589 24.46244385 177.37231079 25.62352661 177.37742615 26.8197937 C177.39207786 30.67596013 177.39885518 34.53208541 177.40437317 38.38827515 C177.40867023 40.38618674 177.4129678 42.38409833 177.41734767 44.38200974 C177.42916506 49.95154219 177.43669804 55.52106465 177.44014287 61.09060836 C177.44462025 68.28995555 177.46215157 75.48911256 177.49114347 82.68840194 C177.51277897 88.25452364 177.5228482 93.82059193 177.52418399 99.38675523 C177.52523098 102.71030144 177.53256516 106.03362847 177.5490036 109.35713959 C177.56604528 113.06786008 177.56418795 116.7781174 177.55769348 120.48886108 C177.56690826 121.58623596 177.57612305 122.68361084 177.58561707 123.8142395 C177.55111033 130.10357512 177.16573445 134.89691789 172.73640442 139.76327515 C167.26095475 144.00420699 164.25944555 145.40311153 157.26878357 145.41459656 C156.57131181 145.4184221 155.87384005 145.42224765 155.15523279 145.42618912 C152.81844377 145.43650672 150.48190103 145.43252938 148.14509583 145.42855835 C146.46953097 145.43290555 144.79396811 145.43808872 143.1184082 145.44404602 C138.56671211 145.45744729 134.01509899 145.45801337 129.46338701 145.45548272 C125.66367815 145.45441365 121.86398613 145.45929481 118.06428087 145.46408814 C109.09950719 145.4751875 100.1347754 145.4756185 91.16999817 145.46957397 C81.92232858 145.46353454 72.67481116 145.47584343 63.42716753 145.49714404 C55.4873462 145.5147597 47.54757329 145.52076141 39.60773313 145.5175063 C34.86573678 145.51569305 30.12384893 145.51833374 25.38187027 145.53222084 C20.92162245 145.54479376 16.46161174 145.54286017 12.00136757 145.52980995 C10.36552539 145.52744335 8.72966655 145.53018187 7.09384346 145.53843307 C4.85818073 145.5488956 2.62331434 145.54080454 0.38768005 145.52812195 C-1.4877501 145.52837356 -1.4877501 145.52837356 -3.40106773 145.52863026 C-8.79833345 144.93336657 -12.69685244 142.85057433 -16.11125183 138.65390015 C-16.60238464 138.06608765 -17.09351746 137.47827515 -17.59953308 136.87265015 C-19.78446009 133.74115867 -19.92786562 130.97239403 -19.94592285 127.27784729 C-19.95307816 126.27269577 -19.96023346 125.26754425 -19.96760559 124.23193359 C-19.97029449 123.13005707 -19.9729834 122.02818054 -19.97575378 120.89291382 C-19.98232498 119.73168503 -19.98889618 118.57045624 -19.9956665 117.3740387 C-20.01541088 113.52331481 -20.02706386 109.67262991 -20.03703308 105.8218689 C-20.04314637 103.85136786 -20.04314637 103.85136786 -20.04938316 101.84105873 C-20.0684285 95.60682406 -20.08266122 89.37260119 -20.09099513 83.13834304 C-20.10076727 75.94743984 -20.1270885 68.75684449 -20.16749603 61.56604975 C-20.19767535 56.00415545 -20.21246568 50.44234931 -20.21577615 44.88037473 C-20.21812449 41.56012347 -20.22903431 38.24027625 -20.25223732 34.92009544 C-20.27652901 31.21416958 -20.27568154 27.50905082 -20.26872253 23.80307007 C-20.28153259 22.70726624 -20.29434265 21.6114624 -20.30754089 20.48245239 C-20.25805908 13.25943577 -19.27710562 9.73430833 -14.20109558 4.5093689 C-9.28753366 0.59162219 -6.19259158 0.02765299 0 0 Z M-13.79875183 10.15390015 C-15.58993208 13.24128304 -16.0521841 15.48207137 -16.06617737 19.03631592 C-16.07470734 20.01759964 -16.0832373 20.99888336 -16.09202576 22.00990295 C-16.09111938 23.08013199 -16.09021301 24.15036102 -16.08927917 25.25302124 C-16.0959964 26.38513535 -16.10271362 27.51724945 -16.1096344 28.68367004 C-16.12865502 32.43160371 -16.13254064 36.1793587 -16.13468933 39.92733765 C-16.14111428 42.53041661 -16.14784241 45.13349484 -16.15486145 47.73657227 C-16.16764771 53.19568039 -16.17062681 58.65474001 -16.1693573 64.11386108 C-16.16815609 70.41690935 -16.189255 76.71961509 -16.22084463 83.02257669 C-16.2501831 89.0934487 -16.25733248 95.16415677 -16.25613785 101.23509598 C-16.25849919 103.81469751 -16.26735256 106.39430153 -16.28280258 108.97385788 C-16.30238727 112.58152478 -16.29665316 116.18830903 -16.28459167 119.79598999 C-16.29583069 120.86217056 -16.3070697 121.92835114 -16.31864929 123.02684021 C-16.26883163 128.8876514 -15.95074019 132.65571911 -11.79875183 137.15390015 C-7.30591331 140.68938419 -4.39436375 141.6548716 1.29829407 141.66183472 C1.98930757 141.66807468 2.68032107 141.67431464 3.39227438 141.68074369 C5.69548803 141.69663114 7.99763705 141.6840872 10.30085754 141.67147827 C11.95701716 141.67690132 13.61317195 141.68402501 15.26931763 141.69271851 C19.75901205 141.71093317 24.24833826 141.70389206 28.73803902 141.69120216 C33.43977465 141.68106486 38.14147906 141.69046987 42.84321594 141.69674683 C50.73849642 141.7040211 58.63362715 141.6944413 66.52888489 141.67538452 C75.65282679 141.65361619 84.77641114 141.66066772 93.90034437 141.68269014 C101.73831728 141.7008504 109.57618264 141.7033994 117.41416979 141.69293547 C122.09355561 141.68670398 126.77277345 141.68585542 131.45214844 141.69908142 C135.8517751 141.71064842 140.25094141 141.70259881 144.65051842 141.67950439 C146.26377791 141.67422182 147.87707624 141.67572339 149.49032021 141.68455505 C151.69546797 141.69551277 153.89914765 141.68174671 156.10420227 141.66183472 C157.95361294 141.65957256 157.95361294 141.65957256 159.84038544 141.65726471 C165.00287199 140.88406658 168.06716546 138.38254264 171.54588318 134.61376953 C173.92224519 129.64694819 173.7444333 125.2360072 173.68708801 119.79598999 C173.69278305 118.09256187 173.69278305 118.09256187 173.69859314 116.35472107 C173.70599176 112.60781073 173.68462703 108.86167885 173.66218567 105.11483765 C173.65980106 102.50982759 173.65889596 99.90481579 173.65940857 97.29980469 C173.65753848 91.84417064 173.64021184 86.38875977 173.61286926 80.93319702 C173.58138997 74.6290172 173.57087432 68.32508135 173.57234037 62.0208286 C173.5735616 55.94887185 173.56312934 49.87700728 173.54675674 43.80507278 C173.54038571 41.22383732 173.53644914 38.64259468 173.53496933 36.06135178 C173.5306416 32.45845011 173.51315238 28.85585683 173.49177551 25.25302124 C173.49313507 23.64767769 173.49313507 23.64767769 173.49452209 22.00990295 C173.48172714 20.53797737 173.48172714 20.53797737 173.46867371 19.03631592 C173.46532202 18.18499777 173.46197033 17.33367962 173.45851707 16.45656395 C173.17930848 13.95753081 172.45529717 12.31545224 171.20124817 10.15390015 C168.19443017 11.49389512 166.20362208 12.95235306 163.95124817 15.34140015 C161.57040656 17.85778471 159.07301474 20.1622884 156.45906067 22.4312439 C152.31517441 26.02895142 148.31219633 29.75795961 144.32624817 33.52890015 C139.16662432 38.38882935 133.9737965 43.19920935 128.68562317 47.91952515 C125.68659164 50.61676734 122.72392384 53.35166309 119.76374817 56.09140015 C113.94083422 61.48039917 108.08149014 66.82750862 102.20124817 72.15390015 C105.76835803 76.52360972 109.39238043 80.30505475 113.68171692 83.9546814 C117.68193262 87.44634254 121.5314115 91.09814178 125.39875793 94.73568726 C128.5016242 97.64984209 131.61656513 100.54182762 134.80281067 103.36483765 C135.35678528 103.85887085 135.91075989 104.35290405 136.48152161 104.86190796 C137.98423386 106.19714095 139.49483834 107.52347659 141.00593567 108.84921265 C143.1323786 111.08159935 143.88200037 112.14186656 144.20124817 115.15390015 C139.01934629 112.48659505 135.17023514 108.53122224 131.01374817 104.52890015 C129.48585679 103.07368053 127.95721564 101.61924769 126.42781067 100.1656189 C125.33001282 99.12026978 125.33001282 99.12026978 124.21003723 98.05380249 C121.0670966 95.08122543 117.85332031 92.19346645 114.61140442 89.3296814 C112.72672545 87.62827753 110.89422134 85.90122327 109.07234192 84.1343689 C108.53327209 83.61914673 107.99420227 83.10392456 107.438797 82.5730896 C106.38588509 81.56481286 105.34223132 80.54675299 104.30940247 79.51791382 C101.64877938 76.90864341 101.64877938 76.90864341 98.15437317 76.05233765 C95.39697471 77.60751038 93.50417403 79.61063242 91.32624817 81.90390015 C83.64831223 89.77378449 83.64831223 89.77378449 80.20124817 92.15390015 C77.05054205 91.79674457 75.33997908 90.68667743 73.07234192 88.53671265 C72.51224426 88.01206421 71.95214661 87.48741577 71.37507629 86.9468689 C70.80208801 86.39643921 70.22909973 85.84600952 69.63874817 85.27890015 C68.77346497 84.46485718 68.77346497 84.46485718 67.89070129 83.6343689 C63.6133345 79.59874486 63.6133345 79.59874486 61.63801575 77.46640015 C61.16388245 77.03327515 60.68974915 76.60015015 60.20124817 76.15390015 C56.79067556 76.35531191 55.20368518 77.84058241 52.95124817 80.27890015 C50.61647098 82.71668221 48.26765014 85.02380021 45.70124817 87.21640015 C41.64187559 90.71504227 37.73513875 94.36443647 33.82624817 98.02890015 C24.36470971 106.88001677 24.36470971 106.88001677 20.45124817 110.46640015 C19.69327942 111.16378296 18.93531067 111.86116577 18.15437317 112.5796814 C16.20124817 114.15390015 16.20124817 114.15390015 13.20124817 115.15390015 C15.03795546 108.41930674 20.8619818 104.28369653 25.94734192 99.8921814 C30.10685485 96.26510149 34.1309086 92.50946413 38.13874817 88.71640015 C43.74567581 83.43249732 49.38645225 78.20954215 55.20124817 73.15390015 C51.16677091 68.1638888 46.83600769 63.90709344 42.02937317 59.66171265 C38.94529135 56.92693291 35.91284817 54.14206231 32.88874817 51.34140015 C32.34363586 50.83737671 31.79852356 50.33335327 31.2368927 49.8140564 C28.99532187 47.74107898 26.75507203 45.66667626 24.51472473 43.59237671 C18.36929639 37.90401683 12.20612061 32.24261466 5.95906067 26.6656189 C3.72166714 24.62787947 1.51477022 22.56742147 -0.68156433 20.4859314 C-1.3610614 19.84381714 -2.04055847 19.20170288 -2.74064636 18.54013062 C-4.09722441 17.25564592 -5.44987054 15.966994 -6.79826355 14.67391968 C-7.72663025 13.79582642 -7.72663025 13.79582642 -8.67375183 12.8999939 C-9.22804871 12.37075317 -9.78234558 11.84151245 -10.35343933 11.29623413 C-11.75322486 9.94720742 -11.75322486 9.94720742 -13.79875183 10.15390015 Z " fill="#FBFBFB" transform="translate(33.79875183105469,39.846099853515625)"/>
<path d="M0 0 C0.6952062 -0.00438225 1.3904124 -0.00876451 2.10668546 -0.01327956 C4.44183866 -0.02665972 6.77695413 -0.03284466 9.11213684 -0.03897095 C10.78430858 -0.04687258 12.45647861 -0.05514157 14.12864685 -0.06375122 C19.62548699 -0.08996594 25.12233471 -0.10527908 30.61921692 -0.11953735 C32.51197629 -0.12489741 34.40473561 -0.13027492 36.29749489 -0.13566971 C44.1716696 -0.15729831 52.04584227 -0.17603447 59.92003918 -0.1872921 C71.20161176 -0.20352763 82.48283973 -0.23669601 93.76428241 -0.29369295 C101.69816027 -0.33240907 109.63194603 -0.35192682 117.56591588 -0.35721266 C122.30363414 -0.36086405 127.04098479 -0.3728625 131.77860069 -0.4053154 C136.23811029 -0.4354252 140.69703042 -0.44169758 145.15662003 -0.42993164 C146.79003028 -0.42971114 148.42346811 -0.43799653 150.05678368 -0.45558548 C166.12462544 -0.6191468 166.12462544 -0.6191468 172.20124817 5.15390015 C175.84671251 9.17325827 177.32342991 11.53670692 177.34169006 16.90969849 C177.34740021 17.91347534 177.35311035 18.9172522 177.35899353 19.95144653 C177.36067032 21.60965424 177.36067032 21.60965424 177.36238098 23.30136108 C177.36734589 24.46244385 177.37231079 25.62352661 177.37742615 26.8197937 C177.39207786 30.67596013 177.39885518 34.53208541 177.40437317 38.38827515 C177.40867023 40.38618674 177.4129678 42.38409833 177.41734767 44.38200974 C177.42916506 49.95154219 177.43669804 55.52106465 177.44014287 61.09060836 C177.44462025 68.28995555 177.46215157 75.48911256 177.49114347 82.68840194 C177.51277897 88.25452364 177.5228482 93.82059193 177.52418399 99.38675523 C177.52523098 102.71030144 177.53256516 106.03362847 177.5490036 109.35713959 C177.56604528 113.06786008 177.56418795 116.7781174 177.55769348 120.48886108 C177.56690826 121.58623596 177.57612305 122.68361084 177.58561707 123.8142395 C177.55111033 130.10357512 177.16573445 134.89691789 172.73640442 139.76327515 C167.26095475 144.00420699 164.25944555 145.40311153 157.26878357 145.41459656 C156.57131181 145.4184221 155.87384005 145.42224765 155.15523279 145.42618912 C152.81844377 145.43650672 150.48190103 145.43252938 148.14509583 145.42855835 C146.46953097 145.43290555 144.79396811 145.43808872 143.1184082 145.44404602 C138.56671211 145.45744729 134.01509899 145.45801337 129.46338701 145.45548272 C125.66367815 145.45441365 121.86398613 145.45929481 118.06428087 145.46408814 C109.09950719 145.4751875 100.1347754 145.4756185 91.16999817 145.46957397 C81.92232858 145.46353454 72.67481116 145.47584343 63.42716753 145.49714404 C55.4873462 145.5147597 47.54757329 145.52076141 39.60773313 145.5175063 C34.86573678 145.51569305 30.12384893 145.51833374 25.38187027 145.53222084 C20.92162245 145.54479376 16.46161174 145.54286017 12.00136757 145.52980995 C10.36552539 145.52744335 8.72966655 145.53018187 7.09384346 145.53843307 C4.85818073 145.5488956 2.62331434 145.54080454 0.38768005 145.52812195 C-1.4877501 145.52837356 -1.4877501 145.52837356 -3.40106773 145.52863026 C-8.79833345 144.93336657 -12.69685244 142.85057433 -16.11125183 138.65390015 C-16.60238464 138.06608765 -17.09351746 137.47827515 -17.59953308 136.87265015 C-19.78446009 133.74115867 -19.92786562 130.97239403 -19.94592285 127.27784729 C-19.95307816 126.27269577 -19.96023346 125.26754425 -19.96760559 124.23193359 C-19.97029449 123.13005707 -19.9729834 122.02818054 -19.97575378 120.89291382 C-19.98232498 119.73168503 -19.98889618 118.57045624 -19.9956665 117.3740387 C-20.01541088 113.52331481 -20.02706386 109.67262991 -20.03703308 105.8218689 C-20.04314637 103.85136786 -20.04314637 103.85136786 -20.04938316 101.84105873 C-20.0684285 95.60682406 -20.08266122 89.37260119 -20.09099513 83.13834304 C-20.10076727 75.94743984 -20.1270885 68.75684449 -20.16749603 61.56604975 C-20.19767535 56.00415545 -20.21246568 50.44234931 -20.21577615 44.88037473 C-20.21812449 41.56012347 -20.22903431 38.24027625 -20.25223732 34.92009544 C-20.27652901 31.21416958 -20.27568154 27.50905082 -20.26872253 23.80307007 C-20.28153259 22.70726624 -20.29434265 21.6114624 -20.30754089 20.48245239 C-20.25805908 13.25943577 -19.27710562 9.73430833 -14.20109558 4.5093689 C-9.28753366 0.59162219 -6.19259158 0.02765299 0 0 Z M-8.79875183 6.15390015 C-7.4022729 9.34553871 -5.78271977 11.36524101 -3.23625183 13.7281189 C-2.52694519 14.39101929 -1.81763855 15.05391968 -1.08683777 15.73690796 C-0.33176941 16.43139038 0.42329895 17.1258728 1.20124817 17.84140015 C1.9743634 18.56037476 2.74747864 19.27934937 3.54402161 20.02011108 C8.24074591 24.37811984 12.97340921 28.69484372 17.75593567 32.95858765 C21.28565095 36.12743747 24.7632578 39.35169841 28.24519348 42.57284546 C31.88842068 45.94288397 35.5403222 49.30309894 39.20124817 52.65390015 C42.86276804 56.00524494 46.51533282 59.36592754 50.15901184 62.73666382 C56.12904126 68.25909402 62.14321578 73.72792571 68.20124817 79.15390015 C70.07663293 80.84097254 71.95164042 82.52846442 73.82624817 84.21640015 C74.66413879 84.97050171 75.50202942 85.72460327 76.36531067 86.5015564 C76.97117004 87.04682983 77.57702942 87.59210327 78.20124817 88.15390015 C83.99845911 84.17034179 88.86063311 79.60673996 93.77546692 74.5874939 C96.40042341 71.95408344 99.13839761 69.52945173 101.95906067 67.1109314 C104.81805522 64.6155372 107.60447408 62.04435575 110.38874817 59.46640015 C110.94336731 58.95295044 111.49798645 58.43950073 112.06941223 57.91049194 C113.21029277 56.85355743 114.35091512 55.79634414 115.49128723 54.73886108 C118.24541195 52.18606587 121.00440388 49.63855094 123.76374817 47.09140015 C124.30144836 46.59494995 124.83914856 46.09849976 125.3931427 45.58700562 C130.48996737 40.88330752 135.6020394 36.19635078 140.71736145 31.51278687 C143.21289224 29.22747519 145.70699374 26.94060466 148.20124817 24.65390015 C149.1856164 23.75154901 150.16999143 22.84920529 151.15437317 21.9468689 C151.64743958 21.49489136 152.14050598 21.04291382 152.64851379 20.57723999 C157.16609192 16.43612671 161.68367004 12.29501343 166.20124817 8.15390015 C165.87124817 7.16390015 165.54124817 6.17390015 165.20124817 5.15390015 C162.30686356 3.70670784 159.80004412 4.02455761 156.56503296 4.02018738 C155.87532046 4.01792182 155.18560796 4.01565627 154.47499508 4.01332206 C152.1526909 4.00696743 149.83044487 4.00781235 147.50813293 4.00863647 C145.84770125 4.00564591 144.18727027 4.00224362 142.52684021 3.99845886 C138.00830257 3.98960455 133.48978385 3.98728016 128.97123837 3.98664308 C125.20366112 3.98569514 121.43608831 3.98201821 117.66851276 3.97847098 C108.78253101 3.97032108 99.8965594 3.96788724 91.01057434 3.96859741 C81.83335825 3.96919845 72.6562009 3.95864271 63.47899967 3.94285375 C55.60891109 3.92979434 47.73884175 3.92441284 39.86874241 3.92505282 C35.16428022 3.92530827 30.45987021 3.92243143 25.75541878 3.91187477 C21.33218904 3.90222057 16.90906166 3.90209611 12.4858284 3.9093914 C10.86001499 3.91044057 9.2341953 3.90805478 7.60839272 3.90203094 C5.39362233 3.89435474 3.17920928 3.89892646 0.96444702 3.90666199 C-0.89690463 3.90584484 -0.89690463 3.90584484 -2.79585934 3.90501118 C-5.9797694 3.92496704 -5.9797694 3.92496704 -8.79875183 6.15390015 Z M-13.79875183 10.15390015 C-15.58993208 13.24128304 -16.0521841 15.48207137 -16.06617737 19.03631592 C-16.07470734 20.01759964 -16.0832373 20.99888336 -16.09202576 22.00990295 C-16.09111938 23.08013199 -16.09021301 24.15036102 -16.08927917 25.25302124 C-16.0959964 26.38513535 -16.10271362 27.51724945 -16.1096344 28.68367004 C-16.12865502 32.43160371 -16.13254064 36.1793587 -16.13468933 39.92733765 C-16.14111428 42.53041661 -16.14784241 45.13349484 -16.15486145 47.73657227 C-16.16764771 53.19568039 -16.17062681 58.65474001 -16.1693573 64.11386108 C-16.16815609 70.41690935 -16.189255 76.71961509 -16.22084463 83.02257669 C-16.2501831 89.0934487 -16.25733248 95.16415677 -16.25613785 101.23509598 C-16.25849919 103.81469751 -16.26735256 106.39430153 -16.28280258 108.97385788 C-16.30238727 112.58152478 -16.29665316 116.18830903 -16.28459167 119.79598999 C-16.29583069 120.86217056 -16.3070697 121.92835114 -16.31864929 123.02684021 C-16.26883163 128.8876514 -15.95074019 132.65571911 -11.79875183 137.15390015 C-7.30591331 140.68938419 -4.39436375 141.6548716 1.29829407 141.66183472 C1.98930757 141.66807468 2.68032107 141.67431464 3.39227438 141.68074369 C5.69548803 141.69663114 7.99763705 141.6840872 10.30085754 141.67147827 C11.95701716 141.67690132 13.61317195 141.68402501 15.26931763 141.69271851 C19.75901205 141.71093317 24.24833826 141.70389206 28.73803902 141.69120216 C33.43977465 141.68106486 38.14147906 141.69046987 42.84321594 141.69674683 C50.73849642 141.7040211 58.63362715 141.6944413 66.52888489 141.67538452 C75.65282679 141.65361619 84.77641114 141.66066772 93.90034437 141.68269014 C101.73831728 141.7008504 109.57618264 141.7033994 117.41416979 141.69293547 C122.09355561 141.68670398 126.77277345 141.68585542 131.45214844 141.69908142 C135.8517751 141.71064842 140.25094141 141.70259881 144.65051842 141.67950439 C146.26377791 141.67422182 147.87707624 141.67572339 149.49032021 141.68455505 C151.69546797 141.69551277 153.89914765 141.68174671 156.10420227 141.66183472 C157.95361294 141.65957256 157.95361294 141.65957256 159.84038544 141.65726471 C165.00287199 140.88406658 168.06716546 138.38254264 171.54588318 134.61376953 C173.92224519 129.64694819 173.7444333 125.2360072 173.68708801 119.79598999 C173.69278305 118.09256187 173.69278305 118.09256187 173.69859314 116.35472107 C173.70599176 112.60781073 173.68462703 108.86167885 173.66218567 105.11483765 C173.65980106 102.50982759 173.65889596 99.90481579 173.65940857 97.29980469 C173.65753848 91.84417064 173.64021184 86.38875977 173.61286926 80.93319702 C173.58138997 74.6290172 173.57087432 68.32508135 173.57234037 62.0208286 C173.5735616 55.94887185 173.56312934 49.87700728 173.54675674 43.80507278 C173.54038571 41.22383732 173.53644914 38.64259468 173.53496933 36.06135178 C173.5306416 32.45845011 173.51315238 28.85585683 173.49177551 25.25302124 C173.49313507 23.64767769 173.49313507 23.64767769 173.49452209 22.00990295 C173.48172714 20.53797737 173.48172714 20.53797737 173.46867371 19.03631592 C173.46532202 18.18499777 173.46197033 17.33367962 173.45851707 16.45656395 C173.17930848 13.95753081 172.45529717 12.31545224 171.20124817 10.15390015 C168.19443017 11.49389512 166.20362208 12.95235306 163.95124817 15.34140015 C161.57040656 17.85778471 159.07301474 20.1622884 156.45906067 22.4312439 C152.31517441 26.02895142 148.31219633 29.75795961 144.32624817 33.52890015 C139.16662432 38.38882935 133.9737965 43.19920935 128.68562317 47.91952515 C125.68659164 50.61676734 122.72392384 53.35166309 119.76374817 56.09140015 C113.94083422 61.48039917 108.08149014 66.82750862 102.20124817 72.15390015 C105.76835803 76.52360972 109.39238043 80.30505475 113.68171692 83.9546814 C117.68193262 87.44634254 121.5314115 91.09814178 125.39875793 94.73568726 C128.5016242 97.64984209 131.61656513 100.54182762 134.80281067 103.36483765 C135.35678528 103.85887085 135.91075989 104.35290405 136.48152161 104.86190796 C137.98423386 106.19714095 139.49483834 107.52347659 141.00593567 108.84921265 C143.1323786 111.08159935 143.88200037 112.14186656 144.20124817 115.15390015 C139.01934629 112.48659505 135.17023514 108.53122224 131.01374817 104.52890015 C129.48585679 103.07368053 127.95721564 101.61924769 126.42781067 100.1656189 C125.33001282 99.12026978 125.33001282 99.12026978 124.21003723 98.05380249 C121.0670966 95.08122543 117.85332031 92.19346645 114.61140442 89.3296814 C112.72672545 87.62827753 110.89422134 85.90122327 109.07234192 84.1343689 C108.53327209 83.61914673 107.99420227 83.10392456 107.438797 82.5730896 C106.38588509 81.56481286 105.34223132 80.54675299 104.30940247 79.51791382 C101.64877938 76.90864341 101.64877938 76.90864341 98.15437317 76.05233765 C95.39697471 77.60751038 93.50417403 79.61063242 91.32624817 81.90390015 C83.64831223 89.77378449 83.64831223 89.77378449 80.20124817 92.15390015 C77.05054205 91.79674457 75.33997908 90.68667743 73.07234192 88.53671265 C72.51224426 88.01206421 71.95214661 87.48741577 71.37507629 86.9468689 C70.80208801 86.39643921 70.22909973 85.84600952 69.63874817 85.27890015 C68.77346497 84.46485718 68.77346497 84.46485718 67.89070129 83.6343689 C63.6133345 79.59874486 63.6133345 79.59874486 61.63801575 77.46640015 C61.16388245 77.03327515 60.68974915 76.60015015 60.20124817 76.15390015 C56.79067556 76.35531191 55.20368518 77.84058241 52.95124817 80.27890015 C50.61647098 82.71668221 48.26765014 85.02380021 45.70124817 87.21640015 C41.64187559 90.71504227 37.73513875 94.36443647 33.82624817 98.02890015 C24.36470971 106.88001677 24.36470971 106.88001677 20.45124817 110.46640015 C19.69327942 111.16378296 18.93531067 111.86116577 18.15437317 112.5796814 C16.20124817 114.15390015 16.20124817 114.15390015 13.20124817 115.15390015 C15.03795546 108.41930674 20.8619818 104.28369653 25.94734192 99.8921814 C30.10685485 96.26510149 34.1309086 92.50946413 38.13874817 88.71640015 C43.74567581 83.43249732 49.38645225 78.20954215 55.20124817 73.15390015 C51.16677091 68.1638888 46.83600769 63.90709344 42.02937317 59.66171265 C38.94529135 56.92693291 35.91284817 54.14206231 32.88874817 51.34140015 C32.34363586 50.83737671 31.79852356 50.33335327 31.2368927 49.8140564 C28.99532187 47.74107898 26.75507203 45.66667626 24.51472473 43.59237671 C18.36929639 37.90401683 12.20612061 32.24261466 5.95906067 26.6656189 C3.72166714 24.62787947 1.51477022 22.56742147 -0.68156433 20.4859314 C-1.3610614 19.84381714 -2.04055847 19.20170288 -2.74064636 18.54013062 C-4.09722441 17.25564592 -5.44987054 15.966994 -6.79826355 14.67391968 C-7.72663025 13.79582642 -7.72663025 13.79582642 -8.67375183 12.8999939 C-9.22804871 12.37075317 -9.78234558 11.84151245 -10.35343933 11.29623413 C-11.75322486 9.94720742 -11.75322486 9.94720742 -13.79875183 10.15390015 Z " fill="#080808" transform="translate(33.79875183105469,39.846099853515625)"/>
</svg>
