<?xml version="1.0" encoding="UTF-8"?>
<svg version="1.1" xmlns="http://www.w3.org/2000/svg" width="225" height="225">
<path d="M0 0 C74.25 0 148.5 0 225 0 C225 74.25 225 148.5 225 225 C150.75 225 76.5 225 0 225 C0 150.75 0 76.5 0 0 Z " fill="#181717" transform="translate(0,0)"/>
<path d="M0 0 C10.02472497 -1.24731601 19.00946343 2.51093189 27.16796875 8.21484375 C30.03043943 10.01918734 30.8585277 10.47697885 34.0625 9.8125 C34.69285156 9.69519531 35.32320312 9.57789063 35.97265625 9.45703125 C37.38227111 9.1392568 38.79013212 8.81364229 40.1965332 8.48193359 C45.41733575 7.58444476 50.73290576 7.81408162 56.01757812 7.81469727 C58.09786998 7.81252829 60.17761548 7.79439575 62.2578125 7.77539062 C69.24641768 7.74770864 75.84251488 8.03958951 82.66357422 9.66674805 C86.84594738 10.26329343 90.1989414 9.09448973 93.8828125 7.1875 C94.57503906 6.83429687 95.26726562 6.48109375 95.98046875 6.1171875 C96.68816406 5.74851562 97.39585937 5.37984375 98.125 5 C99.54337392 4.2690902 100.9626123 3.53985487 102.3828125 2.8125 C103.00559082 2.48894531 103.62836914 2.16539063 104.27001953 1.83203125 C107.71228057 0.17648149 110.42473592 -0.11136707 114.1875 -0.0625 C115.08855469 -0.05347656 115.98960937 -0.04445312 116.91796875 -0.03515625 C117.60503906 -0.02355469 118.29210937 -0.01195312 119 0 C122.35733374 8.67311217 123.40406989 17.9563948 121.28125 27.09375 C120.91103861 30.91926768 121.99948621 32.19442436 124.25 35.25 C130.11800424 43.25182397 131.53169191 51.64299177 131.375 61.375 C131.36484863 62.294021 131.35469727 63.21304199 131.34423828 64.15991211 C131.03361227 77.79976527 127.32421642 90.65546702 117.875 100.875 C107.73088229 110.30185686 94.32558609 113.88285081 81 116 C81.61875 116.721875 82.2375 117.44375 82.875 118.1875 C87.21140744 123.92686279 87.30332443 128.86465552 87.34375 135.82421875 C87.3583728 136.7668306 87.37299561 137.70944244 87.38806152 138.68061829 C87.45024357 142.70434281 87.49006557 146.72821634 87.53173828 150.75219727 C87.56537496 153.69303764 87.61049181 156.63354614 87.65625 159.57421875 C87.66416565 160.94606575 87.66416565 160.94606575 87.67224121 162.34562683 C87.68565552 163.19022964 87.69906982 164.03483246 87.71289062 164.9050293 C87.72382751 166.0215815 87.72382751 166.0215815 87.73498535 167.16069031 C87.84822429 169.247583 87.84822429 169.247583 90 171 C91.96690374 171.67292501 91.96690374 171.67292501 94.125 172.125 C95.40375 172.41375 96.6825 172.7025 98 173 C98.495 175.475 98.495 175.475 99 178 C72.93 178 46.86 178 20 178 C20.33 176.35 20.66 174.7 21 173 C23.97 172.01 26.94 171.02 30 170 C30.33 162.74 30.66 155.48 31 148 C30.34 148.33 29.68 148.66 29 149 C17.1234187 149.78661396 7.90466291 149.55619128 -1.53881836 141.54125977 C-4.20069456 138.73350297 -5.5846389 135.29363583 -7.1875 131.8125 C-10.72960425 124.55736301 -14.5908752 119.85848784 -20.91015625 114.8828125 C-21.59980469 114.26148438 -22.28945313 113.64015625 -23 113 C-23 112.01 -23 111.02 -23 110 C-17.10521438 108.33408233 -13.68960058 109.49240014 -8.36328125 112.41015625 C-3.77445339 115.4971859 -0.93570822 119.38670996 1.8125 124.125 C4.91683893 128.20498831 8.13890242 130.365605 13 132 C19.05210221 132.69473836 25.58211842 133.16592732 31 130 C32.39233066 127.49716656 32.39233066 127.49716656 33.1875 124.5625 C34.22939135 121.23288126 35.04668258 118.92997613 37 116 C35.93523437 115.79246094 34.87046875 115.58492188 33.7734375 115.37109375 C19.57125741 112.4309529 6.12613488 108.05551151 -3 96 C-11.88117938 81.8761861 -14.80691575 64.2709165 -11.57666016 47.84765625 C-10.0515476 42.30797165 -7.57907367 37.55705517 -4.125 33 C-1.68665465 30.29715812 -1.68665465 30.29715812 -2.3515625 27.76171875 C-2.56554687 26.85035156 -2.77953125 25.93898438 -3 25 C-3.52441259 16.17574966 -3.27058947 8.27381264 0 0 Z " fill="#FDFDFD" transform="translate(53,47)"/>
</svg>
