<?xml version="1.0" encoding="UTF-8"?>
<svg version="1.1" xmlns="http://www.w3.org/2000/svg" width="640" height="480">
<path d="M0 0 C211.2 0 422.4 0 640 0 C640 158.4 640 316.8 640 480 C428.8 480 217.6 480 0 480 C0 321.6 0 163.2 0 0 Z " fill="#030406" transform="translate(0,0)"/>
<path d="M0 0 C211.2 0 422.4 0 640 0 C640 158.4 640 316.8 640 480 C428.8 480 217.6 480 0 480 C0 321.6 0 163.2 0 0 Z M112 36 C102.57325636 48.85465042 98.06818244 61.2630178 98.2515564 77.1108551 C98.24605915 78.5698895 98.23794133 80.02891592 98.22746909 81.48792309 C98.2065108 85.45207887 98.22240945 89.41531852 98.24497008 93.37943304 C98.26278893 97.67194817 98.24572861 101.964352 98.23324585 106.25686646 C98.21434398 114.64775617 98.2274037 123.0383 98.25177173 131.42916388 C98.27912117 141.21399635 98.27572643 150.99874804 98.27150507 160.78360903 C98.2651362 178.24928333 98.28839835 195.71479411 98.32763672 213.18041992 C98.36564619 230.10364765 98.37980893 247.02668381 98.36865234 263.94995117 C98.3565198 282.40805876 98.35692147 300.86608229 98.37962401 319.32418293 C98.38203842 321.29463796 98.3844504 323.26509299 98.38685989 325.23554802 C98.38806697 326.20488416 98.38927405 327.1742203 98.3905177 328.17293026 C98.39825581 334.98332901 98.39749665 341.79369635 98.3936882 348.60409737 C98.38943139 356.91000796 98.39998982 365.21575136 98.42891531 373.52161498 C98.44334077 377.75430968 98.45161132 381.98676166 98.44242859 386.2194767 C98.43420955 390.1026062 98.44479101 393.98523697 98.46968074 397.86829125 C98.47548314 399.26443719 98.47475002 400.66063096 98.46639459 402.05676395 C98.38675054 416.70767578 101.52814556 431.31649349 111.3125 442.6875 C112.6428125 443.8321875 112.6428125 443.8321875 114 445 C114.88365234 445.90298828 114.88365234 445.90298828 115.78515625 446.82421875 C124.25227844 455.13307698 135.98794667 461.11407137 147.96601677 461.13422108 C149.19498582 461.13867892 150.42395487 461.14313676 151.6901654 461.14772969 C153.05612875 461.1476404 154.4220921 461.14745055 155.78805542 461.14717102 C157.23758547 461.15047067 158.68711461 461.15419646 160.13664258 461.1583125 C164.12533353 461.16832954 168.11400945 461.17204884 172.1027112 461.17470181 C176.40288717 461.17860587 180.70305124 461.18818431 185.0032196 461.19691467 C195.39251403 461.21667874 205.78180943 461.22674634 216.17111796 461.23564246 C221.06561864 461.24002645 225.96011824 461.24539307 230.85461807 461.25063133 C247.12961286 461.26764543 263.40460698 461.2821382 279.6796093 461.28938007 C283.90326819 461.29128993 288.12692707 461.29321026 292.35058594 461.29516602 C293.4003386 461.29564976 294.45009126 461.2961335 295.53165461 461.2966319 C312.52570747 461.30492691 329.51968982 461.33025408 346.51371191 461.36274669 C363.9680791 461.3958468 381.42241051 461.4138316 398.87680924 461.41702431 C408.67387712 461.41918694 418.47084224 461.42789912 428.26787949 461.45348549 C436.61427712 461.47523302 444.96054705 461.4832231 453.30696981 461.47351871 C457.56189173 461.4689854 461.81655041 461.47080335 466.07143593 461.49028015 C469.9753171 461.50799496 473.87874462 461.50684749 477.78263117 461.49138286 C479.18652548 461.48901928 480.5904519 461.49326466 481.99429737 461.50521151 C496.39424127 461.62005433 511.21301807 458.69225827 522.3515625 448.94140625 C524.30000933 447.01067258 526.160912 445.03427422 528 443 C528.7425 442.34064453 528.7425 442.34064453 529.5 441.66796875 C531.71567628 439.20418288 533.01040462 436.45305751 534.5 433.5 C535.0878125 432.3553125 535.675625 431.210625 536.28125 430.03125 C540.67847844 420.29533771 541.43742355 410.92427973 541.38768005 400.34997559 C541.3918602 398.89226291 541.39734144 397.43455349 541.40399987 395.97685003 C541.41838362 391.99811835 541.41423207 388.01959506 541.40683305 384.04085231 C541.40208615 379.73948041 541.41462455 375.43815262 541.42485046 371.13679504 C541.44201322 362.72106674 541.44288383 354.30541318 541.43763756 345.88967192 C541.43359044 339.04791547 541.43504585 332.20618106 541.44038582 325.36442566 C541.44113424 324.38938948 541.44188266 323.41435331 541.44265376 322.40977058 C541.44418529 320.42878949 541.44572364 318.44780841 541.44726873 316.46682733 C541.46098428 297.90623221 541.4555624 279.34567929 541.44408352 260.78508514 C541.43414896 243.81530854 541.44709734 226.84564093 541.47101771 209.87588114 C541.49541495 192.43598706 541.50501524 174.99614373 541.49836498 157.55623293 C541.49487457 147.7711142 541.49709332 137.98607931 541.51461601 128.20097351 C541.52934565 119.87257834 541.52996329 111.54432608 541.5125451 103.21593368 C541.50403961 98.96944621 541.50187452 94.72321397 541.51719666 90.47673988 C541.53106694 86.58438013 541.52625096 82.69249372 541.50695742 78.80016118 C541.50320429 77.39720936 541.50609952 75.9942194 541.51656907 74.59130162 C541.57676911 65.90205017 540.57231421 58.94705555 537 51 C536.56558594 49.9790625 536.13117188 48.958125 535.68359375 47.90625 C528.62757608 34.28083657 517.97107248 26.15012168 503.74210584 21.21723509 C495.91548914 18.82672215 488.49424455 18.57145542 480.36343384 18.60559082 C478.90714594 18.60069325 477.45086194 18.59449946 475.99458444 18.58713293 C472.01972049 18.57082027 468.04505601 18.5730335 464.0701704 18.5785079 C459.77284535 18.58118883 455.47557221 18.56662651 451.17826843 18.55441284 C442.76989545 18.53340215 434.36159149 18.52881546 425.95319535 18.53060073 C419.11622264 18.53191043 412.27927138 18.52809359 405.4423027 18.52067566 C403.46990438 18.51857638 401.49750606 18.51647878 399.52510774 18.51438284 C398.05235447 18.51281755 398.05235447 18.51281755 396.5498486 18.51122063 C377.99873381 18.49233621 359.4476586 18.49336308 340.89653818 18.50018996 C323.94102556 18.50576539 306.98566404 18.48493677 290.03018673 18.45182949 C272.60158145 18.41806364 255.1730485 18.40292768 237.74440992 18.40754652 C227.96702859 18.40978811 218.18978694 18.4045933 208.41243362 18.37965393 C200.08919879 18.35860353 191.76618026 18.35508598 183.44293644 18.37395352 C179.20019633 18.38308793 174.95785913 18.38432521 170.71515083 18.36359787 C166.82383442 18.34479814 162.93324836 18.34949065 159.04195897 18.37214369 C157.64166083 18.37630688 156.24130569 18.3722069 154.84106798 18.35854775 C139.93917559 18.22319401 121.70680911 23.79715426 112 36 Z " fill="#FEFEFE" transform="translate(0,0)"/>
<path d="M0 0 C11.71707749 -0.48914467 23.43168639 -0.86093084 35.15693665 -1.08805561 C40.6037634 -1.19714683 46.04355377 -1.34468643 51.48632812 -1.58422852 C89.61937449 -3.21918127 89.61937449 -3.21918127 98.26171875 4.43408203 C101.90533882 8.67833218 104.43374062 13.18970521 106.69309998 18.28675842 C108.86257874 22.79079077 111.94095906 26.57221988 115 30.5 C116.14888843 32.05799426 117.29393745 33.61883363 118.43359375 35.18359375 C122.24649511 40.35862565 126.15237646 45.46075968 130.0625 50.5625 C135.58657601 57.77281724 140.97628898 65.06087309 146.26000977 72.44873047 C150.5864336 78.47884828 155.0602607 84.38624442 159.6003418 90.25683594 C162.8320337 94.44018219 165.95224402 98.6804782 169 103 C169.72445312 102.27425781 170.44890625 101.54851562 171.1953125 100.80078125 C172.93481687 99.06369958 174.67877282 97.33104865 176.4296875 95.60546875 C177.64011719 94.40857422 177.64011719 94.40857422 178.875 93.1875 C179.67679688 92.39730469 180.47859375 91.60710937 181.3046875 90.79296875 C184.02082875 87.97841659 186.57714657 85.0661835 189.13916016 82.11254883 C192.25474089 78.57553491 195.50545393 75.16834693 198.75 71.75 C204.29091109 65.88846673 209.78321953 59.99068702 215.21875 54.03125 C218.49174457 50.45201033 221.81016212 46.91543897 225.125 43.375 C228.93489309 39.30442734 232.72495451 35.2225086 236.4375 31.0625 C240.97986354 25.97675091 245.65143107 21.01544023 250.33374023 16.05883789 C250.93516846 15.42067139 251.53659668 14.78250488 252.15625 14.125 C253.09416382 13.15312744 253.09416382 13.15312744 254.05102539 12.16162109 C256.08759292 9.97674856 256.08759292 9.97674856 257.97827148 7.29541016 C263.23654199 0.43150981 263.23654199 0.43150981 268.24462891 -0.79394531 C271.90119294 -0.98254757 275.41046395 -0.87740015 279.0625 -0.625 C280.93325195 -0.55732422 280.93325195 -0.55732422 282.84179688 -0.48828125 C285.89960083 -0.37112401 288.94721406 -0.20741203 292 0 C289.88813395 3.63347529 287.79265221 6.40283085 284.75 9.3125 C281.20213007 12.77425658 277.90487696 16.34131857 274.6796875 20.1015625 C273.01795424 21.97970753 271.28874475 23.74305516 269.5 25.5 C267.20673964 27.75797943 265.03571972 30.05996504 262.9375 32.5 C255.94008027 40.60391594 248.47271166 48.30222777 241.14453125 56.10546875 C234.6114879 63.06369555 228.10234954 70.03990655 221.6640625 77.0859375 C215.02720427 84.34560941 208.34825607 91.56601605 201.62695312 98.74755859 C199.2815678 101.25515168 196.94145661 103.76762466 194.60253906 106.28125 C193.57823356 107.37983482 192.55174987 108.47639538 191.52246094 109.5703125 C190.23753048 110.93652143 188.96214637 112.31169122 187.6875 113.6875 C186.99011719 114.43386719 186.29273438 115.18023437 185.57421875 115.94921875 C183.90021759 118.12998949 183.31197874 119.29105783 183 122 C183.95290157 123.94561789 183.95290157 123.94561789 185.54296875 125.765625 C186.11595703 126.48226318 186.68894531 127.19890137 187.27929688 127.93725586 C187.90900391 128.70046143 188.53871094 129.46366699 189.1875 130.25 C190.49469483 131.88054491 191.80066387 133.51207321 193.10546875 135.14453125 C193.76466309 135.96260254 194.42385742 136.78067383 195.10302734 137.62353516 C197.80596748 141.0096895 200.41190732 144.463195 203 147.9375 C203.4832373 148.58396484 203.96647461 149.23042969 204.46435547 149.89648438 C208.86424474 155.79386967 213.22041758 161.72352061 217.578125 167.65209961 C222.47507689 174.30705187 227.42944374 180.91765473 232.39599609 187.52075195 C236.61295448 193.13337206 240.78599178 198.77635242 244.9375 204.4375 C250.5449274 212.07936818 256.26995617 219.62559756 262.0300293 227.15283203 C267.0895224 233.77592348 272.05740039 240.4613608 276.98779297 247.1809082 C280.67346315 252.20351651 284.38367086 257.206212 288.125 262.1875 C288.60388672 262.8261499 289.08277344 263.4647998 289.57617188 264.12280273 C292.17555999 267.58558411 294.78859471 271.03741458 297.4140625 274.48046875 C297.97206543 275.21563721 298.53006836 275.95080566 299.10498047 276.70825195 C300.18073838 278.1251934 301.26034168 279.53922572 302.34423828 280.94995117 C306 285.77494223 306 285.77494223 306 288 C294.37826912 288.41888764 282.75835916 288.73776951 271.13059044 288.93261909 C265.72951278 289.02619463 260.33363218 289.15282993 254.93554688 289.35791016 C249.71547046 289.55496358 244.50035462 289.66139182 239.27684402 289.70779037 C237.29478437 289.74080184 235.31296749 289.80528368 233.33304977 289.90314102 C218.30084277 290.61587282 218.30084277 290.61587282 212.82236481 286.27425385 C208.7308421 282.03388869 205.51455469 277.30258609 202.43893814 272.29468918 C200.21997031 268.75607877 197.69980487 265.45786433 195.1875 262.125 C194.29580907 260.90406968 193.40616066 259.68164215 192.51953125 258.45703125 C188.06818541 252.33324391 183.4896297 246.30381861 178.93359375 240.2578125 C174.93747879 234.94437788 170.97403883 229.60959425 167.03979492 224.25024414 C161.41389504 216.5876319 155.72241207 208.98553797 149.92407227 201.45263672 C143.48526102 193.06569258 137.24370268 184.53263645 131 176 C130.26523437 176.73605469 129.53046875 177.47210938 128.7734375 178.23046875 C127.1173109 179.88426278 125.45723292 181.53413651 123.7890625 183.17578125 C123.07492187 183.88089844 122.36078125 184.58601562 121.625 185.3125 C120.56152344 186.35857422 120.56152344 186.35857422 119.4765625 187.42578125 C116.83378139 190.17277298 114.3456792 193.02357134 111.84716797 195.90112305 C108.89297842 199.25787265 105.8216856 202.50106303 102.75 205.75 C98.32262037 210.45133903 93.91343776 215.16529141 89.5625 219.9375 C85.05017782 224.88149426 80.47051897 229.75831523 75.875 234.625 C70.96715218 239.82378427 66.10846271 245.05315892 61.35546875 250.39453125 C57.58645657 254.56357125 53.72889671 258.65040798 49.87060547 262.73681641 C47.35765336 265.4111183 44.96233411 268.0484459 42.70703125 270.94921875 C42.14371094 271.62597656 41.58039063 272.30273438 41 273 C40.34 273 39.68 273 39 273 C38.7525 273.57621094 38.505 274.15242188 38.25 274.74609375 C36.81305755 277.3370806 35.14041667 279.02044807 33 281.0625 C30.62557202 283.33653856 28.83652048 285.24521929 27 288 C24.29443359 288.34057617 24.29443359 288.34057617 20.8984375 288.29296875 C19.68671875 288.28330078 18.475 288.27363281 17.2265625 288.26367188 C15.95554688 288.23853516 14.68453125 288.21339844 13.375 288.1875 C12.09625 288.17396484 10.8175 288.16042969 9.5 288.14648438 C6.33291718 288.11103196 3.16666459 288.06161441 0 288 C1.42432416 285.02183282 2.77903265 283.02068318 5.1875 280.75 C7.69734183 278.37534872 9.9956296 275.88519561 12.2578125 273.27734375 C15.95848031 269.01531385 19.8028406 264.90652369 23.6875 260.8125 C30.02686702 254.10419061 36.31802925 247.35535364 42.56445312 240.56054688 C45.03924556 237.87026231 47.51995671 235.18544318 50 232.5 C52.97797953 229.27474095 55.95536885 226.04894831 58.9296875 222.8203125 C64.85882796 216.38656435 70.81427198 209.97826048 76.78857422 203.58642578 C81.02856257 199.04766589 85.24697639 194.48964408 89.4543457 189.9206543 C92.74325632 186.35234726 96.05011004 182.80139876 99.36694336 179.2590332 C101.14941306 177.35322243 102.92664027 175.44263865 104.703125 173.53125 C106.75614028 171.32360437 108.82669908 169.13637322 110.921875 166.96875 C111.75203125 166.0921875 112.5821875 165.215625 113.4375 164.3125 C114.15808594 163.56613281 114.87867188 162.81976563 115.62109375 162.05078125 C117.22704044 160.14739107 117.22704044 160.14739107 116.7644043 158.12573242 C115.88358605 155.67626438 114.73029574 154.00478344 113.1484375 151.9375 C112.25427124 150.75812866 112.25427124 150.75812866 111.34204102 149.55493164 C110.69291748 148.7118042 110.04379395 147.86867676 109.375 147 C107.99589742 145.18634719 106.61699664 143.37254091 105.23828125 141.55859375 C104.5313916 140.63288574 103.82450195 139.70717773 103.09619141 138.75341797 C99.89109341 134.54341386 96.72894733 130.30159666 93.5625 126.0625 C88.3134218 119.05035679 83.01073546 112.0809531 77.6875 105.125 C72.96386603 98.94914693 68.32834328 92.73476563 63.85717773 86.37426758 C59.45950163 80.15954961 54.8018708 74.14390914 50.17285156 68.10083008 C45.04347075 61.39517054 40.00732481 54.6270588 35.01318359 47.8203125 C31.32709506 42.79737162 27.61693124 37.79398424 23.875 32.8125 C23.3917627 32.16877441 22.90852539 31.52504883 22.41064453 30.86181641 C19.87872172 27.49185684 17.34019527 24.12699025 14.796875 20.765625 C14.26594238 20.06203857 13.73500977 19.35845215 13.18798828 18.63354492 C12.18850263 17.30917179 11.18706232 15.98627011 10.18310547 14.6652832 C7.61948539 11.26523156 5.17921828 7.81089123 2.82568359 4.26147461 C2.29397552 3.46059921 1.76226746 2.65972382 1.21444702 1.83457947 C0.8136795 1.22916824 0.41291199 0.62375702 0 0 Z " fill="#FBFBFB" transform="translate(167,96)"/>
<path d="M0 0 C35.72062725 -3.30522344 35.72062725 -3.30522344 45.33398438 1.75488281 C50.45486013 6.32327429 53.51664436 12.02854563 56.51367188 18.13134766 C58.84678214 22.63431178 61.90843143 26.49834454 65 30.5 C66.14413597 32.05340975 67.28473728 33.6094288 68.421875 35.16796875 C72.30035223 40.43208073 76.27344484 45.62230877 80.25 50.8125 C85.04549339 57.0718033 89.7452881 63.37133876 94.27441406 69.82543945 C98.26762739 75.46972492 102.55108331 80.88086731 106.81982422 86.31787109 C110.84453934 91.46269792 114.70292538 96.69354003 118.46191406 102.03442383 C121.52276375 106.37104467 124.72375997 110.58227693 127.98291016 114.77270508 C131.61200515 119.45605842 135.12367852 124.22062775 138.625 129 C143.67659793 135.89087282 148.80654415 142.7154456 154 149.5 C159.74217036 157.0035172 165.39830505 164.56309108 170.98779297 172.1809082 C176.11969076 179.17434798 181.31679405 186.11707533 186.53222656 193.04833984 C189.02500335 196.36292028 191.5121815 199.68169745 194 203 C194.99997397 204.33335286 195.99997395 205.66668621 197 207 C199 209.66666667 201 212.33333333 203 215 C203.74358765 215.99132935 203.74358765 215.99132935 204.50219727 217.00268555 C205.49518602 218.32683241 206.48786538 219.65121136 207.48022461 220.97583008 C210.08491655 224.45175099 212.69596422 227.92265209 215.31640625 231.38671875 C215.85974609 232.10666016 216.40308594 232.82660156 216.96289062 233.56835938 C217.99996349 234.94225933 219.03891254 236.31474586 220.08007812 237.68554688 C220.54994141 238.30880859 221.01980469 238.93207031 221.50390625 239.57421875 C221.91455322 240.11651123 222.3252002 240.65880371 222.74829102 241.2175293 C224.28786666 243.40993066 225.64263981 245.69137812 227 248 C187.39617026 251.11359231 187.39617026 251.11359231 179.55078125 244.625 C176.41223775 240.98144158 174.26112249 236.89033751 172.25146484 232.54003906 C170.17644235 228.32846396 167.32024269 224.73460374 164.5 221 C163.42688505 219.50591511 162.35657409 218.00981232 161.2890625 216.51171875 C157.92781037 211.85791056 154.41808979 207.32868513 150.875 202.8125 C145.24919548 195.64098415 139.80192958 188.36470761 134.44677734 180.98974609 C126.09170634 169.49905613 117.5976743 158.12255419 108.96435547 146.83959961 C103.9750852 140.30826789 99.07678294 133.71542906 94.21435547 127.08935547 C84.92474025 114.43603233 75.46949222 101.90895408 65.9375 89.4375 C59.5706606 81.10628315 53.31944285 72.69638824 47.1171875 64.2421875 C43.12110783 58.79562519 39.06551298 53.39492027 35 48 C29.02587043 40.07235278 23.12355083 32.09577065 17.25024414 24.09326172 C12.89370099 18.17263358 8.43824376 12.34127975 3.890625 6.56640625 C2.29556753 4.4012146 1.15398023 2.40732034 0 0 Z " fill="#050507" transform="translate(207,116)"/>
<path d="M0 0 C1.90201004 0.09966373 3.80756193 0.13390026 5.71217537 0.1386652 C7.54693119 0.14687687 7.54693119 0.14687687 9.41875279 0.15525442 C10.78845598 0.15633076 12.15815924 0.15731543 13.52786255 0.15821838 C14.97327019 0.16278133 16.41867651 0.16778096 17.86408126 0.17318195 C21.8501105 0.1868029 25.83613118 0.19419282 29.82217765 0.20060861 C34.11530805 0.20859523 38.40842054 0.22229896 42.70153809 0.23532104 C50.14436407 0.25710852 57.58719185 0.27524468 65.03003311 0.29092598 C75.79123477 0.31360396 86.55241661 0.34174963 97.31360148 0.37124526 C114.77139616 0.41894662 132.22919892 0.46220389 149.68701172 0.50268555 C166.64925771 0.54202754 183.6114965 0.58345064 200.57373047 0.62768555 C202.14111498 0.63177196 202.14111498 0.63177196 203.74016382 0.63594092 C208.98204758 0.64962018 214.22393123 0.6633405 219.46581483 0.67708123 C262.97719489 0.79108596 306.48859051 0.89788646 350 1 C350 1.33 350 1.66 350 2 C305.09797871 2.04574668 260.19595989 2.08100356 215.29391991 2.10213066 C209.99656506 2.10463217 204.69921025 2.1072208 199.40185547 2.10986328 C198.3472177 2.1103879 197.29257992 2.11091252 196.20598343 2.11145304 C179.11441588 2.12016303 162.02286174 2.13593627 144.93130216 2.15430559 C127.40253133 2.17298813 109.87376753 2.18411323 92.34498715 2.18817699 C81.52296666 2.19092547 70.70098407 2.19961601 59.87897524 2.21583293 C52.46466899 2.2263795 45.05038242 2.22960592 37.63606921 2.22700275 C33.35413422 2.22571783 29.07226561 2.22773043 24.79034233 2.23841095 C20.87336912 2.24811015 16.95650722 2.2486567 13.039529 2.24179779 C11.61954574 2.24094949 10.19955567 2.24351475 8.77958593 2.24976636 C6.85478117 2.25775053 4.92993449 2.25228891 3.00512314 2.24609566 C1.39890614 2.24723482 1.39890614 2.24723482 -0.23975968 2.24839699 C-3.00161386 1.99985477 -4.64902837 1.42478006 -7 0 C-2.25 -1.125 -2.25 -1.125 0 0 Z " fill="#646567" transform="translate(145,459)"/>
<path d="M0 0 C0.99 0.33 1.98 0.66 3 1 C2.34 1 1.68 1 1 1 C1.33 1.99 1.66 2.98 2 4 C2.66 3.34 3.32 2.68 4 2 C4 2.99 4 3.98 4 5 C4.66 5 5.32 5 6 5 C6.79953138 8.28696233 7.09658936 9.71023192 6 13 C5.01 13.33 4.02 13.66 3 14 C1.96386967 12.76265016 0.94652198 11.50955363 -0.0625 10.25 C-0.63097656 9.55390625 -1.19945312 8.8578125 -1.78515625 8.140625 C-3 6 -3 6 -2.80859375 3.859375 C-2 2 -2 2 0 0 Z " fill="#08090B" transform="translate(352,212)"/>
<path d="M0 0 C-0.66 1.65 -1.32 3.3 -2 5 C-2.66 5 -3.32 5 -4 5 C-4.33 6.98 -4.66 8.96 -5 11 C-6.11375 11.12375 -6.11375 11.12375 -7.25 11.25 C-10.51221354 12.1396946 -11.80954878 13.48503749 -14 16 C-14 12.47967572 -13.29648649 11.5614657 -11 9 C-10.34 9 -9.68 9 -9 9 C-8.773125 8.443125 -8.54625 7.88625 -8.3125 7.3125 C-6.49644015 4.11277551 -3.9498923 0 0 0 Z " fill="#141516" transform="translate(292,279)"/>
<path d="M0 0 C0.66 0.33 1.32 0.66 2 1 C1.67 2.98 1.34 4.96 1 7 C-1.91482778 7.80967438 -3.46113217 8.21845993 -6.3125 7.0625 C-6.869375 6.711875 -7.42625 6.36125 -8 6 C-8 5.34 -8 4.68 -8 4 C-6.71349294 3.30289269 -5.42059335 2.61757124 -4.125 1.9375 C-3.40570313 1.55464844 -2.68640625 1.17179687 -1.9453125 0.77734375 C-1.30335938 0.52082031 -0.66140625 0.26429687 0 0 Z " fill="#090A0B" transform="translate(131,23)"/>
<path d="M0 0 C0.33 1.32 0.66 2.64 1 4 C1.66 3.67 2.32 3.34 3 3 C3.66 2.67 4.32 2.34 5 2 C6.10844919 5.32534757 5.84454356 7.62182575 5 11 C1.71211176 7.88983545 -0.83735988 4.98381075 -3 1 C-2.01 0.67 -1.02 0.34 0 0 Z " fill="#121214" transform="translate(375,336)"/>
<path d="M0 0 C0.99 0 1.98 0 3 0 C2.84518205 2.70931419 2.51827919 4.46584039 0.59765625 6.4453125 C-0.89771708 7.67679642 -2.4462924 8.8429837 -4 10 C-4.33 9.34 -4.66 8.68 -5 8 C-4.109375 6.0546875 -4.109375 6.0546875 -2.75 3.875 C-2.09257812 2.78832031 -2.09257812 2.78832031 -1.421875 1.6796875 C-0.95265625 1.12539062 -0.4834375 0.57109375 0 0 Z " fill="#0F1012" transform="translate(349,180)"/>
<path d="M0 0 C2 1 2 1 2 1 Z M-1 1 C2 1 2 1 5 2 C3.02 4.31 1.04 6.62 -1 9 C-1.66 8.34 -2.32 7.68 -3 7 C-2.67 6.67 -2.34 6.34 -2 6 C-2.66 5.34 -3.32 4.68 -4 4 C-3.34 4 -2.68 4 -2 4 C-1.67 3.01 -1.34 2.02 -1 1 Z " fill="#121214" transform="translate(372,154)"/>
<path d="M0 0 C1.32 0.33 2.64 0.66 4 1 C3.60196439 3.88575819 3.20990931 4.82189513 0.9375 6.75 C0.298125 7.1625 -0.34125 7.575 -1 8 C-1.66 6.35 -2.32 4.7 -3 3 C-2.34 2.67 -1.68 2.34 -1 2 C-0.67 1.34 -0.34 0.68 0 0 Z " fill="#0B0C0E" transform="translate(172,370)"/>
<path d="M0 0 C4.66154042 1.49835228 5.86610751 4.88463591 8 9 C2.25 7.125 2.25 7.125 0 6 C0.185625 5.38125 0.37125 4.7625 0.5625 4.125 C1.23686176 1.95839822 1.23686176 1.95839822 0 0 Z " fill="#111213" transform="translate(210,156)"/>
<path d="M0 0 C2.31 0 4.62 0 7 0 C7 1.65 7 3.3 7 5 C5.68 5 4.36 5 3 5 C1.25 2.5 1.25 2.5 0 0 Z " fill="#0E0F11" transform="translate(207,116)"/>
<path d="M0 0 C5.39058824 5.20470588 5.39058824 5.20470588 7 8 C6.6875 10.75 6.6875 10.75 6 13 C5.34 12.67 4.68 12.34 4 12 C3.59270772 9.67843403 3.25561323 7.3431213 3 5 C2.01 5 1.02 5 0 5 C0 3.35 0 1.7 0 0 Z " fill="#121213" transform="translate(198,138)"/>
<path d="M0 0 C0.66 0.99 1.32 1.98 2 3 C-0.93823848 7.00668883 -4.09957455 9.92071675 -8 13 C-8.66 12.67 -9.32 12.34 -10 12 C-8.37660195 10.29115995 -6.70680947 8.62553283 -5 7 C-4.34 7 -3.68 7 -3 7 C-2.690625 6.21625 -2.38125 5.4325 -2.0625 4.625 C-1 2 -1 2 0 0 Z " fill="#C9CACA" transform="translate(533,435)"/>
<path d="M0 0 C1.32 1.32 2.64 2.64 4 4 C3.67 4.66 3.34 5.32 3 6 C0.51587793 6.82804069 -1.35220307 7 -4 7 C-3.34 5.35 -2.68 3.7 -2 2 C-1.34 2 -0.68 2 0 2 C0 1.34 0 0.68 0 0 Z " fill="#121315" transform="translate(341,240)"/>
<path d="M0 0 C0.99 0.33 1.98 0.66 3 1 C2.34 1 1.68 1 1 1 C1.33 3.64 1.66 6.28 2 9 C1.01 9.495 1.01 9.495 0 10 C-1.5625 8.25 -1.5625 8.25 -3 6 C-2.73495121 2.99611368 -2.16695725 2.16695725 0 0 Z " fill="#121213" transform="translate(352,212)"/>
<path d="M0 0 C0.99 0.33 1.98 0.66 3 1 C1.74464015 4.76607955 0.47116415 5.26441793 -3 7 C-3.99 7 -4.98 7 -6 7 C-4.02 4.69 -2.04 2.38 0 0 Z " fill="#0D0D0F" transform="translate(380,182)"/>
<path d="M0 0 C1.32 0.66 2.64 1.32 4 2 C3.01 3.32 2.02 4.64 1 6 C-0.65 5.67 -2.3 5.34 -4 5 C-2.68 3.35 -1.36 1.7 0 0 Z " fill="#E8E9EB" transform="translate(394,137)"/>
<path d="M0 0 C3.82946843 1.45255699 5.12050295 3.42895561 7 7 C3.09161134 7 1.88405893 5.49432124 -1 3 C-0.67 2.01 -0.34 1.02 0 0 Z " fill="#EEEEEF" transform="translate(458,365)"/>
<path d="M0 0 C0.99 0.99 1.98 1.98 3 3 C1.68 3.99 0.36 4.98 -1 6 C-2.32 5.34 -3.64 4.68 -5 4 C-5 3.34 -5 2.68 -5 2 C-3.35 1.34 -1.7 0.68 0 0 Z " fill="#0E0F11" transform="translate(366,274)"/>
<path d="M0 0 C0.66 0 1.32 0 2 0 C3.32 2.31 4.64 4.62 6 7 C5.01 7.33 4.02 7.66 3 8 C3 7.34 3 6.68 3 6 C2.34 6 1.68 6 1 6 C0.67 4.02 0.34 2.04 0 0 Z " fill="#0F0F11" transform="translate(355,260)"/>
<path d="M0 0 C1.32 1.32 2.64 2.64 4 4 C3.01 5.485 3.01 5.485 2 7 C-1 6 -1 6 -2.1875 3.9375 C-2.5896875 2.9784375 -2.5896875 2.9784375 -3 2 C-2.01 1.34 -1.02 0.68 0 0 Z " fill="#0D0E10" transform="translate(282,121)"/>
<path d="M0 0 C0 0.99 0 1.98 0 3 C0.66 3.33 1.32 3.66 2 4 C-1 5 -1 5 -4 4 C-4.99 4 -5.98 4 -7 4 C-3.375 0 -3.375 0 0 0 Z " fill="#090A0B" transform="translate(245,331)"/>
<path d="M0 0 C1.65 1.65 3.3 3.3 5 5 C4.34 5.66 3.68 6.32 3 7 C0 6 0 6 -1.1875 3.9375 C-1.5896875 2.9784375 -1.5896875 2.9784375 -2 2 C-1.34 2 -0.68 2 0 2 C0 1.34 0 0.68 0 0 Z " fill="#161719" transform="translate(227,177)"/>
<path d="M0 0 C0.33 0 0.66 0 1 0 C0.67 2.31 0.34 4.62 0 7 C-1.65 5.35 -3.3 3.7 -5 2 C-4.360625 1.855625 -3.72125 1.71125 -3.0625 1.5625 C-1.02454854 1.18992819 -1.02454854 1.18992819 0 0 Z " fill="#111214" transform="translate(229,138)"/>
<path d="M0 0 C0.99 0.33 1.98 0.66 3 1 C1.68 3.64 0.36 6.28 -1 9 C-1.33 9 -1.66 9 -2 9 C-1.125 2.25 -1.125 2.25 0 0 Z " fill="#181818" transform="translate(531,433)"/>
<path d="M0 0 C0.33 0.66 0.66 1.32 1 2 C1.66 2.33 2.32 2.66 3 3 C-2.625 6 -2.625 6 -6 6 C-4.02 4.02 -2.04 2.04 0 0 Z " fill="#18181A" transform="translate(227,347)"/>
<path d="M0 0 C0.99 0.66 1.98 1.32 3 2 C2.34 2 1.68 2 1 2 C0.34 3.32 -0.32 4.64 -1 6 C-1.99 6 -2.98 6 -4 6 C-2.84826645 3.53199953 -1.95216435 1.95216435 0 0 Z " fill="#141517" transform="translate(263,308)"/>
<path d="M0 0 C0 1.65 0 3.3 0 5 C-0.66 5 -1.32 5 -2 5 C-2.33 5.99 -2.66 6.98 -3 8 C-3.66 6.68 -4.32 5.36 -5 4 C-1.125 0 -1.125 0 0 0 Z " fill="#0F1012" transform="translate(350,296)"/>
<path d="M0 0 C0.33 0 0.66 0 1 0 C1.33 3.3 1.66 6.6 2 10 C0.68 9.34 -0.64 8.68 -2 8 C-1.34 5.36 -0.68 2.72 0 0 Z " fill="#1D1D1F" transform="translate(538,55)"/>
<path d="M0 0 C1.98 0 3.96 0 6 0 C6 0.99 6 1.98 6 3 C5.01 3.66 4.02 4.32 3 5 C3 4.01 3 3.02 3 2 C2.01 2 1.02 2 0 2 C0 1.34 0 0.68 0 0 Z " fill="#0D0E10" transform="translate(193,346)"/>
<path d="M0 0 C0.66 0.99 1.32 1.98 2 3 C0.02 4.32 -1.96 5.64 -4 7 C-4.66 6.67 -5.32 6.34 -6 6 C-4.02 4.02 -2.04 2.04 0 0 Z " fill="#131416" transform="translate(253,319)"/>
<path d="M0 0 C4 1 4 1 5.8125 3.9375 C6.204375 4.948125 6.59625 5.95875 7 7 C6.67 7.66 6.34 8.32 6 9 C4.02 6.03 2.04 3.06 0 0 Z " fill="#161618" transform="translate(272,203)"/>
<path d="M0 0 C1.32 1.32 2.64 2.64 4 4 C1 5 1 5 -1.1875 4.0625 C-1.785625 3.711875 -2.38375 3.36125 -3 3 C-2 1 -2 1 0 0 Z " fill="#0A0B0D" transform="translate(237,191)"/>
<path d="M0 0 C1.875 0.3125 1.875 0.3125 4 1 C4.66 1.99 5.32 2.98 6 4 C2.25 5.125 2.25 5.125 0 4 C0 2.68 0 1.36 0 0 Z " fill="#121314" transform="translate(220,171)"/>
<path d="M0 0 C1.9375 0.8125 1.9375 0.8125 4 2 C4.33 2.99 4.66 3.98 5 5 C3.35 5 1.7 5 0 5 C-0.33 4.01 -0.66 3.02 -1 2 C-0.67 1.34 -0.34 0.68 0 0 Z " fill="#151618" transform="translate(178,113)"/>
<path d="M0 0 C2 3 2 3 1.625 5.1875 C1.41875 5.785625 1.2125 6.38375 1 7 C-0.32 5.68 -1.64 4.36 -3 3 C-2.01 2.01 -1.02 1.02 0 0 Z " fill="#0F1012" transform="translate(469,371)"/>
<path d="M0 0 C1.32 1.32 2.64 2.64 4 4 C0.25 5.125 0.25 5.125 -2 4 C-1 1 -1 1 0 0 Z " fill="#161719" transform="translate(334,320)"/>
<path d="M0 0 C0 3 0 3 0 3 Z M-2 3 C-1.34 3.33 -0.68 3.66 0 4 C-0.33 5.32 -0.66 6.64 -1 8 C-1.99 7.67 -2.98 7.34 -4 7 C-3.34 5.68 -2.68 4.36 -2 3 Z " fill="#101012" transform="translate(359,204)"/>
<path d="M0 0 C1.32 0.66 2.64 1.32 4 2 C3.01 2.99 2.02 3.98 1 5 C0.01 4.67 -0.98 4.34 -2 4 C-1.34 2.68 -0.68 1.36 0 0 Z " fill="#0A0B0D" transform="translate(299,186)"/>
</svg>
